G04 #@! TF.GenerationSoftware,KiCad,Pcbnew,(5.1.4-0-10_14)*
G04 #@! TF.CreationDate,2020-01-20T11:10:59-05:00*
G04 #@! TF.ProjectId,motor_controller,6d6f746f-725f-4636-9f6e-74726f6c6c65,rev?*
G04 #@! TF.SameCoordinates,Original*
G04 #@! TF.FileFunction,Copper,L2,Bot*
G04 #@! TF.FilePolarity,Positive*
%FSLAX46Y46*%
G04 Gerber Fmt 4.6, Leading zero omitted, Abs format (unit mm)*
G04 Created by KiCad (PCBNEW (5.1.4-0-10_14)) date 2020-01-20 11:10:59*
%MOMM*%
%LPD*%
G04 APERTURE LIST*
%ADD10O,1.700000X1.700000*%
%ADD11R,1.700000X1.700000*%
%ADD12O,1.600000X1.600000*%
%ADD13R,1.600000X1.600000*%
%ADD14R,2.600000X2.600000*%
%ADD15C,2.600000*%
%ADD16C,0.508000*%
%ADD17C,0.685800*%
%ADD18C,0.254000*%
G04 APERTURE END LIST*
D10*
X172440600Y-81330800D03*
X169900600Y-81330800D03*
X167360600Y-81330800D03*
X164820600Y-81330800D03*
X162280600Y-81330800D03*
D11*
X159740600Y-81330800D03*
X159766000Y-98272600D03*
D10*
X162306000Y-98272600D03*
X164846000Y-98272600D03*
X167386000Y-98272600D03*
X169926000Y-98272600D03*
X172466000Y-98272600D03*
D12*
X140233001Y-62759001D03*
X142773001Y-62759001D03*
D13*
X149373001Y-111019001D03*
D12*
X179853001Y-62759001D03*
X151913001Y-111019001D03*
X177313001Y-62759001D03*
X154453001Y-111019001D03*
X174773001Y-62759001D03*
X156993001Y-111019001D03*
X172233001Y-62759001D03*
X159533001Y-111019001D03*
X169693001Y-62759001D03*
X162073001Y-111019001D03*
X167153001Y-62759001D03*
X164613001Y-111019001D03*
X163093001Y-62759001D03*
X167153001Y-111019001D03*
X160553001Y-62759001D03*
X172233001Y-111019001D03*
X158013001Y-62759001D03*
X174773001Y-111019001D03*
X155473001Y-62759001D03*
X177313001Y-111019001D03*
X152933001Y-62759001D03*
X179853001Y-111019001D03*
X150393001Y-62759001D03*
X182393001Y-111019001D03*
X147853001Y-62759001D03*
X184933001Y-111019001D03*
X145313001Y-62759001D03*
X184933001Y-62759001D03*
X182393001Y-62759001D03*
D11*
X149352000Y-107696000D03*
D10*
X151892000Y-107696000D03*
X154432000Y-107696000D03*
X156972000Y-107696000D03*
X159512000Y-107696000D03*
X162052000Y-107696000D03*
X164592000Y-107696000D03*
X167132000Y-107696000D03*
D11*
X172212000Y-107696000D03*
D10*
X174752000Y-107696000D03*
X177292000Y-107696000D03*
X179832000Y-107696000D03*
X182372000Y-107696000D03*
X184912000Y-107696000D03*
D11*
X140208000Y-66294000D03*
D10*
X142748000Y-66294000D03*
X145288000Y-66294000D03*
X147828000Y-66294000D03*
X150368000Y-66294000D03*
X152908000Y-66294000D03*
X155448000Y-66294000D03*
X157988000Y-66294000D03*
X160528000Y-66294000D03*
X163068000Y-66294000D03*
X184912000Y-66294000D03*
X182372000Y-66294000D03*
X179832000Y-66294000D03*
X177292000Y-66294000D03*
X174752000Y-66294000D03*
X172212000Y-66294000D03*
X169672000Y-66294000D03*
D11*
X167132000Y-66294000D03*
X185293000Y-86106000D03*
D10*
X185293000Y-88646000D03*
X185293000Y-91186000D03*
X185293000Y-93726000D03*
X185293000Y-96266000D03*
X185293000Y-98806000D03*
D14*
X131318000Y-88392000D03*
D15*
X125318000Y-88392000D03*
X128318000Y-93092000D03*
D16*
X148259800Y-98602800D03*
X148285200Y-97790000D03*
X147701000Y-98602800D03*
X146989800Y-98602800D03*
X146989800Y-97815400D03*
X147675600Y-97815400D03*
X148869400Y-97790000D03*
X148869400Y-98602800D03*
X146380200Y-97815400D03*
X146380200Y-98602800D03*
X145796000Y-97840800D03*
X145770600Y-98602800D03*
X147701000Y-81178400D03*
X148285200Y-81965800D03*
X146405600Y-81178400D03*
X147015200Y-81178400D03*
X148894800Y-81153000D03*
X148894800Y-81965800D03*
X148310600Y-81153000D03*
X147726400Y-81965800D03*
X146405600Y-81965800D03*
X145796000Y-81965800D03*
X145821400Y-81203800D03*
X147015200Y-81965800D03*
D17*
X145338800Y-95859600D03*
X147320000Y-93218000D03*
X144551400Y-96545400D03*
X146177000Y-92837000D03*
X145592800Y-79222600D03*
X147320000Y-76581000D03*
X144856200Y-79933800D03*
X145542000Y-76073000D03*
X145542000Y-83185000D03*
X145288000Y-86106000D03*
X145542000Y-99822000D03*
X144399000Y-102489000D03*
D18*
X145338800Y-95199200D02*
X147320000Y-93218000D01*
X145338800Y-95859600D02*
X145338800Y-95199200D01*
X144551400Y-96060467D02*
X144526000Y-96035067D01*
X144551400Y-96545400D02*
X144551400Y-96060467D01*
X144526000Y-94488000D02*
X146177000Y-92837000D01*
X144526000Y-96035067D02*
X144526000Y-94488000D01*
X145592800Y-78308200D02*
X147320000Y-76581000D01*
X145592800Y-79222600D02*
X145592800Y-78308200D01*
X144856200Y-79933800D02*
X144856200Y-77393800D01*
X144856200Y-76758800D02*
X145542000Y-76073000D01*
X144856200Y-77393800D02*
X144856200Y-76758800D01*
X145542000Y-85852000D02*
X145288000Y-86106000D01*
X145542000Y-83185000D02*
X145542000Y-85852000D01*
X144399000Y-100965000D02*
X144399000Y-102489000D01*
X145542000Y-99822000D02*
X144399000Y-100965000D01*
G36*
X189382401Y-112928400D02*
G01*
X122021600Y-112928400D01*
X122021600Y-110219001D01*
X147934929Y-110219001D01*
X147934929Y-111819001D01*
X147947189Y-111943483D01*
X147983499Y-112063181D01*
X148042464Y-112173495D01*
X148121816Y-112270186D01*
X148218507Y-112349538D01*
X148328821Y-112408503D01*
X148448519Y-112444813D01*
X148573001Y-112457073D01*
X150173001Y-112457073D01*
X150297483Y-112444813D01*
X150417181Y-112408503D01*
X150527495Y-112349538D01*
X150624186Y-112270186D01*
X150703538Y-112173495D01*
X150762503Y-112063181D01*
X150798813Y-111943483D01*
X150800582Y-111925519D01*
X150893393Y-112038609D01*
X151111900Y-112217933D01*
X151361193Y-112351183D01*
X151631692Y-112433237D01*
X151842509Y-112454001D01*
X151983493Y-112454001D01*
X152194310Y-112433237D01*
X152464809Y-112351183D01*
X152714102Y-112217933D01*
X152932609Y-112038609D01*
X153111933Y-111820102D01*
X153183001Y-111687143D01*
X153254069Y-111820102D01*
X153433393Y-112038609D01*
X153651900Y-112217933D01*
X153901193Y-112351183D01*
X154171692Y-112433237D01*
X154382509Y-112454001D01*
X154523493Y-112454001D01*
X154734310Y-112433237D01*
X155004809Y-112351183D01*
X155254102Y-112217933D01*
X155472609Y-112038609D01*
X155651933Y-111820102D01*
X155723001Y-111687143D01*
X155794069Y-111820102D01*
X155973393Y-112038609D01*
X156191900Y-112217933D01*
X156441193Y-112351183D01*
X156711692Y-112433237D01*
X156922509Y-112454001D01*
X157063493Y-112454001D01*
X157274310Y-112433237D01*
X157544809Y-112351183D01*
X157794102Y-112217933D01*
X158012609Y-112038609D01*
X158191933Y-111820102D01*
X158263001Y-111687143D01*
X158334069Y-111820102D01*
X158513393Y-112038609D01*
X158731900Y-112217933D01*
X158981193Y-112351183D01*
X159251692Y-112433237D01*
X159462509Y-112454001D01*
X159603493Y-112454001D01*
X159814310Y-112433237D01*
X160084809Y-112351183D01*
X160334102Y-112217933D01*
X160552609Y-112038609D01*
X160731933Y-111820102D01*
X160805580Y-111682319D01*
X160920616Y-111874132D01*
X161109587Y-112082520D01*
X161335581Y-112250038D01*
X161589914Y-112370247D01*
X161723962Y-112410905D01*
X161946001Y-112288916D01*
X161946001Y-111146001D01*
X162200001Y-111146001D01*
X162200001Y-112288916D01*
X162422040Y-112410905D01*
X162556088Y-112370247D01*
X162810421Y-112250038D01*
X163036415Y-112082520D01*
X163225386Y-111874132D01*
X163343001Y-111678019D01*
X163460616Y-111874132D01*
X163649587Y-112082520D01*
X163875581Y-112250038D01*
X164129914Y-112370247D01*
X164263962Y-112410905D01*
X164486001Y-112288916D01*
X164486001Y-111146001D01*
X162200001Y-111146001D01*
X161946001Y-111146001D01*
X161926001Y-111146001D01*
X161926001Y-110892001D01*
X161946001Y-110892001D01*
X161946001Y-109749086D01*
X162200001Y-109749086D01*
X162200001Y-110892001D01*
X164486001Y-110892001D01*
X164486001Y-109749086D01*
X164740001Y-109749086D01*
X164740001Y-110892001D01*
X164760001Y-110892001D01*
X164760001Y-111146001D01*
X164740001Y-111146001D01*
X164740001Y-112288916D01*
X164962040Y-112410905D01*
X165096088Y-112370247D01*
X165350421Y-112250038D01*
X165576415Y-112082520D01*
X165765386Y-111874132D01*
X165880422Y-111682319D01*
X165954069Y-111820102D01*
X166133393Y-112038609D01*
X166351900Y-112217933D01*
X166601193Y-112351183D01*
X166871692Y-112433237D01*
X167082509Y-112454001D01*
X167223493Y-112454001D01*
X167434310Y-112433237D01*
X167704809Y-112351183D01*
X167954102Y-112217933D01*
X168172609Y-112038609D01*
X168351933Y-111820102D01*
X168485183Y-111570809D01*
X168567237Y-111300310D01*
X168594944Y-111019001D01*
X170791058Y-111019001D01*
X170818765Y-111300310D01*
X170900819Y-111570809D01*
X171034069Y-111820102D01*
X171213393Y-112038609D01*
X171431900Y-112217933D01*
X171681193Y-112351183D01*
X171951692Y-112433237D01*
X172162509Y-112454001D01*
X172303493Y-112454001D01*
X172514310Y-112433237D01*
X172784809Y-112351183D01*
X173034102Y-112217933D01*
X173252609Y-112038609D01*
X173431933Y-111820102D01*
X173503001Y-111687143D01*
X173574069Y-111820102D01*
X173753393Y-112038609D01*
X173971900Y-112217933D01*
X174221193Y-112351183D01*
X174491692Y-112433237D01*
X174702509Y-112454001D01*
X174843493Y-112454001D01*
X175054310Y-112433237D01*
X175324809Y-112351183D01*
X175574102Y-112217933D01*
X175792609Y-112038609D01*
X175971933Y-111820102D01*
X176043001Y-111687143D01*
X176114069Y-111820102D01*
X176293393Y-112038609D01*
X176511900Y-112217933D01*
X176761193Y-112351183D01*
X177031692Y-112433237D01*
X177242509Y-112454001D01*
X177383493Y-112454001D01*
X177594310Y-112433237D01*
X177864809Y-112351183D01*
X178114102Y-112217933D01*
X178332609Y-112038609D01*
X178511933Y-111820102D01*
X178583001Y-111687143D01*
X178654069Y-111820102D01*
X178833393Y-112038609D01*
X179051900Y-112217933D01*
X179301193Y-112351183D01*
X179571692Y-112433237D01*
X179782509Y-112454001D01*
X179923493Y-112454001D01*
X180134310Y-112433237D01*
X180404809Y-112351183D01*
X180654102Y-112217933D01*
X180872609Y-112038609D01*
X181051933Y-111820102D01*
X181123001Y-111687143D01*
X181194069Y-111820102D01*
X181373393Y-112038609D01*
X181591900Y-112217933D01*
X181841193Y-112351183D01*
X182111692Y-112433237D01*
X182322509Y-112454001D01*
X182463493Y-112454001D01*
X182674310Y-112433237D01*
X182944809Y-112351183D01*
X183194102Y-112217933D01*
X183412609Y-112038609D01*
X183591933Y-111820102D01*
X183663001Y-111687143D01*
X183734069Y-111820102D01*
X183913393Y-112038609D01*
X184131900Y-112217933D01*
X184381193Y-112351183D01*
X184651692Y-112433237D01*
X184862509Y-112454001D01*
X185003493Y-112454001D01*
X185214310Y-112433237D01*
X185484809Y-112351183D01*
X185734102Y-112217933D01*
X185952609Y-112038609D01*
X186131933Y-111820102D01*
X186265183Y-111570809D01*
X186347237Y-111300310D01*
X186374944Y-111019001D01*
X186347237Y-110737692D01*
X186265183Y-110467193D01*
X186131933Y-110217900D01*
X185952609Y-109999393D01*
X185734102Y-109820069D01*
X185484809Y-109686819D01*
X185214310Y-109604765D01*
X185003493Y-109584001D01*
X184862509Y-109584001D01*
X184651692Y-109604765D01*
X184381193Y-109686819D01*
X184131900Y-109820069D01*
X183913393Y-109999393D01*
X183734069Y-110217900D01*
X183663001Y-110350859D01*
X183591933Y-110217900D01*
X183412609Y-109999393D01*
X183194102Y-109820069D01*
X182944809Y-109686819D01*
X182674310Y-109604765D01*
X182463493Y-109584001D01*
X182322509Y-109584001D01*
X182111692Y-109604765D01*
X181841193Y-109686819D01*
X181591900Y-109820069D01*
X181373393Y-109999393D01*
X181194069Y-110217900D01*
X181123001Y-110350859D01*
X181051933Y-110217900D01*
X180872609Y-109999393D01*
X180654102Y-109820069D01*
X180404809Y-109686819D01*
X180134310Y-109604765D01*
X179923493Y-109584001D01*
X179782509Y-109584001D01*
X179571692Y-109604765D01*
X179301193Y-109686819D01*
X179051900Y-109820069D01*
X178833393Y-109999393D01*
X178654069Y-110217900D01*
X178583001Y-110350859D01*
X178511933Y-110217900D01*
X178332609Y-109999393D01*
X178114102Y-109820069D01*
X177864809Y-109686819D01*
X177594310Y-109604765D01*
X177383493Y-109584001D01*
X177242509Y-109584001D01*
X177031692Y-109604765D01*
X176761193Y-109686819D01*
X176511900Y-109820069D01*
X176293393Y-109999393D01*
X176114069Y-110217900D01*
X176043001Y-110350859D01*
X175971933Y-110217900D01*
X175792609Y-109999393D01*
X175574102Y-109820069D01*
X175324809Y-109686819D01*
X175054310Y-109604765D01*
X174843493Y-109584001D01*
X174702509Y-109584001D01*
X174491692Y-109604765D01*
X174221193Y-109686819D01*
X173971900Y-109820069D01*
X173753393Y-109999393D01*
X173574069Y-110217900D01*
X173503001Y-110350859D01*
X173431933Y-110217900D01*
X173252609Y-109999393D01*
X173034102Y-109820069D01*
X172784809Y-109686819D01*
X172514310Y-109604765D01*
X172303493Y-109584001D01*
X172162509Y-109584001D01*
X171951692Y-109604765D01*
X171681193Y-109686819D01*
X171431900Y-109820069D01*
X171213393Y-109999393D01*
X171034069Y-110217900D01*
X170900819Y-110467193D01*
X170818765Y-110737692D01*
X170791058Y-111019001D01*
X168594944Y-111019001D01*
X168567237Y-110737692D01*
X168485183Y-110467193D01*
X168351933Y-110217900D01*
X168172609Y-109999393D01*
X167954102Y-109820069D01*
X167704809Y-109686819D01*
X167434310Y-109604765D01*
X167223493Y-109584001D01*
X167082509Y-109584001D01*
X166871692Y-109604765D01*
X166601193Y-109686819D01*
X166351900Y-109820069D01*
X166133393Y-109999393D01*
X165954069Y-110217900D01*
X165880422Y-110355683D01*
X165765386Y-110163870D01*
X165576415Y-109955482D01*
X165350421Y-109787964D01*
X165096088Y-109667755D01*
X164962040Y-109627097D01*
X164740001Y-109749086D01*
X164486001Y-109749086D01*
X164263962Y-109627097D01*
X164129914Y-109667755D01*
X163875581Y-109787964D01*
X163649587Y-109955482D01*
X163460616Y-110163870D01*
X163343001Y-110359983D01*
X163225386Y-110163870D01*
X163036415Y-109955482D01*
X162810421Y-109787964D01*
X162556088Y-109667755D01*
X162422040Y-109627097D01*
X162200001Y-109749086D01*
X161946001Y-109749086D01*
X161723962Y-109627097D01*
X161589914Y-109667755D01*
X161335581Y-109787964D01*
X161109587Y-109955482D01*
X160920616Y-110163870D01*
X160805580Y-110355683D01*
X160731933Y-110217900D01*
X160552609Y-109999393D01*
X160334102Y-109820069D01*
X160084809Y-109686819D01*
X159814310Y-109604765D01*
X159603493Y-109584001D01*
X159462509Y-109584001D01*
X159251692Y-109604765D01*
X158981193Y-109686819D01*
X158731900Y-109820069D01*
X158513393Y-109999393D01*
X158334069Y-110217900D01*
X158263001Y-110350859D01*
X158191933Y-110217900D01*
X158012609Y-109999393D01*
X157794102Y-109820069D01*
X157544809Y-109686819D01*
X157274310Y-109604765D01*
X157063493Y-109584001D01*
X156922509Y-109584001D01*
X156711692Y-109604765D01*
X156441193Y-109686819D01*
X156191900Y-109820069D01*
X155973393Y-109999393D01*
X155794069Y-110217900D01*
X155723001Y-110350859D01*
X155651933Y-110217900D01*
X155472609Y-109999393D01*
X155254102Y-109820069D01*
X155004809Y-109686819D01*
X154734310Y-109604765D01*
X154523493Y-109584001D01*
X154382509Y-109584001D01*
X154171692Y-109604765D01*
X153901193Y-109686819D01*
X153651900Y-109820069D01*
X153433393Y-109999393D01*
X153254069Y-110217900D01*
X153183001Y-110350859D01*
X153111933Y-110217900D01*
X152932609Y-109999393D01*
X152714102Y-109820069D01*
X152464809Y-109686819D01*
X152194310Y-109604765D01*
X151983493Y-109584001D01*
X151842509Y-109584001D01*
X151631692Y-109604765D01*
X151361193Y-109686819D01*
X151111900Y-109820069D01*
X150893393Y-109999393D01*
X150800582Y-110112483D01*
X150798813Y-110094519D01*
X150762503Y-109974821D01*
X150703538Y-109864507D01*
X150624186Y-109767816D01*
X150527495Y-109688464D01*
X150417181Y-109629499D01*
X150297483Y-109593189D01*
X150173001Y-109580929D01*
X148573001Y-109580929D01*
X148448519Y-109593189D01*
X148328821Y-109629499D01*
X148218507Y-109688464D01*
X148121816Y-109767816D01*
X148042464Y-109864507D01*
X147983499Y-109974821D01*
X147947189Y-110094519D01*
X147934929Y-110219001D01*
X122021600Y-110219001D01*
X122021600Y-106846000D01*
X147863928Y-106846000D01*
X147863928Y-108546000D01*
X147876188Y-108670482D01*
X147912498Y-108790180D01*
X147971463Y-108900494D01*
X148050815Y-108997185D01*
X148147506Y-109076537D01*
X148257820Y-109135502D01*
X148377518Y-109171812D01*
X148502000Y-109184072D01*
X150202000Y-109184072D01*
X150326482Y-109171812D01*
X150446180Y-109135502D01*
X150556494Y-109076537D01*
X150653185Y-108997185D01*
X150732537Y-108900494D01*
X150791502Y-108790180D01*
X150812393Y-108721313D01*
X150836866Y-108751134D01*
X151062986Y-108936706D01*
X151320966Y-109074599D01*
X151600889Y-109159513D01*
X151819050Y-109181000D01*
X151964950Y-109181000D01*
X152183111Y-109159513D01*
X152463034Y-109074599D01*
X152721014Y-108936706D01*
X152947134Y-108751134D01*
X153132706Y-108525014D01*
X153162000Y-108470209D01*
X153191294Y-108525014D01*
X153376866Y-108751134D01*
X153602986Y-108936706D01*
X153860966Y-109074599D01*
X154140889Y-109159513D01*
X154359050Y-109181000D01*
X154504950Y-109181000D01*
X154723111Y-109159513D01*
X155003034Y-109074599D01*
X155261014Y-108936706D01*
X155487134Y-108751134D01*
X155672706Y-108525014D01*
X155702000Y-108470209D01*
X155731294Y-108525014D01*
X155916866Y-108751134D01*
X156142986Y-108936706D01*
X156400966Y-109074599D01*
X156680889Y-109159513D01*
X156899050Y-109181000D01*
X157044950Y-109181000D01*
X157263111Y-109159513D01*
X157543034Y-109074599D01*
X157801014Y-108936706D01*
X158027134Y-108751134D01*
X158212706Y-108525014D01*
X158242000Y-108470209D01*
X158271294Y-108525014D01*
X158456866Y-108751134D01*
X158682986Y-108936706D01*
X158940966Y-109074599D01*
X159220889Y-109159513D01*
X159439050Y-109181000D01*
X159584950Y-109181000D01*
X159803111Y-109159513D01*
X160083034Y-109074599D01*
X160341014Y-108936706D01*
X160567134Y-108751134D01*
X160752706Y-108525014D01*
X160787201Y-108460477D01*
X160856822Y-108577355D01*
X161051731Y-108793588D01*
X161285080Y-108967641D01*
X161547901Y-109092825D01*
X161695110Y-109137476D01*
X161925000Y-109016155D01*
X161925000Y-107823000D01*
X162179000Y-107823000D01*
X162179000Y-109016155D01*
X162408890Y-109137476D01*
X162556099Y-109092825D01*
X162818920Y-108967641D01*
X163052269Y-108793588D01*
X163247178Y-108577355D01*
X163322000Y-108451745D01*
X163396822Y-108577355D01*
X163591731Y-108793588D01*
X163825080Y-108967641D01*
X164087901Y-109092825D01*
X164235110Y-109137476D01*
X164465000Y-109016155D01*
X164465000Y-107823000D01*
X162179000Y-107823000D01*
X161925000Y-107823000D01*
X161905000Y-107823000D01*
X161905000Y-107569000D01*
X161925000Y-107569000D01*
X161925000Y-106375845D01*
X162179000Y-106375845D01*
X162179000Y-107569000D01*
X164465000Y-107569000D01*
X164465000Y-106375845D01*
X164719000Y-106375845D01*
X164719000Y-107569000D01*
X164739000Y-107569000D01*
X164739000Y-107823000D01*
X164719000Y-107823000D01*
X164719000Y-109016155D01*
X164948890Y-109137476D01*
X165096099Y-109092825D01*
X165358920Y-108967641D01*
X165592269Y-108793588D01*
X165787178Y-108577355D01*
X165856799Y-108460477D01*
X165891294Y-108525014D01*
X166076866Y-108751134D01*
X166302986Y-108936706D01*
X166560966Y-109074599D01*
X166840889Y-109159513D01*
X167059050Y-109181000D01*
X167204950Y-109181000D01*
X167423111Y-109159513D01*
X167703034Y-109074599D01*
X167961014Y-108936706D01*
X168187134Y-108751134D01*
X168372706Y-108525014D01*
X168510599Y-108267034D01*
X168595513Y-107987111D01*
X168624185Y-107696000D01*
X168595513Y-107404889D01*
X168510599Y-107124966D01*
X168372706Y-106866986D01*
X168355484Y-106846000D01*
X170723928Y-106846000D01*
X170723928Y-108546000D01*
X170736188Y-108670482D01*
X170772498Y-108790180D01*
X170831463Y-108900494D01*
X170910815Y-108997185D01*
X171007506Y-109076537D01*
X171117820Y-109135502D01*
X171237518Y-109171812D01*
X171362000Y-109184072D01*
X173062000Y-109184072D01*
X173186482Y-109171812D01*
X173306180Y-109135502D01*
X173416494Y-109076537D01*
X173513185Y-108997185D01*
X173592537Y-108900494D01*
X173651502Y-108790180D01*
X173672393Y-108721313D01*
X173696866Y-108751134D01*
X173922986Y-108936706D01*
X174180966Y-109074599D01*
X174460889Y-109159513D01*
X174679050Y-109181000D01*
X174824950Y-109181000D01*
X175043111Y-109159513D01*
X175323034Y-109074599D01*
X175581014Y-108936706D01*
X175807134Y-108751134D01*
X175992706Y-108525014D01*
X176022000Y-108470209D01*
X176051294Y-108525014D01*
X176236866Y-108751134D01*
X176462986Y-108936706D01*
X176720966Y-109074599D01*
X177000889Y-109159513D01*
X177219050Y-109181000D01*
X177364950Y-109181000D01*
X177583111Y-109159513D01*
X177863034Y-109074599D01*
X178121014Y-108936706D01*
X178347134Y-108751134D01*
X178532706Y-108525014D01*
X178562000Y-108470209D01*
X178591294Y-108525014D01*
X178776866Y-108751134D01*
X179002986Y-108936706D01*
X179260966Y-109074599D01*
X179540889Y-109159513D01*
X179759050Y-109181000D01*
X179904950Y-109181000D01*
X180123111Y-109159513D01*
X180403034Y-109074599D01*
X180661014Y-108936706D01*
X180887134Y-108751134D01*
X181072706Y-108525014D01*
X181102000Y-108470209D01*
X181131294Y-108525014D01*
X181316866Y-108751134D01*
X181542986Y-108936706D01*
X181800966Y-109074599D01*
X182080889Y-109159513D01*
X182299050Y-109181000D01*
X182444950Y-109181000D01*
X182663111Y-109159513D01*
X182943034Y-109074599D01*
X183201014Y-108936706D01*
X183427134Y-108751134D01*
X183612706Y-108525014D01*
X183642000Y-108470209D01*
X183671294Y-108525014D01*
X183856866Y-108751134D01*
X184082986Y-108936706D01*
X184340966Y-109074599D01*
X184620889Y-109159513D01*
X184839050Y-109181000D01*
X184984950Y-109181000D01*
X185203111Y-109159513D01*
X185483034Y-109074599D01*
X185741014Y-108936706D01*
X185967134Y-108751134D01*
X186152706Y-108525014D01*
X186290599Y-108267034D01*
X186375513Y-107987111D01*
X186404185Y-107696000D01*
X186375513Y-107404889D01*
X186290599Y-107124966D01*
X186152706Y-106866986D01*
X185967134Y-106640866D01*
X185741014Y-106455294D01*
X185483034Y-106317401D01*
X185203111Y-106232487D01*
X184984950Y-106211000D01*
X184839050Y-106211000D01*
X184620889Y-106232487D01*
X184340966Y-106317401D01*
X184082986Y-106455294D01*
X183856866Y-106640866D01*
X183671294Y-106866986D01*
X183642000Y-106921791D01*
X183612706Y-106866986D01*
X183427134Y-106640866D01*
X183201014Y-106455294D01*
X182943034Y-106317401D01*
X182663111Y-106232487D01*
X182444950Y-106211000D01*
X182299050Y-106211000D01*
X182080889Y-106232487D01*
X181800966Y-106317401D01*
X181542986Y-106455294D01*
X181316866Y-106640866D01*
X181131294Y-106866986D01*
X181102000Y-106921791D01*
X181072706Y-106866986D01*
X180887134Y-106640866D01*
X180661014Y-106455294D01*
X180403034Y-106317401D01*
X180123111Y-106232487D01*
X179904950Y-106211000D01*
X179759050Y-106211000D01*
X179540889Y-106232487D01*
X179260966Y-106317401D01*
X179002986Y-106455294D01*
X178776866Y-106640866D01*
X178591294Y-106866986D01*
X178562000Y-106921791D01*
X178532706Y-106866986D01*
X178347134Y-106640866D01*
X178121014Y-106455294D01*
X177863034Y-106317401D01*
X177583111Y-106232487D01*
X177364950Y-106211000D01*
X177219050Y-106211000D01*
X177000889Y-106232487D01*
X176720966Y-106317401D01*
X176462986Y-106455294D01*
X176236866Y-106640866D01*
X176051294Y-106866986D01*
X176022000Y-106921791D01*
X175992706Y-106866986D01*
X175807134Y-106640866D01*
X175581014Y-106455294D01*
X175323034Y-106317401D01*
X175043111Y-106232487D01*
X174824950Y-106211000D01*
X174679050Y-106211000D01*
X174460889Y-106232487D01*
X174180966Y-106317401D01*
X173922986Y-106455294D01*
X173696866Y-106640866D01*
X173672393Y-106670687D01*
X173651502Y-106601820D01*
X173592537Y-106491506D01*
X173513185Y-106394815D01*
X173416494Y-106315463D01*
X173306180Y-106256498D01*
X173186482Y-106220188D01*
X173062000Y-106207928D01*
X171362000Y-106207928D01*
X171237518Y-106220188D01*
X171117820Y-106256498D01*
X171007506Y-106315463D01*
X170910815Y-106394815D01*
X170831463Y-106491506D01*
X170772498Y-106601820D01*
X170736188Y-106721518D01*
X170723928Y-106846000D01*
X168355484Y-106846000D01*
X168187134Y-106640866D01*
X167961014Y-106455294D01*
X167703034Y-106317401D01*
X167423111Y-106232487D01*
X167204950Y-106211000D01*
X167059050Y-106211000D01*
X166840889Y-106232487D01*
X166560966Y-106317401D01*
X166302986Y-106455294D01*
X166076866Y-106640866D01*
X165891294Y-106866986D01*
X165856799Y-106931523D01*
X165787178Y-106814645D01*
X165592269Y-106598412D01*
X165358920Y-106424359D01*
X165096099Y-106299175D01*
X164948890Y-106254524D01*
X164719000Y-106375845D01*
X164465000Y-106375845D01*
X164235110Y-106254524D01*
X164087901Y-106299175D01*
X163825080Y-106424359D01*
X163591731Y-106598412D01*
X163396822Y-106814645D01*
X163322000Y-106940255D01*
X163247178Y-106814645D01*
X163052269Y-106598412D01*
X162818920Y-106424359D01*
X162556099Y-106299175D01*
X162408890Y-106254524D01*
X162179000Y-106375845D01*
X161925000Y-106375845D01*
X161695110Y-106254524D01*
X161547901Y-106299175D01*
X161285080Y-106424359D01*
X161051731Y-106598412D01*
X160856822Y-106814645D01*
X160787201Y-106931523D01*
X160752706Y-106866986D01*
X160567134Y-106640866D01*
X160341014Y-106455294D01*
X160083034Y-106317401D01*
X159803111Y-106232487D01*
X159584950Y-106211000D01*
X159439050Y-106211000D01*
X159220889Y-106232487D01*
X158940966Y-106317401D01*
X158682986Y-106455294D01*
X158456866Y-106640866D01*
X158271294Y-106866986D01*
X158242000Y-106921791D01*
X158212706Y-106866986D01*
X158027134Y-106640866D01*
X157801014Y-106455294D01*
X157543034Y-106317401D01*
X157263111Y-106232487D01*
X157044950Y-106211000D01*
X156899050Y-106211000D01*
X156680889Y-106232487D01*
X156400966Y-106317401D01*
X156142986Y-106455294D01*
X155916866Y-106640866D01*
X155731294Y-106866986D01*
X155702000Y-106921791D01*
X155672706Y-106866986D01*
X155487134Y-106640866D01*
X155261014Y-106455294D01*
X155003034Y-106317401D01*
X154723111Y-106232487D01*
X154504950Y-106211000D01*
X154359050Y-106211000D01*
X154140889Y-106232487D01*
X153860966Y-106317401D01*
X153602986Y-106455294D01*
X153376866Y-106640866D01*
X153191294Y-106866986D01*
X153162000Y-106921791D01*
X153132706Y-106866986D01*
X152947134Y-106640866D01*
X152721014Y-106455294D01*
X152463034Y-106317401D01*
X152183111Y-106232487D01*
X151964950Y-106211000D01*
X151819050Y-106211000D01*
X151600889Y-106232487D01*
X151320966Y-106317401D01*
X151062986Y-106455294D01*
X150836866Y-106640866D01*
X150812393Y-106670687D01*
X150791502Y-106601820D01*
X150732537Y-106491506D01*
X150653185Y-106394815D01*
X150556494Y-106315463D01*
X150446180Y-106256498D01*
X150326482Y-106220188D01*
X150202000Y-106207928D01*
X148502000Y-106207928D01*
X148377518Y-106220188D01*
X148257820Y-106256498D01*
X148147506Y-106315463D01*
X148050815Y-106394815D01*
X147971463Y-106491506D01*
X147912498Y-106601820D01*
X147876188Y-106721518D01*
X147863928Y-106846000D01*
X122021600Y-106846000D01*
X122021600Y-102392685D01*
X143421100Y-102392685D01*
X143421100Y-102585315D01*
X143458680Y-102774243D01*
X143532396Y-102952210D01*
X143639415Y-103112375D01*
X143775625Y-103248585D01*
X143935790Y-103355604D01*
X144113757Y-103429320D01*
X144302685Y-103466900D01*
X144495315Y-103466900D01*
X144684243Y-103429320D01*
X144862210Y-103355604D01*
X145022375Y-103248585D01*
X145158585Y-103112375D01*
X145265604Y-102952210D01*
X145339320Y-102774243D01*
X145376900Y-102585315D01*
X145376900Y-102392685D01*
X145339320Y-102203757D01*
X145265604Y-102025790D01*
X145161000Y-101869239D01*
X145161000Y-101280630D01*
X145642579Y-100799052D01*
X145827243Y-100762320D01*
X146005210Y-100688604D01*
X146165375Y-100581585D01*
X146301585Y-100445375D01*
X146408604Y-100285210D01*
X146482320Y-100107243D01*
X146519900Y-99918315D01*
X146519900Y-99725685D01*
X146482320Y-99536757D01*
X146408604Y-99358790D01*
X146301585Y-99198625D01*
X146165375Y-99062415D01*
X146005210Y-98955396D01*
X145827243Y-98881680D01*
X145638315Y-98844100D01*
X145445685Y-98844100D01*
X145256757Y-98881680D01*
X145078790Y-98955396D01*
X144918625Y-99062415D01*
X144782415Y-99198625D01*
X144675396Y-99358790D01*
X144601680Y-99536757D01*
X144564948Y-99721421D01*
X143886654Y-100399716D01*
X143857578Y-100423578D01*
X143801983Y-100491322D01*
X143762355Y-100539608D01*
X143739918Y-100581585D01*
X143691598Y-100671986D01*
X143648026Y-100815623D01*
X143637000Y-100927574D01*
X143633314Y-100965000D01*
X143637000Y-101002424D01*
X143637001Y-101869238D01*
X143532396Y-102025790D01*
X143458680Y-102203757D01*
X143421100Y-102392685D01*
X122021600Y-102392685D01*
X122021600Y-96449085D01*
X143573500Y-96449085D01*
X143573500Y-96641715D01*
X143611080Y-96830643D01*
X143684796Y-97008610D01*
X143791815Y-97168775D01*
X143928025Y-97304985D01*
X144088190Y-97412004D01*
X144266157Y-97485720D01*
X144455085Y-97523300D01*
X144647715Y-97523300D01*
X144836643Y-97485720D01*
X144989028Y-97422600D01*
X158277928Y-97422600D01*
X158277928Y-99122600D01*
X158290188Y-99247082D01*
X158326498Y-99366780D01*
X158385463Y-99477094D01*
X158464815Y-99573785D01*
X158561506Y-99653137D01*
X158671820Y-99712102D01*
X158791518Y-99748412D01*
X158916000Y-99760672D01*
X160616000Y-99760672D01*
X160740482Y-99748412D01*
X160860180Y-99712102D01*
X160970494Y-99653137D01*
X161067185Y-99573785D01*
X161146537Y-99477094D01*
X161205502Y-99366780D01*
X161226393Y-99297913D01*
X161250866Y-99327734D01*
X161476986Y-99513306D01*
X161734966Y-99651199D01*
X162014889Y-99736113D01*
X162233050Y-99757600D01*
X162378950Y-99757600D01*
X162597111Y-99736113D01*
X162877034Y-99651199D01*
X163135014Y-99513306D01*
X163361134Y-99327734D01*
X163546706Y-99101614D01*
X163581201Y-99037077D01*
X163650822Y-99153955D01*
X163845731Y-99370188D01*
X164079080Y-99544241D01*
X164341901Y-99669425D01*
X164489110Y-99714076D01*
X164719000Y-99592755D01*
X164719000Y-98399600D01*
X164699000Y-98399600D01*
X164699000Y-98145600D01*
X164719000Y-98145600D01*
X164719000Y-96952445D01*
X164973000Y-96952445D01*
X164973000Y-98145600D01*
X164993000Y-98145600D01*
X164993000Y-98399600D01*
X164973000Y-98399600D01*
X164973000Y-99592755D01*
X165202890Y-99714076D01*
X165350099Y-99669425D01*
X165612920Y-99544241D01*
X165846269Y-99370188D01*
X166041178Y-99153955D01*
X166110799Y-99037077D01*
X166145294Y-99101614D01*
X166330866Y-99327734D01*
X166556986Y-99513306D01*
X166814966Y-99651199D01*
X167094889Y-99736113D01*
X167313050Y-99757600D01*
X167458950Y-99757600D01*
X167677111Y-99736113D01*
X167957034Y-99651199D01*
X168215014Y-99513306D01*
X168441134Y-99327734D01*
X168626706Y-99101614D01*
X168656000Y-99046809D01*
X168685294Y-99101614D01*
X168870866Y-99327734D01*
X169096986Y-99513306D01*
X169354966Y-99651199D01*
X169634889Y-99736113D01*
X169853050Y-99757600D01*
X169998950Y-99757600D01*
X170217111Y-99736113D01*
X170497034Y-99651199D01*
X170755014Y-99513306D01*
X170981134Y-99327734D01*
X171166706Y-99101614D01*
X171196000Y-99046809D01*
X171225294Y-99101614D01*
X171410866Y-99327734D01*
X171636986Y-99513306D01*
X171894966Y-99651199D01*
X172174889Y-99736113D01*
X172393050Y-99757600D01*
X172538950Y-99757600D01*
X172757111Y-99736113D01*
X173037034Y-99651199D01*
X173295014Y-99513306D01*
X173521134Y-99327734D01*
X173706706Y-99101614D01*
X173844599Y-98843634D01*
X173929513Y-98563711D01*
X173958185Y-98272600D01*
X173929513Y-97981489D01*
X173844599Y-97701566D01*
X173706706Y-97443586D01*
X173521134Y-97217466D01*
X173295014Y-97031894D01*
X173037034Y-96894001D01*
X172757111Y-96809087D01*
X172538950Y-96787600D01*
X172393050Y-96787600D01*
X172174889Y-96809087D01*
X171894966Y-96894001D01*
X171636986Y-97031894D01*
X171410866Y-97217466D01*
X171225294Y-97443586D01*
X171196000Y-97498391D01*
X171166706Y-97443586D01*
X170981134Y-97217466D01*
X170755014Y-97031894D01*
X170497034Y-96894001D01*
X170217111Y-96809087D01*
X169998950Y-96787600D01*
X169853050Y-96787600D01*
X169634889Y-96809087D01*
X169354966Y-96894001D01*
X169096986Y-97031894D01*
X168870866Y-97217466D01*
X168685294Y-97443586D01*
X168656000Y-97498391D01*
X168626706Y-97443586D01*
X168441134Y-97217466D01*
X168215014Y-97031894D01*
X167957034Y-96894001D01*
X167677111Y-96809087D01*
X167458950Y-96787600D01*
X167313050Y-96787600D01*
X167094889Y-96809087D01*
X166814966Y-96894001D01*
X166556986Y-97031894D01*
X166330866Y-97217466D01*
X166145294Y-97443586D01*
X166110799Y-97508123D01*
X166041178Y-97391245D01*
X165846269Y-97175012D01*
X165612920Y-97000959D01*
X165350099Y-96875775D01*
X165202890Y-96831124D01*
X164973000Y-96952445D01*
X164719000Y-96952445D01*
X164489110Y-96831124D01*
X164341901Y-96875775D01*
X164079080Y-97000959D01*
X163845731Y-97175012D01*
X163650822Y-97391245D01*
X163581201Y-97508123D01*
X163546706Y-97443586D01*
X163361134Y-97217466D01*
X163135014Y-97031894D01*
X162877034Y-96894001D01*
X162597111Y-96809087D01*
X162378950Y-96787600D01*
X162233050Y-96787600D01*
X162014889Y-96809087D01*
X161734966Y-96894001D01*
X161476986Y-97031894D01*
X161250866Y-97217466D01*
X161226393Y-97247287D01*
X161205502Y-97178420D01*
X161146537Y-97068106D01*
X161067185Y-96971415D01*
X160970494Y-96892063D01*
X160860180Y-96833098D01*
X160740482Y-96796788D01*
X160616000Y-96784528D01*
X158916000Y-96784528D01*
X158791518Y-96796788D01*
X158671820Y-96833098D01*
X158561506Y-96892063D01*
X158464815Y-96971415D01*
X158385463Y-97068106D01*
X158326498Y-97178420D01*
X158290188Y-97298118D01*
X158277928Y-97422600D01*
X144989028Y-97422600D01*
X145014610Y-97412004D01*
X145174775Y-97304985D01*
X145310985Y-97168775D01*
X145418004Y-97008610D01*
X145491720Y-96830643D01*
X145492632Y-96826059D01*
X145624043Y-96799920D01*
X145802010Y-96726204D01*
X145962175Y-96619185D01*
X146098385Y-96482975D01*
X146205404Y-96322810D01*
X146279120Y-96144843D01*
X146316700Y-95955915D01*
X146316700Y-95763285D01*
X146279120Y-95574357D01*
X146209457Y-95406174D01*
X147420579Y-94195052D01*
X147605243Y-94158320D01*
X147783210Y-94084604D01*
X147943375Y-93977585D01*
X148079585Y-93841375D01*
X148186604Y-93681210D01*
X148260320Y-93503243D01*
X148297900Y-93314315D01*
X148297900Y-93121685D01*
X148260320Y-92932757D01*
X148186604Y-92754790D01*
X148079585Y-92594625D01*
X147943375Y-92458415D01*
X147783210Y-92351396D01*
X147605243Y-92277680D01*
X147416315Y-92240100D01*
X147223685Y-92240100D01*
X147034757Y-92277680D01*
X146991388Y-92295644D01*
X146936585Y-92213625D01*
X146800375Y-92077415D01*
X146640210Y-91970396D01*
X146462243Y-91896680D01*
X146273315Y-91859100D01*
X146080685Y-91859100D01*
X145891757Y-91896680D01*
X145713790Y-91970396D01*
X145553625Y-92077415D01*
X145417415Y-92213625D01*
X145310396Y-92373790D01*
X145236680Y-92551757D01*
X145199948Y-92736422D01*
X144013649Y-93922721D01*
X143984579Y-93946578D01*
X143960722Y-93975648D01*
X143960721Y-93975649D01*
X143889355Y-94062608D01*
X143818599Y-94194985D01*
X143775027Y-94338622D01*
X143760314Y-94488000D01*
X143764001Y-94525433D01*
X143764000Y-95963653D01*
X143684796Y-96082190D01*
X143611080Y-96260157D01*
X143573500Y-96449085D01*
X122021600Y-96449085D01*
X122021600Y-92901419D01*
X126383000Y-92901419D01*
X126383000Y-93282581D01*
X126457361Y-93656419D01*
X126603225Y-94008566D01*
X126814987Y-94325491D01*
X127084509Y-94595013D01*
X127401434Y-94806775D01*
X127753581Y-94952639D01*
X128127419Y-95027000D01*
X128508581Y-95027000D01*
X128882419Y-94952639D01*
X129234566Y-94806775D01*
X129551491Y-94595013D01*
X129821013Y-94325491D01*
X130032775Y-94008566D01*
X130178639Y-93656419D01*
X130253000Y-93282581D01*
X130253000Y-92901419D01*
X130178639Y-92527581D01*
X130032775Y-92175434D01*
X129821013Y-91858509D01*
X129551491Y-91588987D01*
X129234566Y-91377225D01*
X128882419Y-91231361D01*
X128654374Y-91186000D01*
X183800815Y-91186000D01*
X183829487Y-91477111D01*
X183914401Y-91757034D01*
X184052294Y-92015014D01*
X184237866Y-92241134D01*
X184463986Y-92426706D01*
X184518791Y-92456000D01*
X184463986Y-92485294D01*
X184237866Y-92670866D01*
X184052294Y-92896986D01*
X183914401Y-93154966D01*
X183829487Y-93434889D01*
X183800815Y-93726000D01*
X183829487Y-94017111D01*
X183914401Y-94297034D01*
X184052294Y-94555014D01*
X184237866Y-94781134D01*
X184463986Y-94966706D01*
X184518791Y-94996000D01*
X184463986Y-95025294D01*
X184237866Y-95210866D01*
X184052294Y-95436986D01*
X183914401Y-95694966D01*
X183829487Y-95974889D01*
X183800815Y-96266000D01*
X183829487Y-96557111D01*
X183914401Y-96837034D01*
X184052294Y-97095014D01*
X184237866Y-97321134D01*
X184463986Y-97506706D01*
X184518791Y-97536000D01*
X184463986Y-97565294D01*
X184237866Y-97750866D01*
X184052294Y-97976986D01*
X183914401Y-98234966D01*
X183829487Y-98514889D01*
X183800815Y-98806000D01*
X183829487Y-99097111D01*
X183914401Y-99377034D01*
X184052294Y-99635014D01*
X184237866Y-99861134D01*
X184463986Y-100046706D01*
X184721966Y-100184599D01*
X185001889Y-100269513D01*
X185220050Y-100291000D01*
X185365950Y-100291000D01*
X185584111Y-100269513D01*
X185864034Y-100184599D01*
X186122014Y-100046706D01*
X186348134Y-99861134D01*
X186533706Y-99635014D01*
X186671599Y-99377034D01*
X186756513Y-99097111D01*
X186785185Y-98806000D01*
X186756513Y-98514889D01*
X186671599Y-98234966D01*
X186533706Y-97976986D01*
X186348134Y-97750866D01*
X186122014Y-97565294D01*
X186067209Y-97536000D01*
X186122014Y-97506706D01*
X186348134Y-97321134D01*
X186533706Y-97095014D01*
X186671599Y-96837034D01*
X186756513Y-96557111D01*
X186785185Y-96266000D01*
X186756513Y-95974889D01*
X186671599Y-95694966D01*
X186533706Y-95436986D01*
X186348134Y-95210866D01*
X186122014Y-95025294D01*
X186067209Y-94996000D01*
X186122014Y-94966706D01*
X186348134Y-94781134D01*
X186533706Y-94555014D01*
X186671599Y-94297034D01*
X186756513Y-94017111D01*
X186785185Y-93726000D01*
X186756513Y-93434889D01*
X186671599Y-93154966D01*
X186533706Y-92896986D01*
X186348134Y-92670866D01*
X186122014Y-92485294D01*
X186067209Y-92456000D01*
X186122014Y-92426706D01*
X186348134Y-92241134D01*
X186533706Y-92015014D01*
X186671599Y-91757034D01*
X186756513Y-91477111D01*
X186785185Y-91186000D01*
X186756513Y-90894889D01*
X186671599Y-90614966D01*
X186533706Y-90356986D01*
X186348134Y-90130866D01*
X186122014Y-89945294D01*
X186057477Y-89910799D01*
X186174355Y-89841178D01*
X186390588Y-89646269D01*
X186564641Y-89412920D01*
X186689825Y-89150099D01*
X186734476Y-89002890D01*
X186613155Y-88773000D01*
X185420000Y-88773000D01*
X185420000Y-88793000D01*
X185166000Y-88793000D01*
X185166000Y-88773000D01*
X183972845Y-88773000D01*
X183851524Y-89002890D01*
X183896175Y-89150099D01*
X184021359Y-89412920D01*
X184195412Y-89646269D01*
X184411645Y-89841178D01*
X184528523Y-89910799D01*
X184463986Y-89945294D01*
X184237866Y-90130866D01*
X184052294Y-90356986D01*
X183914401Y-90614966D01*
X183829487Y-90894889D01*
X183800815Y-91186000D01*
X128654374Y-91186000D01*
X128508581Y-91157000D01*
X128127419Y-91157000D01*
X127753581Y-91231361D01*
X127401434Y-91377225D01*
X127084509Y-91588987D01*
X126814987Y-91858509D01*
X126603225Y-92175434D01*
X126457361Y-92527581D01*
X126383000Y-92901419D01*
X122021600Y-92901419D01*
X122021600Y-89741224D01*
X124148381Y-89741224D01*
X124280317Y-90036312D01*
X124621045Y-90207159D01*
X124988557Y-90308250D01*
X125368729Y-90335701D01*
X125746951Y-90288457D01*
X126108690Y-90168333D01*
X126355683Y-90036312D01*
X126487619Y-89741224D01*
X125318000Y-88571605D01*
X124148381Y-89741224D01*
X122021600Y-89741224D01*
X122021600Y-88442729D01*
X123374299Y-88442729D01*
X123421543Y-88820951D01*
X123541667Y-89182690D01*
X123673688Y-89429683D01*
X123968776Y-89561619D01*
X125138395Y-88392000D01*
X125497605Y-88392000D01*
X126667224Y-89561619D01*
X126962312Y-89429683D01*
X127133159Y-89088955D01*
X127234250Y-88721443D01*
X127261701Y-88341271D01*
X127214457Y-87963049D01*
X127094333Y-87601310D01*
X126962312Y-87354317D01*
X126667224Y-87222381D01*
X125497605Y-88392000D01*
X125138395Y-88392000D01*
X123968776Y-87222381D01*
X123673688Y-87354317D01*
X123502841Y-87695045D01*
X123401750Y-88062557D01*
X123374299Y-88442729D01*
X122021600Y-88442729D01*
X122021600Y-87042776D01*
X124148381Y-87042776D01*
X125318000Y-88212395D01*
X126438395Y-87092000D01*
X129379928Y-87092000D01*
X129379928Y-89692000D01*
X129392188Y-89816482D01*
X129428498Y-89936180D01*
X129487463Y-90046494D01*
X129566815Y-90143185D01*
X129663506Y-90222537D01*
X129773820Y-90281502D01*
X129893518Y-90317812D01*
X130018000Y-90330072D01*
X132618000Y-90330072D01*
X132742482Y-90317812D01*
X132862180Y-90281502D01*
X132972494Y-90222537D01*
X133069185Y-90143185D01*
X133148537Y-90046494D01*
X133207502Y-89936180D01*
X133243812Y-89816482D01*
X133256072Y-89692000D01*
X133256072Y-87092000D01*
X133243812Y-86967518D01*
X133207502Y-86847820D01*
X133148537Y-86737506D01*
X133069185Y-86640815D01*
X132972494Y-86561463D01*
X132862180Y-86502498D01*
X132742482Y-86466188D01*
X132618000Y-86453928D01*
X130018000Y-86453928D01*
X129893518Y-86466188D01*
X129773820Y-86502498D01*
X129663506Y-86561463D01*
X129566815Y-86640815D01*
X129487463Y-86737506D01*
X129428498Y-86847820D01*
X129392188Y-86967518D01*
X129379928Y-87092000D01*
X126438395Y-87092000D01*
X126487619Y-87042776D01*
X126355683Y-86747688D01*
X126014955Y-86576841D01*
X125647443Y-86475750D01*
X125267271Y-86448299D01*
X124889049Y-86495543D01*
X124527310Y-86615667D01*
X124280317Y-86747688D01*
X124148381Y-87042776D01*
X122021600Y-87042776D01*
X122021600Y-86009685D01*
X144310100Y-86009685D01*
X144310100Y-86202315D01*
X144347680Y-86391243D01*
X144421396Y-86569210D01*
X144528415Y-86729375D01*
X144664625Y-86865585D01*
X144824790Y-86972604D01*
X145002757Y-87046320D01*
X145191685Y-87083900D01*
X145384315Y-87083900D01*
X145573243Y-87046320D01*
X145751210Y-86972604D01*
X145911375Y-86865585D01*
X146047585Y-86729375D01*
X146154604Y-86569210D01*
X146228320Y-86391243D01*
X146265900Y-86202315D01*
X146265900Y-86090629D01*
X146292974Y-86001378D01*
X146304000Y-85889426D01*
X146304000Y-85889424D01*
X146307686Y-85852001D01*
X146304000Y-85814578D01*
X146304000Y-85256000D01*
X183804928Y-85256000D01*
X183804928Y-86956000D01*
X183817188Y-87080482D01*
X183853498Y-87200180D01*
X183912463Y-87310494D01*
X183991815Y-87407185D01*
X184088506Y-87486537D01*
X184198820Y-87545502D01*
X184279466Y-87569966D01*
X184195412Y-87645731D01*
X184021359Y-87879080D01*
X183896175Y-88141901D01*
X183851524Y-88289110D01*
X183972845Y-88519000D01*
X185166000Y-88519000D01*
X185166000Y-88499000D01*
X185420000Y-88499000D01*
X185420000Y-88519000D01*
X186613155Y-88519000D01*
X186734476Y-88289110D01*
X186689825Y-88141901D01*
X186564641Y-87879080D01*
X186390588Y-87645731D01*
X186306534Y-87569966D01*
X186387180Y-87545502D01*
X186497494Y-87486537D01*
X186594185Y-87407185D01*
X186673537Y-87310494D01*
X186732502Y-87200180D01*
X186768812Y-87080482D01*
X186781072Y-86956000D01*
X186781072Y-85256000D01*
X186768812Y-85131518D01*
X186732502Y-85011820D01*
X186673537Y-84901506D01*
X186594185Y-84804815D01*
X186497494Y-84725463D01*
X186387180Y-84666498D01*
X186267482Y-84630188D01*
X186143000Y-84617928D01*
X184443000Y-84617928D01*
X184318518Y-84630188D01*
X184198820Y-84666498D01*
X184088506Y-84725463D01*
X183991815Y-84804815D01*
X183912463Y-84901506D01*
X183853498Y-85011820D01*
X183817188Y-85131518D01*
X183804928Y-85256000D01*
X146304000Y-85256000D01*
X146304000Y-83804761D01*
X146408604Y-83648210D01*
X146482320Y-83470243D01*
X146519900Y-83281315D01*
X146519900Y-83088685D01*
X146482320Y-82899757D01*
X146408604Y-82721790D01*
X146301585Y-82561625D01*
X146165375Y-82425415D01*
X146005210Y-82318396D01*
X145827243Y-82244680D01*
X145638315Y-82207100D01*
X145445685Y-82207100D01*
X145256757Y-82244680D01*
X145078790Y-82318396D01*
X144918625Y-82425415D01*
X144782415Y-82561625D01*
X144675396Y-82721790D01*
X144601680Y-82899757D01*
X144564100Y-83088685D01*
X144564100Y-83281315D01*
X144601680Y-83470243D01*
X144675396Y-83648210D01*
X144780000Y-83804761D01*
X144780001Y-85269323D01*
X144664625Y-85346415D01*
X144528415Y-85482625D01*
X144421396Y-85642790D01*
X144347680Y-85820757D01*
X144310100Y-86009685D01*
X122021600Y-86009685D01*
X122021600Y-79837485D01*
X143878300Y-79837485D01*
X143878300Y-80030115D01*
X143915880Y-80219043D01*
X143989596Y-80397010D01*
X144096615Y-80557175D01*
X144232825Y-80693385D01*
X144392990Y-80800404D01*
X144570957Y-80874120D01*
X144759885Y-80911700D01*
X144952515Y-80911700D01*
X145141443Y-80874120D01*
X145319410Y-80800404D01*
X145479575Y-80693385D01*
X145615785Y-80557175D01*
X145666817Y-80480800D01*
X158252528Y-80480800D01*
X158252528Y-82180800D01*
X158264788Y-82305282D01*
X158301098Y-82424980D01*
X158360063Y-82535294D01*
X158439415Y-82631985D01*
X158536106Y-82711337D01*
X158646420Y-82770302D01*
X158766118Y-82806612D01*
X158890600Y-82818872D01*
X160590600Y-82818872D01*
X160715082Y-82806612D01*
X160834780Y-82770302D01*
X160945094Y-82711337D01*
X161041785Y-82631985D01*
X161121137Y-82535294D01*
X161180102Y-82424980D01*
X161200993Y-82356113D01*
X161225466Y-82385934D01*
X161451586Y-82571506D01*
X161709566Y-82709399D01*
X161989489Y-82794313D01*
X162207650Y-82815800D01*
X162353550Y-82815800D01*
X162571711Y-82794313D01*
X162851634Y-82709399D01*
X163109614Y-82571506D01*
X163335734Y-82385934D01*
X163521306Y-82159814D01*
X163555801Y-82095277D01*
X163625422Y-82212155D01*
X163820331Y-82428388D01*
X164053680Y-82602441D01*
X164316501Y-82727625D01*
X164463710Y-82772276D01*
X164693600Y-82650955D01*
X164693600Y-81457800D01*
X164673600Y-81457800D01*
X164673600Y-81203800D01*
X164693600Y-81203800D01*
X164693600Y-80010645D01*
X164947600Y-80010645D01*
X164947600Y-81203800D01*
X164967600Y-81203800D01*
X164967600Y-81457800D01*
X164947600Y-81457800D01*
X164947600Y-82650955D01*
X165177490Y-82772276D01*
X165324699Y-82727625D01*
X165587520Y-82602441D01*
X165820869Y-82428388D01*
X166015778Y-82212155D01*
X166085399Y-82095277D01*
X166119894Y-82159814D01*
X166305466Y-82385934D01*
X166531586Y-82571506D01*
X166789566Y-82709399D01*
X167069489Y-82794313D01*
X167287650Y-82815800D01*
X167433550Y-82815800D01*
X167651711Y-82794313D01*
X167931634Y-82709399D01*
X168189614Y-82571506D01*
X168415734Y-82385934D01*
X168601306Y-82159814D01*
X168630600Y-82105009D01*
X168659894Y-82159814D01*
X168845466Y-82385934D01*
X169071586Y-82571506D01*
X169329566Y-82709399D01*
X169609489Y-82794313D01*
X169827650Y-82815800D01*
X169973550Y-82815800D01*
X170191711Y-82794313D01*
X170471634Y-82709399D01*
X170729614Y-82571506D01*
X170955734Y-82385934D01*
X171141306Y-82159814D01*
X171170600Y-82105009D01*
X171199894Y-82159814D01*
X171385466Y-82385934D01*
X171611586Y-82571506D01*
X171869566Y-82709399D01*
X172149489Y-82794313D01*
X172367650Y-82815800D01*
X172513550Y-82815800D01*
X172731711Y-82794313D01*
X173011634Y-82709399D01*
X173269614Y-82571506D01*
X173495734Y-82385934D01*
X173681306Y-82159814D01*
X173819199Y-81901834D01*
X173904113Y-81621911D01*
X173932785Y-81330800D01*
X173904113Y-81039689D01*
X173819199Y-80759766D01*
X173681306Y-80501786D01*
X173495734Y-80275666D01*
X173269614Y-80090094D01*
X173011634Y-79952201D01*
X172731711Y-79867287D01*
X172513550Y-79845800D01*
X172367650Y-79845800D01*
X172149489Y-79867287D01*
X171869566Y-79952201D01*
X171611586Y-80090094D01*
X171385466Y-80275666D01*
X171199894Y-80501786D01*
X171170600Y-80556591D01*
X171141306Y-80501786D01*
X170955734Y-80275666D01*
X170729614Y-80090094D01*
X170471634Y-79952201D01*
X170191711Y-79867287D01*
X169973550Y-79845800D01*
X169827650Y-79845800D01*
X169609489Y-79867287D01*
X169329566Y-79952201D01*
X169071586Y-80090094D01*
X168845466Y-80275666D01*
X168659894Y-80501786D01*
X168630600Y-80556591D01*
X168601306Y-80501786D01*
X168415734Y-80275666D01*
X168189614Y-80090094D01*
X167931634Y-79952201D01*
X167651711Y-79867287D01*
X167433550Y-79845800D01*
X167287650Y-79845800D01*
X167069489Y-79867287D01*
X166789566Y-79952201D01*
X166531586Y-80090094D01*
X166305466Y-80275666D01*
X166119894Y-80501786D01*
X166085399Y-80566323D01*
X166015778Y-80449445D01*
X165820869Y-80233212D01*
X165587520Y-80059159D01*
X165324699Y-79933975D01*
X165177490Y-79889324D01*
X164947600Y-80010645D01*
X164693600Y-80010645D01*
X164463710Y-79889324D01*
X164316501Y-79933975D01*
X164053680Y-80059159D01*
X163820331Y-80233212D01*
X163625422Y-80449445D01*
X163555801Y-80566323D01*
X163521306Y-80501786D01*
X163335734Y-80275666D01*
X163109614Y-80090094D01*
X162851634Y-79952201D01*
X162571711Y-79867287D01*
X162353550Y-79845800D01*
X162207650Y-79845800D01*
X161989489Y-79867287D01*
X161709566Y-79952201D01*
X161451586Y-80090094D01*
X161225466Y-80275666D01*
X161200993Y-80305487D01*
X161180102Y-80236620D01*
X161121137Y-80126306D01*
X161041785Y-80029615D01*
X160945094Y-79950263D01*
X160834780Y-79891298D01*
X160715082Y-79854988D01*
X160590600Y-79842728D01*
X158890600Y-79842728D01*
X158766118Y-79854988D01*
X158646420Y-79891298D01*
X158536106Y-79950263D01*
X158439415Y-80029615D01*
X158360063Y-80126306D01*
X158301098Y-80236620D01*
X158264788Y-80356318D01*
X158252528Y-80480800D01*
X145666817Y-80480800D01*
X145722804Y-80397010D01*
X145796520Y-80219043D01*
X145804785Y-80177492D01*
X145878043Y-80162920D01*
X146056010Y-80089204D01*
X146216175Y-79982185D01*
X146352385Y-79845975D01*
X146459404Y-79685810D01*
X146533120Y-79507843D01*
X146570700Y-79318915D01*
X146570700Y-79126285D01*
X146533120Y-78937357D01*
X146459404Y-78759390D01*
X146363208Y-78615422D01*
X147420578Y-77558052D01*
X147605243Y-77521320D01*
X147783210Y-77447604D01*
X147943375Y-77340585D01*
X148079585Y-77204375D01*
X148186604Y-77044210D01*
X148260320Y-76866243D01*
X148297900Y-76677315D01*
X148297900Y-76484685D01*
X148260320Y-76295757D01*
X148186604Y-76117790D01*
X148079585Y-75957625D01*
X147943375Y-75821415D01*
X147783210Y-75714396D01*
X147605243Y-75640680D01*
X147416315Y-75603100D01*
X147223685Y-75603100D01*
X147034757Y-75640680D01*
X146856790Y-75714396D01*
X146696625Y-75821415D01*
X146560415Y-75957625D01*
X146519900Y-76018260D01*
X146519900Y-75976685D01*
X146482320Y-75787757D01*
X146408604Y-75609790D01*
X146301585Y-75449625D01*
X146165375Y-75313415D01*
X146005210Y-75206396D01*
X145827243Y-75132680D01*
X145638315Y-75095100D01*
X145445685Y-75095100D01*
X145256757Y-75132680D01*
X145078790Y-75206396D01*
X144918625Y-75313415D01*
X144782415Y-75449625D01*
X144675396Y-75609790D01*
X144601680Y-75787757D01*
X144564948Y-75972422D01*
X144343849Y-76193521D01*
X144314779Y-76217378D01*
X144290922Y-76246448D01*
X144290921Y-76246449D01*
X144219555Y-76333408D01*
X144206281Y-76358243D01*
X144148798Y-76465785D01*
X144105226Y-76609422D01*
X144094200Y-76721374D01*
X144090514Y-76758800D01*
X144094200Y-76796223D01*
X144094200Y-77431225D01*
X144094201Y-77431235D01*
X144094200Y-79314039D01*
X143989596Y-79470590D01*
X143915880Y-79648557D01*
X143878300Y-79837485D01*
X122021600Y-79837485D01*
X122021600Y-65444000D01*
X138719928Y-65444000D01*
X138719928Y-67144000D01*
X138732188Y-67268482D01*
X138768498Y-67388180D01*
X138827463Y-67498494D01*
X138906815Y-67595185D01*
X139003506Y-67674537D01*
X139113820Y-67733502D01*
X139233518Y-67769812D01*
X139358000Y-67782072D01*
X141058000Y-67782072D01*
X141182482Y-67769812D01*
X141302180Y-67733502D01*
X141412494Y-67674537D01*
X141509185Y-67595185D01*
X141588537Y-67498494D01*
X141647502Y-67388180D01*
X141668393Y-67319313D01*
X141692866Y-67349134D01*
X141918986Y-67534706D01*
X142176966Y-67672599D01*
X142456889Y-67757513D01*
X142675050Y-67779000D01*
X142820950Y-67779000D01*
X143039111Y-67757513D01*
X143319034Y-67672599D01*
X143577014Y-67534706D01*
X143803134Y-67349134D01*
X143988706Y-67123014D01*
X144018000Y-67068209D01*
X144047294Y-67123014D01*
X144232866Y-67349134D01*
X144458986Y-67534706D01*
X144716966Y-67672599D01*
X144996889Y-67757513D01*
X145215050Y-67779000D01*
X145360950Y-67779000D01*
X145579111Y-67757513D01*
X145859034Y-67672599D01*
X146117014Y-67534706D01*
X146343134Y-67349134D01*
X146528706Y-67123014D01*
X146563201Y-67058477D01*
X146632822Y-67175355D01*
X146827731Y-67391588D01*
X147061080Y-67565641D01*
X147323901Y-67690825D01*
X147471110Y-67735476D01*
X147701000Y-67614155D01*
X147701000Y-66421000D01*
X147681000Y-66421000D01*
X147681000Y-66167000D01*
X147701000Y-66167000D01*
X147701000Y-64973845D01*
X147955000Y-64973845D01*
X147955000Y-66167000D01*
X147975000Y-66167000D01*
X147975000Y-66421000D01*
X147955000Y-66421000D01*
X147955000Y-67614155D01*
X148184890Y-67735476D01*
X148332099Y-67690825D01*
X148594920Y-67565641D01*
X148828269Y-67391588D01*
X149023178Y-67175355D01*
X149092799Y-67058477D01*
X149127294Y-67123014D01*
X149312866Y-67349134D01*
X149538986Y-67534706D01*
X149796966Y-67672599D01*
X150076889Y-67757513D01*
X150295050Y-67779000D01*
X150440950Y-67779000D01*
X150659111Y-67757513D01*
X150939034Y-67672599D01*
X151197014Y-67534706D01*
X151423134Y-67349134D01*
X151608706Y-67123014D01*
X151638000Y-67068209D01*
X151667294Y-67123014D01*
X151852866Y-67349134D01*
X152078986Y-67534706D01*
X152336966Y-67672599D01*
X152616889Y-67757513D01*
X152835050Y-67779000D01*
X152980950Y-67779000D01*
X153199111Y-67757513D01*
X153479034Y-67672599D01*
X153737014Y-67534706D01*
X153963134Y-67349134D01*
X154148706Y-67123014D01*
X154178000Y-67068209D01*
X154207294Y-67123014D01*
X154392866Y-67349134D01*
X154618986Y-67534706D01*
X154876966Y-67672599D01*
X155156889Y-67757513D01*
X155375050Y-67779000D01*
X155520950Y-67779000D01*
X155739111Y-67757513D01*
X156019034Y-67672599D01*
X156277014Y-67534706D01*
X156503134Y-67349134D01*
X156688706Y-67123014D01*
X156718000Y-67068209D01*
X156747294Y-67123014D01*
X156932866Y-67349134D01*
X157158986Y-67534706D01*
X157416966Y-67672599D01*
X157696889Y-67757513D01*
X157915050Y-67779000D01*
X158060950Y-67779000D01*
X158279111Y-67757513D01*
X158559034Y-67672599D01*
X158817014Y-67534706D01*
X159043134Y-67349134D01*
X159228706Y-67123014D01*
X159258000Y-67068209D01*
X159287294Y-67123014D01*
X159472866Y-67349134D01*
X159698986Y-67534706D01*
X159956966Y-67672599D01*
X160236889Y-67757513D01*
X160455050Y-67779000D01*
X160600950Y-67779000D01*
X160819111Y-67757513D01*
X161099034Y-67672599D01*
X161357014Y-67534706D01*
X161583134Y-67349134D01*
X161768706Y-67123014D01*
X161798000Y-67068209D01*
X161827294Y-67123014D01*
X162012866Y-67349134D01*
X162238986Y-67534706D01*
X162496966Y-67672599D01*
X162776889Y-67757513D01*
X162995050Y-67779000D01*
X163140950Y-67779000D01*
X163359111Y-67757513D01*
X163639034Y-67672599D01*
X163897014Y-67534706D01*
X164123134Y-67349134D01*
X164308706Y-67123014D01*
X164446599Y-66865034D01*
X164531513Y-66585111D01*
X164560185Y-66294000D01*
X164531513Y-66002889D01*
X164446599Y-65722966D01*
X164308706Y-65464986D01*
X164291484Y-65444000D01*
X165643928Y-65444000D01*
X165643928Y-67144000D01*
X165656188Y-67268482D01*
X165692498Y-67388180D01*
X165751463Y-67498494D01*
X165830815Y-67595185D01*
X165927506Y-67674537D01*
X166037820Y-67733502D01*
X166157518Y-67769812D01*
X166282000Y-67782072D01*
X167982000Y-67782072D01*
X168106482Y-67769812D01*
X168226180Y-67733502D01*
X168336494Y-67674537D01*
X168433185Y-67595185D01*
X168512537Y-67498494D01*
X168571502Y-67388180D01*
X168592393Y-67319313D01*
X168616866Y-67349134D01*
X168842986Y-67534706D01*
X169100966Y-67672599D01*
X169380889Y-67757513D01*
X169599050Y-67779000D01*
X169744950Y-67779000D01*
X169963111Y-67757513D01*
X170243034Y-67672599D01*
X170501014Y-67534706D01*
X170727134Y-67349134D01*
X170912706Y-67123014D01*
X170942000Y-67068209D01*
X170971294Y-67123014D01*
X171156866Y-67349134D01*
X171382986Y-67534706D01*
X171640966Y-67672599D01*
X171920889Y-67757513D01*
X172139050Y-67779000D01*
X172284950Y-67779000D01*
X172503111Y-67757513D01*
X172783034Y-67672599D01*
X173041014Y-67534706D01*
X173267134Y-67349134D01*
X173452706Y-67123014D01*
X173482000Y-67068209D01*
X173511294Y-67123014D01*
X173696866Y-67349134D01*
X173922986Y-67534706D01*
X174180966Y-67672599D01*
X174460889Y-67757513D01*
X174679050Y-67779000D01*
X174824950Y-67779000D01*
X175043111Y-67757513D01*
X175323034Y-67672599D01*
X175581014Y-67534706D01*
X175807134Y-67349134D01*
X175992706Y-67123014D01*
X176022000Y-67068209D01*
X176051294Y-67123014D01*
X176236866Y-67349134D01*
X176462986Y-67534706D01*
X176720966Y-67672599D01*
X177000889Y-67757513D01*
X177219050Y-67779000D01*
X177364950Y-67779000D01*
X177583111Y-67757513D01*
X177863034Y-67672599D01*
X178121014Y-67534706D01*
X178347134Y-67349134D01*
X178532706Y-67123014D01*
X178562000Y-67068209D01*
X178591294Y-67123014D01*
X178776866Y-67349134D01*
X179002986Y-67534706D01*
X179260966Y-67672599D01*
X179540889Y-67757513D01*
X179759050Y-67779000D01*
X179904950Y-67779000D01*
X180123111Y-67757513D01*
X180403034Y-67672599D01*
X180661014Y-67534706D01*
X180887134Y-67349134D01*
X181072706Y-67123014D01*
X181102000Y-67068209D01*
X181131294Y-67123014D01*
X181316866Y-67349134D01*
X181542986Y-67534706D01*
X181800966Y-67672599D01*
X182080889Y-67757513D01*
X182299050Y-67779000D01*
X182444950Y-67779000D01*
X182663111Y-67757513D01*
X182943034Y-67672599D01*
X183201014Y-67534706D01*
X183427134Y-67349134D01*
X183612706Y-67123014D01*
X183642000Y-67068209D01*
X183671294Y-67123014D01*
X183856866Y-67349134D01*
X184082986Y-67534706D01*
X184340966Y-67672599D01*
X184620889Y-67757513D01*
X184839050Y-67779000D01*
X184984950Y-67779000D01*
X185203111Y-67757513D01*
X185483034Y-67672599D01*
X185741014Y-67534706D01*
X185967134Y-67349134D01*
X186152706Y-67123014D01*
X186290599Y-66865034D01*
X186375513Y-66585111D01*
X186404185Y-66294000D01*
X186375513Y-66002889D01*
X186290599Y-65722966D01*
X186152706Y-65464986D01*
X185967134Y-65238866D01*
X185741014Y-65053294D01*
X185483034Y-64915401D01*
X185203111Y-64830487D01*
X184984950Y-64809000D01*
X184839050Y-64809000D01*
X184620889Y-64830487D01*
X184340966Y-64915401D01*
X184082986Y-65053294D01*
X183856866Y-65238866D01*
X183671294Y-65464986D01*
X183642000Y-65519791D01*
X183612706Y-65464986D01*
X183427134Y-65238866D01*
X183201014Y-65053294D01*
X182943034Y-64915401D01*
X182663111Y-64830487D01*
X182444950Y-64809000D01*
X182299050Y-64809000D01*
X182080889Y-64830487D01*
X181800966Y-64915401D01*
X181542986Y-65053294D01*
X181316866Y-65238866D01*
X181131294Y-65464986D01*
X181102000Y-65519791D01*
X181072706Y-65464986D01*
X180887134Y-65238866D01*
X180661014Y-65053294D01*
X180403034Y-64915401D01*
X180123111Y-64830487D01*
X179904950Y-64809000D01*
X179759050Y-64809000D01*
X179540889Y-64830487D01*
X179260966Y-64915401D01*
X179002986Y-65053294D01*
X178776866Y-65238866D01*
X178591294Y-65464986D01*
X178562000Y-65519791D01*
X178532706Y-65464986D01*
X178347134Y-65238866D01*
X178121014Y-65053294D01*
X177863034Y-64915401D01*
X177583111Y-64830487D01*
X177364950Y-64809000D01*
X177219050Y-64809000D01*
X177000889Y-64830487D01*
X176720966Y-64915401D01*
X176462986Y-65053294D01*
X176236866Y-65238866D01*
X176051294Y-65464986D01*
X176022000Y-65519791D01*
X175992706Y-65464986D01*
X175807134Y-65238866D01*
X175581014Y-65053294D01*
X175323034Y-64915401D01*
X175043111Y-64830487D01*
X174824950Y-64809000D01*
X174679050Y-64809000D01*
X174460889Y-64830487D01*
X174180966Y-64915401D01*
X173922986Y-65053294D01*
X173696866Y-65238866D01*
X173511294Y-65464986D01*
X173482000Y-65519791D01*
X173452706Y-65464986D01*
X173267134Y-65238866D01*
X173041014Y-65053294D01*
X172783034Y-64915401D01*
X172503111Y-64830487D01*
X172284950Y-64809000D01*
X172139050Y-64809000D01*
X171920889Y-64830487D01*
X171640966Y-64915401D01*
X171382986Y-65053294D01*
X171156866Y-65238866D01*
X170971294Y-65464986D01*
X170942000Y-65519791D01*
X170912706Y-65464986D01*
X170727134Y-65238866D01*
X170501014Y-65053294D01*
X170243034Y-64915401D01*
X169963111Y-64830487D01*
X169744950Y-64809000D01*
X169599050Y-64809000D01*
X169380889Y-64830487D01*
X169100966Y-64915401D01*
X168842986Y-65053294D01*
X168616866Y-65238866D01*
X168592393Y-65268687D01*
X168571502Y-65199820D01*
X168512537Y-65089506D01*
X168433185Y-64992815D01*
X168336494Y-64913463D01*
X168226180Y-64854498D01*
X168106482Y-64818188D01*
X167982000Y-64805928D01*
X166282000Y-64805928D01*
X166157518Y-64818188D01*
X166037820Y-64854498D01*
X165927506Y-64913463D01*
X165830815Y-64992815D01*
X165751463Y-65089506D01*
X165692498Y-65199820D01*
X165656188Y-65319518D01*
X165643928Y-65444000D01*
X164291484Y-65444000D01*
X164123134Y-65238866D01*
X163897014Y-65053294D01*
X163639034Y-64915401D01*
X163359111Y-64830487D01*
X163140950Y-64809000D01*
X162995050Y-64809000D01*
X162776889Y-64830487D01*
X162496966Y-64915401D01*
X162238986Y-65053294D01*
X162012866Y-65238866D01*
X161827294Y-65464986D01*
X161798000Y-65519791D01*
X161768706Y-65464986D01*
X161583134Y-65238866D01*
X161357014Y-65053294D01*
X161099034Y-64915401D01*
X160819111Y-64830487D01*
X160600950Y-64809000D01*
X160455050Y-64809000D01*
X160236889Y-64830487D01*
X159956966Y-64915401D01*
X159698986Y-65053294D01*
X159472866Y-65238866D01*
X159287294Y-65464986D01*
X159258000Y-65519791D01*
X159228706Y-65464986D01*
X159043134Y-65238866D01*
X158817014Y-65053294D01*
X158559034Y-64915401D01*
X158279111Y-64830487D01*
X158060950Y-64809000D01*
X157915050Y-64809000D01*
X157696889Y-64830487D01*
X157416966Y-64915401D01*
X157158986Y-65053294D01*
X156932866Y-65238866D01*
X156747294Y-65464986D01*
X156718000Y-65519791D01*
X156688706Y-65464986D01*
X156503134Y-65238866D01*
X156277014Y-65053294D01*
X156019034Y-64915401D01*
X155739111Y-64830487D01*
X155520950Y-64809000D01*
X155375050Y-64809000D01*
X155156889Y-64830487D01*
X154876966Y-64915401D01*
X154618986Y-65053294D01*
X154392866Y-65238866D01*
X154207294Y-65464986D01*
X154178000Y-65519791D01*
X154148706Y-65464986D01*
X153963134Y-65238866D01*
X153737014Y-65053294D01*
X153479034Y-64915401D01*
X153199111Y-64830487D01*
X152980950Y-64809000D01*
X152835050Y-64809000D01*
X152616889Y-64830487D01*
X152336966Y-64915401D01*
X152078986Y-65053294D01*
X151852866Y-65238866D01*
X151667294Y-65464986D01*
X151638000Y-65519791D01*
X151608706Y-65464986D01*
X151423134Y-65238866D01*
X151197014Y-65053294D01*
X150939034Y-64915401D01*
X150659111Y-64830487D01*
X150440950Y-64809000D01*
X150295050Y-64809000D01*
X150076889Y-64830487D01*
X149796966Y-64915401D01*
X149538986Y-65053294D01*
X149312866Y-65238866D01*
X149127294Y-65464986D01*
X149092799Y-65529523D01*
X149023178Y-65412645D01*
X148828269Y-65196412D01*
X148594920Y-65022359D01*
X148332099Y-64897175D01*
X148184890Y-64852524D01*
X147955000Y-64973845D01*
X147701000Y-64973845D01*
X147471110Y-64852524D01*
X147323901Y-64897175D01*
X147061080Y-65022359D01*
X146827731Y-65196412D01*
X146632822Y-65412645D01*
X146563201Y-65529523D01*
X146528706Y-65464986D01*
X146343134Y-65238866D01*
X146117014Y-65053294D01*
X145859034Y-64915401D01*
X145579111Y-64830487D01*
X145360950Y-64809000D01*
X145215050Y-64809000D01*
X144996889Y-64830487D01*
X144716966Y-64915401D01*
X144458986Y-65053294D01*
X144232866Y-65238866D01*
X144047294Y-65464986D01*
X144018000Y-65519791D01*
X143988706Y-65464986D01*
X143803134Y-65238866D01*
X143577014Y-65053294D01*
X143319034Y-64915401D01*
X143039111Y-64830487D01*
X142820950Y-64809000D01*
X142675050Y-64809000D01*
X142456889Y-64830487D01*
X142176966Y-64915401D01*
X141918986Y-65053294D01*
X141692866Y-65238866D01*
X141668393Y-65268687D01*
X141647502Y-65199820D01*
X141588537Y-65089506D01*
X141509185Y-64992815D01*
X141412494Y-64913463D01*
X141302180Y-64854498D01*
X141182482Y-64818188D01*
X141058000Y-64805928D01*
X139358000Y-64805928D01*
X139233518Y-64818188D01*
X139113820Y-64854498D01*
X139003506Y-64913463D01*
X138906815Y-64992815D01*
X138827463Y-65089506D01*
X138768498Y-65199820D01*
X138732188Y-65319518D01*
X138719928Y-65444000D01*
X122021600Y-65444000D01*
X122021600Y-62759001D01*
X138791058Y-62759001D01*
X138818765Y-63040310D01*
X138900819Y-63310809D01*
X139034069Y-63560102D01*
X139213393Y-63778609D01*
X139431900Y-63957933D01*
X139681193Y-64091183D01*
X139951692Y-64173237D01*
X140162509Y-64194001D01*
X140303493Y-64194001D01*
X140514310Y-64173237D01*
X140784809Y-64091183D01*
X141034102Y-63957933D01*
X141252609Y-63778609D01*
X141431933Y-63560102D01*
X141503001Y-63427143D01*
X141574069Y-63560102D01*
X141753393Y-63778609D01*
X141971900Y-63957933D01*
X142221193Y-64091183D01*
X142491692Y-64173237D01*
X142702509Y-64194001D01*
X142843493Y-64194001D01*
X143054310Y-64173237D01*
X143324809Y-64091183D01*
X143574102Y-63957933D01*
X143792609Y-63778609D01*
X143971933Y-63560102D01*
X144043001Y-63427143D01*
X144114069Y-63560102D01*
X144293393Y-63778609D01*
X144511900Y-63957933D01*
X144761193Y-64091183D01*
X145031692Y-64173237D01*
X145242509Y-64194001D01*
X145383493Y-64194001D01*
X145594310Y-64173237D01*
X145864809Y-64091183D01*
X146114102Y-63957933D01*
X146332609Y-63778609D01*
X146511933Y-63560102D01*
X146585580Y-63422319D01*
X146700616Y-63614132D01*
X146889587Y-63822520D01*
X147115581Y-63990038D01*
X147369914Y-64110247D01*
X147503962Y-64150905D01*
X147726001Y-64028916D01*
X147726001Y-62886001D01*
X147706001Y-62886001D01*
X147706001Y-62632001D01*
X147726001Y-62632001D01*
X147726001Y-61489086D01*
X147980001Y-61489086D01*
X147980001Y-62632001D01*
X148000001Y-62632001D01*
X148000001Y-62886001D01*
X147980001Y-62886001D01*
X147980001Y-64028916D01*
X148202040Y-64150905D01*
X148336088Y-64110247D01*
X148590421Y-63990038D01*
X148816415Y-63822520D01*
X149005386Y-63614132D01*
X149120422Y-63422319D01*
X149194069Y-63560102D01*
X149373393Y-63778609D01*
X149591900Y-63957933D01*
X149841193Y-64091183D01*
X150111692Y-64173237D01*
X150322509Y-64194001D01*
X150463493Y-64194001D01*
X150674310Y-64173237D01*
X150944809Y-64091183D01*
X151194102Y-63957933D01*
X151412609Y-63778609D01*
X151591933Y-63560102D01*
X151663001Y-63427143D01*
X151734069Y-63560102D01*
X151913393Y-63778609D01*
X152131900Y-63957933D01*
X152381193Y-64091183D01*
X152651692Y-64173237D01*
X152862509Y-64194001D01*
X153003493Y-64194001D01*
X153214310Y-64173237D01*
X153484809Y-64091183D01*
X153734102Y-63957933D01*
X153952609Y-63778609D01*
X154131933Y-63560102D01*
X154203001Y-63427143D01*
X154274069Y-63560102D01*
X154453393Y-63778609D01*
X154671900Y-63957933D01*
X154921193Y-64091183D01*
X155191692Y-64173237D01*
X155402509Y-64194001D01*
X155543493Y-64194001D01*
X155754310Y-64173237D01*
X156024809Y-64091183D01*
X156274102Y-63957933D01*
X156492609Y-63778609D01*
X156671933Y-63560102D01*
X156743001Y-63427143D01*
X156814069Y-63560102D01*
X156993393Y-63778609D01*
X157211900Y-63957933D01*
X157461193Y-64091183D01*
X157731692Y-64173237D01*
X157942509Y-64194001D01*
X158083493Y-64194001D01*
X158294310Y-64173237D01*
X158564809Y-64091183D01*
X158814102Y-63957933D01*
X159032609Y-63778609D01*
X159211933Y-63560102D01*
X159283001Y-63427143D01*
X159354069Y-63560102D01*
X159533393Y-63778609D01*
X159751900Y-63957933D01*
X160001193Y-64091183D01*
X160271692Y-64173237D01*
X160482509Y-64194001D01*
X160623493Y-64194001D01*
X160834310Y-64173237D01*
X161104809Y-64091183D01*
X161354102Y-63957933D01*
X161572609Y-63778609D01*
X161751933Y-63560102D01*
X161823001Y-63427143D01*
X161894069Y-63560102D01*
X162073393Y-63778609D01*
X162291900Y-63957933D01*
X162541193Y-64091183D01*
X162811692Y-64173237D01*
X163022509Y-64194001D01*
X163163493Y-64194001D01*
X163374310Y-64173237D01*
X163644809Y-64091183D01*
X163894102Y-63957933D01*
X164112609Y-63778609D01*
X164291933Y-63560102D01*
X164425183Y-63310809D01*
X164507237Y-63040310D01*
X164534944Y-62759001D01*
X165711058Y-62759001D01*
X165738765Y-63040310D01*
X165820819Y-63310809D01*
X165954069Y-63560102D01*
X166133393Y-63778609D01*
X166351900Y-63957933D01*
X166601193Y-64091183D01*
X166871692Y-64173237D01*
X167082509Y-64194001D01*
X167223493Y-64194001D01*
X167434310Y-64173237D01*
X167704809Y-64091183D01*
X167954102Y-63957933D01*
X168172609Y-63778609D01*
X168351933Y-63560102D01*
X168423001Y-63427143D01*
X168494069Y-63560102D01*
X168673393Y-63778609D01*
X168891900Y-63957933D01*
X169141193Y-64091183D01*
X169411692Y-64173237D01*
X169622509Y-64194001D01*
X169763493Y-64194001D01*
X169974310Y-64173237D01*
X170244809Y-64091183D01*
X170494102Y-63957933D01*
X170712609Y-63778609D01*
X170891933Y-63560102D01*
X170963001Y-63427143D01*
X171034069Y-63560102D01*
X171213393Y-63778609D01*
X171431900Y-63957933D01*
X171681193Y-64091183D01*
X171951692Y-64173237D01*
X172162509Y-64194001D01*
X172303493Y-64194001D01*
X172514310Y-64173237D01*
X172784809Y-64091183D01*
X173034102Y-63957933D01*
X173252609Y-63778609D01*
X173431933Y-63560102D01*
X173503001Y-63427143D01*
X173574069Y-63560102D01*
X173753393Y-63778609D01*
X173971900Y-63957933D01*
X174221193Y-64091183D01*
X174491692Y-64173237D01*
X174702509Y-64194001D01*
X174843493Y-64194001D01*
X175054310Y-64173237D01*
X175324809Y-64091183D01*
X175574102Y-63957933D01*
X175792609Y-63778609D01*
X175971933Y-63560102D01*
X176043001Y-63427143D01*
X176114069Y-63560102D01*
X176293393Y-63778609D01*
X176511900Y-63957933D01*
X176761193Y-64091183D01*
X177031692Y-64173237D01*
X177242509Y-64194001D01*
X177383493Y-64194001D01*
X177594310Y-64173237D01*
X177864809Y-64091183D01*
X178114102Y-63957933D01*
X178332609Y-63778609D01*
X178511933Y-63560102D01*
X178583001Y-63427143D01*
X178654069Y-63560102D01*
X178833393Y-63778609D01*
X179051900Y-63957933D01*
X179301193Y-64091183D01*
X179571692Y-64173237D01*
X179782509Y-64194001D01*
X179923493Y-64194001D01*
X180134310Y-64173237D01*
X180404809Y-64091183D01*
X180654102Y-63957933D01*
X180872609Y-63778609D01*
X181051933Y-63560102D01*
X181123001Y-63427143D01*
X181194069Y-63560102D01*
X181373393Y-63778609D01*
X181591900Y-63957933D01*
X181841193Y-64091183D01*
X182111692Y-64173237D01*
X182322509Y-64194001D01*
X182463493Y-64194001D01*
X182674310Y-64173237D01*
X182944809Y-64091183D01*
X183194102Y-63957933D01*
X183412609Y-63778609D01*
X183591933Y-63560102D01*
X183663001Y-63427143D01*
X183734069Y-63560102D01*
X183913393Y-63778609D01*
X184131900Y-63957933D01*
X184381193Y-64091183D01*
X184651692Y-64173237D01*
X184862509Y-64194001D01*
X185003493Y-64194001D01*
X185214310Y-64173237D01*
X185484809Y-64091183D01*
X185734102Y-63957933D01*
X185952609Y-63778609D01*
X186131933Y-63560102D01*
X186265183Y-63310809D01*
X186347237Y-63040310D01*
X186374944Y-62759001D01*
X186347237Y-62477692D01*
X186265183Y-62207193D01*
X186131933Y-61957900D01*
X185952609Y-61739393D01*
X185734102Y-61560069D01*
X185484809Y-61426819D01*
X185214310Y-61344765D01*
X185003493Y-61324001D01*
X184862509Y-61324001D01*
X184651692Y-61344765D01*
X184381193Y-61426819D01*
X184131900Y-61560069D01*
X183913393Y-61739393D01*
X183734069Y-61957900D01*
X183663001Y-62090859D01*
X183591933Y-61957900D01*
X183412609Y-61739393D01*
X183194102Y-61560069D01*
X182944809Y-61426819D01*
X182674310Y-61344765D01*
X182463493Y-61324001D01*
X182322509Y-61324001D01*
X182111692Y-61344765D01*
X181841193Y-61426819D01*
X181591900Y-61560069D01*
X181373393Y-61739393D01*
X181194069Y-61957900D01*
X181123001Y-62090859D01*
X181051933Y-61957900D01*
X180872609Y-61739393D01*
X180654102Y-61560069D01*
X180404809Y-61426819D01*
X180134310Y-61344765D01*
X179923493Y-61324001D01*
X179782509Y-61324001D01*
X179571692Y-61344765D01*
X179301193Y-61426819D01*
X179051900Y-61560069D01*
X178833393Y-61739393D01*
X178654069Y-61957900D01*
X178583001Y-62090859D01*
X178511933Y-61957900D01*
X178332609Y-61739393D01*
X178114102Y-61560069D01*
X177864809Y-61426819D01*
X177594310Y-61344765D01*
X177383493Y-61324001D01*
X177242509Y-61324001D01*
X177031692Y-61344765D01*
X176761193Y-61426819D01*
X176511900Y-61560069D01*
X176293393Y-61739393D01*
X176114069Y-61957900D01*
X176043001Y-62090859D01*
X175971933Y-61957900D01*
X175792609Y-61739393D01*
X175574102Y-61560069D01*
X175324809Y-61426819D01*
X175054310Y-61344765D01*
X174843493Y-61324001D01*
X174702509Y-61324001D01*
X174491692Y-61344765D01*
X174221193Y-61426819D01*
X173971900Y-61560069D01*
X173753393Y-61739393D01*
X173574069Y-61957900D01*
X173503001Y-62090859D01*
X173431933Y-61957900D01*
X173252609Y-61739393D01*
X173034102Y-61560069D01*
X172784809Y-61426819D01*
X172514310Y-61344765D01*
X172303493Y-61324001D01*
X172162509Y-61324001D01*
X171951692Y-61344765D01*
X171681193Y-61426819D01*
X171431900Y-61560069D01*
X171213393Y-61739393D01*
X171034069Y-61957900D01*
X170963001Y-62090859D01*
X170891933Y-61957900D01*
X170712609Y-61739393D01*
X170494102Y-61560069D01*
X170244809Y-61426819D01*
X169974310Y-61344765D01*
X169763493Y-61324001D01*
X169622509Y-61324001D01*
X169411692Y-61344765D01*
X169141193Y-61426819D01*
X168891900Y-61560069D01*
X168673393Y-61739393D01*
X168494069Y-61957900D01*
X168423001Y-62090859D01*
X168351933Y-61957900D01*
X168172609Y-61739393D01*
X167954102Y-61560069D01*
X167704809Y-61426819D01*
X167434310Y-61344765D01*
X167223493Y-61324001D01*
X167082509Y-61324001D01*
X166871692Y-61344765D01*
X166601193Y-61426819D01*
X166351900Y-61560069D01*
X166133393Y-61739393D01*
X165954069Y-61957900D01*
X165820819Y-62207193D01*
X165738765Y-62477692D01*
X165711058Y-62759001D01*
X164534944Y-62759001D01*
X164507237Y-62477692D01*
X164425183Y-62207193D01*
X164291933Y-61957900D01*
X164112609Y-61739393D01*
X163894102Y-61560069D01*
X163644809Y-61426819D01*
X163374310Y-61344765D01*
X163163493Y-61324001D01*
X163022509Y-61324001D01*
X162811692Y-61344765D01*
X162541193Y-61426819D01*
X162291900Y-61560069D01*
X162073393Y-61739393D01*
X161894069Y-61957900D01*
X161823001Y-62090859D01*
X161751933Y-61957900D01*
X161572609Y-61739393D01*
X161354102Y-61560069D01*
X161104809Y-61426819D01*
X160834310Y-61344765D01*
X160623493Y-61324001D01*
X160482509Y-61324001D01*
X160271692Y-61344765D01*
X160001193Y-61426819D01*
X159751900Y-61560069D01*
X159533393Y-61739393D01*
X159354069Y-61957900D01*
X159283001Y-62090859D01*
X159211933Y-61957900D01*
X159032609Y-61739393D01*
X158814102Y-61560069D01*
X158564809Y-61426819D01*
X158294310Y-61344765D01*
X158083493Y-61324001D01*
X157942509Y-61324001D01*
X157731692Y-61344765D01*
X157461193Y-61426819D01*
X157211900Y-61560069D01*
X156993393Y-61739393D01*
X156814069Y-61957900D01*
X156743001Y-62090859D01*
X156671933Y-61957900D01*
X156492609Y-61739393D01*
X156274102Y-61560069D01*
X156024809Y-61426819D01*
X155754310Y-61344765D01*
X155543493Y-61324001D01*
X155402509Y-61324001D01*
X155191692Y-61344765D01*
X154921193Y-61426819D01*
X154671900Y-61560069D01*
X154453393Y-61739393D01*
X154274069Y-61957900D01*
X154203001Y-62090859D01*
X154131933Y-61957900D01*
X153952609Y-61739393D01*
X153734102Y-61560069D01*
X153484809Y-61426819D01*
X153214310Y-61344765D01*
X153003493Y-61324001D01*
X152862509Y-61324001D01*
X152651692Y-61344765D01*
X152381193Y-61426819D01*
X152131900Y-61560069D01*
X151913393Y-61739393D01*
X151734069Y-61957900D01*
X151663001Y-62090859D01*
X151591933Y-61957900D01*
X151412609Y-61739393D01*
X151194102Y-61560069D01*
X150944809Y-61426819D01*
X150674310Y-61344765D01*
X150463493Y-61324001D01*
X150322509Y-61324001D01*
X150111692Y-61344765D01*
X149841193Y-61426819D01*
X149591900Y-61560069D01*
X149373393Y-61739393D01*
X149194069Y-61957900D01*
X149120422Y-62095683D01*
X149005386Y-61903870D01*
X148816415Y-61695482D01*
X148590421Y-61527964D01*
X148336088Y-61407755D01*
X148202040Y-61367097D01*
X147980001Y-61489086D01*
X147726001Y-61489086D01*
X147503962Y-61367097D01*
X147369914Y-61407755D01*
X147115581Y-61527964D01*
X146889587Y-61695482D01*
X146700616Y-61903870D01*
X146585580Y-62095683D01*
X146511933Y-61957900D01*
X146332609Y-61739393D01*
X146114102Y-61560069D01*
X145864809Y-61426819D01*
X145594310Y-61344765D01*
X145383493Y-61324001D01*
X145242509Y-61324001D01*
X145031692Y-61344765D01*
X144761193Y-61426819D01*
X144511900Y-61560069D01*
X144293393Y-61739393D01*
X144114069Y-61957900D01*
X144043001Y-62090859D01*
X143971933Y-61957900D01*
X143792609Y-61739393D01*
X143574102Y-61560069D01*
X143324809Y-61426819D01*
X143054310Y-61344765D01*
X142843493Y-61324001D01*
X142702509Y-61324001D01*
X142491692Y-61344765D01*
X142221193Y-61426819D01*
X141971900Y-61560069D01*
X141753393Y-61739393D01*
X141574069Y-61957900D01*
X141503001Y-62090859D01*
X141431933Y-61957900D01*
X141252609Y-61739393D01*
X141034102Y-61560069D01*
X140784809Y-61426819D01*
X140514310Y-61344765D01*
X140303493Y-61324001D01*
X140162509Y-61324001D01*
X139951692Y-61344765D01*
X139681193Y-61426819D01*
X139431900Y-61560069D01*
X139213393Y-61739393D01*
X139034069Y-61957900D01*
X138900819Y-62207193D01*
X138818765Y-62477692D01*
X138791058Y-62759001D01*
X122021600Y-62759001D01*
X122021600Y-60807600D01*
X189382400Y-60807600D01*
X189382401Y-112928400D01*
X189382401Y-112928400D01*
G37*
X189382401Y-112928400D02*
X122021600Y-112928400D01*
X122021600Y-110219001D01*
X147934929Y-110219001D01*
X147934929Y-111819001D01*
X147947189Y-111943483D01*
X147983499Y-112063181D01*
X148042464Y-112173495D01*
X148121816Y-112270186D01*
X148218507Y-112349538D01*
X148328821Y-112408503D01*
X148448519Y-112444813D01*
X148573001Y-112457073D01*
X150173001Y-112457073D01*
X150297483Y-112444813D01*
X150417181Y-112408503D01*
X150527495Y-112349538D01*
X150624186Y-112270186D01*
X150703538Y-112173495D01*
X150762503Y-112063181D01*
X150798813Y-111943483D01*
X150800582Y-111925519D01*
X150893393Y-112038609D01*
X151111900Y-112217933D01*
X151361193Y-112351183D01*
X151631692Y-112433237D01*
X151842509Y-112454001D01*
X151983493Y-112454001D01*
X152194310Y-112433237D01*
X152464809Y-112351183D01*
X152714102Y-112217933D01*
X152932609Y-112038609D01*
X153111933Y-111820102D01*
X153183001Y-111687143D01*
X153254069Y-111820102D01*
X153433393Y-112038609D01*
X153651900Y-112217933D01*
X153901193Y-112351183D01*
X154171692Y-112433237D01*
X154382509Y-112454001D01*
X154523493Y-112454001D01*
X154734310Y-112433237D01*
X155004809Y-112351183D01*
X155254102Y-112217933D01*
X155472609Y-112038609D01*
X155651933Y-111820102D01*
X155723001Y-111687143D01*
X155794069Y-111820102D01*
X155973393Y-112038609D01*
X156191900Y-112217933D01*
X156441193Y-112351183D01*
X156711692Y-112433237D01*
X156922509Y-112454001D01*
X157063493Y-112454001D01*
X157274310Y-112433237D01*
X157544809Y-112351183D01*
X157794102Y-112217933D01*
X158012609Y-112038609D01*
X158191933Y-111820102D01*
X158263001Y-111687143D01*
X158334069Y-111820102D01*
X158513393Y-112038609D01*
X158731900Y-112217933D01*
X158981193Y-112351183D01*
X159251692Y-112433237D01*
X159462509Y-112454001D01*
X159603493Y-112454001D01*
X159814310Y-112433237D01*
X160084809Y-112351183D01*
X160334102Y-112217933D01*
X160552609Y-112038609D01*
X160731933Y-111820102D01*
X160805580Y-111682319D01*
X160920616Y-111874132D01*
X161109587Y-112082520D01*
X161335581Y-112250038D01*
X161589914Y-112370247D01*
X161723962Y-112410905D01*
X161946001Y-112288916D01*
X161946001Y-111146001D01*
X162200001Y-111146001D01*
X162200001Y-112288916D01*
X162422040Y-112410905D01*
X162556088Y-112370247D01*
X162810421Y-112250038D01*
X163036415Y-112082520D01*
X163225386Y-111874132D01*
X163343001Y-111678019D01*
X163460616Y-111874132D01*
X163649587Y-112082520D01*
X163875581Y-112250038D01*
X164129914Y-112370247D01*
X164263962Y-112410905D01*
X164486001Y-112288916D01*
X164486001Y-111146001D01*
X162200001Y-111146001D01*
X161946001Y-111146001D01*
X161926001Y-111146001D01*
X161926001Y-110892001D01*
X161946001Y-110892001D01*
X161946001Y-109749086D01*
X162200001Y-109749086D01*
X162200001Y-110892001D01*
X164486001Y-110892001D01*
X164486001Y-109749086D01*
X164740001Y-109749086D01*
X164740001Y-110892001D01*
X164760001Y-110892001D01*
X164760001Y-111146001D01*
X164740001Y-111146001D01*
X164740001Y-112288916D01*
X164962040Y-112410905D01*
X165096088Y-112370247D01*
X165350421Y-112250038D01*
X165576415Y-112082520D01*
X165765386Y-111874132D01*
X165880422Y-111682319D01*
X165954069Y-111820102D01*
X166133393Y-112038609D01*
X166351900Y-112217933D01*
X166601193Y-112351183D01*
X166871692Y-112433237D01*
X167082509Y-112454001D01*
X167223493Y-112454001D01*
X167434310Y-112433237D01*
X167704809Y-112351183D01*
X167954102Y-112217933D01*
X168172609Y-112038609D01*
X168351933Y-111820102D01*
X168485183Y-111570809D01*
X168567237Y-111300310D01*
X168594944Y-111019001D01*
X170791058Y-111019001D01*
X170818765Y-111300310D01*
X170900819Y-111570809D01*
X171034069Y-111820102D01*
X171213393Y-112038609D01*
X171431900Y-112217933D01*
X171681193Y-112351183D01*
X171951692Y-112433237D01*
X172162509Y-112454001D01*
X172303493Y-112454001D01*
X172514310Y-112433237D01*
X172784809Y-112351183D01*
X173034102Y-112217933D01*
X173252609Y-112038609D01*
X173431933Y-111820102D01*
X173503001Y-111687143D01*
X173574069Y-111820102D01*
X173753393Y-112038609D01*
X173971900Y-112217933D01*
X174221193Y-112351183D01*
X174491692Y-112433237D01*
X174702509Y-112454001D01*
X174843493Y-112454001D01*
X175054310Y-112433237D01*
X175324809Y-112351183D01*
X175574102Y-112217933D01*
X175792609Y-112038609D01*
X175971933Y-111820102D01*
X176043001Y-111687143D01*
X176114069Y-111820102D01*
X176293393Y-112038609D01*
X176511900Y-112217933D01*
X176761193Y-112351183D01*
X177031692Y-112433237D01*
X177242509Y-112454001D01*
X177383493Y-112454001D01*
X177594310Y-112433237D01*
X177864809Y-112351183D01*
X178114102Y-112217933D01*
X178332609Y-112038609D01*
X178511933Y-111820102D01*
X178583001Y-111687143D01*
X178654069Y-111820102D01*
X178833393Y-112038609D01*
X179051900Y-112217933D01*
X179301193Y-112351183D01*
X179571692Y-112433237D01*
X179782509Y-112454001D01*
X179923493Y-112454001D01*
X180134310Y-112433237D01*
X180404809Y-112351183D01*
X180654102Y-112217933D01*
X180872609Y-112038609D01*
X181051933Y-111820102D01*
X181123001Y-111687143D01*
X181194069Y-111820102D01*
X181373393Y-112038609D01*
X181591900Y-112217933D01*
X181841193Y-112351183D01*
X182111692Y-112433237D01*
X182322509Y-112454001D01*
X182463493Y-112454001D01*
X182674310Y-112433237D01*
X182944809Y-112351183D01*
X183194102Y-112217933D01*
X183412609Y-112038609D01*
X183591933Y-111820102D01*
X183663001Y-111687143D01*
X183734069Y-111820102D01*
X183913393Y-112038609D01*
X184131900Y-112217933D01*
X184381193Y-112351183D01*
X184651692Y-112433237D01*
X184862509Y-112454001D01*
X185003493Y-112454001D01*
X185214310Y-112433237D01*
X185484809Y-112351183D01*
X185734102Y-112217933D01*
X185952609Y-112038609D01*
X186131933Y-111820102D01*
X186265183Y-111570809D01*
X186347237Y-111300310D01*
X186374944Y-111019001D01*
X186347237Y-110737692D01*
X186265183Y-110467193D01*
X186131933Y-110217900D01*
X185952609Y-109999393D01*
X185734102Y-109820069D01*
X185484809Y-109686819D01*
X185214310Y-109604765D01*
X185003493Y-109584001D01*
X184862509Y-109584001D01*
X184651692Y-109604765D01*
X184381193Y-109686819D01*
X184131900Y-109820069D01*
X183913393Y-109999393D01*
X183734069Y-110217900D01*
X183663001Y-110350859D01*
X183591933Y-110217900D01*
X183412609Y-109999393D01*
X183194102Y-109820069D01*
X182944809Y-109686819D01*
X182674310Y-109604765D01*
X182463493Y-109584001D01*
X182322509Y-109584001D01*
X182111692Y-109604765D01*
X181841193Y-109686819D01*
X181591900Y-109820069D01*
X181373393Y-109999393D01*
X181194069Y-110217900D01*
X181123001Y-110350859D01*
X181051933Y-110217900D01*
X180872609Y-109999393D01*
X180654102Y-109820069D01*
X180404809Y-109686819D01*
X180134310Y-109604765D01*
X179923493Y-109584001D01*
X179782509Y-109584001D01*
X179571692Y-109604765D01*
X179301193Y-109686819D01*
X179051900Y-109820069D01*
X178833393Y-109999393D01*
X178654069Y-110217900D01*
X178583001Y-110350859D01*
X178511933Y-110217900D01*
X178332609Y-109999393D01*
X178114102Y-109820069D01*
X177864809Y-109686819D01*
X177594310Y-109604765D01*
X177383493Y-109584001D01*
X177242509Y-109584001D01*
X177031692Y-109604765D01*
X176761193Y-109686819D01*
X176511900Y-109820069D01*
X176293393Y-109999393D01*
X176114069Y-110217900D01*
X176043001Y-110350859D01*
X175971933Y-110217900D01*
X175792609Y-109999393D01*
X175574102Y-109820069D01*
X175324809Y-109686819D01*
X175054310Y-109604765D01*
X174843493Y-109584001D01*
X174702509Y-109584001D01*
X174491692Y-109604765D01*
X174221193Y-109686819D01*
X173971900Y-109820069D01*
X173753393Y-109999393D01*
X173574069Y-110217900D01*
X173503001Y-110350859D01*
X173431933Y-110217900D01*
X173252609Y-109999393D01*
X173034102Y-109820069D01*
X172784809Y-109686819D01*
X172514310Y-109604765D01*
X172303493Y-109584001D01*
X172162509Y-109584001D01*
X171951692Y-109604765D01*
X171681193Y-109686819D01*
X171431900Y-109820069D01*
X171213393Y-109999393D01*
X171034069Y-110217900D01*
X170900819Y-110467193D01*
X170818765Y-110737692D01*
X170791058Y-111019001D01*
X168594944Y-111019001D01*
X168567237Y-110737692D01*
X168485183Y-110467193D01*
X168351933Y-110217900D01*
X168172609Y-109999393D01*
X167954102Y-109820069D01*
X167704809Y-109686819D01*
X167434310Y-109604765D01*
X167223493Y-109584001D01*
X167082509Y-109584001D01*
X166871692Y-109604765D01*
X166601193Y-109686819D01*
X166351900Y-109820069D01*
X166133393Y-109999393D01*
X165954069Y-110217900D01*
X165880422Y-110355683D01*
X165765386Y-110163870D01*
X165576415Y-109955482D01*
X165350421Y-109787964D01*
X165096088Y-109667755D01*
X164962040Y-109627097D01*
X164740001Y-109749086D01*
X164486001Y-109749086D01*
X164263962Y-109627097D01*
X164129914Y-109667755D01*
X163875581Y-109787964D01*
X163649587Y-109955482D01*
X163460616Y-110163870D01*
X163343001Y-110359983D01*
X163225386Y-110163870D01*
X163036415Y-109955482D01*
X162810421Y-109787964D01*
X162556088Y-109667755D01*
X162422040Y-109627097D01*
X162200001Y-109749086D01*
X161946001Y-109749086D01*
X161723962Y-109627097D01*
X161589914Y-109667755D01*
X161335581Y-109787964D01*
X161109587Y-109955482D01*
X160920616Y-110163870D01*
X160805580Y-110355683D01*
X160731933Y-110217900D01*
X160552609Y-109999393D01*
X160334102Y-109820069D01*
X160084809Y-109686819D01*
X159814310Y-109604765D01*
X159603493Y-109584001D01*
X159462509Y-109584001D01*
X159251692Y-109604765D01*
X158981193Y-109686819D01*
X158731900Y-109820069D01*
X158513393Y-109999393D01*
X158334069Y-110217900D01*
X158263001Y-110350859D01*
X158191933Y-110217900D01*
X158012609Y-109999393D01*
X157794102Y-109820069D01*
X157544809Y-109686819D01*
X157274310Y-109604765D01*
X157063493Y-109584001D01*
X156922509Y-109584001D01*
X156711692Y-109604765D01*
X156441193Y-109686819D01*
X156191900Y-109820069D01*
X155973393Y-109999393D01*
X155794069Y-110217900D01*
X155723001Y-110350859D01*
X155651933Y-110217900D01*
X155472609Y-109999393D01*
X155254102Y-109820069D01*
X155004809Y-109686819D01*
X154734310Y-109604765D01*
X154523493Y-109584001D01*
X154382509Y-109584001D01*
X154171692Y-109604765D01*
X153901193Y-109686819D01*
X153651900Y-109820069D01*
X153433393Y-109999393D01*
X153254069Y-110217900D01*
X153183001Y-110350859D01*
X153111933Y-110217900D01*
X152932609Y-109999393D01*
X152714102Y-109820069D01*
X152464809Y-109686819D01*
X152194310Y-109604765D01*
X151983493Y-109584001D01*
X151842509Y-109584001D01*
X151631692Y-109604765D01*
X151361193Y-109686819D01*
X151111900Y-109820069D01*
X150893393Y-109999393D01*
X150800582Y-110112483D01*
X150798813Y-110094519D01*
X150762503Y-109974821D01*
X150703538Y-109864507D01*
X150624186Y-109767816D01*
X150527495Y-109688464D01*
X150417181Y-109629499D01*
X150297483Y-109593189D01*
X150173001Y-109580929D01*
X148573001Y-109580929D01*
X148448519Y-109593189D01*
X148328821Y-109629499D01*
X148218507Y-109688464D01*
X148121816Y-109767816D01*
X148042464Y-109864507D01*
X147983499Y-109974821D01*
X147947189Y-110094519D01*
X147934929Y-110219001D01*
X122021600Y-110219001D01*
X122021600Y-106846000D01*
X147863928Y-106846000D01*
X147863928Y-108546000D01*
X147876188Y-108670482D01*
X147912498Y-108790180D01*
X147971463Y-108900494D01*
X148050815Y-108997185D01*
X148147506Y-109076537D01*
X148257820Y-109135502D01*
X148377518Y-109171812D01*
X148502000Y-109184072D01*
X150202000Y-109184072D01*
X150326482Y-109171812D01*
X150446180Y-109135502D01*
X150556494Y-109076537D01*
X150653185Y-108997185D01*
X150732537Y-108900494D01*
X150791502Y-108790180D01*
X150812393Y-108721313D01*
X150836866Y-108751134D01*
X151062986Y-108936706D01*
X151320966Y-109074599D01*
X151600889Y-109159513D01*
X151819050Y-109181000D01*
X151964950Y-109181000D01*
X152183111Y-109159513D01*
X152463034Y-109074599D01*
X152721014Y-108936706D01*
X152947134Y-108751134D01*
X153132706Y-108525014D01*
X153162000Y-108470209D01*
X153191294Y-108525014D01*
X153376866Y-108751134D01*
X153602986Y-108936706D01*
X153860966Y-109074599D01*
X154140889Y-109159513D01*
X154359050Y-109181000D01*
X154504950Y-109181000D01*
X154723111Y-109159513D01*
X155003034Y-109074599D01*
X155261014Y-108936706D01*
X155487134Y-108751134D01*
X155672706Y-108525014D01*
X155702000Y-108470209D01*
X155731294Y-108525014D01*
X155916866Y-108751134D01*
X156142986Y-108936706D01*
X156400966Y-109074599D01*
X156680889Y-109159513D01*
X156899050Y-109181000D01*
X157044950Y-109181000D01*
X157263111Y-109159513D01*
X157543034Y-109074599D01*
X157801014Y-108936706D01*
X158027134Y-108751134D01*
X158212706Y-108525014D01*
X158242000Y-108470209D01*
X158271294Y-108525014D01*
X158456866Y-108751134D01*
X158682986Y-108936706D01*
X158940966Y-109074599D01*
X159220889Y-109159513D01*
X159439050Y-109181000D01*
X159584950Y-109181000D01*
X159803111Y-109159513D01*
X160083034Y-109074599D01*
X160341014Y-108936706D01*
X160567134Y-108751134D01*
X160752706Y-108525014D01*
X160787201Y-108460477D01*
X160856822Y-108577355D01*
X161051731Y-108793588D01*
X161285080Y-108967641D01*
X161547901Y-109092825D01*
X161695110Y-109137476D01*
X161925000Y-109016155D01*
X161925000Y-107823000D01*
X162179000Y-107823000D01*
X162179000Y-109016155D01*
X162408890Y-109137476D01*
X162556099Y-109092825D01*
X162818920Y-108967641D01*
X163052269Y-108793588D01*
X163247178Y-108577355D01*
X163322000Y-108451745D01*
X163396822Y-108577355D01*
X163591731Y-108793588D01*
X163825080Y-108967641D01*
X164087901Y-109092825D01*
X164235110Y-109137476D01*
X164465000Y-109016155D01*
X164465000Y-107823000D01*
X162179000Y-107823000D01*
X161925000Y-107823000D01*
X161905000Y-107823000D01*
X161905000Y-107569000D01*
X161925000Y-107569000D01*
X161925000Y-106375845D01*
X162179000Y-106375845D01*
X162179000Y-107569000D01*
X164465000Y-107569000D01*
X164465000Y-106375845D01*
X164719000Y-106375845D01*
X164719000Y-107569000D01*
X164739000Y-107569000D01*
X164739000Y-107823000D01*
X164719000Y-107823000D01*
X164719000Y-109016155D01*
X164948890Y-109137476D01*
X165096099Y-109092825D01*
X165358920Y-108967641D01*
X165592269Y-108793588D01*
X165787178Y-108577355D01*
X165856799Y-108460477D01*
X165891294Y-108525014D01*
X166076866Y-108751134D01*
X166302986Y-108936706D01*
X166560966Y-109074599D01*
X166840889Y-109159513D01*
X167059050Y-109181000D01*
X167204950Y-109181000D01*
X167423111Y-109159513D01*
X167703034Y-109074599D01*
X167961014Y-108936706D01*
X168187134Y-108751134D01*
X168372706Y-108525014D01*
X168510599Y-108267034D01*
X168595513Y-107987111D01*
X168624185Y-107696000D01*
X168595513Y-107404889D01*
X168510599Y-107124966D01*
X168372706Y-106866986D01*
X168355484Y-106846000D01*
X170723928Y-106846000D01*
X170723928Y-108546000D01*
X170736188Y-108670482D01*
X170772498Y-108790180D01*
X170831463Y-108900494D01*
X170910815Y-108997185D01*
X171007506Y-109076537D01*
X171117820Y-109135502D01*
X171237518Y-109171812D01*
X171362000Y-109184072D01*
X173062000Y-109184072D01*
X173186482Y-109171812D01*
X173306180Y-109135502D01*
X173416494Y-109076537D01*
X173513185Y-108997185D01*
X173592537Y-108900494D01*
X173651502Y-108790180D01*
X173672393Y-108721313D01*
X173696866Y-108751134D01*
X173922986Y-108936706D01*
X174180966Y-109074599D01*
X174460889Y-109159513D01*
X174679050Y-109181000D01*
X174824950Y-109181000D01*
X175043111Y-109159513D01*
X175323034Y-109074599D01*
X175581014Y-108936706D01*
X175807134Y-108751134D01*
X175992706Y-108525014D01*
X176022000Y-108470209D01*
X176051294Y-108525014D01*
X176236866Y-108751134D01*
X176462986Y-108936706D01*
X176720966Y-109074599D01*
X177000889Y-109159513D01*
X177219050Y-109181000D01*
X177364950Y-109181000D01*
X177583111Y-109159513D01*
X177863034Y-109074599D01*
X178121014Y-108936706D01*
X178347134Y-108751134D01*
X178532706Y-108525014D01*
X178562000Y-108470209D01*
X178591294Y-108525014D01*
X178776866Y-108751134D01*
X179002986Y-108936706D01*
X179260966Y-109074599D01*
X179540889Y-109159513D01*
X179759050Y-109181000D01*
X179904950Y-109181000D01*
X180123111Y-109159513D01*
X180403034Y-109074599D01*
X180661014Y-108936706D01*
X180887134Y-108751134D01*
X181072706Y-108525014D01*
X181102000Y-108470209D01*
X181131294Y-108525014D01*
X181316866Y-108751134D01*
X181542986Y-108936706D01*
X181800966Y-109074599D01*
X182080889Y-109159513D01*
X182299050Y-109181000D01*
X182444950Y-109181000D01*
X182663111Y-109159513D01*
X182943034Y-109074599D01*
X183201014Y-108936706D01*
X183427134Y-108751134D01*
X183612706Y-108525014D01*
X183642000Y-108470209D01*
X183671294Y-108525014D01*
X183856866Y-108751134D01*
X184082986Y-108936706D01*
X184340966Y-109074599D01*
X184620889Y-109159513D01*
X184839050Y-109181000D01*
X184984950Y-109181000D01*
X185203111Y-109159513D01*
X185483034Y-109074599D01*
X185741014Y-108936706D01*
X185967134Y-108751134D01*
X186152706Y-108525014D01*
X186290599Y-108267034D01*
X186375513Y-107987111D01*
X186404185Y-107696000D01*
X186375513Y-107404889D01*
X186290599Y-107124966D01*
X186152706Y-106866986D01*
X185967134Y-106640866D01*
X185741014Y-106455294D01*
X185483034Y-106317401D01*
X185203111Y-106232487D01*
X184984950Y-106211000D01*
X184839050Y-106211000D01*
X184620889Y-106232487D01*
X184340966Y-106317401D01*
X184082986Y-106455294D01*
X183856866Y-106640866D01*
X183671294Y-106866986D01*
X183642000Y-106921791D01*
X183612706Y-106866986D01*
X183427134Y-106640866D01*
X183201014Y-106455294D01*
X182943034Y-106317401D01*
X182663111Y-106232487D01*
X182444950Y-106211000D01*
X182299050Y-106211000D01*
X182080889Y-106232487D01*
X181800966Y-106317401D01*
X181542986Y-106455294D01*
X181316866Y-106640866D01*
X181131294Y-106866986D01*
X181102000Y-106921791D01*
X181072706Y-106866986D01*
X180887134Y-106640866D01*
X180661014Y-106455294D01*
X180403034Y-106317401D01*
X180123111Y-106232487D01*
X179904950Y-106211000D01*
X179759050Y-106211000D01*
X179540889Y-106232487D01*
X179260966Y-106317401D01*
X179002986Y-106455294D01*
X178776866Y-106640866D01*
X178591294Y-106866986D01*
X178562000Y-106921791D01*
X178532706Y-106866986D01*
X178347134Y-106640866D01*
X178121014Y-106455294D01*
X177863034Y-106317401D01*
X177583111Y-106232487D01*
X177364950Y-106211000D01*
X177219050Y-106211000D01*
X177000889Y-106232487D01*
X176720966Y-106317401D01*
X176462986Y-106455294D01*
X176236866Y-106640866D01*
X176051294Y-106866986D01*
X176022000Y-106921791D01*
X175992706Y-106866986D01*
X175807134Y-106640866D01*
X175581014Y-106455294D01*
X175323034Y-106317401D01*
X175043111Y-106232487D01*
X174824950Y-106211000D01*
X174679050Y-106211000D01*
X174460889Y-106232487D01*
X174180966Y-106317401D01*
X173922986Y-106455294D01*
X173696866Y-106640866D01*
X173672393Y-106670687D01*
X173651502Y-106601820D01*
X173592537Y-106491506D01*
X173513185Y-106394815D01*
X173416494Y-106315463D01*
X173306180Y-106256498D01*
X173186482Y-106220188D01*
X173062000Y-106207928D01*
X171362000Y-106207928D01*
X171237518Y-106220188D01*
X171117820Y-106256498D01*
X171007506Y-106315463D01*
X170910815Y-106394815D01*
X170831463Y-106491506D01*
X170772498Y-106601820D01*
X170736188Y-106721518D01*
X170723928Y-106846000D01*
X168355484Y-106846000D01*
X168187134Y-106640866D01*
X167961014Y-106455294D01*
X167703034Y-106317401D01*
X167423111Y-106232487D01*
X167204950Y-106211000D01*
X167059050Y-106211000D01*
X166840889Y-106232487D01*
X166560966Y-106317401D01*
X166302986Y-106455294D01*
X166076866Y-106640866D01*
X165891294Y-106866986D01*
X165856799Y-106931523D01*
X165787178Y-106814645D01*
X165592269Y-106598412D01*
X165358920Y-106424359D01*
X165096099Y-106299175D01*
X164948890Y-106254524D01*
X164719000Y-106375845D01*
X164465000Y-106375845D01*
X164235110Y-106254524D01*
X164087901Y-106299175D01*
X163825080Y-106424359D01*
X163591731Y-106598412D01*
X163396822Y-106814645D01*
X163322000Y-106940255D01*
X163247178Y-106814645D01*
X163052269Y-106598412D01*
X162818920Y-106424359D01*
X162556099Y-106299175D01*
X162408890Y-106254524D01*
X162179000Y-106375845D01*
X161925000Y-106375845D01*
X161695110Y-106254524D01*
X161547901Y-106299175D01*
X161285080Y-106424359D01*
X161051731Y-106598412D01*
X160856822Y-106814645D01*
X160787201Y-106931523D01*
X160752706Y-106866986D01*
X160567134Y-106640866D01*
X160341014Y-106455294D01*
X160083034Y-106317401D01*
X159803111Y-106232487D01*
X159584950Y-106211000D01*
X159439050Y-106211000D01*
X159220889Y-106232487D01*
X158940966Y-106317401D01*
X158682986Y-106455294D01*
X158456866Y-106640866D01*
X158271294Y-106866986D01*
X158242000Y-106921791D01*
X158212706Y-106866986D01*
X158027134Y-106640866D01*
X157801014Y-106455294D01*
X157543034Y-106317401D01*
X157263111Y-106232487D01*
X157044950Y-106211000D01*
X156899050Y-106211000D01*
X156680889Y-106232487D01*
X156400966Y-106317401D01*
X156142986Y-106455294D01*
X155916866Y-106640866D01*
X155731294Y-106866986D01*
X155702000Y-106921791D01*
X155672706Y-106866986D01*
X155487134Y-106640866D01*
X155261014Y-106455294D01*
X155003034Y-106317401D01*
X154723111Y-106232487D01*
X154504950Y-106211000D01*
X154359050Y-106211000D01*
X154140889Y-106232487D01*
X153860966Y-106317401D01*
X153602986Y-106455294D01*
X153376866Y-106640866D01*
X153191294Y-106866986D01*
X153162000Y-106921791D01*
X153132706Y-106866986D01*
X152947134Y-106640866D01*
X152721014Y-106455294D01*
X152463034Y-106317401D01*
X152183111Y-106232487D01*
X151964950Y-106211000D01*
X151819050Y-106211000D01*
X151600889Y-106232487D01*
X151320966Y-106317401D01*
X151062986Y-106455294D01*
X150836866Y-106640866D01*
X150812393Y-106670687D01*
X150791502Y-106601820D01*
X150732537Y-106491506D01*
X150653185Y-106394815D01*
X150556494Y-106315463D01*
X150446180Y-106256498D01*
X150326482Y-106220188D01*
X150202000Y-106207928D01*
X148502000Y-106207928D01*
X148377518Y-106220188D01*
X148257820Y-106256498D01*
X148147506Y-106315463D01*
X148050815Y-106394815D01*
X147971463Y-106491506D01*
X147912498Y-106601820D01*
X147876188Y-106721518D01*
X147863928Y-106846000D01*
X122021600Y-106846000D01*
X122021600Y-102392685D01*
X143421100Y-102392685D01*
X143421100Y-102585315D01*
X143458680Y-102774243D01*
X143532396Y-102952210D01*
X143639415Y-103112375D01*
X143775625Y-103248585D01*
X143935790Y-103355604D01*
X144113757Y-103429320D01*
X144302685Y-103466900D01*
X144495315Y-103466900D01*
X144684243Y-103429320D01*
X144862210Y-103355604D01*
X145022375Y-103248585D01*
X145158585Y-103112375D01*
X145265604Y-102952210D01*
X145339320Y-102774243D01*
X145376900Y-102585315D01*
X145376900Y-102392685D01*
X145339320Y-102203757D01*
X145265604Y-102025790D01*
X145161000Y-101869239D01*
X145161000Y-101280630D01*
X145642579Y-100799052D01*
X145827243Y-100762320D01*
X146005210Y-100688604D01*
X146165375Y-100581585D01*
X146301585Y-100445375D01*
X146408604Y-100285210D01*
X146482320Y-100107243D01*
X146519900Y-99918315D01*
X146519900Y-99725685D01*
X146482320Y-99536757D01*
X146408604Y-99358790D01*
X146301585Y-99198625D01*
X146165375Y-99062415D01*
X146005210Y-98955396D01*
X145827243Y-98881680D01*
X145638315Y-98844100D01*
X145445685Y-98844100D01*
X145256757Y-98881680D01*
X145078790Y-98955396D01*
X144918625Y-99062415D01*
X144782415Y-99198625D01*
X144675396Y-99358790D01*
X144601680Y-99536757D01*
X144564948Y-99721421D01*
X143886654Y-100399716D01*
X143857578Y-100423578D01*
X143801983Y-100491322D01*
X143762355Y-100539608D01*
X143739918Y-100581585D01*
X143691598Y-100671986D01*
X143648026Y-100815623D01*
X143637000Y-100927574D01*
X143633314Y-100965000D01*
X143637000Y-101002424D01*
X143637001Y-101869238D01*
X143532396Y-102025790D01*
X143458680Y-102203757D01*
X143421100Y-102392685D01*
X122021600Y-102392685D01*
X122021600Y-96449085D01*
X143573500Y-96449085D01*
X143573500Y-96641715D01*
X143611080Y-96830643D01*
X143684796Y-97008610D01*
X143791815Y-97168775D01*
X143928025Y-97304985D01*
X144088190Y-97412004D01*
X144266157Y-97485720D01*
X144455085Y-97523300D01*
X144647715Y-97523300D01*
X144836643Y-97485720D01*
X144989028Y-97422600D01*
X158277928Y-97422600D01*
X158277928Y-99122600D01*
X158290188Y-99247082D01*
X158326498Y-99366780D01*
X158385463Y-99477094D01*
X158464815Y-99573785D01*
X158561506Y-99653137D01*
X158671820Y-99712102D01*
X158791518Y-99748412D01*
X158916000Y-99760672D01*
X160616000Y-99760672D01*
X160740482Y-99748412D01*
X160860180Y-99712102D01*
X160970494Y-99653137D01*
X161067185Y-99573785D01*
X161146537Y-99477094D01*
X161205502Y-99366780D01*
X161226393Y-99297913D01*
X161250866Y-99327734D01*
X161476986Y-99513306D01*
X161734966Y-99651199D01*
X162014889Y-99736113D01*
X162233050Y-99757600D01*
X162378950Y-99757600D01*
X162597111Y-99736113D01*
X162877034Y-99651199D01*
X163135014Y-99513306D01*
X163361134Y-99327734D01*
X163546706Y-99101614D01*
X163581201Y-99037077D01*
X163650822Y-99153955D01*
X163845731Y-99370188D01*
X164079080Y-99544241D01*
X164341901Y-99669425D01*
X164489110Y-99714076D01*
X164719000Y-99592755D01*
X164719000Y-98399600D01*
X164699000Y-98399600D01*
X164699000Y-98145600D01*
X164719000Y-98145600D01*
X164719000Y-96952445D01*
X164973000Y-96952445D01*
X164973000Y-98145600D01*
X164993000Y-98145600D01*
X164993000Y-98399600D01*
X164973000Y-98399600D01*
X164973000Y-99592755D01*
X165202890Y-99714076D01*
X165350099Y-99669425D01*
X165612920Y-99544241D01*
X165846269Y-99370188D01*
X166041178Y-99153955D01*
X166110799Y-99037077D01*
X166145294Y-99101614D01*
X166330866Y-99327734D01*
X166556986Y-99513306D01*
X166814966Y-99651199D01*
X167094889Y-99736113D01*
X167313050Y-99757600D01*
X167458950Y-99757600D01*
X167677111Y-99736113D01*
X167957034Y-99651199D01*
X168215014Y-99513306D01*
X168441134Y-99327734D01*
X168626706Y-99101614D01*
X168656000Y-99046809D01*
X168685294Y-99101614D01*
X168870866Y-99327734D01*
X169096986Y-99513306D01*
X169354966Y-99651199D01*
X169634889Y-99736113D01*
X169853050Y-99757600D01*
X169998950Y-99757600D01*
X170217111Y-99736113D01*
X170497034Y-99651199D01*
X170755014Y-99513306D01*
X170981134Y-99327734D01*
X171166706Y-99101614D01*
X171196000Y-99046809D01*
X171225294Y-99101614D01*
X171410866Y-99327734D01*
X171636986Y-99513306D01*
X171894966Y-99651199D01*
X172174889Y-99736113D01*
X172393050Y-99757600D01*
X172538950Y-99757600D01*
X172757111Y-99736113D01*
X173037034Y-99651199D01*
X173295014Y-99513306D01*
X173521134Y-99327734D01*
X173706706Y-99101614D01*
X173844599Y-98843634D01*
X173929513Y-98563711D01*
X173958185Y-98272600D01*
X173929513Y-97981489D01*
X173844599Y-97701566D01*
X173706706Y-97443586D01*
X173521134Y-97217466D01*
X173295014Y-97031894D01*
X173037034Y-96894001D01*
X172757111Y-96809087D01*
X172538950Y-96787600D01*
X172393050Y-96787600D01*
X172174889Y-96809087D01*
X171894966Y-96894001D01*
X171636986Y-97031894D01*
X171410866Y-97217466D01*
X171225294Y-97443586D01*
X171196000Y-97498391D01*
X171166706Y-97443586D01*
X170981134Y-97217466D01*
X170755014Y-97031894D01*
X170497034Y-96894001D01*
X170217111Y-96809087D01*
X169998950Y-96787600D01*
X169853050Y-96787600D01*
X169634889Y-96809087D01*
X169354966Y-96894001D01*
X169096986Y-97031894D01*
X168870866Y-97217466D01*
X168685294Y-97443586D01*
X168656000Y-97498391D01*
X168626706Y-97443586D01*
X168441134Y-97217466D01*
X168215014Y-97031894D01*
X167957034Y-96894001D01*
X167677111Y-96809087D01*
X167458950Y-96787600D01*
X167313050Y-96787600D01*
X167094889Y-96809087D01*
X166814966Y-96894001D01*
X166556986Y-97031894D01*
X166330866Y-97217466D01*
X166145294Y-97443586D01*
X166110799Y-97508123D01*
X166041178Y-97391245D01*
X165846269Y-97175012D01*
X165612920Y-97000959D01*
X165350099Y-96875775D01*
X165202890Y-96831124D01*
X164973000Y-96952445D01*
X164719000Y-96952445D01*
X164489110Y-96831124D01*
X164341901Y-96875775D01*
X164079080Y-97000959D01*
X163845731Y-97175012D01*
X163650822Y-97391245D01*
X163581201Y-97508123D01*
X163546706Y-97443586D01*
X163361134Y-97217466D01*
X163135014Y-97031894D01*
X162877034Y-96894001D01*
X162597111Y-96809087D01*
X162378950Y-96787600D01*
X162233050Y-96787600D01*
X162014889Y-96809087D01*
X161734966Y-96894001D01*
X161476986Y-97031894D01*
X161250866Y-97217466D01*
X161226393Y-97247287D01*
X161205502Y-97178420D01*
X161146537Y-97068106D01*
X161067185Y-96971415D01*
X160970494Y-96892063D01*
X160860180Y-96833098D01*
X160740482Y-96796788D01*
X160616000Y-96784528D01*
X158916000Y-96784528D01*
X158791518Y-96796788D01*
X158671820Y-96833098D01*
X158561506Y-96892063D01*
X158464815Y-96971415D01*
X158385463Y-97068106D01*
X158326498Y-97178420D01*
X158290188Y-97298118D01*
X158277928Y-97422600D01*
X144989028Y-97422600D01*
X145014610Y-97412004D01*
X145174775Y-97304985D01*
X145310985Y-97168775D01*
X145418004Y-97008610D01*
X145491720Y-96830643D01*
X145492632Y-96826059D01*
X145624043Y-96799920D01*
X145802010Y-96726204D01*
X145962175Y-96619185D01*
X146098385Y-96482975D01*
X146205404Y-96322810D01*
X146279120Y-96144843D01*
X146316700Y-95955915D01*
X146316700Y-95763285D01*
X146279120Y-95574357D01*
X146209457Y-95406174D01*
X147420579Y-94195052D01*
X147605243Y-94158320D01*
X147783210Y-94084604D01*
X147943375Y-93977585D01*
X148079585Y-93841375D01*
X148186604Y-93681210D01*
X148260320Y-93503243D01*
X148297900Y-93314315D01*
X148297900Y-93121685D01*
X148260320Y-92932757D01*
X148186604Y-92754790D01*
X148079585Y-92594625D01*
X147943375Y-92458415D01*
X147783210Y-92351396D01*
X147605243Y-92277680D01*
X147416315Y-92240100D01*
X147223685Y-92240100D01*
X147034757Y-92277680D01*
X146991388Y-92295644D01*
X146936585Y-92213625D01*
X146800375Y-92077415D01*
X146640210Y-91970396D01*
X146462243Y-91896680D01*
X146273315Y-91859100D01*
X146080685Y-91859100D01*
X145891757Y-91896680D01*
X145713790Y-91970396D01*
X145553625Y-92077415D01*
X145417415Y-92213625D01*
X145310396Y-92373790D01*
X145236680Y-92551757D01*
X145199948Y-92736422D01*
X144013649Y-93922721D01*
X143984579Y-93946578D01*
X143960722Y-93975648D01*
X143960721Y-93975649D01*
X143889355Y-94062608D01*
X143818599Y-94194985D01*
X143775027Y-94338622D01*
X143760314Y-94488000D01*
X143764001Y-94525433D01*
X143764000Y-95963653D01*
X143684796Y-96082190D01*
X143611080Y-96260157D01*
X143573500Y-96449085D01*
X122021600Y-96449085D01*
X122021600Y-92901419D01*
X126383000Y-92901419D01*
X126383000Y-93282581D01*
X126457361Y-93656419D01*
X126603225Y-94008566D01*
X126814987Y-94325491D01*
X127084509Y-94595013D01*
X127401434Y-94806775D01*
X127753581Y-94952639D01*
X128127419Y-95027000D01*
X128508581Y-95027000D01*
X128882419Y-94952639D01*
X129234566Y-94806775D01*
X129551491Y-94595013D01*
X129821013Y-94325491D01*
X130032775Y-94008566D01*
X130178639Y-93656419D01*
X130253000Y-93282581D01*
X130253000Y-92901419D01*
X130178639Y-92527581D01*
X130032775Y-92175434D01*
X129821013Y-91858509D01*
X129551491Y-91588987D01*
X129234566Y-91377225D01*
X128882419Y-91231361D01*
X128654374Y-91186000D01*
X183800815Y-91186000D01*
X183829487Y-91477111D01*
X183914401Y-91757034D01*
X184052294Y-92015014D01*
X184237866Y-92241134D01*
X184463986Y-92426706D01*
X184518791Y-92456000D01*
X184463986Y-92485294D01*
X184237866Y-92670866D01*
X184052294Y-92896986D01*
X183914401Y-93154966D01*
X183829487Y-93434889D01*
X183800815Y-93726000D01*
X183829487Y-94017111D01*
X183914401Y-94297034D01*
X184052294Y-94555014D01*
X184237866Y-94781134D01*
X184463986Y-94966706D01*
X184518791Y-94996000D01*
X184463986Y-95025294D01*
X184237866Y-95210866D01*
X184052294Y-95436986D01*
X183914401Y-95694966D01*
X183829487Y-95974889D01*
X183800815Y-96266000D01*
X183829487Y-96557111D01*
X183914401Y-96837034D01*
X184052294Y-97095014D01*
X184237866Y-97321134D01*
X184463986Y-97506706D01*
X184518791Y-97536000D01*
X184463986Y-97565294D01*
X184237866Y-97750866D01*
X184052294Y-97976986D01*
X183914401Y-98234966D01*
X183829487Y-98514889D01*
X183800815Y-98806000D01*
X183829487Y-99097111D01*
X183914401Y-99377034D01*
X184052294Y-99635014D01*
X184237866Y-99861134D01*
X184463986Y-100046706D01*
X184721966Y-100184599D01*
X185001889Y-100269513D01*
X185220050Y-100291000D01*
X185365950Y-100291000D01*
X185584111Y-100269513D01*
X185864034Y-100184599D01*
X186122014Y-100046706D01*
X186348134Y-99861134D01*
X186533706Y-99635014D01*
X186671599Y-99377034D01*
X186756513Y-99097111D01*
X186785185Y-98806000D01*
X186756513Y-98514889D01*
X186671599Y-98234966D01*
X186533706Y-97976986D01*
X186348134Y-97750866D01*
X186122014Y-97565294D01*
X186067209Y-97536000D01*
X186122014Y-97506706D01*
X186348134Y-97321134D01*
X186533706Y-97095014D01*
X186671599Y-96837034D01*
X186756513Y-96557111D01*
X186785185Y-96266000D01*
X186756513Y-95974889D01*
X186671599Y-95694966D01*
X186533706Y-95436986D01*
X186348134Y-95210866D01*
X186122014Y-95025294D01*
X186067209Y-94996000D01*
X186122014Y-94966706D01*
X186348134Y-94781134D01*
X186533706Y-94555014D01*
X186671599Y-94297034D01*
X186756513Y-94017111D01*
X186785185Y-93726000D01*
X186756513Y-93434889D01*
X186671599Y-93154966D01*
X186533706Y-92896986D01*
X186348134Y-92670866D01*
X186122014Y-92485294D01*
X186067209Y-92456000D01*
X186122014Y-92426706D01*
X186348134Y-92241134D01*
X186533706Y-92015014D01*
X186671599Y-91757034D01*
X186756513Y-91477111D01*
X186785185Y-91186000D01*
X186756513Y-90894889D01*
X186671599Y-90614966D01*
X186533706Y-90356986D01*
X186348134Y-90130866D01*
X186122014Y-89945294D01*
X186057477Y-89910799D01*
X186174355Y-89841178D01*
X186390588Y-89646269D01*
X186564641Y-89412920D01*
X186689825Y-89150099D01*
X186734476Y-89002890D01*
X186613155Y-88773000D01*
X185420000Y-88773000D01*
X185420000Y-88793000D01*
X185166000Y-88793000D01*
X185166000Y-88773000D01*
X183972845Y-88773000D01*
X183851524Y-89002890D01*
X183896175Y-89150099D01*
X184021359Y-89412920D01*
X184195412Y-89646269D01*
X184411645Y-89841178D01*
X184528523Y-89910799D01*
X184463986Y-89945294D01*
X184237866Y-90130866D01*
X184052294Y-90356986D01*
X183914401Y-90614966D01*
X183829487Y-90894889D01*
X183800815Y-91186000D01*
X128654374Y-91186000D01*
X128508581Y-91157000D01*
X128127419Y-91157000D01*
X127753581Y-91231361D01*
X127401434Y-91377225D01*
X127084509Y-91588987D01*
X126814987Y-91858509D01*
X126603225Y-92175434D01*
X126457361Y-92527581D01*
X126383000Y-92901419D01*
X122021600Y-92901419D01*
X122021600Y-89741224D01*
X124148381Y-89741224D01*
X124280317Y-90036312D01*
X124621045Y-90207159D01*
X124988557Y-90308250D01*
X125368729Y-90335701D01*
X125746951Y-90288457D01*
X126108690Y-90168333D01*
X126355683Y-90036312D01*
X126487619Y-89741224D01*
X125318000Y-88571605D01*
X124148381Y-89741224D01*
X122021600Y-89741224D01*
X122021600Y-88442729D01*
X123374299Y-88442729D01*
X123421543Y-88820951D01*
X123541667Y-89182690D01*
X123673688Y-89429683D01*
X123968776Y-89561619D01*
X125138395Y-88392000D01*
X125497605Y-88392000D01*
X126667224Y-89561619D01*
X126962312Y-89429683D01*
X127133159Y-89088955D01*
X127234250Y-88721443D01*
X127261701Y-88341271D01*
X127214457Y-87963049D01*
X127094333Y-87601310D01*
X126962312Y-87354317D01*
X126667224Y-87222381D01*
X125497605Y-88392000D01*
X125138395Y-88392000D01*
X123968776Y-87222381D01*
X123673688Y-87354317D01*
X123502841Y-87695045D01*
X123401750Y-88062557D01*
X123374299Y-88442729D01*
X122021600Y-88442729D01*
X122021600Y-87042776D01*
X124148381Y-87042776D01*
X125318000Y-88212395D01*
X126438395Y-87092000D01*
X129379928Y-87092000D01*
X129379928Y-89692000D01*
X129392188Y-89816482D01*
X129428498Y-89936180D01*
X129487463Y-90046494D01*
X129566815Y-90143185D01*
X129663506Y-90222537D01*
X129773820Y-90281502D01*
X129893518Y-90317812D01*
X130018000Y-90330072D01*
X132618000Y-90330072D01*
X132742482Y-90317812D01*
X132862180Y-90281502D01*
X132972494Y-90222537D01*
X133069185Y-90143185D01*
X133148537Y-90046494D01*
X133207502Y-89936180D01*
X133243812Y-89816482D01*
X133256072Y-89692000D01*
X133256072Y-87092000D01*
X133243812Y-86967518D01*
X133207502Y-86847820D01*
X133148537Y-86737506D01*
X133069185Y-86640815D01*
X132972494Y-86561463D01*
X132862180Y-86502498D01*
X132742482Y-86466188D01*
X132618000Y-86453928D01*
X130018000Y-86453928D01*
X129893518Y-86466188D01*
X129773820Y-86502498D01*
X129663506Y-86561463D01*
X129566815Y-86640815D01*
X129487463Y-86737506D01*
X129428498Y-86847820D01*
X129392188Y-86967518D01*
X129379928Y-87092000D01*
X126438395Y-87092000D01*
X126487619Y-87042776D01*
X126355683Y-86747688D01*
X126014955Y-86576841D01*
X125647443Y-86475750D01*
X125267271Y-86448299D01*
X124889049Y-86495543D01*
X124527310Y-86615667D01*
X124280317Y-86747688D01*
X124148381Y-87042776D01*
X122021600Y-87042776D01*
X122021600Y-86009685D01*
X144310100Y-86009685D01*
X144310100Y-86202315D01*
X144347680Y-86391243D01*
X144421396Y-86569210D01*
X144528415Y-86729375D01*
X144664625Y-86865585D01*
X144824790Y-86972604D01*
X145002757Y-87046320D01*
X145191685Y-87083900D01*
X145384315Y-87083900D01*
X145573243Y-87046320D01*
X145751210Y-86972604D01*
X145911375Y-86865585D01*
X146047585Y-86729375D01*
X146154604Y-86569210D01*
X146228320Y-86391243D01*
X146265900Y-86202315D01*
X146265900Y-86090629D01*
X146292974Y-86001378D01*
X146304000Y-85889426D01*
X146304000Y-85889424D01*
X146307686Y-85852001D01*
X146304000Y-85814578D01*
X146304000Y-85256000D01*
X183804928Y-85256000D01*
X183804928Y-86956000D01*
X183817188Y-87080482D01*
X183853498Y-87200180D01*
X183912463Y-87310494D01*
X183991815Y-87407185D01*
X184088506Y-87486537D01*
X184198820Y-87545502D01*
X184279466Y-87569966D01*
X184195412Y-87645731D01*
X184021359Y-87879080D01*
X183896175Y-88141901D01*
X183851524Y-88289110D01*
X183972845Y-88519000D01*
X185166000Y-88519000D01*
X185166000Y-88499000D01*
X185420000Y-88499000D01*
X185420000Y-88519000D01*
X186613155Y-88519000D01*
X186734476Y-88289110D01*
X186689825Y-88141901D01*
X186564641Y-87879080D01*
X186390588Y-87645731D01*
X186306534Y-87569966D01*
X186387180Y-87545502D01*
X186497494Y-87486537D01*
X186594185Y-87407185D01*
X186673537Y-87310494D01*
X186732502Y-87200180D01*
X186768812Y-87080482D01*
X186781072Y-86956000D01*
X186781072Y-85256000D01*
X186768812Y-85131518D01*
X186732502Y-85011820D01*
X186673537Y-84901506D01*
X186594185Y-84804815D01*
X186497494Y-84725463D01*
X186387180Y-84666498D01*
X186267482Y-84630188D01*
X186143000Y-84617928D01*
X184443000Y-84617928D01*
X184318518Y-84630188D01*
X184198820Y-84666498D01*
X184088506Y-84725463D01*
X183991815Y-84804815D01*
X183912463Y-84901506D01*
X183853498Y-85011820D01*
X183817188Y-85131518D01*
X183804928Y-85256000D01*
X146304000Y-85256000D01*
X146304000Y-83804761D01*
X146408604Y-83648210D01*
X146482320Y-83470243D01*
X146519900Y-83281315D01*
X146519900Y-83088685D01*
X146482320Y-82899757D01*
X146408604Y-82721790D01*
X146301585Y-82561625D01*
X146165375Y-82425415D01*
X146005210Y-82318396D01*
X145827243Y-82244680D01*
X145638315Y-82207100D01*
X145445685Y-82207100D01*
X145256757Y-82244680D01*
X145078790Y-82318396D01*
X144918625Y-82425415D01*
X144782415Y-82561625D01*
X144675396Y-82721790D01*
X144601680Y-82899757D01*
X144564100Y-83088685D01*
X144564100Y-83281315D01*
X144601680Y-83470243D01*
X144675396Y-83648210D01*
X144780000Y-83804761D01*
X144780001Y-85269323D01*
X144664625Y-85346415D01*
X144528415Y-85482625D01*
X144421396Y-85642790D01*
X144347680Y-85820757D01*
X144310100Y-86009685D01*
X122021600Y-86009685D01*
X122021600Y-79837485D01*
X143878300Y-79837485D01*
X143878300Y-80030115D01*
X143915880Y-80219043D01*
X143989596Y-80397010D01*
X144096615Y-80557175D01*
X144232825Y-80693385D01*
X144392990Y-80800404D01*
X144570957Y-80874120D01*
X144759885Y-80911700D01*
X144952515Y-80911700D01*
X145141443Y-80874120D01*
X145319410Y-80800404D01*
X145479575Y-80693385D01*
X145615785Y-80557175D01*
X145666817Y-80480800D01*
X158252528Y-80480800D01*
X158252528Y-82180800D01*
X158264788Y-82305282D01*
X158301098Y-82424980D01*
X158360063Y-82535294D01*
X158439415Y-82631985D01*
X158536106Y-82711337D01*
X158646420Y-82770302D01*
X158766118Y-82806612D01*
X158890600Y-82818872D01*
X160590600Y-82818872D01*
X160715082Y-82806612D01*
X160834780Y-82770302D01*
X160945094Y-82711337D01*
X161041785Y-82631985D01*
X161121137Y-82535294D01*
X161180102Y-82424980D01*
X161200993Y-82356113D01*
X161225466Y-82385934D01*
X161451586Y-82571506D01*
X161709566Y-82709399D01*
X161989489Y-82794313D01*
X162207650Y-82815800D01*
X162353550Y-82815800D01*
X162571711Y-82794313D01*
X162851634Y-82709399D01*
X163109614Y-82571506D01*
X163335734Y-82385934D01*
X163521306Y-82159814D01*
X163555801Y-82095277D01*
X163625422Y-82212155D01*
X163820331Y-82428388D01*
X164053680Y-82602441D01*
X164316501Y-82727625D01*
X164463710Y-82772276D01*
X164693600Y-82650955D01*
X164693600Y-81457800D01*
X164673600Y-81457800D01*
X164673600Y-81203800D01*
X164693600Y-81203800D01*
X164693600Y-80010645D01*
X164947600Y-80010645D01*
X164947600Y-81203800D01*
X164967600Y-81203800D01*
X164967600Y-81457800D01*
X164947600Y-81457800D01*
X164947600Y-82650955D01*
X165177490Y-82772276D01*
X165324699Y-82727625D01*
X165587520Y-82602441D01*
X165820869Y-82428388D01*
X166015778Y-82212155D01*
X166085399Y-82095277D01*
X166119894Y-82159814D01*
X166305466Y-82385934D01*
X166531586Y-82571506D01*
X166789566Y-82709399D01*
X167069489Y-82794313D01*
X167287650Y-82815800D01*
X167433550Y-82815800D01*
X167651711Y-82794313D01*
X167931634Y-82709399D01*
X168189614Y-82571506D01*
X168415734Y-82385934D01*
X168601306Y-82159814D01*
X168630600Y-82105009D01*
X168659894Y-82159814D01*
X168845466Y-82385934D01*
X169071586Y-82571506D01*
X169329566Y-82709399D01*
X169609489Y-82794313D01*
X169827650Y-82815800D01*
X169973550Y-82815800D01*
X170191711Y-82794313D01*
X170471634Y-82709399D01*
X170729614Y-82571506D01*
X170955734Y-82385934D01*
X171141306Y-82159814D01*
X171170600Y-82105009D01*
X171199894Y-82159814D01*
X171385466Y-82385934D01*
X171611586Y-82571506D01*
X171869566Y-82709399D01*
X172149489Y-82794313D01*
X172367650Y-82815800D01*
X172513550Y-82815800D01*
X172731711Y-82794313D01*
X173011634Y-82709399D01*
X173269614Y-82571506D01*
X173495734Y-82385934D01*
X173681306Y-82159814D01*
X173819199Y-81901834D01*
X173904113Y-81621911D01*
X173932785Y-81330800D01*
X173904113Y-81039689D01*
X173819199Y-80759766D01*
X173681306Y-80501786D01*
X173495734Y-80275666D01*
X173269614Y-80090094D01*
X173011634Y-79952201D01*
X172731711Y-79867287D01*
X172513550Y-79845800D01*
X172367650Y-79845800D01*
X172149489Y-79867287D01*
X171869566Y-79952201D01*
X171611586Y-80090094D01*
X171385466Y-80275666D01*
X171199894Y-80501786D01*
X171170600Y-80556591D01*
X171141306Y-80501786D01*
X170955734Y-80275666D01*
X170729614Y-80090094D01*
X170471634Y-79952201D01*
X170191711Y-79867287D01*
X169973550Y-79845800D01*
X169827650Y-79845800D01*
X169609489Y-79867287D01*
X169329566Y-79952201D01*
X169071586Y-80090094D01*
X168845466Y-80275666D01*
X168659894Y-80501786D01*
X168630600Y-80556591D01*
X168601306Y-80501786D01*
X168415734Y-80275666D01*
X168189614Y-80090094D01*
X167931634Y-79952201D01*
X167651711Y-79867287D01*
X167433550Y-79845800D01*
X167287650Y-79845800D01*
X167069489Y-79867287D01*
X166789566Y-79952201D01*
X166531586Y-80090094D01*
X166305466Y-80275666D01*
X166119894Y-80501786D01*
X166085399Y-80566323D01*
X166015778Y-80449445D01*
X165820869Y-80233212D01*
X165587520Y-80059159D01*
X165324699Y-79933975D01*
X165177490Y-79889324D01*
X164947600Y-80010645D01*
X164693600Y-80010645D01*
X164463710Y-79889324D01*
X164316501Y-79933975D01*
X164053680Y-80059159D01*
X163820331Y-80233212D01*
X163625422Y-80449445D01*
X163555801Y-80566323D01*
X163521306Y-80501786D01*
X163335734Y-80275666D01*
X163109614Y-80090094D01*
X162851634Y-79952201D01*
X162571711Y-79867287D01*
X162353550Y-79845800D01*
X162207650Y-79845800D01*
X161989489Y-79867287D01*
X161709566Y-79952201D01*
X161451586Y-80090094D01*
X161225466Y-80275666D01*
X161200993Y-80305487D01*
X161180102Y-80236620D01*
X161121137Y-80126306D01*
X161041785Y-80029615D01*
X160945094Y-79950263D01*
X160834780Y-79891298D01*
X160715082Y-79854988D01*
X160590600Y-79842728D01*
X158890600Y-79842728D01*
X158766118Y-79854988D01*
X158646420Y-79891298D01*
X158536106Y-79950263D01*
X158439415Y-80029615D01*
X158360063Y-80126306D01*
X158301098Y-80236620D01*
X158264788Y-80356318D01*
X158252528Y-80480800D01*
X145666817Y-80480800D01*
X145722804Y-80397010D01*
X145796520Y-80219043D01*
X145804785Y-80177492D01*
X145878043Y-80162920D01*
X146056010Y-80089204D01*
X146216175Y-79982185D01*
X146352385Y-79845975D01*
X146459404Y-79685810D01*
X146533120Y-79507843D01*
X146570700Y-79318915D01*
X146570700Y-79126285D01*
X146533120Y-78937357D01*
X146459404Y-78759390D01*
X146363208Y-78615422D01*
X147420578Y-77558052D01*
X147605243Y-77521320D01*
X147783210Y-77447604D01*
X147943375Y-77340585D01*
X148079585Y-77204375D01*
X148186604Y-77044210D01*
X148260320Y-76866243D01*
X148297900Y-76677315D01*
X148297900Y-76484685D01*
X148260320Y-76295757D01*
X148186604Y-76117790D01*
X148079585Y-75957625D01*
X147943375Y-75821415D01*
X147783210Y-75714396D01*
X147605243Y-75640680D01*
X147416315Y-75603100D01*
X147223685Y-75603100D01*
X147034757Y-75640680D01*
X146856790Y-75714396D01*
X146696625Y-75821415D01*
X146560415Y-75957625D01*
X146519900Y-76018260D01*
X146519900Y-75976685D01*
X146482320Y-75787757D01*
X146408604Y-75609790D01*
X146301585Y-75449625D01*
X146165375Y-75313415D01*
X146005210Y-75206396D01*
X145827243Y-75132680D01*
X145638315Y-75095100D01*
X145445685Y-75095100D01*
X145256757Y-75132680D01*
X145078790Y-75206396D01*
X144918625Y-75313415D01*
X144782415Y-75449625D01*
X144675396Y-75609790D01*
X144601680Y-75787757D01*
X144564948Y-75972422D01*
X144343849Y-76193521D01*
X144314779Y-76217378D01*
X144290922Y-76246448D01*
X144290921Y-76246449D01*
X144219555Y-76333408D01*
X144206281Y-76358243D01*
X144148798Y-76465785D01*
X144105226Y-76609422D01*
X144094200Y-76721374D01*
X144090514Y-76758800D01*
X144094200Y-76796223D01*
X144094200Y-77431225D01*
X144094201Y-77431235D01*
X144094200Y-79314039D01*
X143989596Y-79470590D01*
X143915880Y-79648557D01*
X143878300Y-79837485D01*
X122021600Y-79837485D01*
X122021600Y-65444000D01*
X138719928Y-65444000D01*
X138719928Y-67144000D01*
X138732188Y-67268482D01*
X138768498Y-67388180D01*
X138827463Y-67498494D01*
X138906815Y-67595185D01*
X139003506Y-67674537D01*
X139113820Y-67733502D01*
X139233518Y-67769812D01*
X139358000Y-67782072D01*
X141058000Y-67782072D01*
X141182482Y-67769812D01*
X141302180Y-67733502D01*
X141412494Y-67674537D01*
X141509185Y-67595185D01*
X141588537Y-67498494D01*
X141647502Y-67388180D01*
X141668393Y-67319313D01*
X141692866Y-67349134D01*
X141918986Y-67534706D01*
X142176966Y-67672599D01*
X142456889Y-67757513D01*
X142675050Y-67779000D01*
X142820950Y-67779000D01*
X143039111Y-67757513D01*
X143319034Y-67672599D01*
X143577014Y-67534706D01*
X143803134Y-67349134D01*
X143988706Y-67123014D01*
X144018000Y-67068209D01*
X144047294Y-67123014D01*
X144232866Y-67349134D01*
X144458986Y-67534706D01*
X144716966Y-67672599D01*
X144996889Y-67757513D01*
X145215050Y-67779000D01*
X145360950Y-67779000D01*
X145579111Y-67757513D01*
X145859034Y-67672599D01*
X146117014Y-67534706D01*
X146343134Y-67349134D01*
X146528706Y-67123014D01*
X146563201Y-67058477D01*
X146632822Y-67175355D01*
X146827731Y-67391588D01*
X147061080Y-67565641D01*
X147323901Y-67690825D01*
X147471110Y-67735476D01*
X147701000Y-67614155D01*
X147701000Y-66421000D01*
X147681000Y-66421000D01*
X147681000Y-66167000D01*
X147701000Y-66167000D01*
X147701000Y-64973845D01*
X147955000Y-64973845D01*
X147955000Y-66167000D01*
X147975000Y-66167000D01*
X147975000Y-66421000D01*
X147955000Y-66421000D01*
X147955000Y-67614155D01*
X148184890Y-67735476D01*
X148332099Y-67690825D01*
X148594920Y-67565641D01*
X148828269Y-67391588D01*
X149023178Y-67175355D01*
X149092799Y-67058477D01*
X149127294Y-67123014D01*
X149312866Y-67349134D01*
X149538986Y-67534706D01*
X149796966Y-67672599D01*
X150076889Y-67757513D01*
X150295050Y-67779000D01*
X150440950Y-67779000D01*
X150659111Y-67757513D01*
X150939034Y-67672599D01*
X151197014Y-67534706D01*
X151423134Y-67349134D01*
X151608706Y-67123014D01*
X151638000Y-67068209D01*
X151667294Y-67123014D01*
X151852866Y-67349134D01*
X152078986Y-67534706D01*
X152336966Y-67672599D01*
X152616889Y-67757513D01*
X152835050Y-67779000D01*
X152980950Y-67779000D01*
X153199111Y-67757513D01*
X153479034Y-67672599D01*
X153737014Y-67534706D01*
X153963134Y-67349134D01*
X154148706Y-67123014D01*
X154178000Y-67068209D01*
X154207294Y-67123014D01*
X154392866Y-67349134D01*
X154618986Y-67534706D01*
X154876966Y-67672599D01*
X155156889Y-67757513D01*
X155375050Y-67779000D01*
X155520950Y-67779000D01*
X155739111Y-67757513D01*
X156019034Y-67672599D01*
X156277014Y-67534706D01*
X156503134Y-67349134D01*
X156688706Y-67123014D01*
X156718000Y-67068209D01*
X156747294Y-67123014D01*
X156932866Y-67349134D01*
X157158986Y-67534706D01*
X157416966Y-67672599D01*
X157696889Y-67757513D01*
X157915050Y-67779000D01*
X158060950Y-67779000D01*
X158279111Y-67757513D01*
X158559034Y-67672599D01*
X158817014Y-67534706D01*
X159043134Y-67349134D01*
X159228706Y-67123014D01*
X159258000Y-67068209D01*
X159287294Y-67123014D01*
X159472866Y-67349134D01*
X159698986Y-67534706D01*
X159956966Y-67672599D01*
X160236889Y-67757513D01*
X160455050Y-67779000D01*
X160600950Y-67779000D01*
X160819111Y-67757513D01*
X161099034Y-67672599D01*
X161357014Y-67534706D01*
X161583134Y-67349134D01*
X161768706Y-67123014D01*
X161798000Y-67068209D01*
X161827294Y-67123014D01*
X162012866Y-67349134D01*
X162238986Y-67534706D01*
X162496966Y-67672599D01*
X162776889Y-67757513D01*
X162995050Y-67779000D01*
X163140950Y-67779000D01*
X163359111Y-67757513D01*
X163639034Y-67672599D01*
X163897014Y-67534706D01*
X164123134Y-67349134D01*
X164308706Y-67123014D01*
X164446599Y-66865034D01*
X164531513Y-66585111D01*
X164560185Y-66294000D01*
X164531513Y-66002889D01*
X164446599Y-65722966D01*
X164308706Y-65464986D01*
X164291484Y-65444000D01*
X165643928Y-65444000D01*
X165643928Y-67144000D01*
X165656188Y-67268482D01*
X165692498Y-67388180D01*
X165751463Y-67498494D01*
X165830815Y-67595185D01*
X165927506Y-67674537D01*
X166037820Y-67733502D01*
X166157518Y-67769812D01*
X166282000Y-67782072D01*
X167982000Y-67782072D01*
X168106482Y-67769812D01*
X168226180Y-67733502D01*
X168336494Y-67674537D01*
X168433185Y-67595185D01*
X168512537Y-67498494D01*
X168571502Y-67388180D01*
X168592393Y-67319313D01*
X168616866Y-67349134D01*
X168842986Y-67534706D01*
X169100966Y-67672599D01*
X169380889Y-67757513D01*
X169599050Y-67779000D01*
X169744950Y-67779000D01*
X169963111Y-67757513D01*
X170243034Y-67672599D01*
X170501014Y-67534706D01*
X170727134Y-67349134D01*
X170912706Y-67123014D01*
X170942000Y-67068209D01*
X170971294Y-67123014D01*
X171156866Y-67349134D01*
X171382986Y-67534706D01*
X171640966Y-67672599D01*
X171920889Y-67757513D01*
X172139050Y-67779000D01*
X172284950Y-67779000D01*
X172503111Y-67757513D01*
X172783034Y-67672599D01*
X173041014Y-67534706D01*
X173267134Y-67349134D01*
X173452706Y-67123014D01*
X173482000Y-67068209D01*
X173511294Y-67123014D01*
X173696866Y-67349134D01*
X173922986Y-67534706D01*
X174180966Y-67672599D01*
X174460889Y-67757513D01*
X174679050Y-67779000D01*
X174824950Y-67779000D01*
X175043111Y-67757513D01*
X175323034Y-67672599D01*
X175581014Y-67534706D01*
X175807134Y-67349134D01*
X175992706Y-67123014D01*
X176022000Y-67068209D01*
X176051294Y-67123014D01*
X176236866Y-67349134D01*
X176462986Y-67534706D01*
X176720966Y-67672599D01*
X177000889Y-67757513D01*
X177219050Y-67779000D01*
X177364950Y-67779000D01*
X177583111Y-67757513D01*
X177863034Y-67672599D01*
X178121014Y-67534706D01*
X178347134Y-67349134D01*
X178532706Y-67123014D01*
X178562000Y-67068209D01*
X178591294Y-67123014D01*
X178776866Y-67349134D01*
X179002986Y-67534706D01*
X179260966Y-67672599D01*
X179540889Y-67757513D01*
X179759050Y-67779000D01*
X179904950Y-67779000D01*
X180123111Y-67757513D01*
X180403034Y-67672599D01*
X180661014Y-67534706D01*
X180887134Y-67349134D01*
X181072706Y-67123014D01*
X181102000Y-67068209D01*
X181131294Y-67123014D01*
X181316866Y-67349134D01*
X181542986Y-67534706D01*
X181800966Y-67672599D01*
X182080889Y-67757513D01*
X182299050Y-67779000D01*
X182444950Y-67779000D01*
X182663111Y-67757513D01*
X182943034Y-67672599D01*
X183201014Y-67534706D01*
X183427134Y-67349134D01*
X183612706Y-67123014D01*
X183642000Y-67068209D01*
X183671294Y-67123014D01*
X183856866Y-67349134D01*
X184082986Y-67534706D01*
X184340966Y-67672599D01*
X184620889Y-67757513D01*
X184839050Y-67779000D01*
X184984950Y-67779000D01*
X185203111Y-67757513D01*
X185483034Y-67672599D01*
X185741014Y-67534706D01*
X185967134Y-67349134D01*
X186152706Y-67123014D01*
X186290599Y-66865034D01*
X186375513Y-66585111D01*
X186404185Y-66294000D01*
X186375513Y-66002889D01*
X186290599Y-65722966D01*
X186152706Y-65464986D01*
X185967134Y-65238866D01*
X185741014Y-65053294D01*
X185483034Y-64915401D01*
X185203111Y-64830487D01*
X184984950Y-64809000D01*
X184839050Y-64809000D01*
X184620889Y-64830487D01*
X184340966Y-64915401D01*
X184082986Y-65053294D01*
X183856866Y-65238866D01*
X183671294Y-65464986D01*
X183642000Y-65519791D01*
X183612706Y-65464986D01*
X183427134Y-65238866D01*
X183201014Y-65053294D01*
X182943034Y-64915401D01*
X182663111Y-64830487D01*
X182444950Y-64809000D01*
X182299050Y-64809000D01*
X182080889Y-64830487D01*
X181800966Y-64915401D01*
X181542986Y-65053294D01*
X181316866Y-65238866D01*
X181131294Y-65464986D01*
X181102000Y-65519791D01*
X181072706Y-65464986D01*
X180887134Y-65238866D01*
X180661014Y-65053294D01*
X180403034Y-64915401D01*
X180123111Y-64830487D01*
X179904950Y-64809000D01*
X179759050Y-64809000D01*
X179540889Y-64830487D01*
X179260966Y-64915401D01*
X179002986Y-65053294D01*
X178776866Y-65238866D01*
X178591294Y-65464986D01*
X178562000Y-65519791D01*
X178532706Y-65464986D01*
X178347134Y-65238866D01*
X178121014Y-65053294D01*
X177863034Y-64915401D01*
X177583111Y-64830487D01*
X177364950Y-64809000D01*
X177219050Y-64809000D01*
X177000889Y-64830487D01*
X176720966Y-64915401D01*
X176462986Y-65053294D01*
X176236866Y-65238866D01*
X176051294Y-65464986D01*
X176022000Y-65519791D01*
X175992706Y-65464986D01*
X175807134Y-65238866D01*
X175581014Y-65053294D01*
X175323034Y-64915401D01*
X175043111Y-64830487D01*
X174824950Y-64809000D01*
X174679050Y-64809000D01*
X174460889Y-64830487D01*
X174180966Y-64915401D01*
X173922986Y-65053294D01*
X173696866Y-65238866D01*
X173511294Y-65464986D01*
X173482000Y-65519791D01*
X173452706Y-65464986D01*
X173267134Y-65238866D01*
X173041014Y-65053294D01*
X172783034Y-64915401D01*
X172503111Y-64830487D01*
X172284950Y-64809000D01*
X172139050Y-64809000D01*
X171920889Y-64830487D01*
X171640966Y-64915401D01*
X171382986Y-65053294D01*
X171156866Y-65238866D01*
X170971294Y-65464986D01*
X170942000Y-65519791D01*
X170912706Y-65464986D01*
X170727134Y-65238866D01*
X170501014Y-65053294D01*
X170243034Y-64915401D01*
X169963111Y-64830487D01*
X169744950Y-64809000D01*
X169599050Y-64809000D01*
X169380889Y-64830487D01*
X169100966Y-64915401D01*
X168842986Y-65053294D01*
X168616866Y-65238866D01*
X168592393Y-65268687D01*
X168571502Y-65199820D01*
X168512537Y-65089506D01*
X168433185Y-64992815D01*
X168336494Y-64913463D01*
X168226180Y-64854498D01*
X168106482Y-64818188D01*
X167982000Y-64805928D01*
X166282000Y-64805928D01*
X166157518Y-64818188D01*
X166037820Y-64854498D01*
X165927506Y-64913463D01*
X165830815Y-64992815D01*
X165751463Y-65089506D01*
X165692498Y-65199820D01*
X165656188Y-65319518D01*
X165643928Y-65444000D01*
X164291484Y-65444000D01*
X164123134Y-65238866D01*
X163897014Y-65053294D01*
X163639034Y-64915401D01*
X163359111Y-64830487D01*
X163140950Y-64809000D01*
X162995050Y-64809000D01*
X162776889Y-64830487D01*
X162496966Y-64915401D01*
X162238986Y-65053294D01*
X162012866Y-65238866D01*
X161827294Y-65464986D01*
X161798000Y-65519791D01*
X161768706Y-65464986D01*
X161583134Y-65238866D01*
X161357014Y-65053294D01*
X161099034Y-64915401D01*
X160819111Y-64830487D01*
X160600950Y-64809000D01*
X160455050Y-64809000D01*
X160236889Y-64830487D01*
X159956966Y-64915401D01*
X159698986Y-65053294D01*
X159472866Y-65238866D01*
X159287294Y-65464986D01*
X159258000Y-65519791D01*
X159228706Y-65464986D01*
X159043134Y-65238866D01*
X158817014Y-65053294D01*
X158559034Y-64915401D01*
X158279111Y-64830487D01*
X158060950Y-64809000D01*
X157915050Y-64809000D01*
X157696889Y-64830487D01*
X157416966Y-64915401D01*
X157158986Y-65053294D01*
X156932866Y-65238866D01*
X156747294Y-65464986D01*
X156718000Y-65519791D01*
X156688706Y-65464986D01*
X156503134Y-65238866D01*
X156277014Y-65053294D01*
X156019034Y-64915401D01*
X155739111Y-64830487D01*
X155520950Y-64809000D01*
X155375050Y-64809000D01*
X155156889Y-64830487D01*
X154876966Y-64915401D01*
X154618986Y-65053294D01*
X154392866Y-65238866D01*
X154207294Y-65464986D01*
X154178000Y-65519791D01*
X154148706Y-65464986D01*
X153963134Y-65238866D01*
X153737014Y-65053294D01*
X153479034Y-64915401D01*
X153199111Y-64830487D01*
X152980950Y-64809000D01*
X152835050Y-64809000D01*
X152616889Y-64830487D01*
X152336966Y-64915401D01*
X152078986Y-65053294D01*
X151852866Y-65238866D01*
X151667294Y-65464986D01*
X151638000Y-65519791D01*
X151608706Y-65464986D01*
X151423134Y-65238866D01*
X151197014Y-65053294D01*
X150939034Y-64915401D01*
X150659111Y-64830487D01*
X150440950Y-64809000D01*
X150295050Y-64809000D01*
X150076889Y-64830487D01*
X149796966Y-64915401D01*
X149538986Y-65053294D01*
X149312866Y-65238866D01*
X149127294Y-65464986D01*
X149092799Y-65529523D01*
X149023178Y-65412645D01*
X148828269Y-65196412D01*
X148594920Y-65022359D01*
X148332099Y-64897175D01*
X148184890Y-64852524D01*
X147955000Y-64973845D01*
X147701000Y-64973845D01*
X147471110Y-64852524D01*
X147323901Y-64897175D01*
X147061080Y-65022359D01*
X146827731Y-65196412D01*
X146632822Y-65412645D01*
X146563201Y-65529523D01*
X146528706Y-65464986D01*
X146343134Y-65238866D01*
X146117014Y-65053294D01*
X145859034Y-64915401D01*
X145579111Y-64830487D01*
X145360950Y-64809000D01*
X145215050Y-64809000D01*
X144996889Y-64830487D01*
X144716966Y-64915401D01*
X144458986Y-65053294D01*
X144232866Y-65238866D01*
X144047294Y-65464986D01*
X144018000Y-65519791D01*
X143988706Y-65464986D01*
X143803134Y-65238866D01*
X143577014Y-65053294D01*
X143319034Y-64915401D01*
X143039111Y-64830487D01*
X142820950Y-64809000D01*
X142675050Y-64809000D01*
X142456889Y-64830487D01*
X142176966Y-64915401D01*
X141918986Y-65053294D01*
X141692866Y-65238866D01*
X141668393Y-65268687D01*
X141647502Y-65199820D01*
X141588537Y-65089506D01*
X141509185Y-64992815D01*
X141412494Y-64913463D01*
X141302180Y-64854498D01*
X141182482Y-64818188D01*
X141058000Y-64805928D01*
X139358000Y-64805928D01*
X139233518Y-64818188D01*
X139113820Y-64854498D01*
X139003506Y-64913463D01*
X138906815Y-64992815D01*
X138827463Y-65089506D01*
X138768498Y-65199820D01*
X138732188Y-65319518D01*
X138719928Y-65444000D01*
X122021600Y-65444000D01*
X122021600Y-62759001D01*
X138791058Y-62759001D01*
X138818765Y-63040310D01*
X138900819Y-63310809D01*
X139034069Y-63560102D01*
X139213393Y-63778609D01*
X139431900Y-63957933D01*
X139681193Y-64091183D01*
X139951692Y-64173237D01*
X140162509Y-64194001D01*
X140303493Y-64194001D01*
X140514310Y-64173237D01*
X140784809Y-64091183D01*
X141034102Y-63957933D01*
X141252609Y-63778609D01*
X141431933Y-63560102D01*
X141503001Y-63427143D01*
X141574069Y-63560102D01*
X141753393Y-63778609D01*
X141971900Y-63957933D01*
X142221193Y-64091183D01*
X142491692Y-64173237D01*
X142702509Y-64194001D01*
X142843493Y-64194001D01*
X143054310Y-64173237D01*
X143324809Y-64091183D01*
X143574102Y-63957933D01*
X143792609Y-63778609D01*
X143971933Y-63560102D01*
X144043001Y-63427143D01*
X144114069Y-63560102D01*
X144293393Y-63778609D01*
X144511900Y-63957933D01*
X144761193Y-64091183D01*
X145031692Y-64173237D01*
X145242509Y-64194001D01*
X145383493Y-64194001D01*
X145594310Y-64173237D01*
X145864809Y-64091183D01*
X146114102Y-63957933D01*
X146332609Y-63778609D01*
X146511933Y-63560102D01*
X146585580Y-63422319D01*
X146700616Y-63614132D01*
X146889587Y-63822520D01*
X147115581Y-63990038D01*
X147369914Y-64110247D01*
X147503962Y-64150905D01*
X147726001Y-64028916D01*
X147726001Y-62886001D01*
X147706001Y-62886001D01*
X147706001Y-62632001D01*
X147726001Y-62632001D01*
X147726001Y-61489086D01*
X147980001Y-61489086D01*
X147980001Y-62632001D01*
X148000001Y-62632001D01*
X148000001Y-62886001D01*
X147980001Y-62886001D01*
X147980001Y-64028916D01*
X148202040Y-64150905D01*
X148336088Y-64110247D01*
X148590421Y-63990038D01*
X148816415Y-63822520D01*
X149005386Y-63614132D01*
X149120422Y-63422319D01*
X149194069Y-63560102D01*
X149373393Y-63778609D01*
X149591900Y-63957933D01*
X149841193Y-64091183D01*
X150111692Y-64173237D01*
X150322509Y-64194001D01*
X150463493Y-64194001D01*
X150674310Y-64173237D01*
X150944809Y-64091183D01*
X151194102Y-63957933D01*
X151412609Y-63778609D01*
X151591933Y-63560102D01*
X151663001Y-63427143D01*
X151734069Y-63560102D01*
X151913393Y-63778609D01*
X152131900Y-63957933D01*
X152381193Y-64091183D01*
X152651692Y-64173237D01*
X152862509Y-64194001D01*
X153003493Y-64194001D01*
X153214310Y-64173237D01*
X153484809Y-64091183D01*
X153734102Y-63957933D01*
X153952609Y-63778609D01*
X154131933Y-63560102D01*
X154203001Y-63427143D01*
X154274069Y-63560102D01*
X154453393Y-63778609D01*
X154671900Y-63957933D01*
X154921193Y-64091183D01*
X155191692Y-64173237D01*
X155402509Y-64194001D01*
X155543493Y-64194001D01*
X155754310Y-64173237D01*
X156024809Y-64091183D01*
X156274102Y-63957933D01*
X156492609Y-63778609D01*
X156671933Y-63560102D01*
X156743001Y-63427143D01*
X156814069Y-63560102D01*
X156993393Y-63778609D01*
X157211900Y-63957933D01*
X157461193Y-64091183D01*
X157731692Y-64173237D01*
X157942509Y-64194001D01*
X158083493Y-64194001D01*
X158294310Y-64173237D01*
X158564809Y-64091183D01*
X158814102Y-63957933D01*
X159032609Y-63778609D01*
X159211933Y-63560102D01*
X159283001Y-63427143D01*
X159354069Y-63560102D01*
X159533393Y-63778609D01*
X159751900Y-63957933D01*
X160001193Y-64091183D01*
X160271692Y-64173237D01*
X160482509Y-64194001D01*
X160623493Y-64194001D01*
X160834310Y-64173237D01*
X161104809Y-64091183D01*
X161354102Y-63957933D01*
X161572609Y-63778609D01*
X161751933Y-63560102D01*
X161823001Y-63427143D01*
X161894069Y-63560102D01*
X162073393Y-63778609D01*
X162291900Y-63957933D01*
X162541193Y-64091183D01*
X162811692Y-64173237D01*
X163022509Y-64194001D01*
X163163493Y-64194001D01*
X163374310Y-64173237D01*
X163644809Y-64091183D01*
X163894102Y-63957933D01*
X164112609Y-63778609D01*
X164291933Y-63560102D01*
X164425183Y-63310809D01*
X164507237Y-63040310D01*
X164534944Y-62759001D01*
X165711058Y-62759001D01*
X165738765Y-63040310D01*
X165820819Y-63310809D01*
X165954069Y-63560102D01*
X166133393Y-63778609D01*
X166351900Y-63957933D01*
X166601193Y-64091183D01*
X166871692Y-64173237D01*
X167082509Y-64194001D01*
X167223493Y-64194001D01*
X167434310Y-64173237D01*
X167704809Y-64091183D01*
X167954102Y-63957933D01*
X168172609Y-63778609D01*
X168351933Y-63560102D01*
X168423001Y-63427143D01*
X168494069Y-63560102D01*
X168673393Y-63778609D01*
X168891900Y-63957933D01*
X169141193Y-64091183D01*
X169411692Y-64173237D01*
X169622509Y-64194001D01*
X169763493Y-64194001D01*
X169974310Y-64173237D01*
X170244809Y-64091183D01*
X170494102Y-63957933D01*
X170712609Y-63778609D01*
X170891933Y-63560102D01*
X170963001Y-63427143D01*
X171034069Y-63560102D01*
X171213393Y-63778609D01*
X171431900Y-63957933D01*
X171681193Y-64091183D01*
X171951692Y-64173237D01*
X172162509Y-64194001D01*
X172303493Y-64194001D01*
X172514310Y-64173237D01*
X172784809Y-64091183D01*
X173034102Y-63957933D01*
X173252609Y-63778609D01*
X173431933Y-63560102D01*
X173503001Y-63427143D01*
X173574069Y-63560102D01*
X173753393Y-63778609D01*
X173971900Y-63957933D01*
X174221193Y-64091183D01*
X174491692Y-64173237D01*
X174702509Y-64194001D01*
X174843493Y-64194001D01*
X175054310Y-64173237D01*
X175324809Y-64091183D01*
X175574102Y-63957933D01*
X175792609Y-63778609D01*
X175971933Y-63560102D01*
X176043001Y-63427143D01*
X176114069Y-63560102D01*
X176293393Y-63778609D01*
X176511900Y-63957933D01*
X176761193Y-64091183D01*
X177031692Y-64173237D01*
X177242509Y-64194001D01*
X177383493Y-64194001D01*
X177594310Y-64173237D01*
X177864809Y-64091183D01*
X178114102Y-63957933D01*
X178332609Y-63778609D01*
X178511933Y-63560102D01*
X178583001Y-63427143D01*
X178654069Y-63560102D01*
X178833393Y-63778609D01*
X179051900Y-63957933D01*
X179301193Y-64091183D01*
X179571692Y-64173237D01*
X179782509Y-64194001D01*
X179923493Y-64194001D01*
X180134310Y-64173237D01*
X180404809Y-64091183D01*
X180654102Y-63957933D01*
X180872609Y-63778609D01*
X181051933Y-63560102D01*
X181123001Y-63427143D01*
X181194069Y-63560102D01*
X181373393Y-63778609D01*
X181591900Y-63957933D01*
X181841193Y-64091183D01*
X182111692Y-64173237D01*
X182322509Y-64194001D01*
X182463493Y-64194001D01*
X182674310Y-64173237D01*
X182944809Y-64091183D01*
X183194102Y-63957933D01*
X183412609Y-63778609D01*
X183591933Y-63560102D01*
X183663001Y-63427143D01*
X183734069Y-63560102D01*
X183913393Y-63778609D01*
X184131900Y-63957933D01*
X184381193Y-64091183D01*
X184651692Y-64173237D01*
X184862509Y-64194001D01*
X185003493Y-64194001D01*
X185214310Y-64173237D01*
X185484809Y-64091183D01*
X185734102Y-63957933D01*
X185952609Y-63778609D01*
X186131933Y-63560102D01*
X186265183Y-63310809D01*
X186347237Y-63040310D01*
X186374944Y-62759001D01*
X186347237Y-62477692D01*
X186265183Y-62207193D01*
X186131933Y-61957900D01*
X185952609Y-61739393D01*
X185734102Y-61560069D01*
X185484809Y-61426819D01*
X185214310Y-61344765D01*
X185003493Y-61324001D01*
X184862509Y-61324001D01*
X184651692Y-61344765D01*
X184381193Y-61426819D01*
X184131900Y-61560069D01*
X183913393Y-61739393D01*
X183734069Y-61957900D01*
X183663001Y-62090859D01*
X183591933Y-61957900D01*
X183412609Y-61739393D01*
X183194102Y-61560069D01*
X182944809Y-61426819D01*
X182674310Y-61344765D01*
X182463493Y-61324001D01*
X182322509Y-61324001D01*
X182111692Y-61344765D01*
X181841193Y-61426819D01*
X181591900Y-61560069D01*
X181373393Y-61739393D01*
X181194069Y-61957900D01*
X181123001Y-62090859D01*
X181051933Y-61957900D01*
X180872609Y-61739393D01*
X180654102Y-61560069D01*
X180404809Y-61426819D01*
X180134310Y-61344765D01*
X179923493Y-61324001D01*
X179782509Y-61324001D01*
X179571692Y-61344765D01*
X179301193Y-61426819D01*
X179051900Y-61560069D01*
X178833393Y-61739393D01*
X178654069Y-61957900D01*
X178583001Y-62090859D01*
X178511933Y-61957900D01*
X178332609Y-61739393D01*
X178114102Y-61560069D01*
X177864809Y-61426819D01*
X177594310Y-61344765D01*
X177383493Y-61324001D01*
X177242509Y-61324001D01*
X177031692Y-61344765D01*
X176761193Y-61426819D01*
X176511900Y-61560069D01*
X176293393Y-61739393D01*
X176114069Y-61957900D01*
X176043001Y-62090859D01*
X175971933Y-61957900D01*
X175792609Y-61739393D01*
X175574102Y-61560069D01*
X175324809Y-61426819D01*
X175054310Y-61344765D01*
X174843493Y-61324001D01*
X174702509Y-61324001D01*
X174491692Y-61344765D01*
X174221193Y-61426819D01*
X173971900Y-61560069D01*
X173753393Y-61739393D01*
X173574069Y-61957900D01*
X173503001Y-62090859D01*
X173431933Y-61957900D01*
X173252609Y-61739393D01*
X173034102Y-61560069D01*
X172784809Y-61426819D01*
X172514310Y-61344765D01*
X172303493Y-61324001D01*
X172162509Y-61324001D01*
X171951692Y-61344765D01*
X171681193Y-61426819D01*
X171431900Y-61560069D01*
X171213393Y-61739393D01*
X171034069Y-61957900D01*
X170963001Y-62090859D01*
X170891933Y-61957900D01*
X170712609Y-61739393D01*
X170494102Y-61560069D01*
X170244809Y-61426819D01*
X169974310Y-61344765D01*
X169763493Y-61324001D01*
X169622509Y-61324001D01*
X169411692Y-61344765D01*
X169141193Y-61426819D01*
X168891900Y-61560069D01*
X168673393Y-61739393D01*
X168494069Y-61957900D01*
X168423001Y-62090859D01*
X168351933Y-61957900D01*
X168172609Y-61739393D01*
X167954102Y-61560069D01*
X167704809Y-61426819D01*
X167434310Y-61344765D01*
X167223493Y-61324001D01*
X167082509Y-61324001D01*
X166871692Y-61344765D01*
X166601193Y-61426819D01*
X166351900Y-61560069D01*
X166133393Y-61739393D01*
X165954069Y-61957900D01*
X165820819Y-62207193D01*
X165738765Y-62477692D01*
X165711058Y-62759001D01*
X164534944Y-62759001D01*
X164507237Y-62477692D01*
X164425183Y-62207193D01*
X164291933Y-61957900D01*
X164112609Y-61739393D01*
X163894102Y-61560069D01*
X163644809Y-61426819D01*
X163374310Y-61344765D01*
X163163493Y-61324001D01*
X163022509Y-61324001D01*
X162811692Y-61344765D01*
X162541193Y-61426819D01*
X162291900Y-61560069D01*
X162073393Y-61739393D01*
X161894069Y-61957900D01*
X161823001Y-62090859D01*
X161751933Y-61957900D01*
X161572609Y-61739393D01*
X161354102Y-61560069D01*
X161104809Y-61426819D01*
X160834310Y-61344765D01*
X160623493Y-61324001D01*
X160482509Y-61324001D01*
X160271692Y-61344765D01*
X160001193Y-61426819D01*
X159751900Y-61560069D01*
X159533393Y-61739393D01*
X159354069Y-61957900D01*
X159283001Y-62090859D01*
X159211933Y-61957900D01*
X159032609Y-61739393D01*
X158814102Y-61560069D01*
X158564809Y-61426819D01*
X158294310Y-61344765D01*
X158083493Y-61324001D01*
X157942509Y-61324001D01*
X157731692Y-61344765D01*
X157461193Y-61426819D01*
X157211900Y-61560069D01*
X156993393Y-61739393D01*
X156814069Y-61957900D01*
X156743001Y-62090859D01*
X156671933Y-61957900D01*
X156492609Y-61739393D01*
X156274102Y-61560069D01*
X156024809Y-61426819D01*
X155754310Y-61344765D01*
X155543493Y-61324001D01*
X155402509Y-61324001D01*
X155191692Y-61344765D01*
X154921193Y-61426819D01*
X154671900Y-61560069D01*
X154453393Y-61739393D01*
X154274069Y-61957900D01*
X154203001Y-62090859D01*
X154131933Y-61957900D01*
X153952609Y-61739393D01*
X153734102Y-61560069D01*
X153484809Y-61426819D01*
X153214310Y-61344765D01*
X153003493Y-61324001D01*
X152862509Y-61324001D01*
X152651692Y-61344765D01*
X152381193Y-61426819D01*
X152131900Y-61560069D01*
X151913393Y-61739393D01*
X151734069Y-61957900D01*
X151663001Y-62090859D01*
X151591933Y-61957900D01*
X151412609Y-61739393D01*
X151194102Y-61560069D01*
X150944809Y-61426819D01*
X150674310Y-61344765D01*
X150463493Y-61324001D01*
X150322509Y-61324001D01*
X150111692Y-61344765D01*
X149841193Y-61426819D01*
X149591900Y-61560069D01*
X149373393Y-61739393D01*
X149194069Y-61957900D01*
X149120422Y-62095683D01*
X149005386Y-61903870D01*
X148816415Y-61695482D01*
X148590421Y-61527964D01*
X148336088Y-61407755D01*
X148202040Y-61367097D01*
X147980001Y-61489086D01*
X147726001Y-61489086D01*
X147503962Y-61367097D01*
X147369914Y-61407755D01*
X147115581Y-61527964D01*
X146889587Y-61695482D01*
X146700616Y-61903870D01*
X146585580Y-62095683D01*
X146511933Y-61957900D01*
X146332609Y-61739393D01*
X146114102Y-61560069D01*
X145864809Y-61426819D01*
X145594310Y-61344765D01*
X145383493Y-61324001D01*
X145242509Y-61324001D01*
X145031692Y-61344765D01*
X144761193Y-61426819D01*
X144511900Y-61560069D01*
X144293393Y-61739393D01*
X144114069Y-61957900D01*
X144043001Y-62090859D01*
X143971933Y-61957900D01*
X143792609Y-61739393D01*
X143574102Y-61560069D01*
X143324809Y-61426819D01*
X143054310Y-61344765D01*
X142843493Y-61324001D01*
X142702509Y-61324001D01*
X142491692Y-61344765D01*
X142221193Y-61426819D01*
X141971900Y-61560069D01*
X141753393Y-61739393D01*
X141574069Y-61957900D01*
X141503001Y-62090859D01*
X141431933Y-61957900D01*
X141252609Y-61739393D01*
X141034102Y-61560069D01*
X140784809Y-61426819D01*
X140514310Y-61344765D01*
X140303493Y-61324001D01*
X140162509Y-61324001D01*
X139951692Y-61344765D01*
X139681193Y-61426819D01*
X139431900Y-61560069D01*
X139213393Y-61739393D01*
X139034069Y-61957900D01*
X138900819Y-62207193D01*
X138818765Y-62477692D01*
X138791058Y-62759001D01*
X122021600Y-62759001D01*
X122021600Y-60807600D01*
X189382400Y-60807600D01*
X189382401Y-112928400D01*
M02*
