M48
; DRILL file {KiCad (5.1.4-0-10_14)} date Monday, January 20, 2020 at 11:10:51 AM
; FORMAT={-:-/ absolute / inch / decimal}
; #@! TF.CreationDate,2020-01-20T11:10:51-05:00
; #@! TF.GenerationSoftware,Kicad,Pcbnew,(5.1.4-0-10_14)
; #@! TF.FileFunction,Plated,1,2,PTH
FMAT,2
INCH
T1C0.0100
T2C0.0130
T3C0.0315
T4C0.0394
T5C0.0630
%
G90
G05
T1
X5.739Y-3.882
X5.74Y-3.227
X5.74Y-3.852
X5.741Y-3.197
X5.763Y-3.851
X5.763Y-3.882
X5.764Y-3.196
X5.764Y-3.227
X5.787Y-3.851
X5.787Y-3.882
X5.788Y-3.196
X5.788Y-3.227
X5.814Y-3.851
X5.815Y-3.196
X5.815Y-3.882
X5.816Y-3.227
X5.837Y-3.882
X5.838Y-3.227
X5.838Y-3.85
X5.839Y-3.195
X5.861Y-3.85
X5.861Y-3.882
X5.862Y-3.195
X5.862Y-3.227
T2
X5.685Y-4.035
X5.691Y-3.801
X5.703Y-3.147
X5.72Y-3.39
X5.722Y-3.774
X5.73Y-2.995
X5.73Y-3.275
X5.73Y-3.93
X5.732Y-3.119
X5.755Y-3.655
X5.8Y-3.015
X5.8Y-3.67
T3
X5.521Y-2.4708
X5.621Y-2.4708
X5.721Y-2.4708
X5.821Y-2.4708
X5.8808Y-4.3708
X5.921Y-2.4708
X5.9808Y-4.3708
X6.021Y-2.4708
X6.0808Y-4.3708
X6.121Y-2.4708
X6.1808Y-4.3708
X6.221Y-2.4708
X6.2808Y-4.3708
X6.321Y-2.4708
X6.3808Y-4.3708
X6.421Y-2.4708
X6.4808Y-4.3708
X6.5808Y-2.4708
X6.5808Y-4.3708
X6.6808Y-2.4708
X6.7808Y-2.4708
X6.7808Y-4.3708
X6.8808Y-2.4708
X6.8808Y-4.3708
X6.9808Y-2.4708
X6.9808Y-4.3708
X7.0808Y-2.4708
X7.0808Y-4.3708
X7.1808Y-2.4708
X7.1808Y-4.3708
X7.2808Y-2.4708
X7.2808Y-4.3708
T4
X6.29Y-3.869
X6.39Y-3.869
X6.49Y-3.869
X6.59Y-3.869
X6.69Y-3.869
X6.79Y-3.869
X6.289Y-3.202
X6.389Y-3.202
X6.489Y-3.202
X6.589Y-3.202
X6.689Y-3.202
X6.789Y-3.202
X5.88Y-4.24
X5.98Y-4.24
X6.08Y-4.24
X6.18Y-4.24
X6.28Y-4.24
X6.38Y-4.24
X6.48Y-4.24
X6.58Y-4.24
X6.58Y-2.61
X6.68Y-2.61
X6.78Y-2.61
X6.88Y-2.61
X6.98Y-2.61
X7.08Y-2.61
X7.18Y-2.61
X6.22Y-2.61
X6.32Y-2.61
X6.42Y-2.61
X7.28Y-2.61
X7.295Y-3.39
X7.295Y-3.49
X7.295Y-3.59
X7.295Y-3.69
X7.295Y-3.79
X7.295Y-3.89
X5.52Y-2.61
X5.62Y-2.61
X5.72Y-2.61
X5.82Y-2.61
X5.92Y-2.61
X6.02Y-2.61
X6.12Y-2.61
X6.78Y-4.24
X6.88Y-4.24
X6.98Y-4.24
X7.08Y-4.24
X7.18Y-4.24
X7.28Y-4.24
T5
X4.9338Y-3.48
X5.0519Y-3.665
X5.17Y-3.48
T0
M30
