G04 #@! TF.GenerationSoftware,KiCad,Pcbnew,(5.1.4-0-10_14)*
G04 #@! TF.CreationDate,2020-01-20T11:10:59-05:00*
G04 #@! TF.ProjectId,motor_controller,6d6f746f-725f-4636-9f6e-74726f6c6c65,rev?*
G04 #@! TF.SameCoordinates,Original*
G04 #@! TF.FileFunction,Legend,Top*
G04 #@! TF.FilePolarity,Positive*
%FSLAX46Y46*%
G04 Gerber Fmt 4.6, Leading zero omitted, Abs format (unit mm)*
G04 Created by KiCad (PCBNEW (5.1.4-0-10_14)) date 2020-01-20 11:10:59*
%MOMM*%
%LPD*%
G04 APERTURE LIST*
%ADD10C,0.300000*%
%ADD11C,0.120000*%
%ADD12C,0.150000*%
G04 APERTURE END LIST*
D10*
X185773142Y-105417714D02*
X185844571Y-105203428D01*
X185844571Y-104846285D01*
X185773142Y-104703428D01*
X185701714Y-104632000D01*
X185558857Y-104560571D01*
X185416000Y-104560571D01*
X185273142Y-104632000D01*
X185201714Y-104703428D01*
X185130285Y-104846285D01*
X185058857Y-105132000D01*
X184987428Y-105274857D01*
X184916000Y-105346285D01*
X184773142Y-105417714D01*
X184630285Y-105417714D01*
X184487428Y-105346285D01*
X184416000Y-105274857D01*
X184344571Y-105132000D01*
X184344571Y-104774857D01*
X184416000Y-104560571D01*
X185701714Y-103060571D02*
X185773142Y-103132000D01*
X185844571Y-103346285D01*
X185844571Y-103489142D01*
X185773142Y-103703428D01*
X185630285Y-103846285D01*
X185487428Y-103917714D01*
X185201714Y-103989142D01*
X184987428Y-103989142D01*
X184701714Y-103917714D01*
X184558857Y-103846285D01*
X184416000Y-103703428D01*
X184344571Y-103489142D01*
X184344571Y-103346285D01*
X184416000Y-103132000D01*
X184487428Y-103060571D01*
X185844571Y-101703428D02*
X185844571Y-102417714D01*
X184344571Y-102417714D01*
X182979142Y-105453428D02*
X183050571Y-105239142D01*
X183050571Y-104882000D01*
X182979142Y-104739142D01*
X182907714Y-104667714D01*
X182764857Y-104596285D01*
X182622000Y-104596285D01*
X182479142Y-104667714D01*
X182407714Y-104739142D01*
X182336285Y-104882000D01*
X182264857Y-105167714D01*
X182193428Y-105310571D01*
X182122000Y-105382000D01*
X181979142Y-105453428D01*
X181836285Y-105453428D01*
X181693428Y-105382000D01*
X181622000Y-105310571D01*
X181550571Y-105167714D01*
X181550571Y-104810571D01*
X181622000Y-104596285D01*
X183050571Y-103953428D02*
X181550571Y-103953428D01*
X181550571Y-103596285D01*
X181622000Y-103382000D01*
X181764857Y-103239142D01*
X181907714Y-103167714D01*
X182193428Y-103096285D01*
X182407714Y-103096285D01*
X182693428Y-103167714D01*
X182836285Y-103239142D01*
X182979142Y-103382000D01*
X183050571Y-103596285D01*
X183050571Y-103953428D01*
X182622000Y-102524857D02*
X182622000Y-101810571D01*
X183050571Y-102667714D02*
X181550571Y-102167714D01*
X183050571Y-101667714D01*
X180082000Y-105417714D02*
X180082000Y-104703428D01*
X180510571Y-105560571D02*
X179010571Y-105060571D01*
X180510571Y-104560571D01*
X179010571Y-103774857D02*
X179010571Y-103632000D01*
X179082000Y-103489142D01*
X179153428Y-103417714D01*
X179296285Y-103346285D01*
X179582000Y-103274857D01*
X179939142Y-103274857D01*
X180224857Y-103346285D01*
X180367714Y-103417714D01*
X180439142Y-103489142D01*
X180510571Y-103632000D01*
X180510571Y-103774857D01*
X180439142Y-103917714D01*
X180367714Y-103989142D01*
X180224857Y-104060571D01*
X179939142Y-104132000D01*
X179582000Y-104132000D01*
X179296285Y-104060571D01*
X179153428Y-103989142D01*
X179082000Y-103917714D01*
X179010571Y-103774857D01*
X179010571Y-102774857D02*
X179010571Y-101846285D01*
X179582000Y-102346285D01*
X179582000Y-102132000D01*
X179653428Y-101989142D01*
X179724857Y-101917714D01*
X179867714Y-101846285D01*
X180224857Y-101846285D01*
X180367714Y-101917714D01*
X180439142Y-101989142D01*
X180510571Y-102132000D01*
X180510571Y-102560571D01*
X180439142Y-102703428D01*
X180367714Y-102774857D01*
X177669000Y-105417714D02*
X177669000Y-104703428D01*
X178097571Y-105560571D02*
X176597571Y-105060571D01*
X178097571Y-104560571D01*
X176597571Y-103774857D02*
X176597571Y-103632000D01*
X176669000Y-103489142D01*
X176740428Y-103417714D01*
X176883285Y-103346285D01*
X177169000Y-103274857D01*
X177526142Y-103274857D01*
X177811857Y-103346285D01*
X177954714Y-103417714D01*
X178026142Y-103489142D01*
X178097571Y-103632000D01*
X178097571Y-103774857D01*
X178026142Y-103917714D01*
X177954714Y-103989142D01*
X177811857Y-104060571D01*
X177526142Y-104132000D01*
X177169000Y-104132000D01*
X176883285Y-104060571D01*
X176740428Y-103989142D01*
X176669000Y-103917714D01*
X176597571Y-103774857D01*
X176740428Y-102703428D02*
X176669000Y-102632000D01*
X176597571Y-102489142D01*
X176597571Y-102132000D01*
X176669000Y-101989142D01*
X176740428Y-101917714D01*
X176883285Y-101846285D01*
X177026142Y-101846285D01*
X177240428Y-101917714D01*
X178097571Y-102774857D01*
X178097571Y-101846285D01*
X151046571Y-72052428D02*
X149546571Y-72052428D01*
X149546571Y-71695285D01*
X149618000Y-71481000D01*
X149760857Y-71338142D01*
X149903714Y-71266714D01*
X150189428Y-71195285D01*
X150403714Y-71195285D01*
X150689428Y-71266714D01*
X150832285Y-71338142D01*
X150975142Y-71481000D01*
X151046571Y-71695285D01*
X151046571Y-72052428D01*
X151046571Y-69766714D02*
X151046571Y-70623857D01*
X151046571Y-70195285D02*
X149546571Y-70195285D01*
X149760857Y-70338142D01*
X149903714Y-70481000D01*
X149975142Y-70623857D01*
X149546571Y-69266714D02*
X149546571Y-68338142D01*
X150118000Y-68838142D01*
X150118000Y-68623857D01*
X150189428Y-68481000D01*
X150260857Y-68409571D01*
X150403714Y-68338142D01*
X150760857Y-68338142D01*
X150903714Y-68409571D01*
X150975142Y-68481000D01*
X151046571Y-68623857D01*
X151046571Y-69052428D01*
X150975142Y-69195285D01*
X150903714Y-69266714D01*
X153713571Y-72052428D02*
X152213571Y-72052428D01*
X152213571Y-71695285D01*
X152285000Y-71481000D01*
X152427857Y-71338142D01*
X152570714Y-71266714D01*
X152856428Y-71195285D01*
X153070714Y-71195285D01*
X153356428Y-71266714D01*
X153499285Y-71338142D01*
X153642142Y-71481000D01*
X153713571Y-71695285D01*
X153713571Y-72052428D01*
X153713571Y-69766714D02*
X153713571Y-70623857D01*
X153713571Y-70195285D02*
X152213571Y-70195285D01*
X152427857Y-70338142D01*
X152570714Y-70481000D01*
X152642142Y-70623857D01*
X152356428Y-69195285D02*
X152285000Y-69123857D01*
X152213571Y-68981000D01*
X152213571Y-68623857D01*
X152285000Y-68481000D01*
X152356428Y-68409571D01*
X152499285Y-68338142D01*
X152642142Y-68338142D01*
X152856428Y-68409571D01*
X153713571Y-69266714D01*
X153713571Y-68338142D01*
X164000571Y-70449142D02*
X162500571Y-70449142D01*
X162500571Y-70092000D01*
X162572000Y-69877714D01*
X162714857Y-69734857D01*
X162857714Y-69663428D01*
X163143428Y-69592000D01*
X163357714Y-69592000D01*
X163643428Y-69663428D01*
X163786285Y-69734857D01*
X163929142Y-69877714D01*
X164000571Y-70092000D01*
X164000571Y-70449142D01*
X163143428Y-68734857D02*
X163072000Y-68877714D01*
X163000571Y-68949142D01*
X162857714Y-69020571D01*
X162786285Y-69020571D01*
X162643428Y-68949142D01*
X162572000Y-68877714D01*
X162500571Y-68734857D01*
X162500571Y-68449142D01*
X162572000Y-68306285D01*
X162643428Y-68234857D01*
X162786285Y-68163428D01*
X162857714Y-68163428D01*
X163000571Y-68234857D01*
X163072000Y-68306285D01*
X163143428Y-68449142D01*
X163143428Y-68734857D01*
X163214857Y-68877714D01*
X163286285Y-68949142D01*
X163429142Y-69020571D01*
X163714857Y-69020571D01*
X163857714Y-68949142D01*
X163929142Y-68877714D01*
X164000571Y-68734857D01*
X164000571Y-68449142D01*
X163929142Y-68306285D01*
X163857714Y-68234857D01*
X163714857Y-68163428D01*
X163429142Y-68163428D01*
X163286285Y-68234857D01*
X163214857Y-68306285D01*
X163143428Y-68449142D01*
X167937571Y-70576142D02*
X166437571Y-70576142D01*
X166437571Y-70219000D01*
X166509000Y-70004714D01*
X166651857Y-69861857D01*
X166794714Y-69790428D01*
X167080428Y-69719000D01*
X167294714Y-69719000D01*
X167580428Y-69790428D01*
X167723285Y-69861857D01*
X167866142Y-70004714D01*
X167937571Y-70219000D01*
X167937571Y-70576142D01*
X166437571Y-69219000D02*
X166437571Y-68219000D01*
X167937571Y-68861857D01*
X170477571Y-70576142D02*
X168977571Y-70576142D01*
X168977571Y-70219000D01*
X169049000Y-70004714D01*
X169191857Y-69861857D01*
X169334714Y-69790428D01*
X169620428Y-69719000D01*
X169834714Y-69719000D01*
X170120428Y-69790428D01*
X170263285Y-69861857D01*
X170406142Y-70004714D01*
X170477571Y-70219000D01*
X170477571Y-70576142D01*
X168977571Y-68433285D02*
X168977571Y-68719000D01*
X169049000Y-68861857D01*
X169120428Y-68933285D01*
X169334714Y-69076142D01*
X169620428Y-69147571D01*
X170191857Y-69147571D01*
X170334714Y-69076142D01*
X170406142Y-69004714D01*
X170477571Y-68861857D01*
X170477571Y-68576142D01*
X170406142Y-68433285D01*
X170334714Y-68361857D01*
X170191857Y-68290428D01*
X169834714Y-68290428D01*
X169691857Y-68361857D01*
X169620428Y-68433285D01*
X169549000Y-68576142D01*
X169549000Y-68861857D01*
X169620428Y-69004714D01*
X169691857Y-69076142D01*
X169834714Y-69147571D01*
X178097571Y-70576142D02*
X176597571Y-70576142D01*
X176597571Y-70219000D01*
X176669000Y-70004714D01*
X176811857Y-69861857D01*
X176954714Y-69790428D01*
X177240428Y-69719000D01*
X177454714Y-69719000D01*
X177740428Y-69790428D01*
X177883285Y-69861857D01*
X178026142Y-70004714D01*
X178097571Y-70219000D01*
X178097571Y-70576142D01*
X176597571Y-69219000D02*
X176597571Y-68290428D01*
X177169000Y-68790428D01*
X177169000Y-68576142D01*
X177240428Y-68433285D01*
X177311857Y-68361857D01*
X177454714Y-68290428D01*
X177811857Y-68290428D01*
X177954714Y-68361857D01*
X178026142Y-68433285D01*
X178097571Y-68576142D01*
X178097571Y-69004714D01*
X178026142Y-69147571D01*
X177954714Y-69219000D01*
X180637571Y-70576142D02*
X179137571Y-70576142D01*
X179137571Y-70219000D01*
X179209000Y-70004714D01*
X179351857Y-69861857D01*
X179494714Y-69790428D01*
X179780428Y-69719000D01*
X179994714Y-69719000D01*
X180280428Y-69790428D01*
X180423285Y-69861857D01*
X180566142Y-70004714D01*
X180637571Y-70219000D01*
X180637571Y-70576142D01*
X179280428Y-69147571D02*
X179209000Y-69076142D01*
X179137571Y-68933285D01*
X179137571Y-68576142D01*
X179209000Y-68433285D01*
X179280428Y-68361857D01*
X179423285Y-68290428D01*
X179566142Y-68290428D01*
X179780428Y-68361857D01*
X180637571Y-69219000D01*
X180637571Y-68290428D01*
X123668142Y-81743857D02*
X123668142Y-80601000D01*
X124239571Y-81172428D02*
X123096714Y-81172428D01*
X124239571Y-79101000D02*
X124239571Y-79958142D01*
X124239571Y-79529571D02*
X122739571Y-79529571D01*
X122953857Y-79672428D01*
X123096714Y-79815285D01*
X123168142Y-79958142D01*
X122882428Y-78529571D02*
X122811000Y-78458142D01*
X122739571Y-78315285D01*
X122739571Y-77958142D01*
X122811000Y-77815285D01*
X122882428Y-77743857D01*
X123025285Y-77672428D01*
X123168142Y-77672428D01*
X123382428Y-77743857D01*
X124239571Y-78601000D01*
X124239571Y-77672428D01*
X122739571Y-77243857D02*
X124239571Y-76743857D01*
X122739571Y-76243857D01*
X124168142Y-75672428D02*
X124239571Y-75672428D01*
X124382428Y-75743857D01*
X124453857Y-75815285D01*
X123239571Y-73243857D02*
X124239571Y-73243857D01*
X122668142Y-73601000D02*
X123739571Y-73958142D01*
X123739571Y-73029571D01*
X124096714Y-72458142D02*
X124168142Y-72386714D01*
X124239571Y-72458142D01*
X124168142Y-72529571D01*
X124096714Y-72458142D01*
X124239571Y-72458142D01*
X122882428Y-71815285D02*
X122811000Y-71743857D01*
X122739571Y-71601000D01*
X122739571Y-71243857D01*
X122811000Y-71101000D01*
X122882428Y-71029571D01*
X123025285Y-70958142D01*
X123168142Y-70958142D01*
X123382428Y-71029571D01*
X124239571Y-71886714D01*
X124239571Y-70958142D01*
X123811000Y-70386714D02*
X123811000Y-69672428D01*
X124239571Y-70529571D02*
X122739571Y-70029571D01*
X124239571Y-69529571D01*
X124811000Y-67458142D02*
X124739571Y-67529571D01*
X124525285Y-67672428D01*
X124382428Y-67743857D01*
X124168142Y-67815285D01*
X123811000Y-67886714D01*
X123525285Y-67886714D01*
X123168142Y-67815285D01*
X122953857Y-67743857D01*
X122811000Y-67672428D01*
X122596714Y-67529571D01*
X122525285Y-67458142D01*
X124239571Y-66886714D02*
X122739571Y-66886714D01*
X123811000Y-66386714D01*
X122739571Y-65886714D01*
X124239571Y-65886714D01*
X124239571Y-64529571D02*
X123453857Y-64529571D01*
X123311000Y-64601000D01*
X123239571Y-64743857D01*
X123239571Y-65029571D01*
X123311000Y-65172428D01*
X124168142Y-64529571D02*
X124239571Y-64672428D01*
X124239571Y-65029571D01*
X124168142Y-65172428D01*
X124025285Y-65243857D01*
X123882428Y-65243857D01*
X123739571Y-65172428D01*
X123668142Y-65029571D01*
X123668142Y-64672428D01*
X123596714Y-64529571D01*
X124239571Y-63958142D02*
X123239571Y-63172428D01*
X123239571Y-63958142D02*
X124239571Y-63172428D01*
X124811000Y-62743857D02*
X124739571Y-62672428D01*
X124525285Y-62529571D01*
X124382428Y-62458142D01*
X124168142Y-62386714D01*
X123811000Y-62315285D01*
X123525285Y-62315285D01*
X123168142Y-62386714D01*
X122953857Y-62458142D01*
X122811000Y-62529571D01*
X122596714Y-62672428D01*
X122525285Y-62743857D01*
X125432428Y-81815285D02*
X125361000Y-81743857D01*
X125289571Y-81601000D01*
X125289571Y-81243857D01*
X125361000Y-81101000D01*
X125432428Y-81029571D01*
X125575285Y-80958142D01*
X125718142Y-80958142D01*
X125932428Y-81029571D01*
X126789571Y-81886714D01*
X126789571Y-80958142D01*
X126646714Y-80315285D02*
X126718142Y-80243857D01*
X126789571Y-80315285D01*
X126718142Y-80386714D01*
X126646714Y-80315285D01*
X126789571Y-80315285D01*
X126789571Y-78815285D02*
X126789571Y-79672428D01*
X126789571Y-79243857D02*
X125289571Y-79243857D01*
X125503857Y-79386714D01*
X125646714Y-79529571D01*
X125718142Y-79672428D01*
X126789571Y-77029571D02*
X125789571Y-77029571D01*
X125932428Y-77029571D02*
X125861000Y-76958142D01*
X125789571Y-76815285D01*
X125789571Y-76601000D01*
X125861000Y-76458142D01*
X126003857Y-76386714D01*
X126789571Y-76386714D01*
X126003857Y-76386714D02*
X125861000Y-76315285D01*
X125789571Y-76172428D01*
X125789571Y-75958142D01*
X125861000Y-75815285D01*
X126003857Y-75743857D01*
X126789571Y-75743857D01*
X126789571Y-75029571D02*
X125789571Y-75029571D01*
X125932428Y-75029571D02*
X125861000Y-74958142D01*
X125789571Y-74815285D01*
X125789571Y-74601000D01*
X125861000Y-74458142D01*
X126003857Y-74386714D01*
X126789571Y-74386714D01*
X126003857Y-74386714D02*
X125861000Y-74315285D01*
X125789571Y-74172428D01*
X125789571Y-73958142D01*
X125861000Y-73815285D01*
X126003857Y-73743857D01*
X126789571Y-73743857D01*
X129196714Y-80886714D02*
X129268142Y-80958142D01*
X129339571Y-81172428D01*
X129339571Y-81315285D01*
X129268142Y-81529571D01*
X129125285Y-81672428D01*
X128982428Y-81743857D01*
X128696714Y-81815285D01*
X128482428Y-81815285D01*
X128196714Y-81743857D01*
X128053857Y-81672428D01*
X127911000Y-81529571D01*
X127839571Y-81315285D01*
X127839571Y-81172428D01*
X127911000Y-80958142D01*
X127982428Y-80886714D01*
X129268142Y-79672428D02*
X129339571Y-79815285D01*
X129339571Y-80101000D01*
X129268142Y-80243857D01*
X129125285Y-80315285D01*
X128553857Y-80315285D01*
X128411000Y-80243857D01*
X128339571Y-80101000D01*
X128339571Y-79815285D01*
X128411000Y-79672428D01*
X128553857Y-79601000D01*
X128696714Y-79601000D01*
X128839571Y-80315285D01*
X128339571Y-78958142D02*
X129339571Y-78958142D01*
X128482428Y-78958142D02*
X128411000Y-78886714D01*
X128339571Y-78743857D01*
X128339571Y-78529571D01*
X128411000Y-78386714D01*
X128553857Y-78315285D01*
X129339571Y-78315285D01*
X128339571Y-77815285D02*
X128339571Y-77243857D01*
X127839571Y-77601000D02*
X129125285Y-77601000D01*
X129268142Y-77529571D01*
X129339571Y-77386714D01*
X129339571Y-77243857D01*
X129268142Y-76172428D02*
X129339571Y-76315285D01*
X129339571Y-76601000D01*
X129268142Y-76743857D01*
X129125285Y-76815285D01*
X128553857Y-76815285D01*
X128411000Y-76743857D01*
X128339571Y-76601000D01*
X128339571Y-76315285D01*
X128411000Y-76172428D01*
X128553857Y-76101000D01*
X128696714Y-76101000D01*
X128839571Y-76815285D01*
X129339571Y-75458142D02*
X128339571Y-75458142D01*
X128625285Y-75458142D02*
X128482428Y-75386714D01*
X128411000Y-75315285D01*
X128339571Y-75172428D01*
X128339571Y-75029571D01*
X129339571Y-73386714D02*
X127839571Y-73386714D01*
X127839571Y-72815285D01*
X127911000Y-72672428D01*
X127982428Y-72601000D01*
X128125285Y-72529571D01*
X128339571Y-72529571D01*
X128482428Y-72601000D01*
X128553857Y-72672428D01*
X128625285Y-72815285D01*
X128625285Y-73386714D01*
X129339571Y-71672428D02*
X129268142Y-71815285D01*
X129196714Y-71886714D01*
X129053857Y-71958142D01*
X128625285Y-71958142D01*
X128482428Y-71886714D01*
X128411000Y-71815285D01*
X128339571Y-71672428D01*
X128339571Y-71458142D01*
X128411000Y-71315285D01*
X128482428Y-71243857D01*
X128625285Y-71172428D01*
X129053857Y-71172428D01*
X129196714Y-71243857D01*
X129268142Y-71315285D01*
X129339571Y-71458142D01*
X129339571Y-71672428D01*
X129268142Y-70601000D02*
X129339571Y-70458142D01*
X129339571Y-70172428D01*
X129268142Y-70029571D01*
X129125285Y-69958142D01*
X129053857Y-69958142D01*
X128911000Y-70029571D01*
X128839571Y-70172428D01*
X128839571Y-70386714D01*
X128768142Y-70529571D01*
X128625285Y-70601000D01*
X128553857Y-70601000D01*
X128411000Y-70529571D01*
X128339571Y-70386714D01*
X128339571Y-70172428D01*
X128411000Y-70029571D01*
X129339571Y-69315285D02*
X128339571Y-69315285D01*
X127839571Y-69315285D02*
X127911000Y-69386714D01*
X127982428Y-69315285D01*
X127911000Y-69243857D01*
X127839571Y-69315285D01*
X127982428Y-69315285D01*
X128339571Y-68815285D02*
X128339571Y-68243857D01*
X127839571Y-68601000D02*
X129125285Y-68601000D01*
X129268142Y-68529571D01*
X129339571Y-68386714D01*
X129339571Y-68243857D01*
X129339571Y-67743857D02*
X128339571Y-67743857D01*
X127839571Y-67743857D02*
X127911000Y-67815285D01*
X127982428Y-67743857D01*
X127911000Y-67672428D01*
X127839571Y-67743857D01*
X127982428Y-67743857D01*
X128339571Y-67172428D02*
X129339571Y-66815285D01*
X128339571Y-66458142D01*
X129268142Y-65315285D02*
X129339571Y-65458142D01*
X129339571Y-65743857D01*
X129268142Y-65886714D01*
X129125285Y-65958142D01*
X128553857Y-65958142D01*
X128411000Y-65886714D01*
X128339571Y-65743857D01*
X128339571Y-65458142D01*
X128411000Y-65315285D01*
X128553857Y-65243857D01*
X128696714Y-65243857D01*
X128839571Y-65958142D01*
X160317571Y-86685285D02*
X158817571Y-86685285D01*
X159889000Y-86185285D01*
X158817571Y-85685285D01*
X160317571Y-85685285D01*
X160317571Y-84185285D02*
X160317571Y-85042428D01*
X160317571Y-84613857D02*
X158817571Y-84613857D01*
X159031857Y-84756714D01*
X159174714Y-84899571D01*
X159246142Y-85042428D01*
X163238571Y-86558285D02*
X161738571Y-86558285D01*
X162810000Y-86058285D01*
X161738571Y-85558285D01*
X163238571Y-85558285D01*
X161881428Y-84915428D02*
X161810000Y-84844000D01*
X161738571Y-84701142D01*
X161738571Y-84344000D01*
X161810000Y-84201142D01*
X161881428Y-84129714D01*
X162024285Y-84058285D01*
X162167142Y-84058285D01*
X162381428Y-84129714D01*
X163238571Y-84986857D01*
X163238571Y-84058285D01*
X164223000Y-86994857D02*
X164151571Y-87137714D01*
X164151571Y-87352000D01*
X164223000Y-87566285D01*
X164365857Y-87709142D01*
X164508714Y-87780571D01*
X164794428Y-87852000D01*
X165008714Y-87852000D01*
X165294428Y-87780571D01*
X165437285Y-87709142D01*
X165580142Y-87566285D01*
X165651571Y-87352000D01*
X165651571Y-87209142D01*
X165580142Y-86994857D01*
X165508714Y-86923428D01*
X165008714Y-86923428D01*
X165008714Y-87209142D01*
X165651571Y-86280571D02*
X164151571Y-86280571D01*
X165651571Y-85423428D01*
X164151571Y-85423428D01*
X165651571Y-84709142D02*
X164151571Y-84709142D01*
X164151571Y-84352000D01*
X164223000Y-84137714D01*
X164365857Y-83994857D01*
X164508714Y-83923428D01*
X164794428Y-83852000D01*
X165008714Y-83852000D01*
X165294428Y-83923428D01*
X165437285Y-83994857D01*
X165580142Y-84137714D01*
X165651571Y-84352000D01*
X165651571Y-84709142D01*
X167493142Y-87780571D02*
X167493142Y-86637714D01*
X168064571Y-87209142D02*
X166921714Y-87209142D01*
X166564571Y-85209142D02*
X166564571Y-85923428D01*
X167278857Y-85994857D01*
X167207428Y-85923428D01*
X167136000Y-85780571D01*
X167136000Y-85423428D01*
X167207428Y-85280571D01*
X167278857Y-85209142D01*
X167421714Y-85137714D01*
X167778857Y-85137714D01*
X167921714Y-85209142D01*
X167993142Y-85280571D01*
X168064571Y-85423428D01*
X168064571Y-85780571D01*
X167993142Y-85923428D01*
X167921714Y-85994857D01*
X166564571Y-84709142D02*
X168064571Y-84209142D01*
X166564571Y-83709142D01*
X172485857Y-78362571D02*
X172485857Y-77862571D01*
X173271571Y-77648285D02*
X173271571Y-78362571D01*
X171771571Y-78362571D01*
X171771571Y-77648285D01*
X173271571Y-77005428D02*
X171771571Y-77005428D01*
X173271571Y-76148285D01*
X171771571Y-76148285D01*
X173128714Y-74576857D02*
X173200142Y-74648285D01*
X173271571Y-74862571D01*
X173271571Y-75005428D01*
X173200142Y-75219714D01*
X173057285Y-75362571D01*
X172914428Y-75434000D01*
X172628714Y-75505428D01*
X172414428Y-75505428D01*
X172128714Y-75434000D01*
X171985857Y-75362571D01*
X171843000Y-75219714D01*
X171771571Y-75005428D01*
X171771571Y-74862571D01*
X171843000Y-74648285D01*
X171914428Y-74576857D01*
X173414428Y-74291142D02*
X173414428Y-73148285D01*
X172485857Y-72291142D02*
X172557285Y-72076857D01*
X172628714Y-72005428D01*
X172771571Y-71934000D01*
X172985857Y-71934000D01*
X173128714Y-72005428D01*
X173200142Y-72076857D01*
X173271571Y-72219714D01*
X173271571Y-72791142D01*
X171771571Y-72791142D01*
X171771571Y-72291142D01*
X171843000Y-72148285D01*
X171914428Y-72076857D01*
X172057285Y-72005428D01*
X172200142Y-72005428D01*
X172343000Y-72076857D01*
X172414428Y-72148285D01*
X172485857Y-72291142D01*
X172485857Y-72791142D01*
X169945857Y-78255428D02*
X169945857Y-77755428D01*
X170731571Y-77541142D02*
X170731571Y-78255428D01*
X169231571Y-78255428D01*
X169231571Y-77541142D01*
X170731571Y-76898285D02*
X169231571Y-76898285D01*
X170731571Y-76041142D01*
X169231571Y-76041142D01*
X170588714Y-74469714D02*
X170660142Y-74541142D01*
X170731571Y-74755428D01*
X170731571Y-74898285D01*
X170660142Y-75112571D01*
X170517285Y-75255428D01*
X170374428Y-75326857D01*
X170088714Y-75398285D01*
X169874428Y-75398285D01*
X169588714Y-75326857D01*
X169445857Y-75255428D01*
X169303000Y-75112571D01*
X169231571Y-74898285D01*
X169231571Y-74755428D01*
X169303000Y-74541142D01*
X169374428Y-74469714D01*
X170874428Y-74184000D02*
X170874428Y-73041142D01*
X170303000Y-72755428D02*
X170303000Y-72041142D01*
X170731571Y-72898285D02*
X169231571Y-72398285D01*
X170731571Y-71898285D01*
X172358857Y-95507571D02*
X172358857Y-95007571D01*
X173144571Y-94793285D02*
X173144571Y-95507571D01*
X171644571Y-95507571D01*
X171644571Y-94793285D01*
X173144571Y-94150428D02*
X171644571Y-94150428D01*
X173144571Y-93293285D01*
X171644571Y-93293285D01*
X173001714Y-91721857D02*
X173073142Y-91793285D01*
X173144571Y-92007571D01*
X173144571Y-92150428D01*
X173073142Y-92364714D01*
X172930285Y-92507571D01*
X172787428Y-92579000D01*
X172501714Y-92650428D01*
X172287428Y-92650428D01*
X172001714Y-92579000D01*
X171858857Y-92507571D01*
X171716000Y-92364714D01*
X171644571Y-92150428D01*
X171644571Y-92007571D01*
X171716000Y-91793285D01*
X171787428Y-91721857D01*
X173287428Y-91436142D02*
X173287428Y-90293285D01*
X172358857Y-89436142D02*
X172430285Y-89221857D01*
X172501714Y-89150428D01*
X172644571Y-89079000D01*
X172858857Y-89079000D01*
X173001714Y-89150428D01*
X173073142Y-89221857D01*
X173144571Y-89364714D01*
X173144571Y-89936142D01*
X171644571Y-89936142D01*
X171644571Y-89436142D01*
X171716000Y-89293285D01*
X171787428Y-89221857D01*
X171930285Y-89150428D01*
X172073142Y-89150428D01*
X172216000Y-89221857D01*
X172287428Y-89293285D01*
X172358857Y-89436142D01*
X172358857Y-89936142D01*
X169691857Y-95273428D02*
X169691857Y-94773428D01*
X170477571Y-94559142D02*
X170477571Y-95273428D01*
X168977571Y-95273428D01*
X168977571Y-94559142D01*
X170477571Y-93916285D02*
X168977571Y-93916285D01*
X170477571Y-93059142D01*
X168977571Y-93059142D01*
X170334714Y-91487714D02*
X170406142Y-91559142D01*
X170477571Y-91773428D01*
X170477571Y-91916285D01*
X170406142Y-92130571D01*
X170263285Y-92273428D01*
X170120428Y-92344857D01*
X169834714Y-92416285D01*
X169620428Y-92416285D01*
X169334714Y-92344857D01*
X169191857Y-92273428D01*
X169049000Y-92130571D01*
X168977571Y-91916285D01*
X168977571Y-91773428D01*
X169049000Y-91559142D01*
X169120428Y-91487714D01*
X170620428Y-91202000D02*
X170620428Y-90059142D01*
X170049000Y-89773428D02*
X170049000Y-89059142D01*
X170477571Y-89916285D02*
X168977571Y-89416285D01*
X170477571Y-88916285D01*
X167620142Y-104671571D02*
X167620142Y-103528714D01*
X168191571Y-104100142D02*
X167048714Y-104100142D01*
X166691571Y-102100142D02*
X166691571Y-102814428D01*
X167405857Y-102885857D01*
X167334428Y-102814428D01*
X167263000Y-102671571D01*
X167263000Y-102314428D01*
X167334428Y-102171571D01*
X167405857Y-102100142D01*
X167548714Y-102028714D01*
X167905857Y-102028714D01*
X168048714Y-102100142D01*
X168120142Y-102171571D01*
X168191571Y-102314428D01*
X168191571Y-102671571D01*
X168120142Y-102814428D01*
X168048714Y-102885857D01*
X166691571Y-101600142D02*
X168191571Y-101100142D01*
X166691571Y-100600142D01*
X164223000Y-103885857D02*
X164151571Y-104028714D01*
X164151571Y-104243000D01*
X164223000Y-104457285D01*
X164365857Y-104600142D01*
X164508714Y-104671571D01*
X164794428Y-104743000D01*
X165008714Y-104743000D01*
X165294428Y-104671571D01*
X165437285Y-104600142D01*
X165580142Y-104457285D01*
X165651571Y-104243000D01*
X165651571Y-104100142D01*
X165580142Y-103885857D01*
X165508714Y-103814428D01*
X165008714Y-103814428D01*
X165008714Y-104100142D01*
X165651571Y-103171571D02*
X164151571Y-103171571D01*
X165651571Y-102314428D01*
X164151571Y-102314428D01*
X165651571Y-101600142D02*
X164151571Y-101600142D01*
X164151571Y-101243000D01*
X164223000Y-101028714D01*
X164365857Y-100885857D01*
X164508714Y-100814428D01*
X164794428Y-100743000D01*
X165008714Y-100743000D01*
X165294428Y-100814428D01*
X165437285Y-100885857D01*
X165580142Y-101028714D01*
X165651571Y-101243000D01*
X165651571Y-101600142D01*
X163111571Y-103322285D02*
X161611571Y-103322285D01*
X162683000Y-102822285D01*
X161611571Y-102322285D01*
X163111571Y-102322285D01*
X161754428Y-101679428D02*
X161683000Y-101608000D01*
X161611571Y-101465142D01*
X161611571Y-101108000D01*
X161683000Y-100965142D01*
X161754428Y-100893714D01*
X161897285Y-100822285D01*
X162040142Y-100822285D01*
X162254428Y-100893714D01*
X163111571Y-101750857D01*
X163111571Y-100822285D01*
X160444571Y-103322285D02*
X158944571Y-103322285D01*
X160016000Y-102822285D01*
X158944571Y-102322285D01*
X160444571Y-102322285D01*
X160444571Y-100822285D02*
X160444571Y-101679428D01*
X160444571Y-101250857D02*
X158944571Y-101250857D01*
X159158857Y-101393714D01*
X159301714Y-101536571D01*
X159373142Y-101679428D01*
X180252857Y-99611571D02*
X180252857Y-98111571D01*
X180967142Y-99611571D02*
X180967142Y-98111571D01*
X181824285Y-99611571D01*
X181824285Y-98111571D01*
X182324285Y-98111571D02*
X183181428Y-98111571D01*
X182752857Y-99611571D02*
X182752857Y-98111571D01*
X179407571Y-96873142D02*
X179621857Y-96944571D01*
X179979000Y-96944571D01*
X180121857Y-96873142D01*
X180193285Y-96801714D01*
X180264714Y-96658857D01*
X180264714Y-96516000D01*
X180193285Y-96373142D01*
X180121857Y-96301714D01*
X179979000Y-96230285D01*
X179693285Y-96158857D01*
X179550428Y-96087428D01*
X179479000Y-96016000D01*
X179407571Y-95873142D01*
X179407571Y-95730285D01*
X179479000Y-95587428D01*
X179550428Y-95516000D01*
X179693285Y-95444571D01*
X180050428Y-95444571D01*
X180264714Y-95516000D01*
X180907571Y-96944571D02*
X180907571Y-95444571D01*
X181264714Y-95444571D01*
X181479000Y-95516000D01*
X181621857Y-95658857D01*
X181693285Y-95801714D01*
X181764714Y-96087428D01*
X181764714Y-96301714D01*
X181693285Y-96587428D01*
X181621857Y-96730285D01*
X181479000Y-96873142D01*
X181264714Y-96944571D01*
X180907571Y-96944571D01*
X182336142Y-96516000D02*
X183050428Y-96516000D01*
X182193285Y-96944571D02*
X182693285Y-95444571D01*
X183193285Y-96944571D01*
X179443285Y-94333142D02*
X179657571Y-94404571D01*
X180014714Y-94404571D01*
X180157571Y-94333142D01*
X180229000Y-94261714D01*
X180300428Y-94118857D01*
X180300428Y-93976000D01*
X180229000Y-93833142D01*
X180157571Y-93761714D01*
X180014714Y-93690285D01*
X179729000Y-93618857D01*
X179586142Y-93547428D01*
X179514714Y-93476000D01*
X179443285Y-93333142D01*
X179443285Y-93190285D01*
X179514714Y-93047428D01*
X179586142Y-92976000D01*
X179729000Y-92904571D01*
X180086142Y-92904571D01*
X180300428Y-92976000D01*
X181800428Y-94261714D02*
X181729000Y-94333142D01*
X181514714Y-94404571D01*
X181371857Y-94404571D01*
X181157571Y-94333142D01*
X181014714Y-94190285D01*
X180943285Y-94047428D01*
X180871857Y-93761714D01*
X180871857Y-93547428D01*
X180943285Y-93261714D01*
X181014714Y-93118857D01*
X181157571Y-92976000D01*
X181371857Y-92904571D01*
X181514714Y-92904571D01*
X181729000Y-92976000D01*
X181800428Y-93047428D01*
X183157571Y-94404571D02*
X182443285Y-94404571D01*
X182443285Y-92904571D01*
X179959142Y-87896000D02*
X179816285Y-87824571D01*
X179602000Y-87824571D01*
X179387714Y-87896000D01*
X179244857Y-88038857D01*
X179173428Y-88181714D01*
X179102000Y-88467428D01*
X179102000Y-88681714D01*
X179173428Y-88967428D01*
X179244857Y-89110285D01*
X179387714Y-89253142D01*
X179602000Y-89324571D01*
X179744857Y-89324571D01*
X179959142Y-89253142D01*
X180030571Y-89181714D01*
X180030571Y-88681714D01*
X179744857Y-88681714D01*
X180673428Y-89324571D02*
X180673428Y-87824571D01*
X181530571Y-89324571D01*
X181530571Y-87824571D01*
X182244857Y-89324571D02*
X182244857Y-87824571D01*
X182602000Y-87824571D01*
X182816285Y-87896000D01*
X182959142Y-88038857D01*
X183030571Y-88181714D01*
X183102000Y-88467428D01*
X183102000Y-88681714D01*
X183030571Y-88967428D01*
X182959142Y-89110285D01*
X182816285Y-89253142D01*
X182602000Y-89324571D01*
X182244857Y-89324571D01*
X178919428Y-85959142D02*
X180062285Y-85959142D01*
X179490857Y-86530571D02*
X179490857Y-85387714D01*
X181490857Y-85030571D02*
X180776571Y-85030571D01*
X180705142Y-85744857D01*
X180776571Y-85673428D01*
X180919428Y-85602000D01*
X181276571Y-85602000D01*
X181419428Y-85673428D01*
X181490857Y-85744857D01*
X181562285Y-85887714D01*
X181562285Y-86244857D01*
X181490857Y-86387714D01*
X181419428Y-86459142D01*
X181276571Y-86530571D01*
X180919428Y-86530571D01*
X180776571Y-86459142D01*
X180705142Y-86387714D01*
X181990857Y-85030571D02*
X182490857Y-86530571D01*
X182990857Y-85030571D01*
X182765000Y-82728428D02*
X182693571Y-82871285D01*
X182693571Y-83085571D01*
X182765000Y-83299857D01*
X182907857Y-83442714D01*
X183050714Y-83514142D01*
X183336428Y-83585571D01*
X183550714Y-83585571D01*
X183836428Y-83514142D01*
X183979285Y-83442714D01*
X184122142Y-83299857D01*
X184193571Y-83085571D01*
X184193571Y-82942714D01*
X184122142Y-82728428D01*
X184050714Y-82657000D01*
X183550714Y-82657000D01*
X183550714Y-82942714D01*
X183193571Y-82157000D02*
X184193571Y-81799857D01*
X183193571Y-81442714D02*
X184193571Y-81799857D01*
X184550714Y-81942714D01*
X184622142Y-82014142D01*
X184693571Y-82157000D01*
X184193571Y-80871285D02*
X183193571Y-80871285D01*
X183479285Y-80871285D02*
X183336428Y-80799857D01*
X183265000Y-80728428D01*
X183193571Y-80585571D01*
X183193571Y-80442714D01*
X184193571Y-79728428D02*
X184122142Y-79871285D01*
X184050714Y-79942714D01*
X183907857Y-80014142D01*
X183479285Y-80014142D01*
X183336428Y-79942714D01*
X183265000Y-79871285D01*
X183193571Y-79728428D01*
X183193571Y-79514142D01*
X183265000Y-79371285D01*
X183336428Y-79299857D01*
X183479285Y-79228428D01*
X183907857Y-79228428D01*
X184050714Y-79299857D01*
X184122142Y-79371285D01*
X184193571Y-79514142D01*
X184193571Y-79728428D01*
X154470571Y-97301714D02*
X154470571Y-98016000D01*
X152970571Y-98016000D01*
X154399142Y-96230285D02*
X154470571Y-96373142D01*
X154470571Y-96658857D01*
X154399142Y-96801714D01*
X154256285Y-96873142D01*
X153684857Y-96873142D01*
X153542000Y-96801714D01*
X153470571Y-96658857D01*
X153470571Y-96373142D01*
X153542000Y-96230285D01*
X153684857Y-96158857D01*
X153827714Y-96158857D01*
X153970571Y-96873142D01*
X153470571Y-95730285D02*
X153470571Y-95158857D01*
X154470571Y-95516000D02*
X153184857Y-95516000D01*
X153042000Y-95444571D01*
X152970571Y-95301714D01*
X152970571Y-95158857D01*
X153470571Y-94873142D02*
X153470571Y-94301714D01*
X152970571Y-94658857D02*
X154256285Y-94658857D01*
X154399142Y-94587428D01*
X154470571Y-94444571D01*
X154470571Y-94301714D01*
X156877714Y-100623142D02*
X156949142Y-100694571D01*
X157020571Y-100908857D01*
X157020571Y-101051714D01*
X156949142Y-101266000D01*
X156806285Y-101408857D01*
X156663428Y-101480285D01*
X156377714Y-101551714D01*
X156163428Y-101551714D01*
X155877714Y-101480285D01*
X155734857Y-101408857D01*
X155592000Y-101266000D01*
X155520571Y-101051714D01*
X155520571Y-100908857D01*
X155592000Y-100694571D01*
X155663428Y-100623142D01*
X157020571Y-99766000D02*
X156949142Y-99908857D01*
X156877714Y-99980285D01*
X156734857Y-100051714D01*
X156306285Y-100051714D01*
X156163428Y-99980285D01*
X156092000Y-99908857D01*
X156020571Y-99766000D01*
X156020571Y-99551714D01*
X156092000Y-99408857D01*
X156163428Y-99337428D01*
X156306285Y-99266000D01*
X156734857Y-99266000D01*
X156877714Y-99337428D01*
X156949142Y-99408857D01*
X157020571Y-99551714D01*
X157020571Y-99766000D01*
X156020571Y-98623142D02*
X157020571Y-98623142D01*
X156163428Y-98623142D02*
X156092000Y-98551714D01*
X156020571Y-98408857D01*
X156020571Y-98194571D01*
X156092000Y-98051714D01*
X156234857Y-97980285D01*
X157020571Y-97980285D01*
X156020571Y-97480285D02*
X156020571Y-96908857D01*
X155520571Y-97266000D02*
X156806285Y-97266000D01*
X156949142Y-97194571D01*
X157020571Y-97051714D01*
X157020571Y-96908857D01*
X157020571Y-96408857D02*
X156020571Y-96408857D01*
X156306285Y-96408857D02*
X156163428Y-96337428D01*
X156092000Y-96266000D01*
X156020571Y-96123142D01*
X156020571Y-95980285D01*
X157020571Y-95266000D02*
X156949142Y-95408857D01*
X156877714Y-95480285D01*
X156734857Y-95551714D01*
X156306285Y-95551714D01*
X156163428Y-95480285D01*
X156092000Y-95408857D01*
X156020571Y-95266000D01*
X156020571Y-95051714D01*
X156092000Y-94908857D01*
X156163428Y-94837428D01*
X156306285Y-94766000D01*
X156734857Y-94766000D01*
X156877714Y-94837428D01*
X156949142Y-94908857D01*
X157020571Y-95051714D01*
X157020571Y-95266000D01*
X157020571Y-93908857D02*
X156949142Y-94051714D01*
X156806285Y-94123142D01*
X155520571Y-94123142D01*
X157020571Y-93123142D02*
X156949142Y-93266000D01*
X156806285Y-93337428D01*
X155520571Y-93337428D01*
X156949142Y-91980285D02*
X157020571Y-92123142D01*
X157020571Y-92408857D01*
X156949142Y-92551714D01*
X156806285Y-92623142D01*
X156234857Y-92623142D01*
X156092000Y-92551714D01*
X156020571Y-92408857D01*
X156020571Y-92123142D01*
X156092000Y-91980285D01*
X156234857Y-91908857D01*
X156377714Y-91908857D01*
X156520571Y-92623142D01*
X157020571Y-91266000D02*
X156020571Y-91266000D01*
X156306285Y-91266000D02*
X156163428Y-91194571D01*
X156092000Y-91123142D01*
X156020571Y-90980285D01*
X156020571Y-90837428D01*
X154724571Y-79783571D02*
X154010285Y-80283571D01*
X154724571Y-80640714D02*
X153224571Y-80640714D01*
X153224571Y-80069285D01*
X153296000Y-79926428D01*
X153367428Y-79855000D01*
X153510285Y-79783571D01*
X153724571Y-79783571D01*
X153867428Y-79855000D01*
X153938857Y-79926428D01*
X154010285Y-80069285D01*
X154010285Y-80640714D01*
X154724571Y-79140714D02*
X153724571Y-79140714D01*
X153224571Y-79140714D02*
X153296000Y-79212142D01*
X153367428Y-79140714D01*
X153296000Y-79069285D01*
X153224571Y-79140714D01*
X153367428Y-79140714D01*
X153724571Y-77783571D02*
X154938857Y-77783571D01*
X155081714Y-77855000D01*
X155153142Y-77926428D01*
X155224571Y-78069285D01*
X155224571Y-78283571D01*
X155153142Y-78426428D01*
X154653142Y-77783571D02*
X154724571Y-77926428D01*
X154724571Y-78212142D01*
X154653142Y-78355000D01*
X154581714Y-78426428D01*
X154438857Y-78497857D01*
X154010285Y-78497857D01*
X153867428Y-78426428D01*
X153796000Y-78355000D01*
X153724571Y-78212142D01*
X153724571Y-77926428D01*
X153796000Y-77783571D01*
X154724571Y-77069285D02*
X153224571Y-77069285D01*
X154724571Y-76426428D02*
X153938857Y-76426428D01*
X153796000Y-76497857D01*
X153724571Y-76640714D01*
X153724571Y-76855000D01*
X153796000Y-76997857D01*
X153867428Y-77069285D01*
X153724571Y-75926428D02*
X153724571Y-75355000D01*
X153224571Y-75712142D02*
X154510285Y-75712142D01*
X154653142Y-75640714D01*
X154724571Y-75497857D01*
X154724571Y-75355000D01*
X157131714Y-82462142D02*
X157203142Y-82533571D01*
X157274571Y-82747857D01*
X157274571Y-82890714D01*
X157203142Y-83105000D01*
X157060285Y-83247857D01*
X156917428Y-83319285D01*
X156631714Y-83390714D01*
X156417428Y-83390714D01*
X156131714Y-83319285D01*
X155988857Y-83247857D01*
X155846000Y-83105000D01*
X155774571Y-82890714D01*
X155774571Y-82747857D01*
X155846000Y-82533571D01*
X155917428Y-82462142D01*
X157274571Y-81605000D02*
X157203142Y-81747857D01*
X157131714Y-81819285D01*
X156988857Y-81890714D01*
X156560285Y-81890714D01*
X156417428Y-81819285D01*
X156346000Y-81747857D01*
X156274571Y-81605000D01*
X156274571Y-81390714D01*
X156346000Y-81247857D01*
X156417428Y-81176428D01*
X156560285Y-81105000D01*
X156988857Y-81105000D01*
X157131714Y-81176428D01*
X157203142Y-81247857D01*
X157274571Y-81390714D01*
X157274571Y-81605000D01*
X156274571Y-80462142D02*
X157274571Y-80462142D01*
X156417428Y-80462142D02*
X156346000Y-80390714D01*
X156274571Y-80247857D01*
X156274571Y-80033571D01*
X156346000Y-79890714D01*
X156488857Y-79819285D01*
X157274571Y-79819285D01*
X156274571Y-79319285D02*
X156274571Y-78747857D01*
X155774571Y-79105000D02*
X157060285Y-79105000D01*
X157203142Y-79033571D01*
X157274571Y-78890714D01*
X157274571Y-78747857D01*
X157274571Y-78247857D02*
X156274571Y-78247857D01*
X156560285Y-78247857D02*
X156417428Y-78176428D01*
X156346000Y-78105000D01*
X156274571Y-77962142D01*
X156274571Y-77819285D01*
X157274571Y-77105000D02*
X157203142Y-77247857D01*
X157131714Y-77319285D01*
X156988857Y-77390714D01*
X156560285Y-77390714D01*
X156417428Y-77319285D01*
X156346000Y-77247857D01*
X156274571Y-77105000D01*
X156274571Y-76890714D01*
X156346000Y-76747857D01*
X156417428Y-76676428D01*
X156560285Y-76605000D01*
X156988857Y-76605000D01*
X157131714Y-76676428D01*
X157203142Y-76747857D01*
X157274571Y-76890714D01*
X157274571Y-77105000D01*
X157274571Y-75747857D02*
X157203142Y-75890714D01*
X157060285Y-75962142D01*
X155774571Y-75962142D01*
X157274571Y-74962142D02*
X157203142Y-75105000D01*
X157060285Y-75176428D01*
X155774571Y-75176428D01*
X157203142Y-73819285D02*
X157274571Y-73962142D01*
X157274571Y-74247857D01*
X157203142Y-74390714D01*
X157060285Y-74462142D01*
X156488857Y-74462142D01*
X156346000Y-74390714D01*
X156274571Y-74247857D01*
X156274571Y-73962142D01*
X156346000Y-73819285D01*
X156488857Y-73747857D01*
X156631714Y-73747857D01*
X156774571Y-74462142D01*
X157274571Y-73105000D02*
X156274571Y-73105000D01*
X156560285Y-73105000D02*
X156417428Y-73033571D01*
X156346000Y-72962142D01*
X156274571Y-72819285D01*
X156274571Y-72676428D01*
D11*
X126803000Y-99060000D02*
G75*
G03X126803000Y-99060000I-1200000J0D01*
G01*
X137598000Y-88519000D02*
G75*
G03X137598000Y-88519000I-1200000J0D01*
G01*
X143861022Y-98957200D02*
X144378178Y-98957200D01*
X143861022Y-97537200D02*
X144378178Y-97537200D01*
X158410600Y-82660800D02*
X158410600Y-81330800D01*
X159740600Y-82660800D02*
X158410600Y-82660800D01*
X161010600Y-82660800D02*
X161010600Y-80000800D01*
X161010600Y-80000800D02*
X173770600Y-80000800D01*
X161010600Y-82660800D02*
X173770600Y-82660800D01*
X173770600Y-82660800D02*
X173770600Y-80000800D01*
X162986600Y-77504800D02*
X162986600Y-74819800D01*
X162986600Y-74819800D02*
X161066600Y-74819800D01*
X161066600Y-74819800D02*
X161066600Y-77504800D01*
X165276600Y-76246222D02*
X165276600Y-76763378D01*
X163856600Y-76246222D02*
X163856600Y-76763378D01*
X173796000Y-99602600D02*
X173796000Y-96942600D01*
X161036000Y-99602600D02*
X173796000Y-99602600D01*
X161036000Y-96942600D02*
X173796000Y-96942600D01*
X161036000Y-99602600D02*
X161036000Y-96942600D01*
X159766000Y-99602600D02*
X158436000Y-99602600D01*
X158436000Y-99602600D02*
X158436000Y-98272600D01*
X143937222Y-80900200D02*
X144454378Y-80900200D01*
X143937222Y-82320200D02*
X144454378Y-82320200D01*
X161092000Y-91533000D02*
X161092000Y-94218000D01*
X163012000Y-91533000D02*
X161092000Y-91533000D01*
X163012000Y-94218000D02*
X163012000Y-91533000D01*
X168462000Y-109026000D02*
X168462000Y-106366000D01*
X150622000Y-109026000D02*
X168462000Y-109026000D01*
X150622000Y-106366000D02*
X168462000Y-106366000D01*
X150622000Y-109026000D02*
X150622000Y-106366000D01*
X149352000Y-109026000D02*
X148022000Y-109026000D01*
X148022000Y-109026000D02*
X148022000Y-107696000D01*
X186242000Y-109026000D02*
X186242000Y-106366000D01*
X173482000Y-109026000D02*
X186242000Y-109026000D01*
X173482000Y-106366000D02*
X186242000Y-106366000D01*
X173482000Y-109026000D02*
X173482000Y-106366000D01*
X172212000Y-109026000D02*
X170882000Y-109026000D01*
X170882000Y-109026000D02*
X170882000Y-107696000D01*
X164398000Y-67624000D02*
X164398000Y-64964000D01*
X141478000Y-67624000D02*
X164398000Y-67624000D01*
X141478000Y-64964000D02*
X164398000Y-64964000D01*
X141478000Y-67624000D02*
X141478000Y-64964000D01*
X140208000Y-67624000D02*
X138878000Y-67624000D01*
X138878000Y-67624000D02*
X138878000Y-66294000D01*
X165802000Y-67624000D02*
X165802000Y-66294000D01*
X167132000Y-67624000D02*
X165802000Y-67624000D01*
X168402000Y-67624000D02*
X168402000Y-64964000D01*
X168402000Y-64964000D02*
X186242000Y-64964000D01*
X168402000Y-67624000D02*
X186242000Y-67624000D01*
X186242000Y-67624000D02*
X186242000Y-64964000D01*
X163628000Y-92934022D02*
X163628000Y-93451178D01*
X165048000Y-92934022D02*
X165048000Y-93451178D01*
X183963000Y-100136000D02*
X186623000Y-100136000D01*
X183963000Y-87376000D02*
X183963000Y-100136000D01*
X186623000Y-87376000D02*
X186623000Y-100136000D01*
X183963000Y-87376000D02*
X186623000Y-87376000D01*
X183963000Y-86106000D02*
X183963000Y-84776000D01*
X183963000Y-84776000D02*
X185293000Y-84776000D01*
D12*
X146355800Y-80110200D02*
X146355800Y-83110200D01*
X149655800Y-79510200D02*
X149655800Y-83110200D01*
X149579600Y-96147200D02*
X149579600Y-99747200D01*
X146279600Y-96747200D02*
X146279600Y-99747200D01*
D11*
X158526600Y-75504800D02*
X158526600Y-78189800D01*
X158526600Y-78189800D02*
X160446600Y-78189800D01*
X160446600Y-78189800D02*
X160446600Y-75504800D01*
X160472000Y-94824500D02*
X160472000Y-92139500D01*
X158552000Y-94824500D02*
X160472000Y-94824500D01*
X158552000Y-92139500D02*
X158552000Y-94824500D01*
X126518000Y-92992000D02*
X117518000Y-92992000D01*
X117518000Y-92992000D02*
X117518000Y-83792000D01*
X117518000Y-83792000D02*
X132118000Y-83792000D01*
X132118000Y-83792000D02*
X132118000Y-86592000D01*
X132118000Y-90192000D02*
X132118000Y-92992000D01*
X132118000Y-92992000D02*
X130118000Y-92992000D01*
X130618000Y-83552000D02*
X132358000Y-83552000D01*
X132358000Y-83552000D02*
X132358000Y-85292000D01*
X148139000Y-88011000D02*
G75*
G03X148139000Y-88011000I-1200000J0D01*
G01*
X147250000Y-104140000D02*
G75*
G03X147250000Y-104140000I-1200000J0D01*
G01*
M02*
