G04 #@! TF.GenerationSoftware,KiCad,Pcbnew,(5.1.4-0-10_14)*
G04 #@! TF.CreationDate,2020-01-20T11:10:59-05:00*
G04 #@! TF.ProjectId,motor_controller,6d6f746f-725f-4636-9f6e-74726f6c6c65,rev?*
G04 #@! TF.SameCoordinates,Original*
G04 #@! TF.FileFunction,Soldermask,Bot*
G04 #@! TF.FilePolarity,Negative*
%FSLAX46Y46*%
G04 Gerber Fmt 4.6, Leading zero omitted, Abs format (unit mm)*
G04 Created by KiCad (PCBNEW (5.1.4-0-10_14)) date 2020-01-20 11:10:59*
%MOMM*%
%LPD*%
G04 APERTURE LIST*
%ADD10C,0.100000*%
G04 APERTURE END LIST*
D10*
G36*
X185099783Y-110180511D02*
G01*
X185099786Y-110180512D01*
X185099787Y-110180512D01*
X185166015Y-110200602D01*
X185260164Y-110229162D01*
X185334065Y-110268663D01*
X185407967Y-110308164D01*
X185537518Y-110414484D01*
X185643838Y-110544035D01*
X185683339Y-110617937D01*
X185722840Y-110691838D01*
X185771491Y-110852219D01*
X185787918Y-111019001D01*
X185771491Y-111185783D01*
X185722840Y-111346164D01*
X185683339Y-111420065D01*
X185643838Y-111493967D01*
X185537518Y-111623518D01*
X185407967Y-111729838D01*
X185334065Y-111769339D01*
X185260164Y-111808840D01*
X185166015Y-111837400D01*
X185099787Y-111857490D01*
X185099786Y-111857490D01*
X185099783Y-111857491D01*
X184974797Y-111869801D01*
X184891205Y-111869801D01*
X184766219Y-111857491D01*
X184766216Y-111857490D01*
X184766215Y-111857490D01*
X184699987Y-111837400D01*
X184605838Y-111808840D01*
X184531937Y-111769339D01*
X184458035Y-111729838D01*
X184328484Y-111623518D01*
X184222164Y-111493967D01*
X184182663Y-111420065D01*
X184143162Y-111346164D01*
X184094511Y-111185783D01*
X184078084Y-111019001D01*
X184094511Y-110852219D01*
X184143162Y-110691838D01*
X184182663Y-110617937D01*
X184222164Y-110544035D01*
X184328484Y-110414484D01*
X184458035Y-110308164D01*
X184531937Y-110268663D01*
X184605838Y-110229162D01*
X184699987Y-110200602D01*
X184766215Y-110180512D01*
X184766216Y-110180512D01*
X184766219Y-110180511D01*
X184891205Y-110168201D01*
X184974797Y-110168201D01*
X185099783Y-110180511D01*
X185099783Y-110180511D01*
G37*
G36*
X182559783Y-110180511D02*
G01*
X182559786Y-110180512D01*
X182559787Y-110180512D01*
X182626015Y-110200602D01*
X182720164Y-110229162D01*
X182794065Y-110268663D01*
X182867967Y-110308164D01*
X182997518Y-110414484D01*
X183103838Y-110544035D01*
X183143339Y-110617937D01*
X183182840Y-110691838D01*
X183231491Y-110852219D01*
X183247918Y-111019001D01*
X183231491Y-111185783D01*
X183182840Y-111346164D01*
X183143339Y-111420065D01*
X183103838Y-111493967D01*
X182997518Y-111623518D01*
X182867967Y-111729838D01*
X182794065Y-111769339D01*
X182720164Y-111808840D01*
X182626015Y-111837400D01*
X182559787Y-111857490D01*
X182559786Y-111857490D01*
X182559783Y-111857491D01*
X182434797Y-111869801D01*
X182351205Y-111869801D01*
X182226219Y-111857491D01*
X182226216Y-111857490D01*
X182226215Y-111857490D01*
X182159987Y-111837400D01*
X182065838Y-111808840D01*
X181991937Y-111769339D01*
X181918035Y-111729838D01*
X181788484Y-111623518D01*
X181682164Y-111493967D01*
X181642663Y-111420065D01*
X181603162Y-111346164D01*
X181554511Y-111185783D01*
X181538084Y-111019001D01*
X181554511Y-110852219D01*
X181603162Y-110691838D01*
X181642663Y-110617937D01*
X181682164Y-110544035D01*
X181788484Y-110414484D01*
X181918035Y-110308164D01*
X181991937Y-110268663D01*
X182065838Y-110229162D01*
X182159987Y-110200602D01*
X182226215Y-110180512D01*
X182226216Y-110180512D01*
X182226219Y-110180511D01*
X182351205Y-110168201D01*
X182434797Y-110168201D01*
X182559783Y-110180511D01*
X182559783Y-110180511D01*
G37*
G36*
X180019783Y-110180511D02*
G01*
X180019786Y-110180512D01*
X180019787Y-110180512D01*
X180086015Y-110200602D01*
X180180164Y-110229162D01*
X180254065Y-110268663D01*
X180327967Y-110308164D01*
X180457518Y-110414484D01*
X180563838Y-110544035D01*
X180603339Y-110617937D01*
X180642840Y-110691838D01*
X180691491Y-110852219D01*
X180707918Y-111019001D01*
X180691491Y-111185783D01*
X180642840Y-111346164D01*
X180603339Y-111420065D01*
X180563838Y-111493967D01*
X180457518Y-111623518D01*
X180327967Y-111729838D01*
X180254065Y-111769339D01*
X180180164Y-111808840D01*
X180086015Y-111837400D01*
X180019787Y-111857490D01*
X180019786Y-111857490D01*
X180019783Y-111857491D01*
X179894797Y-111869801D01*
X179811205Y-111869801D01*
X179686219Y-111857491D01*
X179686216Y-111857490D01*
X179686215Y-111857490D01*
X179619987Y-111837400D01*
X179525838Y-111808840D01*
X179451937Y-111769339D01*
X179378035Y-111729838D01*
X179248484Y-111623518D01*
X179142164Y-111493967D01*
X179102663Y-111420065D01*
X179063162Y-111346164D01*
X179014511Y-111185783D01*
X178998084Y-111019001D01*
X179014511Y-110852219D01*
X179063162Y-110691838D01*
X179102663Y-110617937D01*
X179142164Y-110544035D01*
X179248484Y-110414484D01*
X179378035Y-110308164D01*
X179451937Y-110268663D01*
X179525838Y-110229162D01*
X179619987Y-110200602D01*
X179686215Y-110180512D01*
X179686216Y-110180512D01*
X179686219Y-110180511D01*
X179811205Y-110168201D01*
X179894797Y-110168201D01*
X180019783Y-110180511D01*
X180019783Y-110180511D01*
G37*
G36*
X177479783Y-110180511D02*
G01*
X177479786Y-110180512D01*
X177479787Y-110180512D01*
X177546015Y-110200602D01*
X177640164Y-110229162D01*
X177714065Y-110268663D01*
X177787967Y-110308164D01*
X177917518Y-110414484D01*
X178023838Y-110544035D01*
X178063339Y-110617937D01*
X178102840Y-110691838D01*
X178151491Y-110852219D01*
X178167918Y-111019001D01*
X178151491Y-111185783D01*
X178102840Y-111346164D01*
X178063339Y-111420065D01*
X178023838Y-111493967D01*
X177917518Y-111623518D01*
X177787967Y-111729838D01*
X177714065Y-111769339D01*
X177640164Y-111808840D01*
X177546015Y-111837400D01*
X177479787Y-111857490D01*
X177479786Y-111857490D01*
X177479783Y-111857491D01*
X177354797Y-111869801D01*
X177271205Y-111869801D01*
X177146219Y-111857491D01*
X177146216Y-111857490D01*
X177146215Y-111857490D01*
X177079987Y-111837400D01*
X176985838Y-111808840D01*
X176911937Y-111769339D01*
X176838035Y-111729838D01*
X176708484Y-111623518D01*
X176602164Y-111493967D01*
X176562663Y-111420065D01*
X176523162Y-111346164D01*
X176474511Y-111185783D01*
X176458084Y-111019001D01*
X176474511Y-110852219D01*
X176523162Y-110691838D01*
X176562663Y-110617937D01*
X176602164Y-110544035D01*
X176708484Y-110414484D01*
X176838035Y-110308164D01*
X176911937Y-110268663D01*
X176985838Y-110229162D01*
X177079987Y-110200602D01*
X177146215Y-110180512D01*
X177146216Y-110180512D01*
X177146219Y-110180511D01*
X177271205Y-110168201D01*
X177354797Y-110168201D01*
X177479783Y-110180511D01*
X177479783Y-110180511D01*
G37*
G36*
X174939783Y-110180511D02*
G01*
X174939786Y-110180512D01*
X174939787Y-110180512D01*
X175006015Y-110200602D01*
X175100164Y-110229162D01*
X175174065Y-110268663D01*
X175247967Y-110308164D01*
X175377518Y-110414484D01*
X175483838Y-110544035D01*
X175523339Y-110617937D01*
X175562840Y-110691838D01*
X175611491Y-110852219D01*
X175627918Y-111019001D01*
X175611491Y-111185783D01*
X175562840Y-111346164D01*
X175523339Y-111420065D01*
X175483838Y-111493967D01*
X175377518Y-111623518D01*
X175247967Y-111729838D01*
X175174065Y-111769339D01*
X175100164Y-111808840D01*
X175006015Y-111837400D01*
X174939787Y-111857490D01*
X174939786Y-111857490D01*
X174939783Y-111857491D01*
X174814797Y-111869801D01*
X174731205Y-111869801D01*
X174606219Y-111857491D01*
X174606216Y-111857490D01*
X174606215Y-111857490D01*
X174539987Y-111837400D01*
X174445838Y-111808840D01*
X174371937Y-111769339D01*
X174298035Y-111729838D01*
X174168484Y-111623518D01*
X174062164Y-111493967D01*
X174022663Y-111420065D01*
X173983162Y-111346164D01*
X173934511Y-111185783D01*
X173918084Y-111019001D01*
X173934511Y-110852219D01*
X173983162Y-110691838D01*
X174022663Y-110617937D01*
X174062164Y-110544035D01*
X174168484Y-110414484D01*
X174298035Y-110308164D01*
X174371937Y-110268663D01*
X174445838Y-110229162D01*
X174539987Y-110200602D01*
X174606215Y-110180512D01*
X174606216Y-110180512D01*
X174606219Y-110180511D01*
X174731205Y-110168201D01*
X174814797Y-110168201D01*
X174939783Y-110180511D01*
X174939783Y-110180511D01*
G37*
G36*
X172399783Y-110180511D02*
G01*
X172399786Y-110180512D01*
X172399787Y-110180512D01*
X172466015Y-110200602D01*
X172560164Y-110229162D01*
X172634065Y-110268663D01*
X172707967Y-110308164D01*
X172837518Y-110414484D01*
X172943838Y-110544035D01*
X172983339Y-110617937D01*
X173022840Y-110691838D01*
X173071491Y-110852219D01*
X173087918Y-111019001D01*
X173071491Y-111185783D01*
X173022840Y-111346164D01*
X172983339Y-111420065D01*
X172943838Y-111493967D01*
X172837518Y-111623518D01*
X172707967Y-111729838D01*
X172634065Y-111769339D01*
X172560164Y-111808840D01*
X172466015Y-111837400D01*
X172399787Y-111857490D01*
X172399786Y-111857490D01*
X172399783Y-111857491D01*
X172274797Y-111869801D01*
X172191205Y-111869801D01*
X172066219Y-111857491D01*
X172066216Y-111857490D01*
X172066215Y-111857490D01*
X171999987Y-111837400D01*
X171905838Y-111808840D01*
X171831937Y-111769339D01*
X171758035Y-111729838D01*
X171628484Y-111623518D01*
X171522164Y-111493967D01*
X171482663Y-111420065D01*
X171443162Y-111346164D01*
X171394511Y-111185783D01*
X171378084Y-111019001D01*
X171394511Y-110852219D01*
X171443162Y-110691838D01*
X171482663Y-110617937D01*
X171522164Y-110544035D01*
X171628484Y-110414484D01*
X171758035Y-110308164D01*
X171831937Y-110268663D01*
X171905838Y-110229162D01*
X171999987Y-110200602D01*
X172066215Y-110180512D01*
X172066216Y-110180512D01*
X172066219Y-110180511D01*
X172191205Y-110168201D01*
X172274797Y-110168201D01*
X172399783Y-110180511D01*
X172399783Y-110180511D01*
G37*
G36*
X167319783Y-110180511D02*
G01*
X167319786Y-110180512D01*
X167319787Y-110180512D01*
X167386015Y-110200602D01*
X167480164Y-110229162D01*
X167554065Y-110268663D01*
X167627967Y-110308164D01*
X167757518Y-110414484D01*
X167863838Y-110544035D01*
X167903339Y-110617937D01*
X167942840Y-110691838D01*
X167991491Y-110852219D01*
X168007918Y-111019001D01*
X167991491Y-111185783D01*
X167942840Y-111346164D01*
X167903339Y-111420065D01*
X167863838Y-111493967D01*
X167757518Y-111623518D01*
X167627967Y-111729838D01*
X167554065Y-111769339D01*
X167480164Y-111808840D01*
X167386015Y-111837400D01*
X167319787Y-111857490D01*
X167319786Y-111857490D01*
X167319783Y-111857491D01*
X167194797Y-111869801D01*
X167111205Y-111869801D01*
X166986219Y-111857491D01*
X166986216Y-111857490D01*
X166986215Y-111857490D01*
X166919987Y-111837400D01*
X166825838Y-111808840D01*
X166751937Y-111769339D01*
X166678035Y-111729838D01*
X166548484Y-111623518D01*
X166442164Y-111493967D01*
X166402663Y-111420065D01*
X166363162Y-111346164D01*
X166314511Y-111185783D01*
X166298084Y-111019001D01*
X166314511Y-110852219D01*
X166363162Y-110691838D01*
X166402663Y-110617937D01*
X166442164Y-110544035D01*
X166548484Y-110414484D01*
X166678035Y-110308164D01*
X166751937Y-110268663D01*
X166825838Y-110229162D01*
X166919987Y-110200602D01*
X166986215Y-110180512D01*
X166986216Y-110180512D01*
X166986219Y-110180511D01*
X167111205Y-110168201D01*
X167194797Y-110168201D01*
X167319783Y-110180511D01*
X167319783Y-110180511D01*
G37*
G36*
X164779783Y-110180511D02*
G01*
X164779786Y-110180512D01*
X164779787Y-110180512D01*
X164846015Y-110200602D01*
X164940164Y-110229162D01*
X165014065Y-110268663D01*
X165087967Y-110308164D01*
X165217518Y-110414484D01*
X165323838Y-110544035D01*
X165363339Y-110617937D01*
X165402840Y-110691838D01*
X165451491Y-110852219D01*
X165467918Y-111019001D01*
X165451491Y-111185783D01*
X165402840Y-111346164D01*
X165363339Y-111420065D01*
X165323838Y-111493967D01*
X165217518Y-111623518D01*
X165087967Y-111729838D01*
X165014065Y-111769339D01*
X164940164Y-111808840D01*
X164846015Y-111837400D01*
X164779787Y-111857490D01*
X164779786Y-111857490D01*
X164779783Y-111857491D01*
X164654797Y-111869801D01*
X164571205Y-111869801D01*
X164446219Y-111857491D01*
X164446216Y-111857490D01*
X164446215Y-111857490D01*
X164379987Y-111837400D01*
X164285838Y-111808840D01*
X164211937Y-111769339D01*
X164138035Y-111729838D01*
X164008484Y-111623518D01*
X163902164Y-111493967D01*
X163862663Y-111420065D01*
X163823162Y-111346164D01*
X163774511Y-111185783D01*
X163758084Y-111019001D01*
X163774511Y-110852219D01*
X163823162Y-110691838D01*
X163862663Y-110617937D01*
X163902164Y-110544035D01*
X164008484Y-110414484D01*
X164138035Y-110308164D01*
X164211937Y-110268663D01*
X164285838Y-110229162D01*
X164379987Y-110200602D01*
X164446215Y-110180512D01*
X164446216Y-110180512D01*
X164446219Y-110180511D01*
X164571205Y-110168201D01*
X164654797Y-110168201D01*
X164779783Y-110180511D01*
X164779783Y-110180511D01*
G37*
G36*
X162239783Y-110180511D02*
G01*
X162239786Y-110180512D01*
X162239787Y-110180512D01*
X162306015Y-110200602D01*
X162400164Y-110229162D01*
X162474065Y-110268663D01*
X162547967Y-110308164D01*
X162677518Y-110414484D01*
X162783838Y-110544035D01*
X162823339Y-110617937D01*
X162862840Y-110691838D01*
X162911491Y-110852219D01*
X162927918Y-111019001D01*
X162911491Y-111185783D01*
X162862840Y-111346164D01*
X162823339Y-111420065D01*
X162783838Y-111493967D01*
X162677518Y-111623518D01*
X162547967Y-111729838D01*
X162474065Y-111769339D01*
X162400164Y-111808840D01*
X162306015Y-111837400D01*
X162239787Y-111857490D01*
X162239786Y-111857490D01*
X162239783Y-111857491D01*
X162114797Y-111869801D01*
X162031205Y-111869801D01*
X161906219Y-111857491D01*
X161906216Y-111857490D01*
X161906215Y-111857490D01*
X161839987Y-111837400D01*
X161745838Y-111808840D01*
X161671937Y-111769339D01*
X161598035Y-111729838D01*
X161468484Y-111623518D01*
X161362164Y-111493967D01*
X161322663Y-111420065D01*
X161283162Y-111346164D01*
X161234511Y-111185783D01*
X161218084Y-111019001D01*
X161234511Y-110852219D01*
X161283162Y-110691838D01*
X161322663Y-110617937D01*
X161362164Y-110544035D01*
X161468484Y-110414484D01*
X161598035Y-110308164D01*
X161671937Y-110268663D01*
X161745838Y-110229162D01*
X161839987Y-110200602D01*
X161906215Y-110180512D01*
X161906216Y-110180512D01*
X161906219Y-110180511D01*
X162031205Y-110168201D01*
X162114797Y-110168201D01*
X162239783Y-110180511D01*
X162239783Y-110180511D01*
G37*
G36*
X159699783Y-110180511D02*
G01*
X159699786Y-110180512D01*
X159699787Y-110180512D01*
X159766015Y-110200602D01*
X159860164Y-110229162D01*
X159934065Y-110268663D01*
X160007967Y-110308164D01*
X160137518Y-110414484D01*
X160243838Y-110544035D01*
X160283339Y-110617937D01*
X160322840Y-110691838D01*
X160371491Y-110852219D01*
X160387918Y-111019001D01*
X160371491Y-111185783D01*
X160322840Y-111346164D01*
X160283339Y-111420065D01*
X160243838Y-111493967D01*
X160137518Y-111623518D01*
X160007967Y-111729838D01*
X159934065Y-111769339D01*
X159860164Y-111808840D01*
X159766015Y-111837400D01*
X159699787Y-111857490D01*
X159699786Y-111857490D01*
X159699783Y-111857491D01*
X159574797Y-111869801D01*
X159491205Y-111869801D01*
X159366219Y-111857491D01*
X159366216Y-111857490D01*
X159366215Y-111857490D01*
X159299987Y-111837400D01*
X159205838Y-111808840D01*
X159131937Y-111769339D01*
X159058035Y-111729838D01*
X158928484Y-111623518D01*
X158822164Y-111493967D01*
X158782663Y-111420065D01*
X158743162Y-111346164D01*
X158694511Y-111185783D01*
X158678084Y-111019001D01*
X158694511Y-110852219D01*
X158743162Y-110691838D01*
X158782663Y-110617937D01*
X158822164Y-110544035D01*
X158928484Y-110414484D01*
X159058035Y-110308164D01*
X159131937Y-110268663D01*
X159205838Y-110229162D01*
X159299987Y-110200602D01*
X159366215Y-110180512D01*
X159366216Y-110180512D01*
X159366219Y-110180511D01*
X159491205Y-110168201D01*
X159574797Y-110168201D01*
X159699783Y-110180511D01*
X159699783Y-110180511D01*
G37*
G36*
X157159783Y-110180511D02*
G01*
X157159786Y-110180512D01*
X157159787Y-110180512D01*
X157226015Y-110200602D01*
X157320164Y-110229162D01*
X157394065Y-110268663D01*
X157467967Y-110308164D01*
X157597518Y-110414484D01*
X157703838Y-110544035D01*
X157743339Y-110617937D01*
X157782840Y-110691838D01*
X157831491Y-110852219D01*
X157847918Y-111019001D01*
X157831491Y-111185783D01*
X157782840Y-111346164D01*
X157743339Y-111420065D01*
X157703838Y-111493967D01*
X157597518Y-111623518D01*
X157467967Y-111729838D01*
X157394065Y-111769339D01*
X157320164Y-111808840D01*
X157226015Y-111837400D01*
X157159787Y-111857490D01*
X157159786Y-111857490D01*
X157159783Y-111857491D01*
X157034797Y-111869801D01*
X156951205Y-111869801D01*
X156826219Y-111857491D01*
X156826216Y-111857490D01*
X156826215Y-111857490D01*
X156759987Y-111837400D01*
X156665838Y-111808840D01*
X156591937Y-111769339D01*
X156518035Y-111729838D01*
X156388484Y-111623518D01*
X156282164Y-111493967D01*
X156242663Y-111420065D01*
X156203162Y-111346164D01*
X156154511Y-111185783D01*
X156138084Y-111019001D01*
X156154511Y-110852219D01*
X156203162Y-110691838D01*
X156242663Y-110617937D01*
X156282164Y-110544035D01*
X156388484Y-110414484D01*
X156518035Y-110308164D01*
X156591937Y-110268663D01*
X156665838Y-110229162D01*
X156759987Y-110200602D01*
X156826215Y-110180512D01*
X156826216Y-110180512D01*
X156826219Y-110180511D01*
X156951205Y-110168201D01*
X157034797Y-110168201D01*
X157159783Y-110180511D01*
X157159783Y-110180511D01*
G37*
G36*
X154619783Y-110180511D02*
G01*
X154619786Y-110180512D01*
X154619787Y-110180512D01*
X154686015Y-110200602D01*
X154780164Y-110229162D01*
X154854065Y-110268663D01*
X154927967Y-110308164D01*
X155057518Y-110414484D01*
X155163838Y-110544035D01*
X155203339Y-110617937D01*
X155242840Y-110691838D01*
X155291491Y-110852219D01*
X155307918Y-111019001D01*
X155291491Y-111185783D01*
X155242840Y-111346164D01*
X155203339Y-111420065D01*
X155163838Y-111493967D01*
X155057518Y-111623518D01*
X154927967Y-111729838D01*
X154854065Y-111769339D01*
X154780164Y-111808840D01*
X154686015Y-111837400D01*
X154619787Y-111857490D01*
X154619786Y-111857490D01*
X154619783Y-111857491D01*
X154494797Y-111869801D01*
X154411205Y-111869801D01*
X154286219Y-111857491D01*
X154286216Y-111857490D01*
X154286215Y-111857490D01*
X154219987Y-111837400D01*
X154125838Y-111808840D01*
X154051937Y-111769339D01*
X153978035Y-111729838D01*
X153848484Y-111623518D01*
X153742164Y-111493967D01*
X153702663Y-111420065D01*
X153663162Y-111346164D01*
X153614511Y-111185783D01*
X153598084Y-111019001D01*
X153614511Y-110852219D01*
X153663162Y-110691838D01*
X153702663Y-110617937D01*
X153742164Y-110544035D01*
X153848484Y-110414484D01*
X153978035Y-110308164D01*
X154051937Y-110268663D01*
X154125838Y-110229162D01*
X154219987Y-110200602D01*
X154286215Y-110180512D01*
X154286216Y-110180512D01*
X154286219Y-110180511D01*
X154411205Y-110168201D01*
X154494797Y-110168201D01*
X154619783Y-110180511D01*
X154619783Y-110180511D01*
G37*
G36*
X152079783Y-110180511D02*
G01*
X152079786Y-110180512D01*
X152079787Y-110180512D01*
X152146015Y-110200602D01*
X152240164Y-110229162D01*
X152314065Y-110268663D01*
X152387967Y-110308164D01*
X152517518Y-110414484D01*
X152623838Y-110544035D01*
X152663339Y-110617937D01*
X152702840Y-110691838D01*
X152751491Y-110852219D01*
X152767918Y-111019001D01*
X152751491Y-111185783D01*
X152702840Y-111346164D01*
X152663339Y-111420065D01*
X152623838Y-111493967D01*
X152517518Y-111623518D01*
X152387967Y-111729838D01*
X152314065Y-111769339D01*
X152240164Y-111808840D01*
X152146015Y-111837400D01*
X152079787Y-111857490D01*
X152079786Y-111857490D01*
X152079783Y-111857491D01*
X151954797Y-111869801D01*
X151871205Y-111869801D01*
X151746219Y-111857491D01*
X151746216Y-111857490D01*
X151746215Y-111857490D01*
X151679987Y-111837400D01*
X151585838Y-111808840D01*
X151511937Y-111769339D01*
X151438035Y-111729838D01*
X151308484Y-111623518D01*
X151202164Y-111493967D01*
X151162663Y-111420065D01*
X151123162Y-111346164D01*
X151074511Y-111185783D01*
X151058084Y-111019001D01*
X151074511Y-110852219D01*
X151123162Y-110691838D01*
X151162663Y-110617937D01*
X151202164Y-110544035D01*
X151308484Y-110414484D01*
X151438035Y-110308164D01*
X151511937Y-110268663D01*
X151585838Y-110229162D01*
X151679987Y-110200602D01*
X151746215Y-110180512D01*
X151746216Y-110180512D01*
X151746219Y-110180511D01*
X151871205Y-110168201D01*
X151954797Y-110168201D01*
X152079783Y-110180511D01*
X152079783Y-110180511D01*
G37*
G36*
X150223801Y-111869801D02*
G01*
X148522201Y-111869801D01*
X148522201Y-110168201D01*
X150223801Y-110168201D01*
X150223801Y-111869801D01*
X150223801Y-111869801D01*
G37*
G36*
X150252800Y-108596800D02*
G01*
X148451200Y-108596800D01*
X148451200Y-106795200D01*
X150252800Y-106795200D01*
X150252800Y-108596800D01*
X150252800Y-108596800D01*
G37*
G36*
X152068584Y-106808233D02*
G01*
X152068587Y-106808234D01*
X152068588Y-106808234D01*
X152238389Y-106859743D01*
X152285861Y-106885117D01*
X152394881Y-106943389D01*
X152532044Y-107055956D01*
X152644611Y-107193119D01*
X152702883Y-107302139D01*
X152728257Y-107349611D01*
X152779766Y-107519412D01*
X152779767Y-107519416D01*
X152797159Y-107696000D01*
X152779767Y-107872584D01*
X152779766Y-107872587D01*
X152779766Y-107872588D01*
X152728257Y-108042389D01*
X152728256Y-108042390D01*
X152644611Y-108198881D01*
X152532044Y-108336044D01*
X152394881Y-108448611D01*
X152285861Y-108506883D01*
X152238389Y-108532257D01*
X152068588Y-108583766D01*
X152068587Y-108583766D01*
X152068584Y-108583767D01*
X151936255Y-108596800D01*
X151847745Y-108596800D01*
X151715416Y-108583767D01*
X151715413Y-108583766D01*
X151715412Y-108583766D01*
X151545611Y-108532257D01*
X151498139Y-108506883D01*
X151389119Y-108448611D01*
X151251956Y-108336044D01*
X151139389Y-108198881D01*
X151055744Y-108042390D01*
X151055743Y-108042389D01*
X151004234Y-107872588D01*
X151004234Y-107872587D01*
X151004233Y-107872584D01*
X150986841Y-107696000D01*
X151004233Y-107519416D01*
X151004234Y-107519412D01*
X151055743Y-107349611D01*
X151081117Y-107302139D01*
X151139389Y-107193119D01*
X151251956Y-107055956D01*
X151389119Y-106943389D01*
X151498139Y-106885117D01*
X151545611Y-106859743D01*
X151715412Y-106808234D01*
X151715413Y-106808234D01*
X151715416Y-106808233D01*
X151847745Y-106795200D01*
X151936255Y-106795200D01*
X152068584Y-106808233D01*
X152068584Y-106808233D01*
G37*
G36*
X154608584Y-106808233D02*
G01*
X154608587Y-106808234D01*
X154608588Y-106808234D01*
X154778389Y-106859743D01*
X154825861Y-106885117D01*
X154934881Y-106943389D01*
X155072044Y-107055956D01*
X155184611Y-107193119D01*
X155242883Y-107302139D01*
X155268257Y-107349611D01*
X155319766Y-107519412D01*
X155319767Y-107519416D01*
X155337159Y-107696000D01*
X155319767Y-107872584D01*
X155319766Y-107872587D01*
X155319766Y-107872588D01*
X155268257Y-108042389D01*
X155268256Y-108042390D01*
X155184611Y-108198881D01*
X155072044Y-108336044D01*
X154934881Y-108448611D01*
X154825861Y-108506883D01*
X154778389Y-108532257D01*
X154608588Y-108583766D01*
X154608587Y-108583766D01*
X154608584Y-108583767D01*
X154476255Y-108596800D01*
X154387745Y-108596800D01*
X154255416Y-108583767D01*
X154255413Y-108583766D01*
X154255412Y-108583766D01*
X154085611Y-108532257D01*
X154038139Y-108506883D01*
X153929119Y-108448611D01*
X153791956Y-108336044D01*
X153679389Y-108198881D01*
X153595744Y-108042390D01*
X153595743Y-108042389D01*
X153544234Y-107872588D01*
X153544234Y-107872587D01*
X153544233Y-107872584D01*
X153526841Y-107696000D01*
X153544233Y-107519416D01*
X153544234Y-107519412D01*
X153595743Y-107349611D01*
X153621117Y-107302139D01*
X153679389Y-107193119D01*
X153791956Y-107055956D01*
X153929119Y-106943389D01*
X154038139Y-106885117D01*
X154085611Y-106859743D01*
X154255412Y-106808234D01*
X154255413Y-106808234D01*
X154255416Y-106808233D01*
X154387745Y-106795200D01*
X154476255Y-106795200D01*
X154608584Y-106808233D01*
X154608584Y-106808233D01*
G37*
G36*
X157148584Y-106808233D02*
G01*
X157148587Y-106808234D01*
X157148588Y-106808234D01*
X157318389Y-106859743D01*
X157365861Y-106885117D01*
X157474881Y-106943389D01*
X157612044Y-107055956D01*
X157724611Y-107193119D01*
X157782883Y-107302139D01*
X157808257Y-107349611D01*
X157859766Y-107519412D01*
X157859767Y-107519416D01*
X157877159Y-107696000D01*
X157859767Y-107872584D01*
X157859766Y-107872587D01*
X157859766Y-107872588D01*
X157808257Y-108042389D01*
X157808256Y-108042390D01*
X157724611Y-108198881D01*
X157612044Y-108336044D01*
X157474881Y-108448611D01*
X157365861Y-108506883D01*
X157318389Y-108532257D01*
X157148588Y-108583766D01*
X157148587Y-108583766D01*
X157148584Y-108583767D01*
X157016255Y-108596800D01*
X156927745Y-108596800D01*
X156795416Y-108583767D01*
X156795413Y-108583766D01*
X156795412Y-108583766D01*
X156625611Y-108532257D01*
X156578139Y-108506883D01*
X156469119Y-108448611D01*
X156331956Y-108336044D01*
X156219389Y-108198881D01*
X156135744Y-108042390D01*
X156135743Y-108042389D01*
X156084234Y-107872588D01*
X156084234Y-107872587D01*
X156084233Y-107872584D01*
X156066841Y-107696000D01*
X156084233Y-107519416D01*
X156084234Y-107519412D01*
X156135743Y-107349611D01*
X156161117Y-107302139D01*
X156219389Y-107193119D01*
X156331956Y-107055956D01*
X156469119Y-106943389D01*
X156578139Y-106885117D01*
X156625611Y-106859743D01*
X156795412Y-106808234D01*
X156795413Y-106808234D01*
X156795416Y-106808233D01*
X156927745Y-106795200D01*
X157016255Y-106795200D01*
X157148584Y-106808233D01*
X157148584Y-106808233D01*
G37*
G36*
X159688584Y-106808233D02*
G01*
X159688587Y-106808234D01*
X159688588Y-106808234D01*
X159858389Y-106859743D01*
X159905861Y-106885117D01*
X160014881Y-106943389D01*
X160152044Y-107055956D01*
X160264611Y-107193119D01*
X160322883Y-107302139D01*
X160348257Y-107349611D01*
X160399766Y-107519412D01*
X160399767Y-107519416D01*
X160417159Y-107696000D01*
X160399767Y-107872584D01*
X160399766Y-107872587D01*
X160399766Y-107872588D01*
X160348257Y-108042389D01*
X160348256Y-108042390D01*
X160264611Y-108198881D01*
X160152044Y-108336044D01*
X160014881Y-108448611D01*
X159905861Y-108506883D01*
X159858389Y-108532257D01*
X159688588Y-108583766D01*
X159688587Y-108583766D01*
X159688584Y-108583767D01*
X159556255Y-108596800D01*
X159467745Y-108596800D01*
X159335416Y-108583767D01*
X159335413Y-108583766D01*
X159335412Y-108583766D01*
X159165611Y-108532257D01*
X159118139Y-108506883D01*
X159009119Y-108448611D01*
X158871956Y-108336044D01*
X158759389Y-108198881D01*
X158675744Y-108042390D01*
X158675743Y-108042389D01*
X158624234Y-107872588D01*
X158624234Y-107872587D01*
X158624233Y-107872584D01*
X158606841Y-107696000D01*
X158624233Y-107519416D01*
X158624234Y-107519412D01*
X158675743Y-107349611D01*
X158701117Y-107302139D01*
X158759389Y-107193119D01*
X158871956Y-107055956D01*
X159009119Y-106943389D01*
X159118139Y-106885117D01*
X159165611Y-106859743D01*
X159335412Y-106808234D01*
X159335413Y-106808234D01*
X159335416Y-106808233D01*
X159467745Y-106795200D01*
X159556255Y-106795200D01*
X159688584Y-106808233D01*
X159688584Y-106808233D01*
G37*
G36*
X162228584Y-106808233D02*
G01*
X162228587Y-106808234D01*
X162228588Y-106808234D01*
X162398389Y-106859743D01*
X162445861Y-106885117D01*
X162554881Y-106943389D01*
X162692044Y-107055956D01*
X162804611Y-107193119D01*
X162862883Y-107302139D01*
X162888257Y-107349611D01*
X162939766Y-107519412D01*
X162939767Y-107519416D01*
X162957159Y-107696000D01*
X162939767Y-107872584D01*
X162939766Y-107872587D01*
X162939766Y-107872588D01*
X162888257Y-108042389D01*
X162888256Y-108042390D01*
X162804611Y-108198881D01*
X162692044Y-108336044D01*
X162554881Y-108448611D01*
X162445861Y-108506883D01*
X162398389Y-108532257D01*
X162228588Y-108583766D01*
X162228587Y-108583766D01*
X162228584Y-108583767D01*
X162096255Y-108596800D01*
X162007745Y-108596800D01*
X161875416Y-108583767D01*
X161875413Y-108583766D01*
X161875412Y-108583766D01*
X161705611Y-108532257D01*
X161658139Y-108506883D01*
X161549119Y-108448611D01*
X161411956Y-108336044D01*
X161299389Y-108198881D01*
X161215744Y-108042390D01*
X161215743Y-108042389D01*
X161164234Y-107872588D01*
X161164234Y-107872587D01*
X161164233Y-107872584D01*
X161146841Y-107696000D01*
X161164233Y-107519416D01*
X161164234Y-107519412D01*
X161215743Y-107349611D01*
X161241117Y-107302139D01*
X161299389Y-107193119D01*
X161411956Y-107055956D01*
X161549119Y-106943389D01*
X161658139Y-106885117D01*
X161705611Y-106859743D01*
X161875412Y-106808234D01*
X161875413Y-106808234D01*
X161875416Y-106808233D01*
X162007745Y-106795200D01*
X162096255Y-106795200D01*
X162228584Y-106808233D01*
X162228584Y-106808233D01*
G37*
G36*
X164768584Y-106808233D02*
G01*
X164768587Y-106808234D01*
X164768588Y-106808234D01*
X164938389Y-106859743D01*
X164985861Y-106885117D01*
X165094881Y-106943389D01*
X165232044Y-107055956D01*
X165344611Y-107193119D01*
X165402883Y-107302139D01*
X165428257Y-107349611D01*
X165479766Y-107519412D01*
X165479767Y-107519416D01*
X165497159Y-107696000D01*
X165479767Y-107872584D01*
X165479766Y-107872587D01*
X165479766Y-107872588D01*
X165428257Y-108042389D01*
X165428256Y-108042390D01*
X165344611Y-108198881D01*
X165232044Y-108336044D01*
X165094881Y-108448611D01*
X164985861Y-108506883D01*
X164938389Y-108532257D01*
X164768588Y-108583766D01*
X164768587Y-108583766D01*
X164768584Y-108583767D01*
X164636255Y-108596800D01*
X164547745Y-108596800D01*
X164415416Y-108583767D01*
X164415413Y-108583766D01*
X164415412Y-108583766D01*
X164245611Y-108532257D01*
X164198139Y-108506883D01*
X164089119Y-108448611D01*
X163951956Y-108336044D01*
X163839389Y-108198881D01*
X163755744Y-108042390D01*
X163755743Y-108042389D01*
X163704234Y-107872588D01*
X163704234Y-107872587D01*
X163704233Y-107872584D01*
X163686841Y-107696000D01*
X163704233Y-107519416D01*
X163704234Y-107519412D01*
X163755743Y-107349611D01*
X163781117Y-107302139D01*
X163839389Y-107193119D01*
X163951956Y-107055956D01*
X164089119Y-106943389D01*
X164198139Y-106885117D01*
X164245611Y-106859743D01*
X164415412Y-106808234D01*
X164415413Y-106808234D01*
X164415416Y-106808233D01*
X164547745Y-106795200D01*
X164636255Y-106795200D01*
X164768584Y-106808233D01*
X164768584Y-106808233D01*
G37*
G36*
X167308584Y-106808233D02*
G01*
X167308587Y-106808234D01*
X167308588Y-106808234D01*
X167478389Y-106859743D01*
X167525861Y-106885117D01*
X167634881Y-106943389D01*
X167772044Y-107055956D01*
X167884611Y-107193119D01*
X167942883Y-107302139D01*
X167968257Y-107349611D01*
X168019766Y-107519412D01*
X168019767Y-107519416D01*
X168037159Y-107696000D01*
X168019767Y-107872584D01*
X168019766Y-107872587D01*
X168019766Y-107872588D01*
X167968257Y-108042389D01*
X167968256Y-108042390D01*
X167884611Y-108198881D01*
X167772044Y-108336044D01*
X167634881Y-108448611D01*
X167525861Y-108506883D01*
X167478389Y-108532257D01*
X167308588Y-108583766D01*
X167308587Y-108583766D01*
X167308584Y-108583767D01*
X167176255Y-108596800D01*
X167087745Y-108596800D01*
X166955416Y-108583767D01*
X166955413Y-108583766D01*
X166955412Y-108583766D01*
X166785611Y-108532257D01*
X166738139Y-108506883D01*
X166629119Y-108448611D01*
X166491956Y-108336044D01*
X166379389Y-108198881D01*
X166295744Y-108042390D01*
X166295743Y-108042389D01*
X166244234Y-107872588D01*
X166244234Y-107872587D01*
X166244233Y-107872584D01*
X166226841Y-107696000D01*
X166244233Y-107519416D01*
X166244234Y-107519412D01*
X166295743Y-107349611D01*
X166321117Y-107302139D01*
X166379389Y-107193119D01*
X166491956Y-107055956D01*
X166629119Y-106943389D01*
X166738139Y-106885117D01*
X166785611Y-106859743D01*
X166955412Y-106808234D01*
X166955413Y-106808234D01*
X166955416Y-106808233D01*
X167087745Y-106795200D01*
X167176255Y-106795200D01*
X167308584Y-106808233D01*
X167308584Y-106808233D01*
G37*
G36*
X173112800Y-108596800D02*
G01*
X171311200Y-108596800D01*
X171311200Y-106795200D01*
X173112800Y-106795200D01*
X173112800Y-108596800D01*
X173112800Y-108596800D01*
G37*
G36*
X174928584Y-106808233D02*
G01*
X174928587Y-106808234D01*
X174928588Y-106808234D01*
X175098389Y-106859743D01*
X175145861Y-106885117D01*
X175254881Y-106943389D01*
X175392044Y-107055956D01*
X175504611Y-107193119D01*
X175562883Y-107302139D01*
X175588257Y-107349611D01*
X175639766Y-107519412D01*
X175639767Y-107519416D01*
X175657159Y-107696000D01*
X175639767Y-107872584D01*
X175639766Y-107872587D01*
X175639766Y-107872588D01*
X175588257Y-108042389D01*
X175588256Y-108042390D01*
X175504611Y-108198881D01*
X175392044Y-108336044D01*
X175254881Y-108448611D01*
X175145861Y-108506883D01*
X175098389Y-108532257D01*
X174928588Y-108583766D01*
X174928587Y-108583766D01*
X174928584Y-108583767D01*
X174796255Y-108596800D01*
X174707745Y-108596800D01*
X174575416Y-108583767D01*
X174575413Y-108583766D01*
X174575412Y-108583766D01*
X174405611Y-108532257D01*
X174358139Y-108506883D01*
X174249119Y-108448611D01*
X174111956Y-108336044D01*
X173999389Y-108198881D01*
X173915744Y-108042390D01*
X173915743Y-108042389D01*
X173864234Y-107872588D01*
X173864234Y-107872587D01*
X173864233Y-107872584D01*
X173846841Y-107696000D01*
X173864233Y-107519416D01*
X173864234Y-107519412D01*
X173915743Y-107349611D01*
X173941117Y-107302139D01*
X173999389Y-107193119D01*
X174111956Y-107055956D01*
X174249119Y-106943389D01*
X174358139Y-106885117D01*
X174405611Y-106859743D01*
X174575412Y-106808234D01*
X174575413Y-106808234D01*
X174575416Y-106808233D01*
X174707745Y-106795200D01*
X174796255Y-106795200D01*
X174928584Y-106808233D01*
X174928584Y-106808233D01*
G37*
G36*
X177468584Y-106808233D02*
G01*
X177468587Y-106808234D01*
X177468588Y-106808234D01*
X177638389Y-106859743D01*
X177685861Y-106885117D01*
X177794881Y-106943389D01*
X177932044Y-107055956D01*
X178044611Y-107193119D01*
X178102883Y-107302139D01*
X178128257Y-107349611D01*
X178179766Y-107519412D01*
X178179767Y-107519416D01*
X178197159Y-107696000D01*
X178179767Y-107872584D01*
X178179766Y-107872587D01*
X178179766Y-107872588D01*
X178128257Y-108042389D01*
X178128256Y-108042390D01*
X178044611Y-108198881D01*
X177932044Y-108336044D01*
X177794881Y-108448611D01*
X177685861Y-108506883D01*
X177638389Y-108532257D01*
X177468588Y-108583766D01*
X177468587Y-108583766D01*
X177468584Y-108583767D01*
X177336255Y-108596800D01*
X177247745Y-108596800D01*
X177115416Y-108583767D01*
X177115413Y-108583766D01*
X177115412Y-108583766D01*
X176945611Y-108532257D01*
X176898139Y-108506883D01*
X176789119Y-108448611D01*
X176651956Y-108336044D01*
X176539389Y-108198881D01*
X176455744Y-108042390D01*
X176455743Y-108042389D01*
X176404234Y-107872588D01*
X176404234Y-107872587D01*
X176404233Y-107872584D01*
X176386841Y-107696000D01*
X176404233Y-107519416D01*
X176404234Y-107519412D01*
X176455743Y-107349611D01*
X176481117Y-107302139D01*
X176539389Y-107193119D01*
X176651956Y-107055956D01*
X176789119Y-106943389D01*
X176898139Y-106885117D01*
X176945611Y-106859743D01*
X177115412Y-106808234D01*
X177115413Y-106808234D01*
X177115416Y-106808233D01*
X177247745Y-106795200D01*
X177336255Y-106795200D01*
X177468584Y-106808233D01*
X177468584Y-106808233D01*
G37*
G36*
X180008584Y-106808233D02*
G01*
X180008587Y-106808234D01*
X180008588Y-106808234D01*
X180178389Y-106859743D01*
X180225861Y-106885117D01*
X180334881Y-106943389D01*
X180472044Y-107055956D01*
X180584611Y-107193119D01*
X180642883Y-107302139D01*
X180668257Y-107349611D01*
X180719766Y-107519412D01*
X180719767Y-107519416D01*
X180737159Y-107696000D01*
X180719767Y-107872584D01*
X180719766Y-107872587D01*
X180719766Y-107872588D01*
X180668257Y-108042389D01*
X180668256Y-108042390D01*
X180584611Y-108198881D01*
X180472044Y-108336044D01*
X180334881Y-108448611D01*
X180225861Y-108506883D01*
X180178389Y-108532257D01*
X180008588Y-108583766D01*
X180008587Y-108583766D01*
X180008584Y-108583767D01*
X179876255Y-108596800D01*
X179787745Y-108596800D01*
X179655416Y-108583767D01*
X179655413Y-108583766D01*
X179655412Y-108583766D01*
X179485611Y-108532257D01*
X179438139Y-108506883D01*
X179329119Y-108448611D01*
X179191956Y-108336044D01*
X179079389Y-108198881D01*
X178995744Y-108042390D01*
X178995743Y-108042389D01*
X178944234Y-107872588D01*
X178944234Y-107872587D01*
X178944233Y-107872584D01*
X178926841Y-107696000D01*
X178944233Y-107519416D01*
X178944234Y-107519412D01*
X178995743Y-107349611D01*
X179021117Y-107302139D01*
X179079389Y-107193119D01*
X179191956Y-107055956D01*
X179329119Y-106943389D01*
X179438139Y-106885117D01*
X179485611Y-106859743D01*
X179655412Y-106808234D01*
X179655413Y-106808234D01*
X179655416Y-106808233D01*
X179787745Y-106795200D01*
X179876255Y-106795200D01*
X180008584Y-106808233D01*
X180008584Y-106808233D01*
G37*
G36*
X185088584Y-106808233D02*
G01*
X185088587Y-106808234D01*
X185088588Y-106808234D01*
X185258389Y-106859743D01*
X185305861Y-106885117D01*
X185414881Y-106943389D01*
X185552044Y-107055956D01*
X185664611Y-107193119D01*
X185722883Y-107302139D01*
X185748257Y-107349611D01*
X185799766Y-107519412D01*
X185799767Y-107519416D01*
X185817159Y-107696000D01*
X185799767Y-107872584D01*
X185799766Y-107872587D01*
X185799766Y-107872588D01*
X185748257Y-108042389D01*
X185748256Y-108042390D01*
X185664611Y-108198881D01*
X185552044Y-108336044D01*
X185414881Y-108448611D01*
X185305861Y-108506883D01*
X185258389Y-108532257D01*
X185088588Y-108583766D01*
X185088587Y-108583766D01*
X185088584Y-108583767D01*
X184956255Y-108596800D01*
X184867745Y-108596800D01*
X184735416Y-108583767D01*
X184735413Y-108583766D01*
X184735412Y-108583766D01*
X184565611Y-108532257D01*
X184518139Y-108506883D01*
X184409119Y-108448611D01*
X184271956Y-108336044D01*
X184159389Y-108198881D01*
X184075744Y-108042390D01*
X184075743Y-108042389D01*
X184024234Y-107872588D01*
X184024234Y-107872587D01*
X184024233Y-107872584D01*
X184006841Y-107696000D01*
X184024233Y-107519416D01*
X184024234Y-107519412D01*
X184075743Y-107349611D01*
X184101117Y-107302139D01*
X184159389Y-107193119D01*
X184271956Y-107055956D01*
X184409119Y-106943389D01*
X184518139Y-106885117D01*
X184565611Y-106859743D01*
X184735412Y-106808234D01*
X184735413Y-106808234D01*
X184735416Y-106808233D01*
X184867745Y-106795200D01*
X184956255Y-106795200D01*
X185088584Y-106808233D01*
X185088584Y-106808233D01*
G37*
G36*
X182548584Y-106808233D02*
G01*
X182548587Y-106808234D01*
X182548588Y-106808234D01*
X182718389Y-106859743D01*
X182765861Y-106885117D01*
X182874881Y-106943389D01*
X183012044Y-107055956D01*
X183124611Y-107193119D01*
X183182883Y-107302139D01*
X183208257Y-107349611D01*
X183259766Y-107519412D01*
X183259767Y-107519416D01*
X183277159Y-107696000D01*
X183259767Y-107872584D01*
X183259766Y-107872587D01*
X183259766Y-107872588D01*
X183208257Y-108042389D01*
X183208256Y-108042390D01*
X183124611Y-108198881D01*
X183012044Y-108336044D01*
X182874881Y-108448611D01*
X182765861Y-108506883D01*
X182718389Y-108532257D01*
X182548588Y-108583766D01*
X182548587Y-108583766D01*
X182548584Y-108583767D01*
X182416255Y-108596800D01*
X182327745Y-108596800D01*
X182195416Y-108583767D01*
X182195413Y-108583766D01*
X182195412Y-108583766D01*
X182025611Y-108532257D01*
X181978139Y-108506883D01*
X181869119Y-108448611D01*
X181731956Y-108336044D01*
X181619389Y-108198881D01*
X181535744Y-108042390D01*
X181535743Y-108042389D01*
X181484234Y-107872588D01*
X181484234Y-107872587D01*
X181484233Y-107872584D01*
X181466841Y-107696000D01*
X181484233Y-107519416D01*
X181484234Y-107519412D01*
X181535743Y-107349611D01*
X181561117Y-107302139D01*
X181619389Y-107193119D01*
X181731956Y-107055956D01*
X181869119Y-106943389D01*
X181978139Y-106885117D01*
X182025611Y-106859743D01*
X182195412Y-106808234D01*
X182195413Y-106808234D01*
X182195416Y-106808233D01*
X182327745Y-106795200D01*
X182416255Y-106795200D01*
X182548584Y-106808233D01*
X182548584Y-106808233D01*
G37*
G36*
X185469584Y-97918233D02*
G01*
X185469587Y-97918234D01*
X185469588Y-97918234D01*
X185639389Y-97969743D01*
X185686861Y-97995117D01*
X185795881Y-98053389D01*
X185933044Y-98165956D01*
X186045611Y-98303119D01*
X186103883Y-98412139D01*
X186129257Y-98459611D01*
X186177604Y-98618989D01*
X186180767Y-98629416D01*
X186198159Y-98806000D01*
X186180767Y-98982584D01*
X186180766Y-98982587D01*
X186180766Y-98982588D01*
X186129257Y-99152389D01*
X186118026Y-99173400D01*
X186045611Y-99308881D01*
X185933044Y-99446044D01*
X185795881Y-99558611D01*
X185686861Y-99616883D01*
X185639389Y-99642257D01*
X185469588Y-99693766D01*
X185469587Y-99693766D01*
X185469584Y-99693767D01*
X185337255Y-99706800D01*
X185248745Y-99706800D01*
X185116416Y-99693767D01*
X185116413Y-99693766D01*
X185116412Y-99693766D01*
X184946611Y-99642257D01*
X184899139Y-99616883D01*
X184790119Y-99558611D01*
X184652956Y-99446044D01*
X184540389Y-99308881D01*
X184467974Y-99173400D01*
X184456743Y-99152389D01*
X184405234Y-98982588D01*
X184405234Y-98982587D01*
X184405233Y-98982584D01*
X184387841Y-98806000D01*
X184405233Y-98629416D01*
X184408396Y-98618989D01*
X184456743Y-98459611D01*
X184482117Y-98412139D01*
X184540389Y-98303119D01*
X184652956Y-98165956D01*
X184790119Y-98053389D01*
X184899139Y-97995117D01*
X184946611Y-97969743D01*
X185116412Y-97918234D01*
X185116413Y-97918234D01*
X185116416Y-97918233D01*
X185248745Y-97905200D01*
X185337255Y-97905200D01*
X185469584Y-97918233D01*
X185469584Y-97918233D01*
G37*
G36*
X160666800Y-99173400D02*
G01*
X158865200Y-99173400D01*
X158865200Y-97371800D01*
X160666800Y-97371800D01*
X160666800Y-99173400D01*
X160666800Y-99173400D01*
G37*
G36*
X162482584Y-97384833D02*
G01*
X162482587Y-97384834D01*
X162482588Y-97384834D01*
X162652389Y-97436343D01*
X162699861Y-97461717D01*
X162808881Y-97519989D01*
X162946044Y-97632556D01*
X163058611Y-97769719D01*
X163116883Y-97878739D01*
X163142257Y-97926211D01*
X163180836Y-98053389D01*
X163193767Y-98096016D01*
X163211159Y-98272600D01*
X163193767Y-98449184D01*
X163193766Y-98449187D01*
X163193766Y-98449188D01*
X163142257Y-98618989D01*
X163116883Y-98666461D01*
X163058611Y-98775481D01*
X162946044Y-98912644D01*
X162808881Y-99025211D01*
X162699861Y-99083483D01*
X162652389Y-99108857D01*
X162482588Y-99160366D01*
X162482587Y-99160366D01*
X162482584Y-99160367D01*
X162350255Y-99173400D01*
X162261745Y-99173400D01*
X162129416Y-99160367D01*
X162129413Y-99160366D01*
X162129412Y-99160366D01*
X161959611Y-99108857D01*
X161912139Y-99083483D01*
X161803119Y-99025211D01*
X161665956Y-98912644D01*
X161553389Y-98775481D01*
X161495117Y-98666461D01*
X161469743Y-98618989D01*
X161418234Y-98449188D01*
X161418234Y-98449187D01*
X161418233Y-98449184D01*
X161400841Y-98272600D01*
X161418233Y-98096016D01*
X161431164Y-98053389D01*
X161469743Y-97926211D01*
X161495117Y-97878739D01*
X161553389Y-97769719D01*
X161665956Y-97632556D01*
X161803119Y-97519989D01*
X161912139Y-97461717D01*
X161959611Y-97436343D01*
X162129412Y-97384834D01*
X162129413Y-97384834D01*
X162129416Y-97384833D01*
X162261745Y-97371800D01*
X162350255Y-97371800D01*
X162482584Y-97384833D01*
X162482584Y-97384833D01*
G37*
G36*
X165022584Y-97384833D02*
G01*
X165022587Y-97384834D01*
X165022588Y-97384834D01*
X165192389Y-97436343D01*
X165239861Y-97461717D01*
X165348881Y-97519989D01*
X165486044Y-97632556D01*
X165598611Y-97769719D01*
X165656883Y-97878739D01*
X165682257Y-97926211D01*
X165720836Y-98053389D01*
X165733767Y-98096016D01*
X165751159Y-98272600D01*
X165733767Y-98449184D01*
X165733766Y-98449187D01*
X165733766Y-98449188D01*
X165682257Y-98618989D01*
X165656883Y-98666461D01*
X165598611Y-98775481D01*
X165486044Y-98912644D01*
X165348881Y-99025211D01*
X165239861Y-99083483D01*
X165192389Y-99108857D01*
X165022588Y-99160366D01*
X165022587Y-99160366D01*
X165022584Y-99160367D01*
X164890255Y-99173400D01*
X164801745Y-99173400D01*
X164669416Y-99160367D01*
X164669413Y-99160366D01*
X164669412Y-99160366D01*
X164499611Y-99108857D01*
X164452139Y-99083483D01*
X164343119Y-99025211D01*
X164205956Y-98912644D01*
X164093389Y-98775481D01*
X164035117Y-98666461D01*
X164009743Y-98618989D01*
X163958234Y-98449188D01*
X163958234Y-98449187D01*
X163958233Y-98449184D01*
X163940841Y-98272600D01*
X163958233Y-98096016D01*
X163971164Y-98053389D01*
X164009743Y-97926211D01*
X164035117Y-97878739D01*
X164093389Y-97769719D01*
X164205956Y-97632556D01*
X164343119Y-97519989D01*
X164452139Y-97461717D01*
X164499611Y-97436343D01*
X164669412Y-97384834D01*
X164669413Y-97384834D01*
X164669416Y-97384833D01*
X164801745Y-97371800D01*
X164890255Y-97371800D01*
X165022584Y-97384833D01*
X165022584Y-97384833D01*
G37*
G36*
X167562584Y-97384833D02*
G01*
X167562587Y-97384834D01*
X167562588Y-97384834D01*
X167732389Y-97436343D01*
X167779861Y-97461717D01*
X167888881Y-97519989D01*
X168026044Y-97632556D01*
X168138611Y-97769719D01*
X168196883Y-97878739D01*
X168222257Y-97926211D01*
X168260836Y-98053389D01*
X168273767Y-98096016D01*
X168291159Y-98272600D01*
X168273767Y-98449184D01*
X168273766Y-98449187D01*
X168273766Y-98449188D01*
X168222257Y-98618989D01*
X168196883Y-98666461D01*
X168138611Y-98775481D01*
X168026044Y-98912644D01*
X167888881Y-99025211D01*
X167779861Y-99083483D01*
X167732389Y-99108857D01*
X167562588Y-99160366D01*
X167562587Y-99160366D01*
X167562584Y-99160367D01*
X167430255Y-99173400D01*
X167341745Y-99173400D01*
X167209416Y-99160367D01*
X167209413Y-99160366D01*
X167209412Y-99160366D01*
X167039611Y-99108857D01*
X166992139Y-99083483D01*
X166883119Y-99025211D01*
X166745956Y-98912644D01*
X166633389Y-98775481D01*
X166575117Y-98666461D01*
X166549743Y-98618989D01*
X166498234Y-98449188D01*
X166498234Y-98449187D01*
X166498233Y-98449184D01*
X166480841Y-98272600D01*
X166498233Y-98096016D01*
X166511164Y-98053389D01*
X166549743Y-97926211D01*
X166575117Y-97878739D01*
X166633389Y-97769719D01*
X166745956Y-97632556D01*
X166883119Y-97519989D01*
X166992139Y-97461717D01*
X167039611Y-97436343D01*
X167209412Y-97384834D01*
X167209413Y-97384834D01*
X167209416Y-97384833D01*
X167341745Y-97371800D01*
X167430255Y-97371800D01*
X167562584Y-97384833D01*
X167562584Y-97384833D01*
G37*
G36*
X170102584Y-97384833D02*
G01*
X170102587Y-97384834D01*
X170102588Y-97384834D01*
X170272389Y-97436343D01*
X170319861Y-97461717D01*
X170428881Y-97519989D01*
X170566044Y-97632556D01*
X170678611Y-97769719D01*
X170736883Y-97878739D01*
X170762257Y-97926211D01*
X170800836Y-98053389D01*
X170813767Y-98096016D01*
X170831159Y-98272600D01*
X170813767Y-98449184D01*
X170813766Y-98449187D01*
X170813766Y-98449188D01*
X170762257Y-98618989D01*
X170736883Y-98666461D01*
X170678611Y-98775481D01*
X170566044Y-98912644D01*
X170428881Y-99025211D01*
X170319861Y-99083483D01*
X170272389Y-99108857D01*
X170102588Y-99160366D01*
X170102587Y-99160366D01*
X170102584Y-99160367D01*
X169970255Y-99173400D01*
X169881745Y-99173400D01*
X169749416Y-99160367D01*
X169749413Y-99160366D01*
X169749412Y-99160366D01*
X169579611Y-99108857D01*
X169532139Y-99083483D01*
X169423119Y-99025211D01*
X169285956Y-98912644D01*
X169173389Y-98775481D01*
X169115117Y-98666461D01*
X169089743Y-98618989D01*
X169038234Y-98449188D01*
X169038234Y-98449187D01*
X169038233Y-98449184D01*
X169020841Y-98272600D01*
X169038233Y-98096016D01*
X169051164Y-98053389D01*
X169089743Y-97926211D01*
X169115117Y-97878739D01*
X169173389Y-97769719D01*
X169285956Y-97632556D01*
X169423119Y-97519989D01*
X169532139Y-97461717D01*
X169579611Y-97436343D01*
X169749412Y-97384834D01*
X169749413Y-97384834D01*
X169749416Y-97384833D01*
X169881745Y-97371800D01*
X169970255Y-97371800D01*
X170102584Y-97384833D01*
X170102584Y-97384833D01*
G37*
G36*
X172642584Y-97384833D02*
G01*
X172642587Y-97384834D01*
X172642588Y-97384834D01*
X172812389Y-97436343D01*
X172859861Y-97461717D01*
X172968881Y-97519989D01*
X173106044Y-97632556D01*
X173218611Y-97769719D01*
X173276883Y-97878739D01*
X173302257Y-97926211D01*
X173340836Y-98053389D01*
X173353767Y-98096016D01*
X173371159Y-98272600D01*
X173353767Y-98449184D01*
X173353766Y-98449187D01*
X173353766Y-98449188D01*
X173302257Y-98618989D01*
X173276883Y-98666461D01*
X173218611Y-98775481D01*
X173106044Y-98912644D01*
X172968881Y-99025211D01*
X172859861Y-99083483D01*
X172812389Y-99108857D01*
X172642588Y-99160366D01*
X172642587Y-99160366D01*
X172642584Y-99160367D01*
X172510255Y-99173400D01*
X172421745Y-99173400D01*
X172289416Y-99160367D01*
X172289413Y-99160366D01*
X172289412Y-99160366D01*
X172119611Y-99108857D01*
X172072139Y-99083483D01*
X171963119Y-99025211D01*
X171825956Y-98912644D01*
X171713389Y-98775481D01*
X171655117Y-98666461D01*
X171629743Y-98618989D01*
X171578234Y-98449188D01*
X171578234Y-98449187D01*
X171578233Y-98449184D01*
X171560841Y-98272600D01*
X171578233Y-98096016D01*
X171591164Y-98053389D01*
X171629743Y-97926211D01*
X171655117Y-97878739D01*
X171713389Y-97769719D01*
X171825956Y-97632556D01*
X171963119Y-97519989D01*
X172072139Y-97461717D01*
X172119611Y-97436343D01*
X172289412Y-97384834D01*
X172289413Y-97384834D01*
X172289416Y-97384833D01*
X172421745Y-97371800D01*
X172510255Y-97371800D01*
X172642584Y-97384833D01*
X172642584Y-97384833D01*
G37*
G36*
X185469584Y-95378233D02*
G01*
X185469587Y-95378234D01*
X185469588Y-95378234D01*
X185639389Y-95429743D01*
X185686861Y-95455117D01*
X185795881Y-95513389D01*
X185933044Y-95625956D01*
X186045611Y-95763119D01*
X186103883Y-95872139D01*
X186129257Y-95919611D01*
X186180766Y-96089412D01*
X186180767Y-96089416D01*
X186198159Y-96266000D01*
X186180767Y-96442584D01*
X186180766Y-96442587D01*
X186180766Y-96442588D01*
X186129257Y-96612389D01*
X186129256Y-96612390D01*
X186045611Y-96768881D01*
X185933044Y-96906044D01*
X185795881Y-97018611D01*
X185686861Y-97076883D01*
X185639389Y-97102257D01*
X185469588Y-97153766D01*
X185469587Y-97153766D01*
X185469584Y-97153767D01*
X185337255Y-97166800D01*
X185248745Y-97166800D01*
X185116416Y-97153767D01*
X185116413Y-97153766D01*
X185116412Y-97153766D01*
X184946611Y-97102257D01*
X184899139Y-97076883D01*
X184790119Y-97018611D01*
X184652956Y-96906044D01*
X184540389Y-96768881D01*
X184456744Y-96612390D01*
X184456743Y-96612389D01*
X184405234Y-96442588D01*
X184405234Y-96442587D01*
X184405233Y-96442584D01*
X184387841Y-96266000D01*
X184405233Y-96089416D01*
X184405234Y-96089412D01*
X184456743Y-95919611D01*
X184482117Y-95872139D01*
X184540389Y-95763119D01*
X184652956Y-95625956D01*
X184790119Y-95513389D01*
X184899139Y-95455117D01*
X184946611Y-95429743D01*
X185116412Y-95378234D01*
X185116413Y-95378234D01*
X185116416Y-95378233D01*
X185248745Y-95365200D01*
X185337255Y-95365200D01*
X185469584Y-95378233D01*
X185469584Y-95378233D01*
G37*
G36*
X185469584Y-92838233D02*
G01*
X185469587Y-92838234D01*
X185469588Y-92838234D01*
X185639389Y-92889743D01*
X185686861Y-92915117D01*
X185795881Y-92973389D01*
X185933044Y-93085956D01*
X186045611Y-93223119D01*
X186103883Y-93332139D01*
X186129257Y-93379611D01*
X186161534Y-93486014D01*
X186180767Y-93549416D01*
X186198159Y-93726000D01*
X186180767Y-93902584D01*
X186180766Y-93902587D01*
X186180766Y-93902588D01*
X186129257Y-94072389D01*
X186129256Y-94072390D01*
X186045611Y-94228881D01*
X185933044Y-94366044D01*
X185795881Y-94478611D01*
X185686861Y-94536883D01*
X185639389Y-94562257D01*
X185469588Y-94613766D01*
X185469587Y-94613766D01*
X185469584Y-94613767D01*
X185337255Y-94626800D01*
X185248745Y-94626800D01*
X185116416Y-94613767D01*
X185116413Y-94613766D01*
X185116412Y-94613766D01*
X184946611Y-94562257D01*
X184899139Y-94536883D01*
X184790119Y-94478611D01*
X184652956Y-94366044D01*
X184540389Y-94228881D01*
X184456744Y-94072390D01*
X184456743Y-94072389D01*
X184405234Y-93902588D01*
X184405234Y-93902587D01*
X184405233Y-93902584D01*
X184387841Y-93726000D01*
X184405233Y-93549416D01*
X184424466Y-93486014D01*
X184456743Y-93379611D01*
X184482117Y-93332139D01*
X184540389Y-93223119D01*
X184652956Y-93085956D01*
X184790119Y-92973389D01*
X184899139Y-92915117D01*
X184946611Y-92889743D01*
X185116412Y-92838234D01*
X185116413Y-92838234D01*
X185116416Y-92838233D01*
X185248745Y-92825200D01*
X185337255Y-92825200D01*
X185469584Y-92838233D01*
X185469584Y-92838233D01*
G37*
G36*
X128712014Y-91793110D02*
G01*
X128957843Y-91894936D01*
X128957844Y-91894937D01*
X129148393Y-92022257D01*
X129179086Y-92042766D01*
X129367234Y-92230914D01*
X129515064Y-92452157D01*
X129616890Y-92697986D01*
X129668800Y-92958958D01*
X129668800Y-93225042D01*
X129616890Y-93486014D01*
X129515064Y-93731843D01*
X129515063Y-93731844D01*
X129400979Y-93902584D01*
X129367234Y-93953086D01*
X129179086Y-94141234D01*
X128957843Y-94289064D01*
X128771997Y-94366044D01*
X128712014Y-94390890D01*
X128451042Y-94442800D01*
X128184958Y-94442800D01*
X127923986Y-94390890D01*
X127864003Y-94366044D01*
X127678157Y-94289064D01*
X127456914Y-94141234D01*
X127268766Y-93953086D01*
X127235022Y-93902584D01*
X127120937Y-93731844D01*
X127120936Y-93731843D01*
X127019110Y-93486014D01*
X126967200Y-93225042D01*
X126967200Y-92958958D01*
X127019110Y-92697986D01*
X127120936Y-92452157D01*
X127268766Y-92230914D01*
X127456914Y-92042766D01*
X127487608Y-92022257D01*
X127678156Y-91894937D01*
X127678157Y-91894936D01*
X127923986Y-91793110D01*
X128184958Y-91741200D01*
X128451042Y-91741200D01*
X128712014Y-91793110D01*
X128712014Y-91793110D01*
G37*
G36*
X185469584Y-90298233D02*
G01*
X185469587Y-90298234D01*
X185469588Y-90298234D01*
X185639389Y-90349743D01*
X185686861Y-90375117D01*
X185795881Y-90433389D01*
X185933044Y-90545956D01*
X186045611Y-90683119D01*
X186103883Y-90792139D01*
X186129257Y-90839611D01*
X186180766Y-91009412D01*
X186180767Y-91009416D01*
X186198159Y-91186000D01*
X186180767Y-91362584D01*
X186180766Y-91362587D01*
X186180766Y-91362588D01*
X186129257Y-91532389D01*
X186129256Y-91532390D01*
X186045611Y-91688881D01*
X185933044Y-91826044D01*
X185795881Y-91938611D01*
X185686861Y-91996883D01*
X185639389Y-92022257D01*
X185469588Y-92073766D01*
X185469587Y-92073766D01*
X185469584Y-92073767D01*
X185337255Y-92086800D01*
X185248745Y-92086800D01*
X185116416Y-92073767D01*
X185116413Y-92073766D01*
X185116412Y-92073766D01*
X184946611Y-92022257D01*
X184899139Y-91996883D01*
X184790119Y-91938611D01*
X184652956Y-91826044D01*
X184540389Y-91688881D01*
X184456744Y-91532390D01*
X184456743Y-91532389D01*
X184405234Y-91362588D01*
X184405234Y-91362587D01*
X184405233Y-91362584D01*
X184387841Y-91186000D01*
X184405233Y-91009416D01*
X184405234Y-91009412D01*
X184456743Y-90839611D01*
X184482117Y-90792139D01*
X184540389Y-90683119D01*
X184652956Y-90545956D01*
X184790119Y-90433389D01*
X184899139Y-90375117D01*
X184946611Y-90349743D01*
X185116412Y-90298234D01*
X185116413Y-90298234D01*
X185116416Y-90298233D01*
X185248745Y-90285200D01*
X185337255Y-90285200D01*
X185469584Y-90298233D01*
X185469584Y-90298233D01*
G37*
G36*
X125712014Y-87093110D02*
G01*
X125957843Y-87194936D01*
X126179086Y-87342766D01*
X126367234Y-87530914D01*
X126515064Y-87752157D01*
X126616890Y-87997986D01*
X126668800Y-88258958D01*
X126668800Y-88525042D01*
X126616890Y-88786014D01*
X126515064Y-89031843D01*
X126515063Y-89031844D01*
X126367235Y-89253085D01*
X126179085Y-89441235D01*
X126117691Y-89482257D01*
X125957843Y-89589064D01*
X125712014Y-89690890D01*
X125451042Y-89742800D01*
X125184958Y-89742800D01*
X124923986Y-89690890D01*
X124678157Y-89589064D01*
X124518309Y-89482257D01*
X124456915Y-89441235D01*
X124268765Y-89253085D01*
X124120937Y-89031844D01*
X124120936Y-89031843D01*
X124019110Y-88786014D01*
X123967200Y-88525042D01*
X123967200Y-88258958D01*
X124019110Y-87997986D01*
X124120936Y-87752157D01*
X124268766Y-87530914D01*
X124456914Y-87342766D01*
X124678157Y-87194936D01*
X124923986Y-87093110D01*
X125184958Y-87041200D01*
X125451042Y-87041200D01*
X125712014Y-87093110D01*
X125712014Y-87093110D01*
G37*
G36*
X132668800Y-89742800D02*
G01*
X129967200Y-89742800D01*
X129967200Y-87041200D01*
X132668800Y-87041200D01*
X132668800Y-89742800D01*
X132668800Y-89742800D01*
G37*
G36*
X185469584Y-87758233D02*
G01*
X185469587Y-87758234D01*
X185469588Y-87758234D01*
X185639389Y-87809743D01*
X185686861Y-87835117D01*
X185795881Y-87893389D01*
X185933044Y-88005956D01*
X186045611Y-88143119D01*
X186103883Y-88252139D01*
X186129257Y-88299611D01*
X186180766Y-88469412D01*
X186180767Y-88469416D01*
X186198159Y-88646000D01*
X186180767Y-88822584D01*
X186180766Y-88822587D01*
X186180766Y-88822588D01*
X186129257Y-88992389D01*
X186129256Y-88992390D01*
X186045611Y-89148881D01*
X185933044Y-89286044D01*
X185795881Y-89398611D01*
X185686861Y-89456883D01*
X185639389Y-89482257D01*
X185469588Y-89533766D01*
X185469587Y-89533766D01*
X185469584Y-89533767D01*
X185337255Y-89546800D01*
X185248745Y-89546800D01*
X185116416Y-89533767D01*
X185116413Y-89533766D01*
X185116412Y-89533766D01*
X184946611Y-89482257D01*
X184899139Y-89456883D01*
X184790119Y-89398611D01*
X184652956Y-89286044D01*
X184540389Y-89148881D01*
X184456744Y-88992390D01*
X184456743Y-88992389D01*
X184405234Y-88822588D01*
X184405234Y-88822587D01*
X184405233Y-88822584D01*
X184387841Y-88646000D01*
X184405233Y-88469416D01*
X184405234Y-88469412D01*
X184456743Y-88299611D01*
X184482117Y-88252139D01*
X184540389Y-88143119D01*
X184652956Y-88005956D01*
X184790119Y-87893389D01*
X184899139Y-87835117D01*
X184946611Y-87809743D01*
X185116412Y-87758234D01*
X185116413Y-87758234D01*
X185116416Y-87758233D01*
X185248745Y-87745200D01*
X185337255Y-87745200D01*
X185469584Y-87758233D01*
X185469584Y-87758233D01*
G37*
G36*
X186193800Y-87006800D02*
G01*
X184392200Y-87006800D01*
X184392200Y-85205200D01*
X186193800Y-85205200D01*
X186193800Y-87006800D01*
X186193800Y-87006800D01*
G37*
G36*
X172617184Y-80443033D02*
G01*
X172617187Y-80443034D01*
X172617188Y-80443034D01*
X172786989Y-80494543D01*
X172834461Y-80519917D01*
X172943481Y-80578189D01*
X173080644Y-80690756D01*
X173193211Y-80827919D01*
X173251483Y-80936939D01*
X173276857Y-80984411D01*
X173328366Y-81154212D01*
X173328367Y-81154216D01*
X173345759Y-81330800D01*
X173328367Y-81507384D01*
X173328366Y-81507387D01*
X173328366Y-81507388D01*
X173276857Y-81677189D01*
X173276856Y-81677190D01*
X173193211Y-81833681D01*
X173080644Y-81970844D01*
X172943481Y-82083411D01*
X172834461Y-82141683D01*
X172786989Y-82167057D01*
X172617188Y-82218566D01*
X172617187Y-82218566D01*
X172617184Y-82218567D01*
X172484855Y-82231600D01*
X172396345Y-82231600D01*
X172264016Y-82218567D01*
X172264013Y-82218566D01*
X172264012Y-82218566D01*
X172094211Y-82167057D01*
X172046739Y-82141683D01*
X171937719Y-82083411D01*
X171800556Y-81970844D01*
X171687989Y-81833681D01*
X171604344Y-81677190D01*
X171604343Y-81677189D01*
X171552834Y-81507388D01*
X171552834Y-81507387D01*
X171552833Y-81507384D01*
X171535441Y-81330800D01*
X171552833Y-81154216D01*
X171552834Y-81154212D01*
X171604343Y-80984411D01*
X171629717Y-80936939D01*
X171687989Y-80827919D01*
X171800556Y-80690756D01*
X171937719Y-80578189D01*
X172046739Y-80519917D01*
X172094211Y-80494543D01*
X172264012Y-80443034D01*
X172264013Y-80443034D01*
X172264016Y-80443033D01*
X172396345Y-80430000D01*
X172484855Y-80430000D01*
X172617184Y-80443033D01*
X172617184Y-80443033D01*
G37*
G36*
X160641400Y-82231600D02*
G01*
X158839800Y-82231600D01*
X158839800Y-80430000D01*
X160641400Y-80430000D01*
X160641400Y-82231600D01*
X160641400Y-82231600D01*
G37*
G36*
X162457184Y-80443033D02*
G01*
X162457187Y-80443034D01*
X162457188Y-80443034D01*
X162626989Y-80494543D01*
X162674461Y-80519917D01*
X162783481Y-80578189D01*
X162920644Y-80690756D01*
X163033211Y-80827919D01*
X163091483Y-80936939D01*
X163116857Y-80984411D01*
X163168366Y-81154212D01*
X163168367Y-81154216D01*
X163185759Y-81330800D01*
X163168367Y-81507384D01*
X163168366Y-81507387D01*
X163168366Y-81507388D01*
X163116857Y-81677189D01*
X163116856Y-81677190D01*
X163033211Y-81833681D01*
X162920644Y-81970844D01*
X162783481Y-82083411D01*
X162674461Y-82141683D01*
X162626989Y-82167057D01*
X162457188Y-82218566D01*
X162457187Y-82218566D01*
X162457184Y-82218567D01*
X162324855Y-82231600D01*
X162236345Y-82231600D01*
X162104016Y-82218567D01*
X162104013Y-82218566D01*
X162104012Y-82218566D01*
X161934211Y-82167057D01*
X161886739Y-82141683D01*
X161777719Y-82083411D01*
X161640556Y-81970844D01*
X161527989Y-81833681D01*
X161444344Y-81677190D01*
X161444343Y-81677189D01*
X161392834Y-81507388D01*
X161392834Y-81507387D01*
X161392833Y-81507384D01*
X161375441Y-81330800D01*
X161392833Y-81154216D01*
X161392834Y-81154212D01*
X161444343Y-80984411D01*
X161469717Y-80936939D01*
X161527989Y-80827919D01*
X161640556Y-80690756D01*
X161777719Y-80578189D01*
X161886739Y-80519917D01*
X161934211Y-80494543D01*
X162104012Y-80443034D01*
X162104013Y-80443034D01*
X162104016Y-80443033D01*
X162236345Y-80430000D01*
X162324855Y-80430000D01*
X162457184Y-80443033D01*
X162457184Y-80443033D01*
G37*
G36*
X170077184Y-80443033D02*
G01*
X170077187Y-80443034D01*
X170077188Y-80443034D01*
X170246989Y-80494543D01*
X170294461Y-80519917D01*
X170403481Y-80578189D01*
X170540644Y-80690756D01*
X170653211Y-80827919D01*
X170711483Y-80936939D01*
X170736857Y-80984411D01*
X170788366Y-81154212D01*
X170788367Y-81154216D01*
X170805759Y-81330800D01*
X170788367Y-81507384D01*
X170788366Y-81507387D01*
X170788366Y-81507388D01*
X170736857Y-81677189D01*
X170736856Y-81677190D01*
X170653211Y-81833681D01*
X170540644Y-81970844D01*
X170403481Y-82083411D01*
X170294461Y-82141683D01*
X170246989Y-82167057D01*
X170077188Y-82218566D01*
X170077187Y-82218566D01*
X170077184Y-82218567D01*
X169944855Y-82231600D01*
X169856345Y-82231600D01*
X169724016Y-82218567D01*
X169724013Y-82218566D01*
X169724012Y-82218566D01*
X169554211Y-82167057D01*
X169506739Y-82141683D01*
X169397719Y-82083411D01*
X169260556Y-81970844D01*
X169147989Y-81833681D01*
X169064344Y-81677190D01*
X169064343Y-81677189D01*
X169012834Y-81507388D01*
X169012834Y-81507387D01*
X169012833Y-81507384D01*
X168995441Y-81330800D01*
X169012833Y-81154216D01*
X169012834Y-81154212D01*
X169064343Y-80984411D01*
X169089717Y-80936939D01*
X169147989Y-80827919D01*
X169260556Y-80690756D01*
X169397719Y-80578189D01*
X169506739Y-80519917D01*
X169554211Y-80494543D01*
X169724012Y-80443034D01*
X169724013Y-80443034D01*
X169724016Y-80443033D01*
X169856345Y-80430000D01*
X169944855Y-80430000D01*
X170077184Y-80443033D01*
X170077184Y-80443033D01*
G37*
G36*
X167537184Y-80443033D02*
G01*
X167537187Y-80443034D01*
X167537188Y-80443034D01*
X167706989Y-80494543D01*
X167754461Y-80519917D01*
X167863481Y-80578189D01*
X168000644Y-80690756D01*
X168113211Y-80827919D01*
X168171483Y-80936939D01*
X168196857Y-80984411D01*
X168248366Y-81154212D01*
X168248367Y-81154216D01*
X168265759Y-81330800D01*
X168248367Y-81507384D01*
X168248366Y-81507387D01*
X168248366Y-81507388D01*
X168196857Y-81677189D01*
X168196856Y-81677190D01*
X168113211Y-81833681D01*
X168000644Y-81970844D01*
X167863481Y-82083411D01*
X167754461Y-82141683D01*
X167706989Y-82167057D01*
X167537188Y-82218566D01*
X167537187Y-82218566D01*
X167537184Y-82218567D01*
X167404855Y-82231600D01*
X167316345Y-82231600D01*
X167184016Y-82218567D01*
X167184013Y-82218566D01*
X167184012Y-82218566D01*
X167014211Y-82167057D01*
X166966739Y-82141683D01*
X166857719Y-82083411D01*
X166720556Y-81970844D01*
X166607989Y-81833681D01*
X166524344Y-81677190D01*
X166524343Y-81677189D01*
X166472834Y-81507388D01*
X166472834Y-81507387D01*
X166472833Y-81507384D01*
X166455441Y-81330800D01*
X166472833Y-81154216D01*
X166472834Y-81154212D01*
X166524343Y-80984411D01*
X166549717Y-80936939D01*
X166607989Y-80827919D01*
X166720556Y-80690756D01*
X166857719Y-80578189D01*
X166966739Y-80519917D01*
X167014211Y-80494543D01*
X167184012Y-80443034D01*
X167184013Y-80443034D01*
X167184016Y-80443033D01*
X167316345Y-80430000D01*
X167404855Y-80430000D01*
X167537184Y-80443033D01*
X167537184Y-80443033D01*
G37*
G36*
X164997184Y-80443033D02*
G01*
X164997187Y-80443034D01*
X164997188Y-80443034D01*
X165166989Y-80494543D01*
X165214461Y-80519917D01*
X165323481Y-80578189D01*
X165460644Y-80690756D01*
X165573211Y-80827919D01*
X165631483Y-80936939D01*
X165656857Y-80984411D01*
X165708366Y-81154212D01*
X165708367Y-81154216D01*
X165725759Y-81330800D01*
X165708367Y-81507384D01*
X165708366Y-81507387D01*
X165708366Y-81507388D01*
X165656857Y-81677189D01*
X165656856Y-81677190D01*
X165573211Y-81833681D01*
X165460644Y-81970844D01*
X165323481Y-82083411D01*
X165214461Y-82141683D01*
X165166989Y-82167057D01*
X164997188Y-82218566D01*
X164997187Y-82218566D01*
X164997184Y-82218567D01*
X164864855Y-82231600D01*
X164776345Y-82231600D01*
X164644016Y-82218567D01*
X164644013Y-82218566D01*
X164644012Y-82218566D01*
X164474211Y-82167057D01*
X164426739Y-82141683D01*
X164317719Y-82083411D01*
X164180556Y-81970844D01*
X164067989Y-81833681D01*
X163984344Y-81677190D01*
X163984343Y-81677189D01*
X163932834Y-81507388D01*
X163932834Y-81507387D01*
X163932833Y-81507384D01*
X163915441Y-81330800D01*
X163932833Y-81154216D01*
X163932834Y-81154212D01*
X163984343Y-80984411D01*
X164009717Y-80936939D01*
X164067989Y-80827919D01*
X164180556Y-80690756D01*
X164317719Y-80578189D01*
X164426739Y-80519917D01*
X164474211Y-80494543D01*
X164644012Y-80443034D01*
X164644013Y-80443034D01*
X164644016Y-80443033D01*
X164776345Y-80430000D01*
X164864855Y-80430000D01*
X164997184Y-80443033D01*
X164997184Y-80443033D01*
G37*
G36*
X160704584Y-65406233D02*
G01*
X160704587Y-65406234D01*
X160704588Y-65406234D01*
X160874389Y-65457743D01*
X160921861Y-65483117D01*
X161030881Y-65541389D01*
X161168044Y-65653956D01*
X161280611Y-65791119D01*
X161338883Y-65900139D01*
X161364257Y-65947611D01*
X161415766Y-66117412D01*
X161415767Y-66117416D01*
X161433159Y-66294000D01*
X161415767Y-66470584D01*
X161415766Y-66470587D01*
X161415766Y-66470588D01*
X161364257Y-66640389D01*
X161364256Y-66640390D01*
X161280611Y-66796881D01*
X161168044Y-66934044D01*
X161030881Y-67046611D01*
X160921861Y-67104883D01*
X160874389Y-67130257D01*
X160704588Y-67181766D01*
X160704587Y-67181766D01*
X160704584Y-67181767D01*
X160572255Y-67194800D01*
X160483745Y-67194800D01*
X160351416Y-67181767D01*
X160351413Y-67181766D01*
X160351412Y-67181766D01*
X160181611Y-67130257D01*
X160134139Y-67104883D01*
X160025119Y-67046611D01*
X159887956Y-66934044D01*
X159775389Y-66796881D01*
X159691744Y-66640390D01*
X159691743Y-66640389D01*
X159640234Y-66470588D01*
X159640234Y-66470587D01*
X159640233Y-66470584D01*
X159622841Y-66294000D01*
X159640233Y-66117416D01*
X159640234Y-66117412D01*
X159691743Y-65947611D01*
X159717117Y-65900139D01*
X159775389Y-65791119D01*
X159887956Y-65653956D01*
X160025119Y-65541389D01*
X160134139Y-65483117D01*
X160181611Y-65457743D01*
X160351412Y-65406234D01*
X160351413Y-65406234D01*
X160351416Y-65406233D01*
X160483745Y-65393200D01*
X160572255Y-65393200D01*
X160704584Y-65406233D01*
X160704584Y-65406233D01*
G37*
G36*
X158164584Y-65406233D02*
G01*
X158164587Y-65406234D01*
X158164588Y-65406234D01*
X158334389Y-65457743D01*
X158381861Y-65483117D01*
X158490881Y-65541389D01*
X158628044Y-65653956D01*
X158740611Y-65791119D01*
X158798883Y-65900139D01*
X158824257Y-65947611D01*
X158875766Y-66117412D01*
X158875767Y-66117416D01*
X158893159Y-66294000D01*
X158875767Y-66470584D01*
X158875766Y-66470587D01*
X158875766Y-66470588D01*
X158824257Y-66640389D01*
X158824256Y-66640390D01*
X158740611Y-66796881D01*
X158628044Y-66934044D01*
X158490881Y-67046611D01*
X158381861Y-67104883D01*
X158334389Y-67130257D01*
X158164588Y-67181766D01*
X158164587Y-67181766D01*
X158164584Y-67181767D01*
X158032255Y-67194800D01*
X157943745Y-67194800D01*
X157811416Y-67181767D01*
X157811413Y-67181766D01*
X157811412Y-67181766D01*
X157641611Y-67130257D01*
X157594139Y-67104883D01*
X157485119Y-67046611D01*
X157347956Y-66934044D01*
X157235389Y-66796881D01*
X157151744Y-66640390D01*
X157151743Y-66640389D01*
X157100234Y-66470588D01*
X157100234Y-66470587D01*
X157100233Y-66470584D01*
X157082841Y-66294000D01*
X157100233Y-66117416D01*
X157100234Y-66117412D01*
X157151743Y-65947611D01*
X157177117Y-65900139D01*
X157235389Y-65791119D01*
X157347956Y-65653956D01*
X157485119Y-65541389D01*
X157594139Y-65483117D01*
X157641611Y-65457743D01*
X157811412Y-65406234D01*
X157811413Y-65406234D01*
X157811416Y-65406233D01*
X157943745Y-65393200D01*
X158032255Y-65393200D01*
X158164584Y-65406233D01*
X158164584Y-65406233D01*
G37*
G36*
X155624584Y-65406233D02*
G01*
X155624587Y-65406234D01*
X155624588Y-65406234D01*
X155794389Y-65457743D01*
X155841861Y-65483117D01*
X155950881Y-65541389D01*
X156088044Y-65653956D01*
X156200611Y-65791119D01*
X156258883Y-65900139D01*
X156284257Y-65947611D01*
X156335766Y-66117412D01*
X156335767Y-66117416D01*
X156353159Y-66294000D01*
X156335767Y-66470584D01*
X156335766Y-66470587D01*
X156335766Y-66470588D01*
X156284257Y-66640389D01*
X156284256Y-66640390D01*
X156200611Y-66796881D01*
X156088044Y-66934044D01*
X155950881Y-67046611D01*
X155841861Y-67104883D01*
X155794389Y-67130257D01*
X155624588Y-67181766D01*
X155624587Y-67181766D01*
X155624584Y-67181767D01*
X155492255Y-67194800D01*
X155403745Y-67194800D01*
X155271416Y-67181767D01*
X155271413Y-67181766D01*
X155271412Y-67181766D01*
X155101611Y-67130257D01*
X155054139Y-67104883D01*
X154945119Y-67046611D01*
X154807956Y-66934044D01*
X154695389Y-66796881D01*
X154611744Y-66640390D01*
X154611743Y-66640389D01*
X154560234Y-66470588D01*
X154560234Y-66470587D01*
X154560233Y-66470584D01*
X154542841Y-66294000D01*
X154560233Y-66117416D01*
X154560234Y-66117412D01*
X154611743Y-65947611D01*
X154637117Y-65900139D01*
X154695389Y-65791119D01*
X154807956Y-65653956D01*
X154945119Y-65541389D01*
X155054139Y-65483117D01*
X155101611Y-65457743D01*
X155271412Y-65406234D01*
X155271413Y-65406234D01*
X155271416Y-65406233D01*
X155403745Y-65393200D01*
X155492255Y-65393200D01*
X155624584Y-65406233D01*
X155624584Y-65406233D01*
G37*
G36*
X141108800Y-67194800D02*
G01*
X139307200Y-67194800D01*
X139307200Y-65393200D01*
X141108800Y-65393200D01*
X141108800Y-67194800D01*
X141108800Y-67194800D01*
G37*
G36*
X153084584Y-65406233D02*
G01*
X153084587Y-65406234D01*
X153084588Y-65406234D01*
X153254389Y-65457743D01*
X153301861Y-65483117D01*
X153410881Y-65541389D01*
X153548044Y-65653956D01*
X153660611Y-65791119D01*
X153718883Y-65900139D01*
X153744257Y-65947611D01*
X153795766Y-66117412D01*
X153795767Y-66117416D01*
X153813159Y-66294000D01*
X153795767Y-66470584D01*
X153795766Y-66470587D01*
X153795766Y-66470588D01*
X153744257Y-66640389D01*
X153744256Y-66640390D01*
X153660611Y-66796881D01*
X153548044Y-66934044D01*
X153410881Y-67046611D01*
X153301861Y-67104883D01*
X153254389Y-67130257D01*
X153084588Y-67181766D01*
X153084587Y-67181766D01*
X153084584Y-67181767D01*
X152952255Y-67194800D01*
X152863745Y-67194800D01*
X152731416Y-67181767D01*
X152731413Y-67181766D01*
X152731412Y-67181766D01*
X152561611Y-67130257D01*
X152514139Y-67104883D01*
X152405119Y-67046611D01*
X152267956Y-66934044D01*
X152155389Y-66796881D01*
X152071744Y-66640390D01*
X152071743Y-66640389D01*
X152020234Y-66470588D01*
X152020234Y-66470587D01*
X152020233Y-66470584D01*
X152002841Y-66294000D01*
X152020233Y-66117416D01*
X152020234Y-66117412D01*
X152071743Y-65947611D01*
X152097117Y-65900139D01*
X152155389Y-65791119D01*
X152267956Y-65653956D01*
X152405119Y-65541389D01*
X152514139Y-65483117D01*
X152561611Y-65457743D01*
X152731412Y-65406234D01*
X152731413Y-65406234D01*
X152731416Y-65406233D01*
X152863745Y-65393200D01*
X152952255Y-65393200D01*
X153084584Y-65406233D01*
X153084584Y-65406233D01*
G37*
G36*
X142924584Y-65406233D02*
G01*
X142924587Y-65406234D01*
X142924588Y-65406234D01*
X143094389Y-65457743D01*
X143141861Y-65483117D01*
X143250881Y-65541389D01*
X143388044Y-65653956D01*
X143500611Y-65791119D01*
X143558883Y-65900139D01*
X143584257Y-65947611D01*
X143635766Y-66117412D01*
X143635767Y-66117416D01*
X143653159Y-66294000D01*
X143635767Y-66470584D01*
X143635766Y-66470587D01*
X143635766Y-66470588D01*
X143584257Y-66640389D01*
X143584256Y-66640390D01*
X143500611Y-66796881D01*
X143388044Y-66934044D01*
X143250881Y-67046611D01*
X143141861Y-67104883D01*
X143094389Y-67130257D01*
X142924588Y-67181766D01*
X142924587Y-67181766D01*
X142924584Y-67181767D01*
X142792255Y-67194800D01*
X142703745Y-67194800D01*
X142571416Y-67181767D01*
X142571413Y-67181766D01*
X142571412Y-67181766D01*
X142401611Y-67130257D01*
X142354139Y-67104883D01*
X142245119Y-67046611D01*
X142107956Y-66934044D01*
X141995389Y-66796881D01*
X141911744Y-66640390D01*
X141911743Y-66640389D01*
X141860234Y-66470588D01*
X141860234Y-66470587D01*
X141860233Y-66470584D01*
X141842841Y-66294000D01*
X141860233Y-66117416D01*
X141860234Y-66117412D01*
X141911743Y-65947611D01*
X141937117Y-65900139D01*
X141995389Y-65791119D01*
X142107956Y-65653956D01*
X142245119Y-65541389D01*
X142354139Y-65483117D01*
X142401611Y-65457743D01*
X142571412Y-65406234D01*
X142571413Y-65406234D01*
X142571416Y-65406233D01*
X142703745Y-65393200D01*
X142792255Y-65393200D01*
X142924584Y-65406233D01*
X142924584Y-65406233D01*
G37*
G36*
X150544584Y-65406233D02*
G01*
X150544587Y-65406234D01*
X150544588Y-65406234D01*
X150714389Y-65457743D01*
X150761861Y-65483117D01*
X150870881Y-65541389D01*
X151008044Y-65653956D01*
X151120611Y-65791119D01*
X151178883Y-65900139D01*
X151204257Y-65947611D01*
X151255766Y-66117412D01*
X151255767Y-66117416D01*
X151273159Y-66294000D01*
X151255767Y-66470584D01*
X151255766Y-66470587D01*
X151255766Y-66470588D01*
X151204257Y-66640389D01*
X151204256Y-66640390D01*
X151120611Y-66796881D01*
X151008044Y-66934044D01*
X150870881Y-67046611D01*
X150761861Y-67104883D01*
X150714389Y-67130257D01*
X150544588Y-67181766D01*
X150544587Y-67181766D01*
X150544584Y-67181767D01*
X150412255Y-67194800D01*
X150323745Y-67194800D01*
X150191416Y-67181767D01*
X150191413Y-67181766D01*
X150191412Y-67181766D01*
X150021611Y-67130257D01*
X149974139Y-67104883D01*
X149865119Y-67046611D01*
X149727956Y-66934044D01*
X149615389Y-66796881D01*
X149531744Y-66640390D01*
X149531743Y-66640389D01*
X149480234Y-66470588D01*
X149480234Y-66470587D01*
X149480233Y-66470584D01*
X149462841Y-66294000D01*
X149480233Y-66117416D01*
X149480234Y-66117412D01*
X149531743Y-65947611D01*
X149557117Y-65900139D01*
X149615389Y-65791119D01*
X149727956Y-65653956D01*
X149865119Y-65541389D01*
X149974139Y-65483117D01*
X150021611Y-65457743D01*
X150191412Y-65406234D01*
X150191413Y-65406234D01*
X150191416Y-65406233D01*
X150323745Y-65393200D01*
X150412255Y-65393200D01*
X150544584Y-65406233D01*
X150544584Y-65406233D01*
G37*
G36*
X145464584Y-65406233D02*
G01*
X145464587Y-65406234D01*
X145464588Y-65406234D01*
X145634389Y-65457743D01*
X145681861Y-65483117D01*
X145790881Y-65541389D01*
X145928044Y-65653956D01*
X146040611Y-65791119D01*
X146098883Y-65900139D01*
X146124257Y-65947611D01*
X146175766Y-66117412D01*
X146175767Y-66117416D01*
X146193159Y-66294000D01*
X146175767Y-66470584D01*
X146175766Y-66470587D01*
X146175766Y-66470588D01*
X146124257Y-66640389D01*
X146124256Y-66640390D01*
X146040611Y-66796881D01*
X145928044Y-66934044D01*
X145790881Y-67046611D01*
X145681861Y-67104883D01*
X145634389Y-67130257D01*
X145464588Y-67181766D01*
X145464587Y-67181766D01*
X145464584Y-67181767D01*
X145332255Y-67194800D01*
X145243745Y-67194800D01*
X145111416Y-67181767D01*
X145111413Y-67181766D01*
X145111412Y-67181766D01*
X144941611Y-67130257D01*
X144894139Y-67104883D01*
X144785119Y-67046611D01*
X144647956Y-66934044D01*
X144535389Y-66796881D01*
X144451744Y-66640390D01*
X144451743Y-66640389D01*
X144400234Y-66470588D01*
X144400234Y-66470587D01*
X144400233Y-66470584D01*
X144382841Y-66294000D01*
X144400233Y-66117416D01*
X144400234Y-66117412D01*
X144451743Y-65947611D01*
X144477117Y-65900139D01*
X144535389Y-65791119D01*
X144647956Y-65653956D01*
X144785119Y-65541389D01*
X144894139Y-65483117D01*
X144941611Y-65457743D01*
X145111412Y-65406234D01*
X145111413Y-65406234D01*
X145111416Y-65406233D01*
X145243745Y-65393200D01*
X145332255Y-65393200D01*
X145464584Y-65406233D01*
X145464584Y-65406233D01*
G37*
G36*
X148004584Y-65406233D02*
G01*
X148004587Y-65406234D01*
X148004588Y-65406234D01*
X148174389Y-65457743D01*
X148221861Y-65483117D01*
X148330881Y-65541389D01*
X148468044Y-65653956D01*
X148580611Y-65791119D01*
X148638883Y-65900139D01*
X148664257Y-65947611D01*
X148715766Y-66117412D01*
X148715767Y-66117416D01*
X148733159Y-66294000D01*
X148715767Y-66470584D01*
X148715766Y-66470587D01*
X148715766Y-66470588D01*
X148664257Y-66640389D01*
X148664256Y-66640390D01*
X148580611Y-66796881D01*
X148468044Y-66934044D01*
X148330881Y-67046611D01*
X148221861Y-67104883D01*
X148174389Y-67130257D01*
X148004588Y-67181766D01*
X148004587Y-67181766D01*
X148004584Y-67181767D01*
X147872255Y-67194800D01*
X147783745Y-67194800D01*
X147651416Y-67181767D01*
X147651413Y-67181766D01*
X147651412Y-67181766D01*
X147481611Y-67130257D01*
X147434139Y-67104883D01*
X147325119Y-67046611D01*
X147187956Y-66934044D01*
X147075389Y-66796881D01*
X146991744Y-66640390D01*
X146991743Y-66640389D01*
X146940234Y-66470588D01*
X146940234Y-66470587D01*
X146940233Y-66470584D01*
X146922841Y-66294000D01*
X146940233Y-66117416D01*
X146940234Y-66117412D01*
X146991743Y-65947611D01*
X147017117Y-65900139D01*
X147075389Y-65791119D01*
X147187956Y-65653956D01*
X147325119Y-65541389D01*
X147434139Y-65483117D01*
X147481611Y-65457743D01*
X147651412Y-65406234D01*
X147651413Y-65406234D01*
X147651416Y-65406233D01*
X147783745Y-65393200D01*
X147872255Y-65393200D01*
X148004584Y-65406233D01*
X148004584Y-65406233D01*
G37*
G36*
X163244584Y-65406233D02*
G01*
X163244587Y-65406234D01*
X163244588Y-65406234D01*
X163414389Y-65457743D01*
X163461861Y-65483117D01*
X163570881Y-65541389D01*
X163708044Y-65653956D01*
X163820611Y-65791119D01*
X163878883Y-65900139D01*
X163904257Y-65947611D01*
X163955766Y-66117412D01*
X163955767Y-66117416D01*
X163973159Y-66294000D01*
X163955767Y-66470584D01*
X163955766Y-66470587D01*
X163955766Y-66470588D01*
X163904257Y-66640389D01*
X163904256Y-66640390D01*
X163820611Y-66796881D01*
X163708044Y-66934044D01*
X163570881Y-67046611D01*
X163461861Y-67104883D01*
X163414389Y-67130257D01*
X163244588Y-67181766D01*
X163244587Y-67181766D01*
X163244584Y-67181767D01*
X163112255Y-67194800D01*
X163023745Y-67194800D01*
X162891416Y-67181767D01*
X162891413Y-67181766D01*
X162891412Y-67181766D01*
X162721611Y-67130257D01*
X162674139Y-67104883D01*
X162565119Y-67046611D01*
X162427956Y-66934044D01*
X162315389Y-66796881D01*
X162231744Y-66640390D01*
X162231743Y-66640389D01*
X162180234Y-66470588D01*
X162180234Y-66470587D01*
X162180233Y-66470584D01*
X162162841Y-66294000D01*
X162180233Y-66117416D01*
X162180234Y-66117412D01*
X162231743Y-65947611D01*
X162257117Y-65900139D01*
X162315389Y-65791119D01*
X162427956Y-65653956D01*
X162565119Y-65541389D01*
X162674139Y-65483117D01*
X162721611Y-65457743D01*
X162891412Y-65406234D01*
X162891413Y-65406234D01*
X162891416Y-65406233D01*
X163023745Y-65393200D01*
X163112255Y-65393200D01*
X163244584Y-65406233D01*
X163244584Y-65406233D01*
G37*
G36*
X185088584Y-65406233D02*
G01*
X185088587Y-65406234D01*
X185088588Y-65406234D01*
X185258389Y-65457743D01*
X185305861Y-65483117D01*
X185414881Y-65541389D01*
X185552044Y-65653956D01*
X185664611Y-65791119D01*
X185722883Y-65900139D01*
X185748257Y-65947611D01*
X185799766Y-66117412D01*
X185799767Y-66117416D01*
X185817159Y-66294000D01*
X185799767Y-66470584D01*
X185799766Y-66470587D01*
X185799766Y-66470588D01*
X185748257Y-66640389D01*
X185748256Y-66640390D01*
X185664611Y-66796881D01*
X185552044Y-66934044D01*
X185414881Y-67046611D01*
X185305861Y-67104883D01*
X185258389Y-67130257D01*
X185088588Y-67181766D01*
X185088587Y-67181766D01*
X185088584Y-67181767D01*
X184956255Y-67194800D01*
X184867745Y-67194800D01*
X184735416Y-67181767D01*
X184735413Y-67181766D01*
X184735412Y-67181766D01*
X184565611Y-67130257D01*
X184518139Y-67104883D01*
X184409119Y-67046611D01*
X184271956Y-66934044D01*
X184159389Y-66796881D01*
X184075744Y-66640390D01*
X184075743Y-66640389D01*
X184024234Y-66470588D01*
X184024234Y-66470587D01*
X184024233Y-66470584D01*
X184006841Y-66294000D01*
X184024233Y-66117416D01*
X184024234Y-66117412D01*
X184075743Y-65947611D01*
X184101117Y-65900139D01*
X184159389Y-65791119D01*
X184271956Y-65653956D01*
X184409119Y-65541389D01*
X184518139Y-65483117D01*
X184565611Y-65457743D01*
X184735412Y-65406234D01*
X184735413Y-65406234D01*
X184735416Y-65406233D01*
X184867745Y-65393200D01*
X184956255Y-65393200D01*
X185088584Y-65406233D01*
X185088584Y-65406233D01*
G37*
G36*
X182548584Y-65406233D02*
G01*
X182548587Y-65406234D01*
X182548588Y-65406234D01*
X182718389Y-65457743D01*
X182765861Y-65483117D01*
X182874881Y-65541389D01*
X183012044Y-65653956D01*
X183124611Y-65791119D01*
X183182883Y-65900139D01*
X183208257Y-65947611D01*
X183259766Y-66117412D01*
X183259767Y-66117416D01*
X183277159Y-66294000D01*
X183259767Y-66470584D01*
X183259766Y-66470587D01*
X183259766Y-66470588D01*
X183208257Y-66640389D01*
X183208256Y-66640390D01*
X183124611Y-66796881D01*
X183012044Y-66934044D01*
X182874881Y-67046611D01*
X182765861Y-67104883D01*
X182718389Y-67130257D01*
X182548588Y-67181766D01*
X182548587Y-67181766D01*
X182548584Y-67181767D01*
X182416255Y-67194800D01*
X182327745Y-67194800D01*
X182195416Y-67181767D01*
X182195413Y-67181766D01*
X182195412Y-67181766D01*
X182025611Y-67130257D01*
X181978139Y-67104883D01*
X181869119Y-67046611D01*
X181731956Y-66934044D01*
X181619389Y-66796881D01*
X181535744Y-66640390D01*
X181535743Y-66640389D01*
X181484234Y-66470588D01*
X181484234Y-66470587D01*
X181484233Y-66470584D01*
X181466841Y-66294000D01*
X181484233Y-66117416D01*
X181484234Y-66117412D01*
X181535743Y-65947611D01*
X181561117Y-65900139D01*
X181619389Y-65791119D01*
X181731956Y-65653956D01*
X181869119Y-65541389D01*
X181978139Y-65483117D01*
X182025611Y-65457743D01*
X182195412Y-65406234D01*
X182195413Y-65406234D01*
X182195416Y-65406233D01*
X182327745Y-65393200D01*
X182416255Y-65393200D01*
X182548584Y-65406233D01*
X182548584Y-65406233D01*
G37*
G36*
X180008584Y-65406233D02*
G01*
X180008587Y-65406234D01*
X180008588Y-65406234D01*
X180178389Y-65457743D01*
X180225861Y-65483117D01*
X180334881Y-65541389D01*
X180472044Y-65653956D01*
X180584611Y-65791119D01*
X180642883Y-65900139D01*
X180668257Y-65947611D01*
X180719766Y-66117412D01*
X180719767Y-66117416D01*
X180737159Y-66294000D01*
X180719767Y-66470584D01*
X180719766Y-66470587D01*
X180719766Y-66470588D01*
X180668257Y-66640389D01*
X180668256Y-66640390D01*
X180584611Y-66796881D01*
X180472044Y-66934044D01*
X180334881Y-67046611D01*
X180225861Y-67104883D01*
X180178389Y-67130257D01*
X180008588Y-67181766D01*
X180008587Y-67181766D01*
X180008584Y-67181767D01*
X179876255Y-67194800D01*
X179787745Y-67194800D01*
X179655416Y-67181767D01*
X179655413Y-67181766D01*
X179655412Y-67181766D01*
X179485611Y-67130257D01*
X179438139Y-67104883D01*
X179329119Y-67046611D01*
X179191956Y-66934044D01*
X179079389Y-66796881D01*
X178995744Y-66640390D01*
X178995743Y-66640389D01*
X178944234Y-66470588D01*
X178944234Y-66470587D01*
X178944233Y-66470584D01*
X178926841Y-66294000D01*
X178944233Y-66117416D01*
X178944234Y-66117412D01*
X178995743Y-65947611D01*
X179021117Y-65900139D01*
X179079389Y-65791119D01*
X179191956Y-65653956D01*
X179329119Y-65541389D01*
X179438139Y-65483117D01*
X179485611Y-65457743D01*
X179655412Y-65406234D01*
X179655413Y-65406234D01*
X179655416Y-65406233D01*
X179787745Y-65393200D01*
X179876255Y-65393200D01*
X180008584Y-65406233D01*
X180008584Y-65406233D01*
G37*
G36*
X168032800Y-67194800D02*
G01*
X166231200Y-67194800D01*
X166231200Y-65393200D01*
X168032800Y-65393200D01*
X168032800Y-67194800D01*
X168032800Y-67194800D01*
G37*
G36*
X177468584Y-65406233D02*
G01*
X177468587Y-65406234D01*
X177468588Y-65406234D01*
X177638389Y-65457743D01*
X177685861Y-65483117D01*
X177794881Y-65541389D01*
X177932044Y-65653956D01*
X178044611Y-65791119D01*
X178102883Y-65900139D01*
X178128257Y-65947611D01*
X178179766Y-66117412D01*
X178179767Y-66117416D01*
X178197159Y-66294000D01*
X178179767Y-66470584D01*
X178179766Y-66470587D01*
X178179766Y-66470588D01*
X178128257Y-66640389D01*
X178128256Y-66640390D01*
X178044611Y-66796881D01*
X177932044Y-66934044D01*
X177794881Y-67046611D01*
X177685861Y-67104883D01*
X177638389Y-67130257D01*
X177468588Y-67181766D01*
X177468587Y-67181766D01*
X177468584Y-67181767D01*
X177336255Y-67194800D01*
X177247745Y-67194800D01*
X177115416Y-67181767D01*
X177115413Y-67181766D01*
X177115412Y-67181766D01*
X176945611Y-67130257D01*
X176898139Y-67104883D01*
X176789119Y-67046611D01*
X176651956Y-66934044D01*
X176539389Y-66796881D01*
X176455744Y-66640390D01*
X176455743Y-66640389D01*
X176404234Y-66470588D01*
X176404234Y-66470587D01*
X176404233Y-66470584D01*
X176386841Y-66294000D01*
X176404233Y-66117416D01*
X176404234Y-66117412D01*
X176455743Y-65947611D01*
X176481117Y-65900139D01*
X176539389Y-65791119D01*
X176651956Y-65653956D01*
X176789119Y-65541389D01*
X176898139Y-65483117D01*
X176945611Y-65457743D01*
X177115412Y-65406234D01*
X177115413Y-65406234D01*
X177115416Y-65406233D01*
X177247745Y-65393200D01*
X177336255Y-65393200D01*
X177468584Y-65406233D01*
X177468584Y-65406233D01*
G37*
G36*
X169848584Y-65406233D02*
G01*
X169848587Y-65406234D01*
X169848588Y-65406234D01*
X170018389Y-65457743D01*
X170065861Y-65483117D01*
X170174881Y-65541389D01*
X170312044Y-65653956D01*
X170424611Y-65791119D01*
X170482883Y-65900139D01*
X170508257Y-65947611D01*
X170559766Y-66117412D01*
X170559767Y-66117416D01*
X170577159Y-66294000D01*
X170559767Y-66470584D01*
X170559766Y-66470587D01*
X170559766Y-66470588D01*
X170508257Y-66640389D01*
X170508256Y-66640390D01*
X170424611Y-66796881D01*
X170312044Y-66934044D01*
X170174881Y-67046611D01*
X170065861Y-67104883D01*
X170018389Y-67130257D01*
X169848588Y-67181766D01*
X169848587Y-67181766D01*
X169848584Y-67181767D01*
X169716255Y-67194800D01*
X169627745Y-67194800D01*
X169495416Y-67181767D01*
X169495413Y-67181766D01*
X169495412Y-67181766D01*
X169325611Y-67130257D01*
X169278139Y-67104883D01*
X169169119Y-67046611D01*
X169031956Y-66934044D01*
X168919389Y-66796881D01*
X168835744Y-66640390D01*
X168835743Y-66640389D01*
X168784234Y-66470588D01*
X168784234Y-66470587D01*
X168784233Y-66470584D01*
X168766841Y-66294000D01*
X168784233Y-66117416D01*
X168784234Y-66117412D01*
X168835743Y-65947611D01*
X168861117Y-65900139D01*
X168919389Y-65791119D01*
X169031956Y-65653956D01*
X169169119Y-65541389D01*
X169278139Y-65483117D01*
X169325611Y-65457743D01*
X169495412Y-65406234D01*
X169495413Y-65406234D01*
X169495416Y-65406233D01*
X169627745Y-65393200D01*
X169716255Y-65393200D01*
X169848584Y-65406233D01*
X169848584Y-65406233D01*
G37*
G36*
X174928584Y-65406233D02*
G01*
X174928587Y-65406234D01*
X174928588Y-65406234D01*
X175098389Y-65457743D01*
X175145861Y-65483117D01*
X175254881Y-65541389D01*
X175392044Y-65653956D01*
X175504611Y-65791119D01*
X175562883Y-65900139D01*
X175588257Y-65947611D01*
X175639766Y-66117412D01*
X175639767Y-66117416D01*
X175657159Y-66294000D01*
X175639767Y-66470584D01*
X175639766Y-66470587D01*
X175639766Y-66470588D01*
X175588257Y-66640389D01*
X175588256Y-66640390D01*
X175504611Y-66796881D01*
X175392044Y-66934044D01*
X175254881Y-67046611D01*
X175145861Y-67104883D01*
X175098389Y-67130257D01*
X174928588Y-67181766D01*
X174928587Y-67181766D01*
X174928584Y-67181767D01*
X174796255Y-67194800D01*
X174707745Y-67194800D01*
X174575416Y-67181767D01*
X174575413Y-67181766D01*
X174575412Y-67181766D01*
X174405611Y-67130257D01*
X174358139Y-67104883D01*
X174249119Y-67046611D01*
X174111956Y-66934044D01*
X173999389Y-66796881D01*
X173915744Y-66640390D01*
X173915743Y-66640389D01*
X173864234Y-66470588D01*
X173864234Y-66470587D01*
X173864233Y-66470584D01*
X173846841Y-66294000D01*
X173864233Y-66117416D01*
X173864234Y-66117412D01*
X173915743Y-65947611D01*
X173941117Y-65900139D01*
X173999389Y-65791119D01*
X174111956Y-65653956D01*
X174249119Y-65541389D01*
X174358139Y-65483117D01*
X174405611Y-65457743D01*
X174575412Y-65406234D01*
X174575413Y-65406234D01*
X174575416Y-65406233D01*
X174707745Y-65393200D01*
X174796255Y-65393200D01*
X174928584Y-65406233D01*
X174928584Y-65406233D01*
G37*
G36*
X172388584Y-65406233D02*
G01*
X172388587Y-65406234D01*
X172388588Y-65406234D01*
X172558389Y-65457743D01*
X172605861Y-65483117D01*
X172714881Y-65541389D01*
X172852044Y-65653956D01*
X172964611Y-65791119D01*
X173022883Y-65900139D01*
X173048257Y-65947611D01*
X173099766Y-66117412D01*
X173099767Y-66117416D01*
X173117159Y-66294000D01*
X173099767Y-66470584D01*
X173099766Y-66470587D01*
X173099766Y-66470588D01*
X173048257Y-66640389D01*
X173048256Y-66640390D01*
X172964611Y-66796881D01*
X172852044Y-66934044D01*
X172714881Y-67046611D01*
X172605861Y-67104883D01*
X172558389Y-67130257D01*
X172388588Y-67181766D01*
X172388587Y-67181766D01*
X172388584Y-67181767D01*
X172256255Y-67194800D01*
X172167745Y-67194800D01*
X172035416Y-67181767D01*
X172035413Y-67181766D01*
X172035412Y-67181766D01*
X171865611Y-67130257D01*
X171818139Y-67104883D01*
X171709119Y-67046611D01*
X171571956Y-66934044D01*
X171459389Y-66796881D01*
X171375744Y-66640390D01*
X171375743Y-66640389D01*
X171324234Y-66470588D01*
X171324234Y-66470587D01*
X171324233Y-66470584D01*
X171306841Y-66294000D01*
X171324233Y-66117416D01*
X171324234Y-66117412D01*
X171375743Y-65947611D01*
X171401117Y-65900139D01*
X171459389Y-65791119D01*
X171571956Y-65653956D01*
X171709119Y-65541389D01*
X171818139Y-65483117D01*
X171865611Y-65457743D01*
X172035412Y-65406234D01*
X172035413Y-65406234D01*
X172035416Y-65406233D01*
X172167745Y-65393200D01*
X172256255Y-65393200D01*
X172388584Y-65406233D01*
X172388584Y-65406233D01*
G37*
G36*
X182559783Y-61920511D02*
G01*
X182559786Y-61920512D01*
X182559787Y-61920512D01*
X182626015Y-61940602D01*
X182720164Y-61969162D01*
X182794065Y-62008663D01*
X182867967Y-62048164D01*
X182997518Y-62154484D01*
X183103838Y-62284035D01*
X183143339Y-62357937D01*
X183182840Y-62431838D01*
X183231491Y-62592219D01*
X183247918Y-62759001D01*
X183231491Y-62925783D01*
X183182840Y-63086164D01*
X183143339Y-63160065D01*
X183103838Y-63233967D01*
X182997518Y-63363518D01*
X182867967Y-63469838D01*
X182794065Y-63509339D01*
X182720164Y-63548840D01*
X182626015Y-63577400D01*
X182559787Y-63597490D01*
X182559786Y-63597490D01*
X182559783Y-63597491D01*
X182434797Y-63609801D01*
X182351205Y-63609801D01*
X182226219Y-63597491D01*
X182226216Y-63597490D01*
X182226215Y-63597490D01*
X182159987Y-63577400D01*
X182065838Y-63548840D01*
X181991937Y-63509339D01*
X181918035Y-63469838D01*
X181788484Y-63363518D01*
X181682164Y-63233967D01*
X181642663Y-63160065D01*
X181603162Y-63086164D01*
X181554511Y-62925783D01*
X181538084Y-62759001D01*
X181554511Y-62592219D01*
X181603162Y-62431838D01*
X181642663Y-62357937D01*
X181682164Y-62284035D01*
X181788484Y-62154484D01*
X181918035Y-62048164D01*
X181991937Y-62008663D01*
X182065838Y-61969162D01*
X182159987Y-61940602D01*
X182226215Y-61920512D01*
X182226216Y-61920512D01*
X182226219Y-61920511D01*
X182351205Y-61908201D01*
X182434797Y-61908201D01*
X182559783Y-61920511D01*
X182559783Y-61920511D01*
G37*
G36*
X185099783Y-61920511D02*
G01*
X185099786Y-61920512D01*
X185099787Y-61920512D01*
X185166015Y-61940602D01*
X185260164Y-61969162D01*
X185334065Y-62008663D01*
X185407967Y-62048164D01*
X185537518Y-62154484D01*
X185643838Y-62284035D01*
X185683339Y-62357937D01*
X185722840Y-62431838D01*
X185771491Y-62592219D01*
X185787918Y-62759001D01*
X185771491Y-62925783D01*
X185722840Y-63086164D01*
X185683339Y-63160065D01*
X185643838Y-63233967D01*
X185537518Y-63363518D01*
X185407967Y-63469838D01*
X185334065Y-63509339D01*
X185260164Y-63548840D01*
X185166015Y-63577400D01*
X185099787Y-63597490D01*
X185099786Y-63597490D01*
X185099783Y-63597491D01*
X184974797Y-63609801D01*
X184891205Y-63609801D01*
X184766219Y-63597491D01*
X184766216Y-63597490D01*
X184766215Y-63597490D01*
X184699987Y-63577400D01*
X184605838Y-63548840D01*
X184531937Y-63509339D01*
X184458035Y-63469838D01*
X184328484Y-63363518D01*
X184222164Y-63233967D01*
X184182663Y-63160065D01*
X184143162Y-63086164D01*
X184094511Y-62925783D01*
X184078084Y-62759001D01*
X184094511Y-62592219D01*
X184143162Y-62431838D01*
X184182663Y-62357937D01*
X184222164Y-62284035D01*
X184328484Y-62154484D01*
X184458035Y-62048164D01*
X184531937Y-62008663D01*
X184605838Y-61969162D01*
X184699987Y-61940602D01*
X184766215Y-61920512D01*
X184766216Y-61920512D01*
X184766219Y-61920511D01*
X184891205Y-61908201D01*
X184974797Y-61908201D01*
X185099783Y-61920511D01*
X185099783Y-61920511D01*
G37*
G36*
X145479783Y-61920511D02*
G01*
X145479786Y-61920512D01*
X145479787Y-61920512D01*
X145546015Y-61940602D01*
X145640164Y-61969162D01*
X145714065Y-62008663D01*
X145787967Y-62048164D01*
X145917518Y-62154484D01*
X146023838Y-62284035D01*
X146063339Y-62357937D01*
X146102840Y-62431838D01*
X146151491Y-62592219D01*
X146167918Y-62759001D01*
X146151491Y-62925783D01*
X146102840Y-63086164D01*
X146063339Y-63160065D01*
X146023838Y-63233967D01*
X145917518Y-63363518D01*
X145787967Y-63469838D01*
X145714065Y-63509339D01*
X145640164Y-63548840D01*
X145546015Y-63577400D01*
X145479787Y-63597490D01*
X145479786Y-63597490D01*
X145479783Y-63597491D01*
X145354797Y-63609801D01*
X145271205Y-63609801D01*
X145146219Y-63597491D01*
X145146216Y-63597490D01*
X145146215Y-63597490D01*
X145079987Y-63577400D01*
X144985838Y-63548840D01*
X144911937Y-63509339D01*
X144838035Y-63469838D01*
X144708484Y-63363518D01*
X144602164Y-63233967D01*
X144562663Y-63160065D01*
X144523162Y-63086164D01*
X144474511Y-62925783D01*
X144458084Y-62759001D01*
X144474511Y-62592219D01*
X144523162Y-62431838D01*
X144562663Y-62357937D01*
X144602164Y-62284035D01*
X144708484Y-62154484D01*
X144838035Y-62048164D01*
X144911937Y-62008663D01*
X144985838Y-61969162D01*
X145079987Y-61940602D01*
X145146215Y-61920512D01*
X145146216Y-61920512D01*
X145146219Y-61920511D01*
X145271205Y-61908201D01*
X145354797Y-61908201D01*
X145479783Y-61920511D01*
X145479783Y-61920511D01*
G37*
G36*
X148019783Y-61920511D02*
G01*
X148019786Y-61920512D01*
X148019787Y-61920512D01*
X148086015Y-61940602D01*
X148180164Y-61969162D01*
X148254065Y-62008663D01*
X148327967Y-62048164D01*
X148457518Y-62154484D01*
X148563838Y-62284035D01*
X148603339Y-62357937D01*
X148642840Y-62431838D01*
X148691491Y-62592219D01*
X148707918Y-62759001D01*
X148691491Y-62925783D01*
X148642840Y-63086164D01*
X148603339Y-63160065D01*
X148563838Y-63233967D01*
X148457518Y-63363518D01*
X148327967Y-63469838D01*
X148254065Y-63509339D01*
X148180164Y-63548840D01*
X148086015Y-63577400D01*
X148019787Y-63597490D01*
X148019786Y-63597490D01*
X148019783Y-63597491D01*
X147894797Y-63609801D01*
X147811205Y-63609801D01*
X147686219Y-63597491D01*
X147686216Y-63597490D01*
X147686215Y-63597490D01*
X147619987Y-63577400D01*
X147525838Y-63548840D01*
X147451937Y-63509339D01*
X147378035Y-63469838D01*
X147248484Y-63363518D01*
X147142164Y-63233967D01*
X147102663Y-63160065D01*
X147063162Y-63086164D01*
X147014511Y-62925783D01*
X146998084Y-62759001D01*
X147014511Y-62592219D01*
X147063162Y-62431838D01*
X147102663Y-62357937D01*
X147142164Y-62284035D01*
X147248484Y-62154484D01*
X147378035Y-62048164D01*
X147451937Y-62008663D01*
X147525838Y-61969162D01*
X147619987Y-61940602D01*
X147686215Y-61920512D01*
X147686216Y-61920512D01*
X147686219Y-61920511D01*
X147811205Y-61908201D01*
X147894797Y-61908201D01*
X148019783Y-61920511D01*
X148019783Y-61920511D01*
G37*
G36*
X163259783Y-61920511D02*
G01*
X163259786Y-61920512D01*
X163259787Y-61920512D01*
X163326015Y-61940602D01*
X163420164Y-61969162D01*
X163494065Y-62008663D01*
X163567967Y-62048164D01*
X163697518Y-62154484D01*
X163803838Y-62284035D01*
X163843339Y-62357937D01*
X163882840Y-62431838D01*
X163931491Y-62592219D01*
X163947918Y-62759001D01*
X163931491Y-62925783D01*
X163882840Y-63086164D01*
X163843339Y-63160065D01*
X163803838Y-63233967D01*
X163697518Y-63363518D01*
X163567967Y-63469838D01*
X163494065Y-63509339D01*
X163420164Y-63548840D01*
X163326015Y-63577400D01*
X163259787Y-63597490D01*
X163259786Y-63597490D01*
X163259783Y-63597491D01*
X163134797Y-63609801D01*
X163051205Y-63609801D01*
X162926219Y-63597491D01*
X162926216Y-63597490D01*
X162926215Y-63597490D01*
X162859987Y-63577400D01*
X162765838Y-63548840D01*
X162691937Y-63509339D01*
X162618035Y-63469838D01*
X162488484Y-63363518D01*
X162382164Y-63233967D01*
X162342663Y-63160065D01*
X162303162Y-63086164D01*
X162254511Y-62925783D01*
X162238084Y-62759001D01*
X162254511Y-62592219D01*
X162303162Y-62431838D01*
X162342663Y-62357937D01*
X162382164Y-62284035D01*
X162488484Y-62154484D01*
X162618035Y-62048164D01*
X162691937Y-62008663D01*
X162765838Y-61969162D01*
X162859987Y-61940602D01*
X162926215Y-61920512D01*
X162926216Y-61920512D01*
X162926219Y-61920511D01*
X163051205Y-61908201D01*
X163134797Y-61908201D01*
X163259783Y-61920511D01*
X163259783Y-61920511D01*
G37*
G36*
X153099783Y-61920511D02*
G01*
X153099786Y-61920512D01*
X153099787Y-61920512D01*
X153166015Y-61940602D01*
X153260164Y-61969162D01*
X153334065Y-62008663D01*
X153407967Y-62048164D01*
X153537518Y-62154484D01*
X153643838Y-62284035D01*
X153683339Y-62357937D01*
X153722840Y-62431838D01*
X153771491Y-62592219D01*
X153787918Y-62759001D01*
X153771491Y-62925783D01*
X153722840Y-63086164D01*
X153683339Y-63160065D01*
X153643838Y-63233967D01*
X153537518Y-63363518D01*
X153407967Y-63469838D01*
X153334065Y-63509339D01*
X153260164Y-63548840D01*
X153166015Y-63577400D01*
X153099787Y-63597490D01*
X153099786Y-63597490D01*
X153099783Y-63597491D01*
X152974797Y-63609801D01*
X152891205Y-63609801D01*
X152766219Y-63597491D01*
X152766216Y-63597490D01*
X152766215Y-63597490D01*
X152699987Y-63577400D01*
X152605838Y-63548840D01*
X152531937Y-63509339D01*
X152458035Y-63469838D01*
X152328484Y-63363518D01*
X152222164Y-63233967D01*
X152182663Y-63160065D01*
X152143162Y-63086164D01*
X152094511Y-62925783D01*
X152078084Y-62759001D01*
X152094511Y-62592219D01*
X152143162Y-62431838D01*
X152182663Y-62357937D01*
X152222164Y-62284035D01*
X152328484Y-62154484D01*
X152458035Y-62048164D01*
X152531937Y-62008663D01*
X152605838Y-61969162D01*
X152699987Y-61940602D01*
X152766215Y-61920512D01*
X152766216Y-61920512D01*
X152766219Y-61920511D01*
X152891205Y-61908201D01*
X152974797Y-61908201D01*
X153099783Y-61920511D01*
X153099783Y-61920511D01*
G37*
G36*
X155639783Y-61920511D02*
G01*
X155639786Y-61920512D01*
X155639787Y-61920512D01*
X155706015Y-61940602D01*
X155800164Y-61969162D01*
X155874065Y-62008663D01*
X155947967Y-62048164D01*
X156077518Y-62154484D01*
X156183838Y-62284035D01*
X156223339Y-62357937D01*
X156262840Y-62431838D01*
X156311491Y-62592219D01*
X156327918Y-62759001D01*
X156311491Y-62925783D01*
X156262840Y-63086164D01*
X156223339Y-63160065D01*
X156183838Y-63233967D01*
X156077518Y-63363518D01*
X155947967Y-63469838D01*
X155874065Y-63509339D01*
X155800164Y-63548840D01*
X155706015Y-63577400D01*
X155639787Y-63597490D01*
X155639786Y-63597490D01*
X155639783Y-63597491D01*
X155514797Y-63609801D01*
X155431205Y-63609801D01*
X155306219Y-63597491D01*
X155306216Y-63597490D01*
X155306215Y-63597490D01*
X155239987Y-63577400D01*
X155145838Y-63548840D01*
X155071937Y-63509339D01*
X154998035Y-63469838D01*
X154868484Y-63363518D01*
X154762164Y-63233967D01*
X154722663Y-63160065D01*
X154683162Y-63086164D01*
X154634511Y-62925783D01*
X154618084Y-62759001D01*
X154634511Y-62592219D01*
X154683162Y-62431838D01*
X154722663Y-62357937D01*
X154762164Y-62284035D01*
X154868484Y-62154484D01*
X154998035Y-62048164D01*
X155071937Y-62008663D01*
X155145838Y-61969162D01*
X155239987Y-61940602D01*
X155306215Y-61920512D01*
X155306216Y-61920512D01*
X155306219Y-61920511D01*
X155431205Y-61908201D01*
X155514797Y-61908201D01*
X155639783Y-61920511D01*
X155639783Y-61920511D01*
G37*
G36*
X158179783Y-61920511D02*
G01*
X158179786Y-61920512D01*
X158179787Y-61920512D01*
X158246015Y-61940602D01*
X158340164Y-61969162D01*
X158414065Y-62008663D01*
X158487967Y-62048164D01*
X158617518Y-62154484D01*
X158723838Y-62284035D01*
X158763339Y-62357937D01*
X158802840Y-62431838D01*
X158851491Y-62592219D01*
X158867918Y-62759001D01*
X158851491Y-62925783D01*
X158802840Y-63086164D01*
X158763339Y-63160065D01*
X158723838Y-63233967D01*
X158617518Y-63363518D01*
X158487967Y-63469838D01*
X158414065Y-63509339D01*
X158340164Y-63548840D01*
X158246015Y-63577400D01*
X158179787Y-63597490D01*
X158179786Y-63597490D01*
X158179783Y-63597491D01*
X158054797Y-63609801D01*
X157971205Y-63609801D01*
X157846219Y-63597491D01*
X157846216Y-63597490D01*
X157846215Y-63597490D01*
X157779987Y-63577400D01*
X157685838Y-63548840D01*
X157611937Y-63509339D01*
X157538035Y-63469838D01*
X157408484Y-63363518D01*
X157302164Y-63233967D01*
X157262663Y-63160065D01*
X157223162Y-63086164D01*
X157174511Y-62925783D01*
X157158084Y-62759001D01*
X157174511Y-62592219D01*
X157223162Y-62431838D01*
X157262663Y-62357937D01*
X157302164Y-62284035D01*
X157408484Y-62154484D01*
X157538035Y-62048164D01*
X157611937Y-62008663D01*
X157685838Y-61969162D01*
X157779987Y-61940602D01*
X157846215Y-61920512D01*
X157846216Y-61920512D01*
X157846219Y-61920511D01*
X157971205Y-61908201D01*
X158054797Y-61908201D01*
X158179783Y-61920511D01*
X158179783Y-61920511D01*
G37*
G36*
X160719783Y-61920511D02*
G01*
X160719786Y-61920512D01*
X160719787Y-61920512D01*
X160786015Y-61940602D01*
X160880164Y-61969162D01*
X160954065Y-62008663D01*
X161027967Y-62048164D01*
X161157518Y-62154484D01*
X161263838Y-62284035D01*
X161303339Y-62357937D01*
X161342840Y-62431838D01*
X161391491Y-62592219D01*
X161407918Y-62759001D01*
X161391491Y-62925783D01*
X161342840Y-63086164D01*
X161303339Y-63160065D01*
X161263838Y-63233967D01*
X161157518Y-63363518D01*
X161027967Y-63469838D01*
X160954065Y-63509339D01*
X160880164Y-63548840D01*
X160786015Y-63577400D01*
X160719787Y-63597490D01*
X160719786Y-63597490D01*
X160719783Y-63597491D01*
X160594797Y-63609801D01*
X160511205Y-63609801D01*
X160386219Y-63597491D01*
X160386216Y-63597490D01*
X160386215Y-63597490D01*
X160319987Y-63577400D01*
X160225838Y-63548840D01*
X160151937Y-63509339D01*
X160078035Y-63469838D01*
X159948484Y-63363518D01*
X159842164Y-63233967D01*
X159802663Y-63160065D01*
X159763162Y-63086164D01*
X159714511Y-62925783D01*
X159698084Y-62759001D01*
X159714511Y-62592219D01*
X159763162Y-62431838D01*
X159802663Y-62357937D01*
X159842164Y-62284035D01*
X159948484Y-62154484D01*
X160078035Y-62048164D01*
X160151937Y-62008663D01*
X160225838Y-61969162D01*
X160319987Y-61940602D01*
X160386215Y-61920512D01*
X160386216Y-61920512D01*
X160386219Y-61920511D01*
X160511205Y-61908201D01*
X160594797Y-61908201D01*
X160719783Y-61920511D01*
X160719783Y-61920511D01*
G37*
G36*
X167319783Y-61920511D02*
G01*
X167319786Y-61920512D01*
X167319787Y-61920512D01*
X167386015Y-61940602D01*
X167480164Y-61969162D01*
X167554065Y-62008663D01*
X167627967Y-62048164D01*
X167757518Y-62154484D01*
X167863838Y-62284035D01*
X167903339Y-62357937D01*
X167942840Y-62431838D01*
X167991491Y-62592219D01*
X168007918Y-62759001D01*
X167991491Y-62925783D01*
X167942840Y-63086164D01*
X167903339Y-63160065D01*
X167863838Y-63233967D01*
X167757518Y-63363518D01*
X167627967Y-63469838D01*
X167554065Y-63509339D01*
X167480164Y-63548840D01*
X167386015Y-63577400D01*
X167319787Y-63597490D01*
X167319786Y-63597490D01*
X167319783Y-63597491D01*
X167194797Y-63609801D01*
X167111205Y-63609801D01*
X166986219Y-63597491D01*
X166986216Y-63597490D01*
X166986215Y-63597490D01*
X166919987Y-63577400D01*
X166825838Y-63548840D01*
X166751937Y-63509339D01*
X166678035Y-63469838D01*
X166548484Y-63363518D01*
X166442164Y-63233967D01*
X166402663Y-63160065D01*
X166363162Y-63086164D01*
X166314511Y-62925783D01*
X166298084Y-62759001D01*
X166314511Y-62592219D01*
X166363162Y-62431838D01*
X166402663Y-62357937D01*
X166442164Y-62284035D01*
X166548484Y-62154484D01*
X166678035Y-62048164D01*
X166751937Y-62008663D01*
X166825838Y-61969162D01*
X166919987Y-61940602D01*
X166986215Y-61920512D01*
X166986216Y-61920512D01*
X166986219Y-61920511D01*
X167111205Y-61908201D01*
X167194797Y-61908201D01*
X167319783Y-61920511D01*
X167319783Y-61920511D01*
G37*
G36*
X169859783Y-61920511D02*
G01*
X169859786Y-61920512D01*
X169859787Y-61920512D01*
X169926015Y-61940602D01*
X170020164Y-61969162D01*
X170094065Y-62008663D01*
X170167967Y-62048164D01*
X170297518Y-62154484D01*
X170403838Y-62284035D01*
X170443339Y-62357937D01*
X170482840Y-62431838D01*
X170531491Y-62592219D01*
X170547918Y-62759001D01*
X170531491Y-62925783D01*
X170482840Y-63086164D01*
X170443339Y-63160065D01*
X170403838Y-63233967D01*
X170297518Y-63363518D01*
X170167967Y-63469838D01*
X170094065Y-63509339D01*
X170020164Y-63548840D01*
X169926015Y-63577400D01*
X169859787Y-63597490D01*
X169859786Y-63597490D01*
X169859783Y-63597491D01*
X169734797Y-63609801D01*
X169651205Y-63609801D01*
X169526219Y-63597491D01*
X169526216Y-63597490D01*
X169526215Y-63597490D01*
X169459987Y-63577400D01*
X169365838Y-63548840D01*
X169291937Y-63509339D01*
X169218035Y-63469838D01*
X169088484Y-63363518D01*
X168982164Y-63233967D01*
X168942663Y-63160065D01*
X168903162Y-63086164D01*
X168854511Y-62925783D01*
X168838084Y-62759001D01*
X168854511Y-62592219D01*
X168903162Y-62431838D01*
X168942663Y-62357937D01*
X168982164Y-62284035D01*
X169088484Y-62154484D01*
X169218035Y-62048164D01*
X169291937Y-62008663D01*
X169365838Y-61969162D01*
X169459987Y-61940602D01*
X169526215Y-61920512D01*
X169526216Y-61920512D01*
X169526219Y-61920511D01*
X169651205Y-61908201D01*
X169734797Y-61908201D01*
X169859783Y-61920511D01*
X169859783Y-61920511D01*
G37*
G36*
X172399783Y-61920511D02*
G01*
X172399786Y-61920512D01*
X172399787Y-61920512D01*
X172466015Y-61940602D01*
X172560164Y-61969162D01*
X172634065Y-62008663D01*
X172707967Y-62048164D01*
X172837518Y-62154484D01*
X172943838Y-62284035D01*
X172983339Y-62357937D01*
X173022840Y-62431838D01*
X173071491Y-62592219D01*
X173087918Y-62759001D01*
X173071491Y-62925783D01*
X173022840Y-63086164D01*
X172983339Y-63160065D01*
X172943838Y-63233967D01*
X172837518Y-63363518D01*
X172707967Y-63469838D01*
X172634065Y-63509339D01*
X172560164Y-63548840D01*
X172466015Y-63577400D01*
X172399787Y-63597490D01*
X172399786Y-63597490D01*
X172399783Y-63597491D01*
X172274797Y-63609801D01*
X172191205Y-63609801D01*
X172066219Y-63597491D01*
X172066216Y-63597490D01*
X172066215Y-63597490D01*
X171999987Y-63577400D01*
X171905838Y-63548840D01*
X171831937Y-63509339D01*
X171758035Y-63469838D01*
X171628484Y-63363518D01*
X171522164Y-63233967D01*
X171482663Y-63160065D01*
X171443162Y-63086164D01*
X171394511Y-62925783D01*
X171378084Y-62759001D01*
X171394511Y-62592219D01*
X171443162Y-62431838D01*
X171482663Y-62357937D01*
X171522164Y-62284035D01*
X171628484Y-62154484D01*
X171758035Y-62048164D01*
X171831937Y-62008663D01*
X171905838Y-61969162D01*
X171999987Y-61940602D01*
X172066215Y-61920512D01*
X172066216Y-61920512D01*
X172066219Y-61920511D01*
X172191205Y-61908201D01*
X172274797Y-61908201D01*
X172399783Y-61920511D01*
X172399783Y-61920511D01*
G37*
G36*
X174939783Y-61920511D02*
G01*
X174939786Y-61920512D01*
X174939787Y-61920512D01*
X175006015Y-61940602D01*
X175100164Y-61969162D01*
X175174065Y-62008663D01*
X175247967Y-62048164D01*
X175377518Y-62154484D01*
X175483838Y-62284035D01*
X175523339Y-62357937D01*
X175562840Y-62431838D01*
X175611491Y-62592219D01*
X175627918Y-62759001D01*
X175611491Y-62925783D01*
X175562840Y-63086164D01*
X175523339Y-63160065D01*
X175483838Y-63233967D01*
X175377518Y-63363518D01*
X175247967Y-63469838D01*
X175174065Y-63509339D01*
X175100164Y-63548840D01*
X175006015Y-63577400D01*
X174939787Y-63597490D01*
X174939786Y-63597490D01*
X174939783Y-63597491D01*
X174814797Y-63609801D01*
X174731205Y-63609801D01*
X174606219Y-63597491D01*
X174606216Y-63597490D01*
X174606215Y-63597490D01*
X174539987Y-63577400D01*
X174445838Y-63548840D01*
X174371937Y-63509339D01*
X174298035Y-63469838D01*
X174168484Y-63363518D01*
X174062164Y-63233967D01*
X174022663Y-63160065D01*
X173983162Y-63086164D01*
X173934511Y-62925783D01*
X173918084Y-62759001D01*
X173934511Y-62592219D01*
X173983162Y-62431838D01*
X174022663Y-62357937D01*
X174062164Y-62284035D01*
X174168484Y-62154484D01*
X174298035Y-62048164D01*
X174371937Y-62008663D01*
X174445838Y-61969162D01*
X174539987Y-61940602D01*
X174606215Y-61920512D01*
X174606216Y-61920512D01*
X174606219Y-61920511D01*
X174731205Y-61908201D01*
X174814797Y-61908201D01*
X174939783Y-61920511D01*
X174939783Y-61920511D01*
G37*
G36*
X177479783Y-61920511D02*
G01*
X177479786Y-61920512D01*
X177479787Y-61920512D01*
X177546015Y-61940602D01*
X177640164Y-61969162D01*
X177714065Y-62008663D01*
X177787967Y-62048164D01*
X177917518Y-62154484D01*
X178023838Y-62284035D01*
X178063339Y-62357937D01*
X178102840Y-62431838D01*
X178151491Y-62592219D01*
X178167918Y-62759001D01*
X178151491Y-62925783D01*
X178102840Y-63086164D01*
X178063339Y-63160065D01*
X178023838Y-63233967D01*
X177917518Y-63363518D01*
X177787967Y-63469838D01*
X177714065Y-63509339D01*
X177640164Y-63548840D01*
X177546015Y-63577400D01*
X177479787Y-63597490D01*
X177479786Y-63597490D01*
X177479783Y-63597491D01*
X177354797Y-63609801D01*
X177271205Y-63609801D01*
X177146219Y-63597491D01*
X177146216Y-63597490D01*
X177146215Y-63597490D01*
X177079987Y-63577400D01*
X176985838Y-63548840D01*
X176911937Y-63509339D01*
X176838035Y-63469838D01*
X176708484Y-63363518D01*
X176602164Y-63233967D01*
X176562663Y-63160065D01*
X176523162Y-63086164D01*
X176474511Y-62925783D01*
X176458084Y-62759001D01*
X176474511Y-62592219D01*
X176523162Y-62431838D01*
X176562663Y-62357937D01*
X176602164Y-62284035D01*
X176708484Y-62154484D01*
X176838035Y-62048164D01*
X176911937Y-62008663D01*
X176985838Y-61969162D01*
X177079987Y-61940602D01*
X177146215Y-61920512D01*
X177146216Y-61920512D01*
X177146219Y-61920511D01*
X177271205Y-61908201D01*
X177354797Y-61908201D01*
X177479783Y-61920511D01*
X177479783Y-61920511D01*
G37*
G36*
X180019783Y-61920511D02*
G01*
X180019786Y-61920512D01*
X180019787Y-61920512D01*
X180086015Y-61940602D01*
X180180164Y-61969162D01*
X180254065Y-62008663D01*
X180327967Y-62048164D01*
X180457518Y-62154484D01*
X180563838Y-62284035D01*
X180603339Y-62357937D01*
X180642840Y-62431838D01*
X180691491Y-62592219D01*
X180707918Y-62759001D01*
X180691491Y-62925783D01*
X180642840Y-63086164D01*
X180603339Y-63160065D01*
X180563838Y-63233967D01*
X180457518Y-63363518D01*
X180327967Y-63469838D01*
X180254065Y-63509339D01*
X180180164Y-63548840D01*
X180086015Y-63577400D01*
X180019787Y-63597490D01*
X180019786Y-63597490D01*
X180019783Y-63597491D01*
X179894797Y-63609801D01*
X179811205Y-63609801D01*
X179686219Y-63597491D01*
X179686216Y-63597490D01*
X179686215Y-63597490D01*
X179619987Y-63577400D01*
X179525838Y-63548840D01*
X179451937Y-63509339D01*
X179378035Y-63469838D01*
X179248484Y-63363518D01*
X179142164Y-63233967D01*
X179102663Y-63160065D01*
X179063162Y-63086164D01*
X179014511Y-62925783D01*
X178998084Y-62759001D01*
X179014511Y-62592219D01*
X179063162Y-62431838D01*
X179102663Y-62357937D01*
X179142164Y-62284035D01*
X179248484Y-62154484D01*
X179378035Y-62048164D01*
X179451937Y-62008663D01*
X179525838Y-61969162D01*
X179619987Y-61940602D01*
X179686215Y-61920512D01*
X179686216Y-61920512D01*
X179686219Y-61920511D01*
X179811205Y-61908201D01*
X179894797Y-61908201D01*
X180019783Y-61920511D01*
X180019783Y-61920511D01*
G37*
G36*
X142939783Y-61920511D02*
G01*
X142939786Y-61920512D01*
X142939787Y-61920512D01*
X143006015Y-61940602D01*
X143100164Y-61969162D01*
X143174065Y-62008663D01*
X143247967Y-62048164D01*
X143377518Y-62154484D01*
X143483838Y-62284035D01*
X143523339Y-62357937D01*
X143562840Y-62431838D01*
X143611491Y-62592219D01*
X143627918Y-62759001D01*
X143611491Y-62925783D01*
X143562840Y-63086164D01*
X143523339Y-63160065D01*
X143483838Y-63233967D01*
X143377518Y-63363518D01*
X143247967Y-63469838D01*
X143174065Y-63509339D01*
X143100164Y-63548840D01*
X143006015Y-63577400D01*
X142939787Y-63597490D01*
X142939786Y-63597490D01*
X142939783Y-63597491D01*
X142814797Y-63609801D01*
X142731205Y-63609801D01*
X142606219Y-63597491D01*
X142606216Y-63597490D01*
X142606215Y-63597490D01*
X142539987Y-63577400D01*
X142445838Y-63548840D01*
X142371937Y-63509339D01*
X142298035Y-63469838D01*
X142168484Y-63363518D01*
X142062164Y-63233967D01*
X142022663Y-63160065D01*
X141983162Y-63086164D01*
X141934511Y-62925783D01*
X141918084Y-62759001D01*
X141934511Y-62592219D01*
X141983162Y-62431838D01*
X142022663Y-62357937D01*
X142062164Y-62284035D01*
X142168484Y-62154484D01*
X142298035Y-62048164D01*
X142371937Y-62008663D01*
X142445838Y-61969162D01*
X142539987Y-61940602D01*
X142606215Y-61920512D01*
X142606216Y-61920512D01*
X142606219Y-61920511D01*
X142731205Y-61908201D01*
X142814797Y-61908201D01*
X142939783Y-61920511D01*
X142939783Y-61920511D01*
G37*
G36*
X140399783Y-61920511D02*
G01*
X140399786Y-61920512D01*
X140399787Y-61920512D01*
X140466015Y-61940602D01*
X140560164Y-61969162D01*
X140634065Y-62008663D01*
X140707967Y-62048164D01*
X140837518Y-62154484D01*
X140943838Y-62284035D01*
X140983339Y-62357937D01*
X141022840Y-62431838D01*
X141071491Y-62592219D01*
X141087918Y-62759001D01*
X141071491Y-62925783D01*
X141022840Y-63086164D01*
X140983339Y-63160065D01*
X140943838Y-63233967D01*
X140837518Y-63363518D01*
X140707967Y-63469838D01*
X140634065Y-63509339D01*
X140560164Y-63548840D01*
X140466015Y-63577400D01*
X140399787Y-63597490D01*
X140399786Y-63597490D01*
X140399783Y-63597491D01*
X140274797Y-63609801D01*
X140191205Y-63609801D01*
X140066219Y-63597491D01*
X140066216Y-63597490D01*
X140066215Y-63597490D01*
X139999987Y-63577400D01*
X139905838Y-63548840D01*
X139831937Y-63509339D01*
X139758035Y-63469838D01*
X139628484Y-63363518D01*
X139522164Y-63233967D01*
X139482663Y-63160065D01*
X139443162Y-63086164D01*
X139394511Y-62925783D01*
X139378084Y-62759001D01*
X139394511Y-62592219D01*
X139443162Y-62431838D01*
X139482663Y-62357937D01*
X139522164Y-62284035D01*
X139628484Y-62154484D01*
X139758035Y-62048164D01*
X139831937Y-62008663D01*
X139905838Y-61969162D01*
X139999987Y-61940602D01*
X140066215Y-61920512D01*
X140066216Y-61920512D01*
X140066219Y-61920511D01*
X140191205Y-61908201D01*
X140274797Y-61908201D01*
X140399783Y-61920511D01*
X140399783Y-61920511D01*
G37*
G36*
X150559783Y-61920511D02*
G01*
X150559786Y-61920512D01*
X150559787Y-61920512D01*
X150626015Y-61940602D01*
X150720164Y-61969162D01*
X150794065Y-62008663D01*
X150867967Y-62048164D01*
X150997518Y-62154484D01*
X151103838Y-62284035D01*
X151143339Y-62357937D01*
X151182840Y-62431838D01*
X151231491Y-62592219D01*
X151247918Y-62759001D01*
X151231491Y-62925783D01*
X151182840Y-63086164D01*
X151143339Y-63160065D01*
X151103838Y-63233967D01*
X150997518Y-63363518D01*
X150867967Y-63469838D01*
X150794065Y-63509339D01*
X150720164Y-63548840D01*
X150626015Y-63577400D01*
X150559787Y-63597490D01*
X150559786Y-63597490D01*
X150559783Y-63597491D01*
X150434797Y-63609801D01*
X150351205Y-63609801D01*
X150226219Y-63597491D01*
X150226216Y-63597490D01*
X150226215Y-63597490D01*
X150159987Y-63577400D01*
X150065838Y-63548840D01*
X149991937Y-63509339D01*
X149918035Y-63469838D01*
X149788484Y-63363518D01*
X149682164Y-63233967D01*
X149642663Y-63160065D01*
X149603162Y-63086164D01*
X149554511Y-62925783D01*
X149538084Y-62759001D01*
X149554511Y-62592219D01*
X149603162Y-62431838D01*
X149642663Y-62357937D01*
X149682164Y-62284035D01*
X149788484Y-62154484D01*
X149918035Y-62048164D01*
X149991937Y-62008663D01*
X150065838Y-61969162D01*
X150159987Y-61940602D01*
X150226215Y-61920512D01*
X150226216Y-61920512D01*
X150226219Y-61920511D01*
X150351205Y-61908201D01*
X150434797Y-61908201D01*
X150559783Y-61920511D01*
X150559783Y-61920511D01*
G37*
M02*
