G04 #@! TF.GenerationSoftware,KiCad,Pcbnew,(5.1.4-0-10_14)*
G04 #@! TF.CreationDate,2020-01-20T11:10:59-05:00*
G04 #@! TF.ProjectId,motor_controller,6d6f746f-725f-4636-9f6e-74726f6c6c65,rev?*
G04 #@! TF.SameCoordinates,Original*
G04 #@! TF.FileFunction,Paste,Top*
G04 #@! TF.FilePolarity,Positive*
%FSLAX46Y46*%
G04 Gerber Fmt 4.6, Leading zero omitted, Abs format (unit mm)*
G04 Created by KiCad (PCBNEW (5.1.4-0-10_14)) date 2020-01-20 11:10:59*
%MOMM*%
%LPD*%
G04 APERTURE LIST*
%ADD10C,0.100000*%
%ADD11C,0.975000*%
%ADD12R,0.300000X0.650000*%
%ADD13R,1.000000X0.680000*%
G04 APERTURE END LIST*
D10*
G36*
X145324742Y-97548374D02*
G01*
X145348403Y-97551884D01*
X145371607Y-97557696D01*
X145394129Y-97565754D01*
X145415753Y-97575982D01*
X145436270Y-97588279D01*
X145455483Y-97602529D01*
X145473207Y-97618593D01*
X145489271Y-97636317D01*
X145503521Y-97655530D01*
X145515818Y-97676047D01*
X145526046Y-97697671D01*
X145534104Y-97720193D01*
X145539916Y-97743397D01*
X145543426Y-97767058D01*
X145544600Y-97790950D01*
X145544600Y-98703450D01*
X145543426Y-98727342D01*
X145539916Y-98751003D01*
X145534104Y-98774207D01*
X145526046Y-98796729D01*
X145515818Y-98818353D01*
X145503521Y-98838870D01*
X145489271Y-98858083D01*
X145473207Y-98875807D01*
X145455483Y-98891871D01*
X145436270Y-98906121D01*
X145415753Y-98918418D01*
X145394129Y-98928646D01*
X145371607Y-98936704D01*
X145348403Y-98942516D01*
X145324742Y-98946026D01*
X145300850Y-98947200D01*
X144813350Y-98947200D01*
X144789458Y-98946026D01*
X144765797Y-98942516D01*
X144742593Y-98936704D01*
X144720071Y-98928646D01*
X144698447Y-98918418D01*
X144677930Y-98906121D01*
X144658717Y-98891871D01*
X144640993Y-98875807D01*
X144624929Y-98858083D01*
X144610679Y-98838870D01*
X144598382Y-98818353D01*
X144588154Y-98796729D01*
X144580096Y-98774207D01*
X144574284Y-98751003D01*
X144570774Y-98727342D01*
X144569600Y-98703450D01*
X144569600Y-97790950D01*
X144570774Y-97767058D01*
X144574284Y-97743397D01*
X144580096Y-97720193D01*
X144588154Y-97697671D01*
X144598382Y-97676047D01*
X144610679Y-97655530D01*
X144624929Y-97636317D01*
X144640993Y-97618593D01*
X144658717Y-97602529D01*
X144677930Y-97588279D01*
X144698447Y-97575982D01*
X144720071Y-97565754D01*
X144742593Y-97557696D01*
X144765797Y-97551884D01*
X144789458Y-97548374D01*
X144813350Y-97547200D01*
X145300850Y-97547200D01*
X145324742Y-97548374D01*
X145324742Y-97548374D01*
G37*
D11*
X145057100Y-98247200D03*
D10*
G36*
X143449742Y-97548374D02*
G01*
X143473403Y-97551884D01*
X143496607Y-97557696D01*
X143519129Y-97565754D01*
X143540753Y-97575982D01*
X143561270Y-97588279D01*
X143580483Y-97602529D01*
X143598207Y-97618593D01*
X143614271Y-97636317D01*
X143628521Y-97655530D01*
X143640818Y-97676047D01*
X143651046Y-97697671D01*
X143659104Y-97720193D01*
X143664916Y-97743397D01*
X143668426Y-97767058D01*
X143669600Y-97790950D01*
X143669600Y-98703450D01*
X143668426Y-98727342D01*
X143664916Y-98751003D01*
X143659104Y-98774207D01*
X143651046Y-98796729D01*
X143640818Y-98818353D01*
X143628521Y-98838870D01*
X143614271Y-98858083D01*
X143598207Y-98875807D01*
X143580483Y-98891871D01*
X143561270Y-98906121D01*
X143540753Y-98918418D01*
X143519129Y-98928646D01*
X143496607Y-98936704D01*
X143473403Y-98942516D01*
X143449742Y-98946026D01*
X143425850Y-98947200D01*
X142938350Y-98947200D01*
X142914458Y-98946026D01*
X142890797Y-98942516D01*
X142867593Y-98936704D01*
X142845071Y-98928646D01*
X142823447Y-98918418D01*
X142802930Y-98906121D01*
X142783717Y-98891871D01*
X142765993Y-98875807D01*
X142749929Y-98858083D01*
X142735679Y-98838870D01*
X142723382Y-98818353D01*
X142713154Y-98796729D01*
X142705096Y-98774207D01*
X142699284Y-98751003D01*
X142695774Y-98727342D01*
X142694600Y-98703450D01*
X142694600Y-97790950D01*
X142695774Y-97767058D01*
X142699284Y-97743397D01*
X142705096Y-97720193D01*
X142713154Y-97697671D01*
X142723382Y-97676047D01*
X142735679Y-97655530D01*
X142749929Y-97636317D01*
X142765993Y-97618593D01*
X142783717Y-97602529D01*
X142802930Y-97588279D01*
X142823447Y-97575982D01*
X142845071Y-97565754D01*
X142867593Y-97557696D01*
X142890797Y-97551884D01*
X142914458Y-97548374D01*
X142938350Y-97547200D01*
X143425850Y-97547200D01*
X143449742Y-97548374D01*
X143449742Y-97548374D01*
G37*
D11*
X143182100Y-98247200D03*
D10*
G36*
X162506742Y-75080974D02*
G01*
X162530403Y-75084484D01*
X162553607Y-75090296D01*
X162576129Y-75098354D01*
X162597753Y-75108582D01*
X162618270Y-75120879D01*
X162637483Y-75135129D01*
X162655207Y-75151193D01*
X162671271Y-75168917D01*
X162685521Y-75188130D01*
X162697818Y-75208647D01*
X162708046Y-75230271D01*
X162716104Y-75252793D01*
X162721916Y-75275997D01*
X162725426Y-75299658D01*
X162726600Y-75323550D01*
X162726600Y-75811050D01*
X162725426Y-75834942D01*
X162721916Y-75858603D01*
X162716104Y-75881807D01*
X162708046Y-75904329D01*
X162697818Y-75925953D01*
X162685521Y-75946470D01*
X162671271Y-75965683D01*
X162655207Y-75983407D01*
X162637483Y-75999471D01*
X162618270Y-76013721D01*
X162597753Y-76026018D01*
X162576129Y-76036246D01*
X162553607Y-76044304D01*
X162530403Y-76050116D01*
X162506742Y-76053626D01*
X162482850Y-76054800D01*
X161570350Y-76054800D01*
X161546458Y-76053626D01*
X161522797Y-76050116D01*
X161499593Y-76044304D01*
X161477071Y-76036246D01*
X161455447Y-76026018D01*
X161434930Y-76013721D01*
X161415717Y-75999471D01*
X161397993Y-75983407D01*
X161381929Y-75965683D01*
X161367679Y-75946470D01*
X161355382Y-75925953D01*
X161345154Y-75904329D01*
X161337096Y-75881807D01*
X161331284Y-75858603D01*
X161327774Y-75834942D01*
X161326600Y-75811050D01*
X161326600Y-75323550D01*
X161327774Y-75299658D01*
X161331284Y-75275997D01*
X161337096Y-75252793D01*
X161345154Y-75230271D01*
X161355382Y-75208647D01*
X161367679Y-75188130D01*
X161381929Y-75168917D01*
X161397993Y-75151193D01*
X161415717Y-75135129D01*
X161434930Y-75120879D01*
X161455447Y-75108582D01*
X161477071Y-75098354D01*
X161499593Y-75090296D01*
X161522797Y-75084484D01*
X161546458Y-75080974D01*
X161570350Y-75079800D01*
X162482850Y-75079800D01*
X162506742Y-75080974D01*
X162506742Y-75080974D01*
G37*
D11*
X162026600Y-75567300D03*
D10*
G36*
X162506742Y-76955974D02*
G01*
X162530403Y-76959484D01*
X162553607Y-76965296D01*
X162576129Y-76973354D01*
X162597753Y-76983582D01*
X162618270Y-76995879D01*
X162637483Y-77010129D01*
X162655207Y-77026193D01*
X162671271Y-77043917D01*
X162685521Y-77063130D01*
X162697818Y-77083647D01*
X162708046Y-77105271D01*
X162716104Y-77127793D01*
X162721916Y-77150997D01*
X162725426Y-77174658D01*
X162726600Y-77198550D01*
X162726600Y-77686050D01*
X162725426Y-77709942D01*
X162721916Y-77733603D01*
X162716104Y-77756807D01*
X162708046Y-77779329D01*
X162697818Y-77800953D01*
X162685521Y-77821470D01*
X162671271Y-77840683D01*
X162655207Y-77858407D01*
X162637483Y-77874471D01*
X162618270Y-77888721D01*
X162597753Y-77901018D01*
X162576129Y-77911246D01*
X162553607Y-77919304D01*
X162530403Y-77925116D01*
X162506742Y-77928626D01*
X162482850Y-77929800D01*
X161570350Y-77929800D01*
X161546458Y-77928626D01*
X161522797Y-77925116D01*
X161499593Y-77919304D01*
X161477071Y-77911246D01*
X161455447Y-77901018D01*
X161434930Y-77888721D01*
X161415717Y-77874471D01*
X161397993Y-77858407D01*
X161381929Y-77840683D01*
X161367679Y-77821470D01*
X161355382Y-77800953D01*
X161345154Y-77779329D01*
X161337096Y-77756807D01*
X161331284Y-77733603D01*
X161327774Y-77709942D01*
X161326600Y-77686050D01*
X161326600Y-77198550D01*
X161327774Y-77174658D01*
X161331284Y-77150997D01*
X161337096Y-77127793D01*
X161345154Y-77105271D01*
X161355382Y-77083647D01*
X161367679Y-77063130D01*
X161381929Y-77043917D01*
X161397993Y-77026193D01*
X161415717Y-77010129D01*
X161434930Y-76995879D01*
X161455447Y-76983582D01*
X161477071Y-76973354D01*
X161499593Y-76965296D01*
X161522797Y-76959484D01*
X161546458Y-76955974D01*
X161570350Y-76954800D01*
X162482850Y-76954800D01*
X162506742Y-76955974D01*
X162506742Y-76955974D01*
G37*
D11*
X162026600Y-77442300D03*
D10*
G36*
X165046742Y-75080974D02*
G01*
X165070403Y-75084484D01*
X165093607Y-75090296D01*
X165116129Y-75098354D01*
X165137753Y-75108582D01*
X165158270Y-75120879D01*
X165177483Y-75135129D01*
X165195207Y-75151193D01*
X165211271Y-75168917D01*
X165225521Y-75188130D01*
X165237818Y-75208647D01*
X165248046Y-75230271D01*
X165256104Y-75252793D01*
X165261916Y-75275997D01*
X165265426Y-75299658D01*
X165266600Y-75323550D01*
X165266600Y-75811050D01*
X165265426Y-75834942D01*
X165261916Y-75858603D01*
X165256104Y-75881807D01*
X165248046Y-75904329D01*
X165237818Y-75925953D01*
X165225521Y-75946470D01*
X165211271Y-75965683D01*
X165195207Y-75983407D01*
X165177483Y-75999471D01*
X165158270Y-76013721D01*
X165137753Y-76026018D01*
X165116129Y-76036246D01*
X165093607Y-76044304D01*
X165070403Y-76050116D01*
X165046742Y-76053626D01*
X165022850Y-76054800D01*
X164110350Y-76054800D01*
X164086458Y-76053626D01*
X164062797Y-76050116D01*
X164039593Y-76044304D01*
X164017071Y-76036246D01*
X163995447Y-76026018D01*
X163974930Y-76013721D01*
X163955717Y-75999471D01*
X163937993Y-75983407D01*
X163921929Y-75965683D01*
X163907679Y-75946470D01*
X163895382Y-75925953D01*
X163885154Y-75904329D01*
X163877096Y-75881807D01*
X163871284Y-75858603D01*
X163867774Y-75834942D01*
X163866600Y-75811050D01*
X163866600Y-75323550D01*
X163867774Y-75299658D01*
X163871284Y-75275997D01*
X163877096Y-75252793D01*
X163885154Y-75230271D01*
X163895382Y-75208647D01*
X163907679Y-75188130D01*
X163921929Y-75168917D01*
X163937993Y-75151193D01*
X163955717Y-75135129D01*
X163974930Y-75120879D01*
X163995447Y-75108582D01*
X164017071Y-75098354D01*
X164039593Y-75090296D01*
X164062797Y-75084484D01*
X164086458Y-75080974D01*
X164110350Y-75079800D01*
X165022850Y-75079800D01*
X165046742Y-75080974D01*
X165046742Y-75080974D01*
G37*
D11*
X164566600Y-75567300D03*
D10*
G36*
X165046742Y-76955974D02*
G01*
X165070403Y-76959484D01*
X165093607Y-76965296D01*
X165116129Y-76973354D01*
X165137753Y-76983582D01*
X165158270Y-76995879D01*
X165177483Y-77010129D01*
X165195207Y-77026193D01*
X165211271Y-77043917D01*
X165225521Y-77063130D01*
X165237818Y-77083647D01*
X165248046Y-77105271D01*
X165256104Y-77127793D01*
X165261916Y-77150997D01*
X165265426Y-77174658D01*
X165266600Y-77198550D01*
X165266600Y-77686050D01*
X165265426Y-77709942D01*
X165261916Y-77733603D01*
X165256104Y-77756807D01*
X165248046Y-77779329D01*
X165237818Y-77800953D01*
X165225521Y-77821470D01*
X165211271Y-77840683D01*
X165195207Y-77858407D01*
X165177483Y-77874471D01*
X165158270Y-77888721D01*
X165137753Y-77901018D01*
X165116129Y-77911246D01*
X165093607Y-77919304D01*
X165070403Y-77925116D01*
X165046742Y-77928626D01*
X165022850Y-77929800D01*
X164110350Y-77929800D01*
X164086458Y-77928626D01*
X164062797Y-77925116D01*
X164039593Y-77919304D01*
X164017071Y-77911246D01*
X163995447Y-77901018D01*
X163974930Y-77888721D01*
X163955717Y-77874471D01*
X163937993Y-77858407D01*
X163921929Y-77840683D01*
X163907679Y-77821470D01*
X163895382Y-77800953D01*
X163885154Y-77779329D01*
X163877096Y-77756807D01*
X163871284Y-77733603D01*
X163867774Y-77709942D01*
X163866600Y-77686050D01*
X163866600Y-77198550D01*
X163867774Y-77174658D01*
X163871284Y-77150997D01*
X163877096Y-77127793D01*
X163885154Y-77105271D01*
X163895382Y-77083647D01*
X163907679Y-77063130D01*
X163921929Y-77043917D01*
X163937993Y-77026193D01*
X163955717Y-77010129D01*
X163974930Y-76995879D01*
X163995447Y-76983582D01*
X164017071Y-76973354D01*
X164039593Y-76965296D01*
X164062797Y-76959484D01*
X164086458Y-76955974D01*
X164110350Y-76954800D01*
X165022850Y-76954800D01*
X165046742Y-76955974D01*
X165046742Y-76955974D01*
G37*
D11*
X164566600Y-77442300D03*
D10*
G36*
X143525942Y-80911374D02*
G01*
X143549603Y-80914884D01*
X143572807Y-80920696D01*
X143595329Y-80928754D01*
X143616953Y-80938982D01*
X143637470Y-80951279D01*
X143656683Y-80965529D01*
X143674407Y-80981593D01*
X143690471Y-80999317D01*
X143704721Y-81018530D01*
X143717018Y-81039047D01*
X143727246Y-81060671D01*
X143735304Y-81083193D01*
X143741116Y-81106397D01*
X143744626Y-81130058D01*
X143745800Y-81153950D01*
X143745800Y-82066450D01*
X143744626Y-82090342D01*
X143741116Y-82114003D01*
X143735304Y-82137207D01*
X143727246Y-82159729D01*
X143717018Y-82181353D01*
X143704721Y-82201870D01*
X143690471Y-82221083D01*
X143674407Y-82238807D01*
X143656683Y-82254871D01*
X143637470Y-82269121D01*
X143616953Y-82281418D01*
X143595329Y-82291646D01*
X143572807Y-82299704D01*
X143549603Y-82305516D01*
X143525942Y-82309026D01*
X143502050Y-82310200D01*
X143014550Y-82310200D01*
X142990658Y-82309026D01*
X142966997Y-82305516D01*
X142943793Y-82299704D01*
X142921271Y-82291646D01*
X142899647Y-82281418D01*
X142879130Y-82269121D01*
X142859917Y-82254871D01*
X142842193Y-82238807D01*
X142826129Y-82221083D01*
X142811879Y-82201870D01*
X142799582Y-82181353D01*
X142789354Y-82159729D01*
X142781296Y-82137207D01*
X142775484Y-82114003D01*
X142771974Y-82090342D01*
X142770800Y-82066450D01*
X142770800Y-81153950D01*
X142771974Y-81130058D01*
X142775484Y-81106397D01*
X142781296Y-81083193D01*
X142789354Y-81060671D01*
X142799582Y-81039047D01*
X142811879Y-81018530D01*
X142826129Y-80999317D01*
X142842193Y-80981593D01*
X142859917Y-80965529D01*
X142879130Y-80951279D01*
X142899647Y-80938982D01*
X142921271Y-80928754D01*
X142943793Y-80920696D01*
X142966997Y-80914884D01*
X142990658Y-80911374D01*
X143014550Y-80910200D01*
X143502050Y-80910200D01*
X143525942Y-80911374D01*
X143525942Y-80911374D01*
G37*
D11*
X143258300Y-81610200D03*
D10*
G36*
X145400942Y-80911374D02*
G01*
X145424603Y-80914884D01*
X145447807Y-80920696D01*
X145470329Y-80928754D01*
X145491953Y-80938982D01*
X145512470Y-80951279D01*
X145531683Y-80965529D01*
X145549407Y-80981593D01*
X145565471Y-80999317D01*
X145579721Y-81018530D01*
X145592018Y-81039047D01*
X145602246Y-81060671D01*
X145610304Y-81083193D01*
X145616116Y-81106397D01*
X145619626Y-81130058D01*
X145620800Y-81153950D01*
X145620800Y-82066450D01*
X145619626Y-82090342D01*
X145616116Y-82114003D01*
X145610304Y-82137207D01*
X145602246Y-82159729D01*
X145592018Y-82181353D01*
X145579721Y-82201870D01*
X145565471Y-82221083D01*
X145549407Y-82238807D01*
X145531683Y-82254871D01*
X145512470Y-82269121D01*
X145491953Y-82281418D01*
X145470329Y-82291646D01*
X145447807Y-82299704D01*
X145424603Y-82305516D01*
X145400942Y-82309026D01*
X145377050Y-82310200D01*
X144889550Y-82310200D01*
X144865658Y-82309026D01*
X144841997Y-82305516D01*
X144818793Y-82299704D01*
X144796271Y-82291646D01*
X144774647Y-82281418D01*
X144754130Y-82269121D01*
X144734917Y-82254871D01*
X144717193Y-82238807D01*
X144701129Y-82221083D01*
X144686879Y-82201870D01*
X144674582Y-82181353D01*
X144664354Y-82159729D01*
X144656296Y-82137207D01*
X144650484Y-82114003D01*
X144646974Y-82090342D01*
X144645800Y-82066450D01*
X144645800Y-81153950D01*
X144646974Y-81130058D01*
X144650484Y-81106397D01*
X144656296Y-81083193D01*
X144664354Y-81060671D01*
X144674582Y-81039047D01*
X144686879Y-81018530D01*
X144701129Y-80999317D01*
X144717193Y-80981593D01*
X144734917Y-80965529D01*
X144754130Y-80951279D01*
X144774647Y-80938982D01*
X144796271Y-80928754D01*
X144818793Y-80920696D01*
X144841997Y-80914884D01*
X144865658Y-80911374D01*
X144889550Y-80910200D01*
X145377050Y-80910200D01*
X145400942Y-80911374D01*
X145400942Y-80911374D01*
G37*
D11*
X145133300Y-81610200D03*
D10*
G36*
X162532142Y-93669174D02*
G01*
X162555803Y-93672684D01*
X162579007Y-93678496D01*
X162601529Y-93686554D01*
X162623153Y-93696782D01*
X162643670Y-93709079D01*
X162662883Y-93723329D01*
X162680607Y-93739393D01*
X162696671Y-93757117D01*
X162710921Y-93776330D01*
X162723218Y-93796847D01*
X162733446Y-93818471D01*
X162741504Y-93840993D01*
X162747316Y-93864197D01*
X162750826Y-93887858D01*
X162752000Y-93911750D01*
X162752000Y-94399250D01*
X162750826Y-94423142D01*
X162747316Y-94446803D01*
X162741504Y-94470007D01*
X162733446Y-94492529D01*
X162723218Y-94514153D01*
X162710921Y-94534670D01*
X162696671Y-94553883D01*
X162680607Y-94571607D01*
X162662883Y-94587671D01*
X162643670Y-94601921D01*
X162623153Y-94614218D01*
X162601529Y-94624446D01*
X162579007Y-94632504D01*
X162555803Y-94638316D01*
X162532142Y-94641826D01*
X162508250Y-94643000D01*
X161595750Y-94643000D01*
X161571858Y-94641826D01*
X161548197Y-94638316D01*
X161524993Y-94632504D01*
X161502471Y-94624446D01*
X161480847Y-94614218D01*
X161460330Y-94601921D01*
X161441117Y-94587671D01*
X161423393Y-94571607D01*
X161407329Y-94553883D01*
X161393079Y-94534670D01*
X161380782Y-94514153D01*
X161370554Y-94492529D01*
X161362496Y-94470007D01*
X161356684Y-94446803D01*
X161353174Y-94423142D01*
X161352000Y-94399250D01*
X161352000Y-93911750D01*
X161353174Y-93887858D01*
X161356684Y-93864197D01*
X161362496Y-93840993D01*
X161370554Y-93818471D01*
X161380782Y-93796847D01*
X161393079Y-93776330D01*
X161407329Y-93757117D01*
X161423393Y-93739393D01*
X161441117Y-93723329D01*
X161460330Y-93709079D01*
X161480847Y-93696782D01*
X161502471Y-93686554D01*
X161524993Y-93678496D01*
X161548197Y-93672684D01*
X161571858Y-93669174D01*
X161595750Y-93668000D01*
X162508250Y-93668000D01*
X162532142Y-93669174D01*
X162532142Y-93669174D01*
G37*
D11*
X162052000Y-94155500D03*
D10*
G36*
X162532142Y-91794174D02*
G01*
X162555803Y-91797684D01*
X162579007Y-91803496D01*
X162601529Y-91811554D01*
X162623153Y-91821782D01*
X162643670Y-91834079D01*
X162662883Y-91848329D01*
X162680607Y-91864393D01*
X162696671Y-91882117D01*
X162710921Y-91901330D01*
X162723218Y-91921847D01*
X162733446Y-91943471D01*
X162741504Y-91965993D01*
X162747316Y-91989197D01*
X162750826Y-92012858D01*
X162752000Y-92036750D01*
X162752000Y-92524250D01*
X162750826Y-92548142D01*
X162747316Y-92571803D01*
X162741504Y-92595007D01*
X162733446Y-92617529D01*
X162723218Y-92639153D01*
X162710921Y-92659670D01*
X162696671Y-92678883D01*
X162680607Y-92696607D01*
X162662883Y-92712671D01*
X162643670Y-92726921D01*
X162623153Y-92739218D01*
X162601529Y-92749446D01*
X162579007Y-92757504D01*
X162555803Y-92763316D01*
X162532142Y-92766826D01*
X162508250Y-92768000D01*
X161595750Y-92768000D01*
X161571858Y-92766826D01*
X161548197Y-92763316D01*
X161524993Y-92757504D01*
X161502471Y-92749446D01*
X161480847Y-92739218D01*
X161460330Y-92726921D01*
X161441117Y-92712671D01*
X161423393Y-92696607D01*
X161407329Y-92678883D01*
X161393079Y-92659670D01*
X161380782Y-92639153D01*
X161370554Y-92617529D01*
X161362496Y-92595007D01*
X161356684Y-92571803D01*
X161353174Y-92548142D01*
X161352000Y-92524250D01*
X161352000Y-92036750D01*
X161353174Y-92012858D01*
X161356684Y-91989197D01*
X161362496Y-91965993D01*
X161370554Y-91943471D01*
X161380782Y-91921847D01*
X161393079Y-91901330D01*
X161407329Y-91882117D01*
X161423393Y-91864393D01*
X161441117Y-91848329D01*
X161460330Y-91834079D01*
X161480847Y-91821782D01*
X161502471Y-91811554D01*
X161524993Y-91803496D01*
X161548197Y-91797684D01*
X161571858Y-91794174D01*
X161595750Y-91793000D01*
X162508250Y-91793000D01*
X162532142Y-91794174D01*
X162532142Y-91794174D01*
G37*
D11*
X162052000Y-92280500D03*
D10*
G36*
X164818142Y-93643774D02*
G01*
X164841803Y-93647284D01*
X164865007Y-93653096D01*
X164887529Y-93661154D01*
X164909153Y-93671382D01*
X164929670Y-93683679D01*
X164948883Y-93697929D01*
X164966607Y-93713993D01*
X164982671Y-93731717D01*
X164996921Y-93750930D01*
X165009218Y-93771447D01*
X165019446Y-93793071D01*
X165027504Y-93815593D01*
X165033316Y-93838797D01*
X165036826Y-93862458D01*
X165038000Y-93886350D01*
X165038000Y-94373850D01*
X165036826Y-94397742D01*
X165033316Y-94421403D01*
X165027504Y-94444607D01*
X165019446Y-94467129D01*
X165009218Y-94488753D01*
X164996921Y-94509270D01*
X164982671Y-94528483D01*
X164966607Y-94546207D01*
X164948883Y-94562271D01*
X164929670Y-94576521D01*
X164909153Y-94588818D01*
X164887529Y-94599046D01*
X164865007Y-94607104D01*
X164841803Y-94612916D01*
X164818142Y-94616426D01*
X164794250Y-94617600D01*
X163881750Y-94617600D01*
X163857858Y-94616426D01*
X163834197Y-94612916D01*
X163810993Y-94607104D01*
X163788471Y-94599046D01*
X163766847Y-94588818D01*
X163746330Y-94576521D01*
X163727117Y-94562271D01*
X163709393Y-94546207D01*
X163693329Y-94528483D01*
X163679079Y-94509270D01*
X163666782Y-94488753D01*
X163656554Y-94467129D01*
X163648496Y-94444607D01*
X163642684Y-94421403D01*
X163639174Y-94397742D01*
X163638000Y-94373850D01*
X163638000Y-93886350D01*
X163639174Y-93862458D01*
X163642684Y-93838797D01*
X163648496Y-93815593D01*
X163656554Y-93793071D01*
X163666782Y-93771447D01*
X163679079Y-93750930D01*
X163693329Y-93731717D01*
X163709393Y-93713993D01*
X163727117Y-93697929D01*
X163746330Y-93683679D01*
X163766847Y-93671382D01*
X163788471Y-93661154D01*
X163810993Y-93653096D01*
X163834197Y-93647284D01*
X163857858Y-93643774D01*
X163881750Y-93642600D01*
X164794250Y-93642600D01*
X164818142Y-93643774D01*
X164818142Y-93643774D01*
G37*
D11*
X164338000Y-94130100D03*
D10*
G36*
X164818142Y-91768774D02*
G01*
X164841803Y-91772284D01*
X164865007Y-91778096D01*
X164887529Y-91786154D01*
X164909153Y-91796382D01*
X164929670Y-91808679D01*
X164948883Y-91822929D01*
X164966607Y-91838993D01*
X164982671Y-91856717D01*
X164996921Y-91875930D01*
X165009218Y-91896447D01*
X165019446Y-91918071D01*
X165027504Y-91940593D01*
X165033316Y-91963797D01*
X165036826Y-91987458D01*
X165038000Y-92011350D01*
X165038000Y-92498850D01*
X165036826Y-92522742D01*
X165033316Y-92546403D01*
X165027504Y-92569607D01*
X165019446Y-92592129D01*
X165009218Y-92613753D01*
X164996921Y-92634270D01*
X164982671Y-92653483D01*
X164966607Y-92671207D01*
X164948883Y-92687271D01*
X164929670Y-92701521D01*
X164909153Y-92713818D01*
X164887529Y-92724046D01*
X164865007Y-92732104D01*
X164841803Y-92737916D01*
X164818142Y-92741426D01*
X164794250Y-92742600D01*
X163881750Y-92742600D01*
X163857858Y-92741426D01*
X163834197Y-92737916D01*
X163810993Y-92732104D01*
X163788471Y-92724046D01*
X163766847Y-92713818D01*
X163746330Y-92701521D01*
X163727117Y-92687271D01*
X163709393Y-92671207D01*
X163693329Y-92653483D01*
X163679079Y-92634270D01*
X163666782Y-92613753D01*
X163656554Y-92592129D01*
X163648496Y-92569607D01*
X163642684Y-92546403D01*
X163639174Y-92522742D01*
X163638000Y-92498850D01*
X163638000Y-92011350D01*
X163639174Y-91987458D01*
X163642684Y-91963797D01*
X163648496Y-91940593D01*
X163656554Y-91918071D01*
X163666782Y-91896447D01*
X163679079Y-91875930D01*
X163693329Y-91856717D01*
X163709393Y-91838993D01*
X163727117Y-91822929D01*
X163746330Y-91808679D01*
X163766847Y-91796382D01*
X163788471Y-91786154D01*
X163810993Y-91778096D01*
X163834197Y-91772284D01*
X163857858Y-91768774D01*
X163881750Y-91767600D01*
X164794250Y-91767600D01*
X164818142Y-91768774D01*
X164818142Y-91768774D01*
G37*
D11*
X164338000Y-92255100D03*
D12*
X149255800Y-80135200D03*
X148755800Y-80135200D03*
X148255800Y-80135200D03*
X147755800Y-80135200D03*
X147255800Y-80135200D03*
X147255800Y-83085200D03*
X147755800Y-83085200D03*
X148255800Y-83085200D03*
X148755800Y-83085200D03*
X149255800Y-83085200D03*
D13*
X147422800Y-81200200D03*
D12*
X146755800Y-80135200D03*
X146755800Y-83085200D03*
D13*
X147422800Y-82020200D03*
X148588800Y-82020200D03*
X148588800Y-81200200D03*
X148512600Y-97837200D03*
X148512600Y-98657200D03*
X147346600Y-98657200D03*
D12*
X146679600Y-99722200D03*
X146679600Y-96772200D03*
D13*
X147346600Y-97837200D03*
D12*
X149179600Y-99722200D03*
X148679600Y-99722200D03*
X148179600Y-99722200D03*
X147679600Y-99722200D03*
X147179600Y-99722200D03*
X147179600Y-96772200D03*
X147679600Y-96772200D03*
X148179600Y-96772200D03*
X148679600Y-96772200D03*
X149179600Y-96772200D03*
D10*
G36*
X159966742Y-76955974D02*
G01*
X159990403Y-76959484D01*
X160013607Y-76965296D01*
X160036129Y-76973354D01*
X160057753Y-76983582D01*
X160078270Y-76995879D01*
X160097483Y-77010129D01*
X160115207Y-77026193D01*
X160131271Y-77043917D01*
X160145521Y-77063130D01*
X160157818Y-77083647D01*
X160168046Y-77105271D01*
X160176104Y-77127793D01*
X160181916Y-77150997D01*
X160185426Y-77174658D01*
X160186600Y-77198550D01*
X160186600Y-77686050D01*
X160185426Y-77709942D01*
X160181916Y-77733603D01*
X160176104Y-77756807D01*
X160168046Y-77779329D01*
X160157818Y-77800953D01*
X160145521Y-77821470D01*
X160131271Y-77840683D01*
X160115207Y-77858407D01*
X160097483Y-77874471D01*
X160078270Y-77888721D01*
X160057753Y-77901018D01*
X160036129Y-77911246D01*
X160013607Y-77919304D01*
X159990403Y-77925116D01*
X159966742Y-77928626D01*
X159942850Y-77929800D01*
X159030350Y-77929800D01*
X159006458Y-77928626D01*
X158982797Y-77925116D01*
X158959593Y-77919304D01*
X158937071Y-77911246D01*
X158915447Y-77901018D01*
X158894930Y-77888721D01*
X158875717Y-77874471D01*
X158857993Y-77858407D01*
X158841929Y-77840683D01*
X158827679Y-77821470D01*
X158815382Y-77800953D01*
X158805154Y-77779329D01*
X158797096Y-77756807D01*
X158791284Y-77733603D01*
X158787774Y-77709942D01*
X158786600Y-77686050D01*
X158786600Y-77198550D01*
X158787774Y-77174658D01*
X158791284Y-77150997D01*
X158797096Y-77127793D01*
X158805154Y-77105271D01*
X158815382Y-77083647D01*
X158827679Y-77063130D01*
X158841929Y-77043917D01*
X158857993Y-77026193D01*
X158875717Y-77010129D01*
X158894930Y-76995879D01*
X158915447Y-76983582D01*
X158937071Y-76973354D01*
X158959593Y-76965296D01*
X158982797Y-76959484D01*
X159006458Y-76955974D01*
X159030350Y-76954800D01*
X159942850Y-76954800D01*
X159966742Y-76955974D01*
X159966742Y-76955974D01*
G37*
D11*
X159486600Y-77442300D03*
D10*
G36*
X159966742Y-75080974D02*
G01*
X159990403Y-75084484D01*
X160013607Y-75090296D01*
X160036129Y-75098354D01*
X160057753Y-75108582D01*
X160078270Y-75120879D01*
X160097483Y-75135129D01*
X160115207Y-75151193D01*
X160131271Y-75168917D01*
X160145521Y-75188130D01*
X160157818Y-75208647D01*
X160168046Y-75230271D01*
X160176104Y-75252793D01*
X160181916Y-75275997D01*
X160185426Y-75299658D01*
X160186600Y-75323550D01*
X160186600Y-75811050D01*
X160185426Y-75834942D01*
X160181916Y-75858603D01*
X160176104Y-75881807D01*
X160168046Y-75904329D01*
X160157818Y-75925953D01*
X160145521Y-75946470D01*
X160131271Y-75965683D01*
X160115207Y-75983407D01*
X160097483Y-75999471D01*
X160078270Y-76013721D01*
X160057753Y-76026018D01*
X160036129Y-76036246D01*
X160013607Y-76044304D01*
X159990403Y-76050116D01*
X159966742Y-76053626D01*
X159942850Y-76054800D01*
X159030350Y-76054800D01*
X159006458Y-76053626D01*
X158982797Y-76050116D01*
X158959593Y-76044304D01*
X158937071Y-76036246D01*
X158915447Y-76026018D01*
X158894930Y-76013721D01*
X158875717Y-75999471D01*
X158857993Y-75983407D01*
X158841929Y-75965683D01*
X158827679Y-75946470D01*
X158815382Y-75925953D01*
X158805154Y-75904329D01*
X158797096Y-75881807D01*
X158791284Y-75858603D01*
X158787774Y-75834942D01*
X158786600Y-75811050D01*
X158786600Y-75323550D01*
X158787774Y-75299658D01*
X158791284Y-75275997D01*
X158797096Y-75252793D01*
X158805154Y-75230271D01*
X158815382Y-75208647D01*
X158827679Y-75188130D01*
X158841929Y-75168917D01*
X158857993Y-75151193D01*
X158875717Y-75135129D01*
X158894930Y-75120879D01*
X158915447Y-75108582D01*
X158937071Y-75098354D01*
X158959593Y-75090296D01*
X158982797Y-75084484D01*
X159006458Y-75080974D01*
X159030350Y-75079800D01*
X159942850Y-75079800D01*
X159966742Y-75080974D01*
X159966742Y-75080974D01*
G37*
D11*
X159486600Y-75567300D03*
D10*
G36*
X159992142Y-91715674D02*
G01*
X160015803Y-91719184D01*
X160039007Y-91724996D01*
X160061529Y-91733054D01*
X160083153Y-91743282D01*
X160103670Y-91755579D01*
X160122883Y-91769829D01*
X160140607Y-91785893D01*
X160156671Y-91803617D01*
X160170921Y-91822830D01*
X160183218Y-91843347D01*
X160193446Y-91864971D01*
X160201504Y-91887493D01*
X160207316Y-91910697D01*
X160210826Y-91934358D01*
X160212000Y-91958250D01*
X160212000Y-92445750D01*
X160210826Y-92469642D01*
X160207316Y-92493303D01*
X160201504Y-92516507D01*
X160193446Y-92539029D01*
X160183218Y-92560653D01*
X160170921Y-92581170D01*
X160156671Y-92600383D01*
X160140607Y-92618107D01*
X160122883Y-92634171D01*
X160103670Y-92648421D01*
X160083153Y-92660718D01*
X160061529Y-92670946D01*
X160039007Y-92679004D01*
X160015803Y-92684816D01*
X159992142Y-92688326D01*
X159968250Y-92689500D01*
X159055750Y-92689500D01*
X159031858Y-92688326D01*
X159008197Y-92684816D01*
X158984993Y-92679004D01*
X158962471Y-92670946D01*
X158940847Y-92660718D01*
X158920330Y-92648421D01*
X158901117Y-92634171D01*
X158883393Y-92618107D01*
X158867329Y-92600383D01*
X158853079Y-92581170D01*
X158840782Y-92560653D01*
X158830554Y-92539029D01*
X158822496Y-92516507D01*
X158816684Y-92493303D01*
X158813174Y-92469642D01*
X158812000Y-92445750D01*
X158812000Y-91958250D01*
X158813174Y-91934358D01*
X158816684Y-91910697D01*
X158822496Y-91887493D01*
X158830554Y-91864971D01*
X158840782Y-91843347D01*
X158853079Y-91822830D01*
X158867329Y-91803617D01*
X158883393Y-91785893D01*
X158901117Y-91769829D01*
X158920330Y-91755579D01*
X158940847Y-91743282D01*
X158962471Y-91733054D01*
X158984993Y-91724996D01*
X159008197Y-91719184D01*
X159031858Y-91715674D01*
X159055750Y-91714500D01*
X159968250Y-91714500D01*
X159992142Y-91715674D01*
X159992142Y-91715674D01*
G37*
D11*
X159512000Y-92202000D03*
D10*
G36*
X159992142Y-93590674D02*
G01*
X160015803Y-93594184D01*
X160039007Y-93599996D01*
X160061529Y-93608054D01*
X160083153Y-93618282D01*
X160103670Y-93630579D01*
X160122883Y-93644829D01*
X160140607Y-93660893D01*
X160156671Y-93678617D01*
X160170921Y-93697830D01*
X160183218Y-93718347D01*
X160193446Y-93739971D01*
X160201504Y-93762493D01*
X160207316Y-93785697D01*
X160210826Y-93809358D01*
X160212000Y-93833250D01*
X160212000Y-94320750D01*
X160210826Y-94344642D01*
X160207316Y-94368303D01*
X160201504Y-94391507D01*
X160193446Y-94414029D01*
X160183218Y-94435653D01*
X160170921Y-94456170D01*
X160156671Y-94475383D01*
X160140607Y-94493107D01*
X160122883Y-94509171D01*
X160103670Y-94523421D01*
X160083153Y-94535718D01*
X160061529Y-94545946D01*
X160039007Y-94554004D01*
X160015803Y-94559816D01*
X159992142Y-94563326D01*
X159968250Y-94564500D01*
X159055750Y-94564500D01*
X159031858Y-94563326D01*
X159008197Y-94559816D01*
X158984993Y-94554004D01*
X158962471Y-94545946D01*
X158940847Y-94535718D01*
X158920330Y-94523421D01*
X158901117Y-94509171D01*
X158883393Y-94493107D01*
X158867329Y-94475383D01*
X158853079Y-94456170D01*
X158840782Y-94435653D01*
X158830554Y-94414029D01*
X158822496Y-94391507D01*
X158816684Y-94368303D01*
X158813174Y-94344642D01*
X158812000Y-94320750D01*
X158812000Y-93833250D01*
X158813174Y-93809358D01*
X158816684Y-93785697D01*
X158822496Y-93762493D01*
X158830554Y-93739971D01*
X158840782Y-93718347D01*
X158853079Y-93697830D01*
X158867329Y-93678617D01*
X158883393Y-93660893D01*
X158901117Y-93644829D01*
X158920330Y-93630579D01*
X158940847Y-93618282D01*
X158962471Y-93608054D01*
X158984993Y-93599996D01*
X159008197Y-93594184D01*
X159031858Y-93590674D01*
X159055750Y-93589500D01*
X159968250Y-93589500D01*
X159992142Y-93590674D01*
X159992142Y-93590674D01*
G37*
D11*
X159512000Y-94077000D03*
M02*
