G04 #@! TF.GenerationSoftware,KiCad,Pcbnew,(5.1.4-0-10_14)*
G04 #@! TF.CreationDate,2020-01-20T11:10:59-05:00*
G04 #@! TF.ProjectId,motor_controller,6d6f746f-725f-4636-9f6e-74726f6c6c65,rev?*
G04 #@! TF.SameCoordinates,Original*
G04 #@! TF.FileFunction,Legend,Bot*
G04 #@! TF.FilePolarity,Positive*
%FSLAX46Y46*%
G04 Gerber Fmt 4.6, Leading zero omitted, Abs format (unit mm)*
G04 Created by KiCad (PCBNEW (5.1.4-0-10_14)) date 2020-01-20 11:10:59*
%MOMM*%
%LPD*%
G04 APERTURE LIST*
%ADD10C,0.300000*%
%ADD11C,0.010000*%
%ADD12C,0.120000*%
G04 APERTURE END LIST*
D10*
X177954285Y-87240000D02*
X177240000Y-87240000D01*
X178097142Y-87668571D02*
X177597142Y-86168571D01*
X177097142Y-87668571D01*
X176382857Y-87668571D02*
X176525714Y-87597142D01*
X176597142Y-87454285D01*
X176597142Y-86168571D01*
X175168571Y-87668571D02*
X175168571Y-86882857D01*
X175240000Y-86740000D01*
X175382857Y-86668571D01*
X175668571Y-86668571D01*
X175811428Y-86740000D01*
X175168571Y-87597142D02*
X175311428Y-87668571D01*
X175668571Y-87668571D01*
X175811428Y-87597142D01*
X175882857Y-87454285D01*
X175882857Y-87311428D01*
X175811428Y-87168571D01*
X175668571Y-87097142D01*
X175311428Y-87097142D01*
X175168571Y-87025714D01*
X174454285Y-86668571D02*
X174454285Y-87668571D01*
X174454285Y-86811428D02*
X174382857Y-86740000D01*
X174240000Y-86668571D01*
X174025714Y-86668571D01*
X173882857Y-86740000D01*
X173811428Y-86882857D01*
X173811428Y-87668571D01*
X171454285Y-86882857D02*
X171954285Y-86882857D01*
X171954285Y-87668571D02*
X171954285Y-86168571D01*
X171240000Y-86168571D01*
X170454285Y-87668571D02*
X170597142Y-87597142D01*
X170668571Y-87525714D01*
X170740000Y-87382857D01*
X170740000Y-86954285D01*
X170668571Y-86811428D01*
X170597142Y-86740000D01*
X170454285Y-86668571D01*
X170240000Y-86668571D01*
X170097142Y-86740000D01*
X170025714Y-86811428D01*
X169954285Y-86954285D01*
X169954285Y-87382857D01*
X170025714Y-87525714D01*
X170097142Y-87597142D01*
X170240000Y-87668571D01*
X170454285Y-87668571D01*
X169311428Y-87668571D02*
X169311428Y-86668571D01*
X169311428Y-86954285D02*
X169240000Y-86811428D01*
X169168571Y-86740000D01*
X169025714Y-86668571D01*
X168882857Y-86668571D01*
X167740000Y-87668571D02*
X167740000Y-86168571D01*
X167740000Y-87597142D02*
X167882857Y-87668571D01*
X168168571Y-87668571D01*
X168311428Y-87597142D01*
X168382857Y-87525714D01*
X168454285Y-87382857D01*
X168454285Y-86954285D01*
X168382857Y-86811428D01*
X168311428Y-86740000D01*
X168168571Y-86668571D01*
X167882857Y-86668571D01*
X167740000Y-86740000D01*
X177025714Y-90218571D02*
X177525714Y-89504285D01*
X177882857Y-90218571D02*
X177882857Y-88718571D01*
X177311428Y-88718571D01*
X177168571Y-88790000D01*
X177097142Y-88861428D01*
X177025714Y-89004285D01*
X177025714Y-89218571D01*
X177097142Y-89361428D01*
X177168571Y-89432857D01*
X177311428Y-89504285D01*
X177882857Y-89504285D01*
X175811428Y-90147142D02*
X175954285Y-90218571D01*
X176240000Y-90218571D01*
X176382857Y-90147142D01*
X176454285Y-90004285D01*
X176454285Y-89432857D01*
X176382857Y-89290000D01*
X176240000Y-89218571D01*
X175954285Y-89218571D01*
X175811428Y-89290000D01*
X175740000Y-89432857D01*
X175740000Y-89575714D01*
X176454285Y-89718571D01*
X175240000Y-89218571D02*
X174882857Y-90218571D01*
X174525714Y-89218571D01*
X173954285Y-90075714D02*
X173882857Y-90147142D01*
X173954285Y-90218571D01*
X174025714Y-90147142D01*
X173954285Y-90075714D01*
X173954285Y-90218571D01*
X171811428Y-88718571D02*
X171668571Y-88718571D01*
X171525714Y-88790000D01*
X171454285Y-88861428D01*
X171382857Y-89004285D01*
X171311428Y-89290000D01*
X171311428Y-89647142D01*
X171382857Y-89932857D01*
X171454285Y-90075714D01*
X171525714Y-90147142D01*
X171668571Y-90218571D01*
X171811428Y-90218571D01*
X171954285Y-90147142D01*
X172025714Y-90075714D01*
X172097142Y-89932857D01*
X172168571Y-89647142D01*
X172168571Y-89290000D01*
X172097142Y-89004285D01*
X172025714Y-88861428D01*
X171954285Y-88790000D01*
X171811428Y-88718571D01*
X169525714Y-89647142D02*
X168382857Y-89647142D01*
X165740000Y-90218571D02*
X166597142Y-90218571D01*
X166168571Y-90218571D02*
X166168571Y-88718571D01*
X166311428Y-88932857D01*
X166454285Y-89075714D01*
X166597142Y-89147142D01*
X164025714Y-88647142D02*
X165311428Y-90575714D01*
X163597142Y-88861428D02*
X163525714Y-88790000D01*
X163382857Y-88718571D01*
X163025714Y-88718571D01*
X162882857Y-88790000D01*
X162811428Y-88861428D01*
X162740000Y-89004285D01*
X162740000Y-89147142D01*
X162811428Y-89361428D01*
X163668571Y-90218571D01*
X162740000Y-90218571D01*
X161811428Y-88718571D02*
X161668571Y-88718571D01*
X161525714Y-88790000D01*
X161454285Y-88861428D01*
X161382857Y-89004285D01*
X161311428Y-89290000D01*
X161311428Y-89647142D01*
X161382857Y-89932857D01*
X161454285Y-90075714D01*
X161525714Y-90147142D01*
X161668571Y-90218571D01*
X161811428Y-90218571D01*
X161954285Y-90147142D01*
X162025714Y-90075714D01*
X162097142Y-89932857D01*
X162168571Y-89647142D01*
X162168571Y-89290000D01*
X162097142Y-89004285D01*
X162025714Y-88861428D01*
X161954285Y-88790000D01*
X161811428Y-88718571D01*
X159597142Y-88647142D02*
X160882857Y-90575714D01*
X159168571Y-88861428D02*
X159097142Y-88790000D01*
X158954285Y-88718571D01*
X158597142Y-88718571D01*
X158454285Y-88790000D01*
X158382857Y-88861428D01*
X158311428Y-89004285D01*
X158311428Y-89147142D01*
X158382857Y-89361428D01*
X159240000Y-90218571D01*
X158311428Y-90218571D01*
X157382857Y-88718571D02*
X157240000Y-88718571D01*
X157097142Y-88790000D01*
X157025714Y-88861428D01*
X156954285Y-89004285D01*
X156882857Y-89290000D01*
X156882857Y-89647142D01*
X156954285Y-89932857D01*
X157025714Y-90075714D01*
X157097142Y-90147142D01*
X157240000Y-90218571D01*
X157382857Y-90218571D01*
X157525714Y-90147142D01*
X157597142Y-90075714D01*
X157668571Y-89932857D01*
X157740000Y-89647142D01*
X157740000Y-89290000D01*
X157668571Y-89004285D01*
X157597142Y-88861428D01*
X157525714Y-88790000D01*
X157382857Y-88718571D01*
X156311428Y-88861428D02*
X156240000Y-88790000D01*
X156097142Y-88718571D01*
X155740000Y-88718571D01*
X155597142Y-88790000D01*
X155525714Y-88861428D01*
X155454285Y-89004285D01*
X155454285Y-89147142D01*
X155525714Y-89361428D01*
X156382857Y-90218571D01*
X155454285Y-90218571D01*
X154525714Y-88718571D02*
X154382857Y-88718571D01*
X154240000Y-88790000D01*
X154168571Y-88861428D01*
X154097142Y-89004285D01*
X154025714Y-89290000D01*
X154025714Y-89647142D01*
X154097142Y-89932857D01*
X154168571Y-90075714D01*
X154240000Y-90147142D01*
X154382857Y-90218571D01*
X154525714Y-90218571D01*
X154668571Y-90147142D01*
X154740000Y-90075714D01*
X154811428Y-89932857D01*
X154882857Y-89647142D01*
X154882857Y-89290000D01*
X154811428Y-89004285D01*
X154740000Y-88861428D01*
X154668571Y-88790000D01*
X154525714Y-88718571D01*
X180309857Y-71127000D02*
X180452714Y-71055571D01*
X180667000Y-71055571D01*
X180881285Y-71127000D01*
X181024142Y-71269857D01*
X181095571Y-71412714D01*
X181167000Y-71698428D01*
X181167000Y-71912714D01*
X181095571Y-72198428D01*
X181024142Y-72341285D01*
X180881285Y-72484142D01*
X180667000Y-72555571D01*
X180524142Y-72555571D01*
X180309857Y-72484142D01*
X180238428Y-72412714D01*
X180238428Y-71912714D01*
X180524142Y-71912714D01*
X179738428Y-71555571D02*
X179381285Y-72555571D01*
X179024142Y-71555571D02*
X179381285Y-72555571D01*
X179524142Y-72912714D01*
X179595571Y-72984142D01*
X179738428Y-73055571D01*
X178452714Y-72555571D02*
X178452714Y-71555571D01*
X178452714Y-71841285D02*
X178381285Y-71698428D01*
X178309857Y-71627000D01*
X178167000Y-71555571D01*
X178024142Y-71555571D01*
X177309857Y-72555571D02*
X177452714Y-72484142D01*
X177524142Y-72412714D01*
X177595571Y-72269857D01*
X177595571Y-71841285D01*
X177524142Y-71698428D01*
X177452714Y-71627000D01*
X177309857Y-71555571D01*
X177095571Y-71555571D01*
X176952714Y-71627000D01*
X176881285Y-71698428D01*
X176809857Y-71841285D01*
X176809857Y-72269857D01*
X176881285Y-72412714D01*
X176952714Y-72484142D01*
X177095571Y-72555571D01*
X177309857Y-72555571D01*
X174381285Y-72555571D02*
X174381285Y-71769857D01*
X174452714Y-71627000D01*
X174595571Y-71555571D01*
X174881285Y-71555571D01*
X175024142Y-71627000D01*
X174381285Y-72484142D02*
X174524142Y-72555571D01*
X174881285Y-72555571D01*
X175024142Y-72484142D01*
X175095571Y-72341285D01*
X175095571Y-72198428D01*
X175024142Y-72055571D01*
X174881285Y-71984142D01*
X174524142Y-71984142D01*
X174381285Y-71912714D01*
X173667000Y-71555571D02*
X173667000Y-72555571D01*
X173667000Y-71698428D02*
X173595571Y-71627000D01*
X173452714Y-71555571D01*
X173238428Y-71555571D01*
X173095571Y-71627000D01*
X173024142Y-71769857D01*
X173024142Y-72555571D01*
X171667000Y-72555571D02*
X171667000Y-71055571D01*
X171667000Y-72484142D02*
X171809857Y-72555571D01*
X172095571Y-72555571D01*
X172238428Y-72484142D01*
X172309857Y-72412714D01*
X172381285Y-72269857D01*
X172381285Y-71841285D01*
X172309857Y-71698428D01*
X172238428Y-71627000D01*
X172095571Y-71555571D01*
X171809857Y-71555571D01*
X171667000Y-71627000D01*
X169809857Y-72555571D02*
X169809857Y-71055571D01*
X169452714Y-71055571D01*
X169238428Y-71127000D01*
X169095571Y-71269857D01*
X169024142Y-71412714D01*
X168952714Y-71698428D01*
X168952714Y-71912714D01*
X169024142Y-72198428D01*
X169095571Y-72341285D01*
X169238428Y-72484142D01*
X169452714Y-72555571D01*
X169809857Y-72555571D01*
X167667000Y-71555571D02*
X167667000Y-72555571D01*
X168309857Y-71555571D02*
X168309857Y-72341285D01*
X168238428Y-72484142D01*
X168095571Y-72555571D01*
X167881285Y-72555571D01*
X167738428Y-72484142D01*
X167667000Y-72412714D01*
X166309857Y-72555571D02*
X166309857Y-71769857D01*
X166381285Y-71627000D01*
X166524142Y-71555571D01*
X166809857Y-71555571D01*
X166952714Y-71627000D01*
X166309857Y-72484142D02*
X166452714Y-72555571D01*
X166809857Y-72555571D01*
X166952714Y-72484142D01*
X167024142Y-72341285D01*
X167024142Y-72198428D01*
X166952714Y-72055571D01*
X166809857Y-71984142D01*
X166452714Y-71984142D01*
X166309857Y-71912714D01*
X165381285Y-72555571D02*
X165524142Y-72484142D01*
X165595571Y-72341285D01*
X165595571Y-71055571D01*
X163667000Y-72555571D02*
X163667000Y-71055571D01*
X163309857Y-71055571D01*
X163095571Y-71127000D01*
X162952714Y-71269857D01*
X162881285Y-71412714D01*
X162809857Y-71698428D01*
X162809857Y-71912714D01*
X162881285Y-72198428D01*
X162952714Y-72341285D01*
X163095571Y-72484142D01*
X163309857Y-72555571D01*
X163667000Y-72555571D01*
X161309857Y-72412714D02*
X161381285Y-72484142D01*
X161595571Y-72555571D01*
X161738428Y-72555571D01*
X161952714Y-72484142D01*
X162095571Y-72341285D01*
X162167000Y-72198428D01*
X162238428Y-71912714D01*
X162238428Y-71698428D01*
X162167000Y-71412714D01*
X162095571Y-71269857D01*
X161952714Y-71127000D01*
X161738428Y-71055571D01*
X161595571Y-71055571D01*
X161381285Y-71127000D01*
X161309857Y-71198428D01*
X159524142Y-72555571D02*
X159524142Y-71055571D01*
X159024142Y-72127000D01*
X158524142Y-71055571D01*
X158524142Y-72555571D01*
X157595571Y-72555571D02*
X157738428Y-72484142D01*
X157809857Y-72412714D01*
X157881285Y-72269857D01*
X157881285Y-71841285D01*
X157809857Y-71698428D01*
X157738428Y-71627000D01*
X157595571Y-71555571D01*
X157381285Y-71555571D01*
X157238428Y-71627000D01*
X157167000Y-71698428D01*
X157095571Y-71841285D01*
X157095571Y-72269857D01*
X157167000Y-72412714D01*
X157238428Y-72484142D01*
X157381285Y-72555571D01*
X157595571Y-72555571D01*
X156667000Y-71555571D02*
X156095571Y-71555571D01*
X156452714Y-71055571D02*
X156452714Y-72341285D01*
X156381285Y-72484142D01*
X156238428Y-72555571D01*
X156095571Y-72555571D01*
X155381285Y-72555571D02*
X155524142Y-72484142D01*
X155595571Y-72412714D01*
X155667000Y-72269857D01*
X155667000Y-71841285D01*
X155595571Y-71698428D01*
X155524142Y-71627000D01*
X155381285Y-71555571D01*
X155167000Y-71555571D01*
X155024142Y-71627000D01*
X154952714Y-71698428D01*
X154881285Y-71841285D01*
X154881285Y-72269857D01*
X154952714Y-72412714D01*
X155024142Y-72484142D01*
X155167000Y-72555571D01*
X155381285Y-72555571D01*
X154238428Y-72555571D02*
X154238428Y-71555571D01*
X154238428Y-71841285D02*
X154167000Y-71698428D01*
X154095571Y-71627000D01*
X153952714Y-71555571D01*
X153809857Y-71555571D01*
X151309857Y-72412714D02*
X151381285Y-72484142D01*
X151595571Y-72555571D01*
X151738428Y-72555571D01*
X151952714Y-72484142D01*
X152095571Y-72341285D01*
X152167000Y-72198428D01*
X152238428Y-71912714D01*
X152238428Y-71698428D01*
X152167000Y-71412714D01*
X152095571Y-71269857D01*
X151952714Y-71127000D01*
X151738428Y-71055571D01*
X151595571Y-71055571D01*
X151381285Y-71127000D01*
X151309857Y-71198428D01*
X150452714Y-72555571D02*
X150595571Y-72484142D01*
X150667000Y-72412714D01*
X150738428Y-72269857D01*
X150738428Y-71841285D01*
X150667000Y-71698428D01*
X150595571Y-71627000D01*
X150452714Y-71555571D01*
X150238428Y-71555571D01*
X150095571Y-71627000D01*
X150024142Y-71698428D01*
X149952714Y-71841285D01*
X149952714Y-72269857D01*
X150024142Y-72412714D01*
X150095571Y-72484142D01*
X150238428Y-72555571D01*
X150452714Y-72555571D01*
X149309857Y-71555571D02*
X149309857Y-72555571D01*
X149309857Y-71698428D02*
X149238428Y-71627000D01*
X149095571Y-71555571D01*
X148881285Y-71555571D01*
X148738428Y-71627000D01*
X148667000Y-71769857D01*
X148667000Y-72555571D01*
X148167000Y-71555571D02*
X147595571Y-71555571D01*
X147952714Y-71055571D02*
X147952714Y-72341285D01*
X147881285Y-72484142D01*
X147738428Y-72555571D01*
X147595571Y-72555571D01*
X147095571Y-72555571D02*
X147095571Y-71555571D01*
X147095571Y-71841285D02*
X147024142Y-71698428D01*
X146952714Y-71627000D01*
X146809857Y-71555571D01*
X146667000Y-71555571D01*
X145952714Y-72555571D02*
X146095571Y-72484142D01*
X146167000Y-72412714D01*
X146238428Y-72269857D01*
X146238428Y-71841285D01*
X146167000Y-71698428D01*
X146095571Y-71627000D01*
X145952714Y-71555571D01*
X145738428Y-71555571D01*
X145595571Y-71627000D01*
X145524142Y-71698428D01*
X145452714Y-71841285D01*
X145452714Y-72269857D01*
X145524142Y-72412714D01*
X145595571Y-72484142D01*
X145738428Y-72555571D01*
X145952714Y-72555571D01*
X144595571Y-72555571D02*
X144738428Y-72484142D01*
X144809857Y-72341285D01*
X144809857Y-71055571D01*
X143809857Y-72555571D02*
X143952714Y-72484142D01*
X144024142Y-72341285D01*
X144024142Y-71055571D01*
X142667000Y-72484142D02*
X142809857Y-72555571D01*
X143095571Y-72555571D01*
X143238428Y-72484142D01*
X143309857Y-72341285D01*
X143309857Y-71769857D01*
X143238428Y-71627000D01*
X143095571Y-71555571D01*
X142809857Y-71555571D01*
X142667000Y-71627000D01*
X142595571Y-71769857D01*
X142595571Y-71912714D01*
X143309857Y-72055571D01*
X141952714Y-72555571D02*
X141952714Y-71555571D01*
X141952714Y-71841285D02*
X141881285Y-71698428D01*
X141809857Y-71627000D01*
X141667000Y-71555571D01*
X141524142Y-71555571D01*
X170309857Y-74105571D02*
X169738428Y-74105571D01*
X170095571Y-75105571D02*
X170095571Y-73819857D01*
X170024142Y-73677000D01*
X169881285Y-73605571D01*
X169738428Y-73605571D01*
X169024142Y-75105571D02*
X169167000Y-75034142D01*
X169238428Y-74962714D01*
X169309857Y-74819857D01*
X169309857Y-74391285D01*
X169238428Y-74248428D01*
X169167000Y-74177000D01*
X169024142Y-74105571D01*
X168809857Y-74105571D01*
X168667000Y-74177000D01*
X168595571Y-74248428D01*
X168524142Y-74391285D01*
X168524142Y-74819857D01*
X168595571Y-74962714D01*
X168667000Y-75034142D01*
X168809857Y-75105571D01*
X169024142Y-75105571D01*
X167881285Y-75105571D02*
X167881285Y-74105571D01*
X167881285Y-74391285D02*
X167809857Y-74248428D01*
X167738428Y-74177000D01*
X167595571Y-74105571D01*
X167452714Y-74105571D01*
X165881285Y-74677000D02*
X165167000Y-74677000D01*
X166024142Y-75105571D02*
X165524142Y-73605571D01*
X165024142Y-75105571D01*
X164524142Y-75105571D02*
X164524142Y-74105571D01*
X164524142Y-74391285D02*
X164452714Y-74248428D01*
X164381285Y-74177000D01*
X164238428Y-74105571D01*
X164095571Y-74105571D01*
X162952714Y-75105571D02*
X162952714Y-73605571D01*
X162952714Y-75034142D02*
X163095571Y-75105571D01*
X163381285Y-75105571D01*
X163524142Y-75034142D01*
X163595571Y-74962714D01*
X163667000Y-74819857D01*
X163667000Y-74391285D01*
X163595571Y-74248428D01*
X163524142Y-74177000D01*
X163381285Y-74105571D01*
X163095571Y-74105571D01*
X162952714Y-74177000D01*
X161595571Y-74105571D02*
X161595571Y-75105571D01*
X162238428Y-74105571D02*
X162238428Y-74891285D01*
X162167000Y-75034142D01*
X162024142Y-75105571D01*
X161809857Y-75105571D01*
X161667000Y-75034142D01*
X161595571Y-74962714D01*
X160881285Y-75105571D02*
X160881285Y-74105571D01*
X160881285Y-73605571D02*
X160952714Y-73677000D01*
X160881285Y-73748428D01*
X160809857Y-73677000D01*
X160881285Y-73605571D01*
X160881285Y-73748428D01*
X160167000Y-74105571D02*
X160167000Y-75105571D01*
X160167000Y-74248428D02*
X160095571Y-74177000D01*
X159952714Y-74105571D01*
X159738428Y-74105571D01*
X159595571Y-74177000D01*
X159524142Y-74319857D01*
X159524142Y-75105571D01*
X158595571Y-75105571D02*
X158738428Y-75034142D01*
X158809857Y-74962714D01*
X158881285Y-74819857D01*
X158881285Y-74391285D01*
X158809857Y-74248428D01*
X158738428Y-74177000D01*
X158595571Y-74105571D01*
X158381285Y-74105571D01*
X158238428Y-74177000D01*
X158167000Y-74248428D01*
X158095571Y-74391285D01*
X158095571Y-74819857D01*
X158167000Y-74962714D01*
X158238428Y-75034142D01*
X158381285Y-75105571D01*
X158595571Y-75105571D01*
X156309857Y-73605571D02*
X156309857Y-74819857D01*
X156238428Y-74962714D01*
X156167000Y-75034142D01*
X156024142Y-75105571D01*
X155738428Y-75105571D01*
X155595571Y-75034142D01*
X155524142Y-74962714D01*
X155452714Y-74819857D01*
X155452714Y-73605571D01*
X154738428Y-74105571D02*
X154738428Y-75105571D01*
X154738428Y-74248428D02*
X154667000Y-74177000D01*
X154524142Y-74105571D01*
X154309857Y-74105571D01*
X154167000Y-74177000D01*
X154095571Y-74319857D01*
X154095571Y-75105571D01*
X153167000Y-75105571D02*
X153309857Y-75034142D01*
X153381285Y-74962714D01*
X153452714Y-74819857D01*
X153452714Y-74391285D01*
X153381285Y-74248428D01*
X153309857Y-74177000D01*
X153167000Y-74105571D01*
X152952714Y-74105571D01*
X152809857Y-74177000D01*
X152738428Y-74248428D01*
X152667000Y-74391285D01*
X152667000Y-74819857D01*
X152738428Y-74962714D01*
X152809857Y-75034142D01*
X152952714Y-75105571D01*
X153167000Y-75105571D01*
D11*
G36*
X133648986Y-99227998D02*
G01*
X133490994Y-99228863D01*
X133376653Y-99231205D01*
X133298593Y-99235762D01*
X133249446Y-99243270D01*
X133221841Y-99254466D01*
X133208408Y-99270088D01*
X133201779Y-99290873D01*
X133201135Y-99293563D01*
X133191065Y-99342113D01*
X133172425Y-99437905D01*
X133147155Y-99570743D01*
X133117193Y-99730431D01*
X133084478Y-99906774D01*
X133083336Y-99912967D01*
X133050567Y-100085782D01*
X133019907Y-100238469D01*
X132993336Y-100361871D01*
X132972833Y-100446831D01*
X132960374Y-100484190D01*
X132959780Y-100484852D01*
X132923081Y-100503095D01*
X132847414Y-100533497D01*
X132749122Y-100569493D01*
X132748575Y-100569685D01*
X132624767Y-100616222D01*
X132478804Y-100675504D01*
X132341219Y-100735109D01*
X132334707Y-100738056D01*
X132110610Y-100839765D01*
X131614381Y-100500897D01*
X131462154Y-100397592D01*
X131324259Y-100305237D01*
X131208685Y-100229084D01*
X131123421Y-100174385D01*
X131076456Y-100146393D01*
X131071996Y-100144317D01*
X131037866Y-100153560D01*
X130974119Y-100198156D01*
X130878269Y-100280209D01*
X130747831Y-100401821D01*
X130614672Y-100531205D01*
X130486306Y-100658702D01*
X130371419Y-100775046D01*
X130276927Y-100873052D01*
X130209747Y-100945536D01*
X130176794Y-100985313D01*
X130175568Y-100987361D01*
X130171926Y-101014656D01*
X130185650Y-101059234D01*
X130220131Y-101127112D01*
X130278761Y-101224311D01*
X130364930Y-101356851D01*
X130479800Y-101527476D01*
X130581746Y-101677655D01*
X130672877Y-101812350D01*
X130747927Y-101923740D01*
X130801631Y-102004005D01*
X130828720Y-102045325D01*
X130830426Y-102048130D01*
X130827118Y-102087721D01*
X130802047Y-102164669D01*
X130760202Y-102264432D01*
X130745288Y-102296291D01*
X130680214Y-102438226D01*
X130610788Y-102599273D01*
X130554391Y-102738621D01*
X130513753Y-102842044D01*
X130481474Y-102920642D01*
X130462822Y-102961720D01*
X130460503Y-102964885D01*
X130426197Y-102970128D01*
X130345331Y-102984494D01*
X130228657Y-103005937D01*
X130086925Y-103032413D01*
X129930890Y-103061877D01*
X129771302Y-103092283D01*
X129618915Y-103121588D01*
X129484479Y-103147745D01*
X129378748Y-103168710D01*
X129312474Y-103182439D01*
X129296218Y-103186320D01*
X129279427Y-103195900D01*
X129266751Y-103217536D01*
X129257622Y-103258531D01*
X129251469Y-103326189D01*
X129247720Y-103427812D01*
X129245808Y-103570703D01*
X129245160Y-103762165D01*
X129245126Y-103840645D01*
X129245126Y-104478906D01*
X129398402Y-104509160D01*
X129483678Y-104525564D01*
X129610930Y-104549509D01*
X129764685Y-104578107D01*
X129929466Y-104608467D01*
X129975011Y-104616806D01*
X130127068Y-104646370D01*
X130259532Y-104675442D01*
X130361286Y-104701329D01*
X130421212Y-104721337D01*
X130431195Y-104727301D01*
X130455707Y-104769534D01*
X130490852Y-104851370D01*
X130529827Y-104956683D01*
X130537558Y-104979368D01*
X130588640Y-105120018D01*
X130652046Y-105278714D01*
X130714096Y-105421225D01*
X130714402Y-105421886D01*
X130817733Y-105645440D01*
X130138039Y-106645232D01*
X130574379Y-107082300D01*
X130706351Y-107212381D01*
X130826721Y-107327048D01*
X130928727Y-107420181D01*
X131005609Y-107485658D01*
X131050607Y-107517357D01*
X131057062Y-107519368D01*
X131094960Y-107503529D01*
X131172292Y-107459496D01*
X131280611Y-107392490D01*
X131411468Y-107307734D01*
X131552948Y-107212816D01*
X131696539Y-107115998D01*
X131824565Y-107031751D01*
X131928895Y-106965258D01*
X132001400Y-106921702D01*
X132033842Y-106906264D01*
X132073424Y-106919328D01*
X132148481Y-106953750D01*
X132243532Y-107002380D01*
X132253608Y-107007785D01*
X132381609Y-107071980D01*
X132469382Y-107103463D01*
X132523972Y-107103798D01*
X132552425Y-107074548D01*
X132552590Y-107074138D01*
X132566812Y-107039498D01*
X132600731Y-106957269D01*
X132651716Y-106833814D01*
X132717138Y-106675498D01*
X132794366Y-106488686D01*
X132880771Y-106279742D01*
X132964449Y-106077446D01*
X133056412Y-105854200D01*
X133140850Y-105647392D01*
X133215231Y-105463362D01*
X133277026Y-105308451D01*
X133323703Y-105188996D01*
X133352732Y-105111339D01*
X133361678Y-105082356D01*
X133339244Y-105049110D01*
X133280561Y-104996123D01*
X133202311Y-104937704D01*
X132979466Y-104752952D01*
X132805282Y-104541182D01*
X132681846Y-104306856D01*
X132611246Y-104054434D01*
X132595569Y-103788377D01*
X132606964Y-103665575D01*
X132669050Y-103410793D01*
X132775977Y-103185801D01*
X132921111Y-102992817D01*
X133097822Y-102834061D01*
X133299478Y-102711750D01*
X133519446Y-102628105D01*
X133751094Y-102585344D01*
X133987791Y-102585687D01*
X134222905Y-102631352D01*
X134449804Y-102724559D01*
X134661856Y-102867527D01*
X134750364Y-102948383D01*
X134920111Y-103156007D01*
X135038301Y-103382895D01*
X135105722Y-103622433D01*
X135123160Y-103868007D01*
X135091402Y-104113003D01*
X135011235Y-104350808D01*
X134883445Y-104574807D01*
X134708820Y-104778387D01*
X134513688Y-104937704D01*
X134432409Y-104998602D01*
X134374991Y-105051015D01*
X134354322Y-105082406D01*
X134365144Y-105116639D01*
X134395923Y-105198419D01*
X134444126Y-105321407D01*
X134507222Y-105479263D01*
X134582678Y-105665649D01*
X134667962Y-105874226D01*
X134751781Y-106077496D01*
X134844255Y-106300933D01*
X134929911Y-106507984D01*
X135006118Y-106692286D01*
X135070247Y-106847475D01*
X135119668Y-106967188D01*
X135151752Y-107045061D01*
X135163641Y-107074138D01*
X135191726Y-107103677D01*
X135246051Y-107103591D01*
X135333605Y-107072326D01*
X135461381Y-107008329D01*
X135462392Y-107007785D01*
X135558598Y-106958121D01*
X135636369Y-106921945D01*
X135680223Y-106906408D01*
X135682158Y-106906264D01*
X135715171Y-106922024D01*
X135788054Y-106965850D01*
X135892678Y-107032557D01*
X136020910Y-107116964D01*
X136163052Y-107212816D01*
X136307767Y-107309867D01*
X136438196Y-107394270D01*
X136545890Y-107460801D01*
X136622402Y-107504238D01*
X136658938Y-107519368D01*
X136692582Y-107499482D01*
X136760224Y-107443903D01*
X136855107Y-107358754D01*
X136970470Y-107250153D01*
X137099555Y-107124221D01*
X137141771Y-107082149D01*
X137578261Y-106644931D01*
X137246023Y-106157340D01*
X137145054Y-106007605D01*
X137056438Y-105873220D01*
X136985146Y-105761969D01*
X136936150Y-105681639D01*
X136914422Y-105640014D01*
X136913785Y-105637053D01*
X136925240Y-105597818D01*
X136956051Y-105518895D01*
X137000884Y-105413509D01*
X137032353Y-105342954D01*
X137091192Y-105207876D01*
X137146604Y-105071409D01*
X137189564Y-104956103D01*
X137201234Y-104920977D01*
X137234389Y-104827174D01*
X137266799Y-104754694D01*
X137284601Y-104727301D01*
X137323886Y-104710536D01*
X137409626Y-104686770D01*
X137530697Y-104658697D01*
X137675973Y-104629009D01*
X137740988Y-104616806D01*
X137906087Y-104586468D01*
X138064448Y-104557093D01*
X138200596Y-104531569D01*
X138299057Y-104512785D01*
X138317598Y-104509160D01*
X138470873Y-104478906D01*
X138470873Y-103840645D01*
X138470529Y-103630770D01*
X138469116Y-103471980D01*
X138466064Y-103356973D01*
X138460803Y-103278446D01*
X138452763Y-103229096D01*
X138441373Y-103201619D01*
X138426063Y-103188713D01*
X138419782Y-103186320D01*
X138381896Y-103177833D01*
X138298195Y-103160900D01*
X138179433Y-103137566D01*
X138036361Y-103109875D01*
X137879732Y-103079873D01*
X137720297Y-103049604D01*
X137568809Y-103021115D01*
X137436019Y-102996449D01*
X137332681Y-102977651D01*
X137269545Y-102966767D01*
X137255497Y-102964885D01*
X137242770Y-102939704D01*
X137214600Y-102872622D01*
X137176252Y-102776333D01*
X137161609Y-102738621D01*
X137102548Y-102592921D01*
X137033000Y-102431951D01*
X136970712Y-102296291D01*
X136924879Y-102192561D01*
X136894387Y-102107326D01*
X136884208Y-102055126D01*
X136885831Y-102048130D01*
X136907343Y-102015102D01*
X136956465Y-101941643D01*
X137027923Y-101835577D01*
X137116445Y-101704726D01*
X137216759Y-101556912D01*
X137236594Y-101527734D01*
X137352988Y-101354863D01*
X137438548Y-101223226D01*
X137496684Y-101126761D01*
X137530808Y-101059408D01*
X137544331Y-101015106D01*
X137540664Y-100987794D01*
X137540570Y-100987620D01*
X137511707Y-100951746D01*
X137447867Y-100882391D01*
X137355969Y-100786745D01*
X137242933Y-100671999D01*
X137115679Y-100545341D01*
X137101328Y-100531205D01*
X136940957Y-100375903D01*
X136817195Y-100261870D01*
X136727555Y-100187002D01*
X136669552Y-100149196D01*
X136644004Y-100144317D01*
X136606718Y-100165603D01*
X136529343Y-100214773D01*
X136419867Y-100286575D01*
X136286280Y-100375755D01*
X136136570Y-100477063D01*
X136101618Y-100500897D01*
X135605390Y-100839765D01*
X135381293Y-100738056D01*
X135245011Y-100678783D01*
X135098724Y-100619170D01*
X134972965Y-100571640D01*
X134967425Y-100569685D01*
X134869057Y-100533677D01*
X134793229Y-100503229D01*
X134756282Y-100484905D01*
X134756220Y-100484852D01*
X134744496Y-100451729D01*
X134724568Y-100370267D01*
X134698413Y-100249625D01*
X134668010Y-100098959D01*
X134635337Y-99927428D01*
X134632664Y-99912967D01*
X134599890Y-99736235D01*
X134569802Y-99575810D01*
X134544339Y-99441888D01*
X134525441Y-99344663D01*
X134515047Y-99294332D01*
X134514865Y-99293563D01*
X134508539Y-99272153D01*
X134496239Y-99255988D01*
X134470594Y-99244331D01*
X134424235Y-99236445D01*
X134349792Y-99231593D01*
X134239895Y-99229039D01*
X134087175Y-99228045D01*
X133884262Y-99227874D01*
X133858000Y-99227874D01*
X133648986Y-99227998D01*
X133648986Y-99227998D01*
G37*
X133648986Y-99227998D02*
X133490994Y-99228863D01*
X133376653Y-99231205D01*
X133298593Y-99235762D01*
X133249446Y-99243270D01*
X133221841Y-99254466D01*
X133208408Y-99270088D01*
X133201779Y-99290873D01*
X133201135Y-99293563D01*
X133191065Y-99342113D01*
X133172425Y-99437905D01*
X133147155Y-99570743D01*
X133117193Y-99730431D01*
X133084478Y-99906774D01*
X133083336Y-99912967D01*
X133050567Y-100085782D01*
X133019907Y-100238469D01*
X132993336Y-100361871D01*
X132972833Y-100446831D01*
X132960374Y-100484190D01*
X132959780Y-100484852D01*
X132923081Y-100503095D01*
X132847414Y-100533497D01*
X132749122Y-100569493D01*
X132748575Y-100569685D01*
X132624767Y-100616222D01*
X132478804Y-100675504D01*
X132341219Y-100735109D01*
X132334707Y-100738056D01*
X132110610Y-100839765D01*
X131614381Y-100500897D01*
X131462154Y-100397592D01*
X131324259Y-100305237D01*
X131208685Y-100229084D01*
X131123421Y-100174385D01*
X131076456Y-100146393D01*
X131071996Y-100144317D01*
X131037866Y-100153560D01*
X130974119Y-100198156D01*
X130878269Y-100280209D01*
X130747831Y-100401821D01*
X130614672Y-100531205D01*
X130486306Y-100658702D01*
X130371419Y-100775046D01*
X130276927Y-100873052D01*
X130209747Y-100945536D01*
X130176794Y-100985313D01*
X130175568Y-100987361D01*
X130171926Y-101014656D01*
X130185650Y-101059234D01*
X130220131Y-101127112D01*
X130278761Y-101224311D01*
X130364930Y-101356851D01*
X130479800Y-101527476D01*
X130581746Y-101677655D01*
X130672877Y-101812350D01*
X130747927Y-101923740D01*
X130801631Y-102004005D01*
X130828720Y-102045325D01*
X130830426Y-102048130D01*
X130827118Y-102087721D01*
X130802047Y-102164669D01*
X130760202Y-102264432D01*
X130745288Y-102296291D01*
X130680214Y-102438226D01*
X130610788Y-102599273D01*
X130554391Y-102738621D01*
X130513753Y-102842044D01*
X130481474Y-102920642D01*
X130462822Y-102961720D01*
X130460503Y-102964885D01*
X130426197Y-102970128D01*
X130345331Y-102984494D01*
X130228657Y-103005937D01*
X130086925Y-103032413D01*
X129930890Y-103061877D01*
X129771302Y-103092283D01*
X129618915Y-103121588D01*
X129484479Y-103147745D01*
X129378748Y-103168710D01*
X129312474Y-103182439D01*
X129296218Y-103186320D01*
X129279427Y-103195900D01*
X129266751Y-103217536D01*
X129257622Y-103258531D01*
X129251469Y-103326189D01*
X129247720Y-103427812D01*
X129245808Y-103570703D01*
X129245160Y-103762165D01*
X129245126Y-103840645D01*
X129245126Y-104478906D01*
X129398402Y-104509160D01*
X129483678Y-104525564D01*
X129610930Y-104549509D01*
X129764685Y-104578107D01*
X129929466Y-104608467D01*
X129975011Y-104616806D01*
X130127068Y-104646370D01*
X130259532Y-104675442D01*
X130361286Y-104701329D01*
X130421212Y-104721337D01*
X130431195Y-104727301D01*
X130455707Y-104769534D01*
X130490852Y-104851370D01*
X130529827Y-104956683D01*
X130537558Y-104979368D01*
X130588640Y-105120018D01*
X130652046Y-105278714D01*
X130714096Y-105421225D01*
X130714402Y-105421886D01*
X130817733Y-105645440D01*
X130138039Y-106645232D01*
X130574379Y-107082300D01*
X130706351Y-107212381D01*
X130826721Y-107327048D01*
X130928727Y-107420181D01*
X131005609Y-107485658D01*
X131050607Y-107517357D01*
X131057062Y-107519368D01*
X131094960Y-107503529D01*
X131172292Y-107459496D01*
X131280611Y-107392490D01*
X131411468Y-107307734D01*
X131552948Y-107212816D01*
X131696539Y-107115998D01*
X131824565Y-107031751D01*
X131928895Y-106965258D01*
X132001400Y-106921702D01*
X132033842Y-106906264D01*
X132073424Y-106919328D01*
X132148481Y-106953750D01*
X132243532Y-107002380D01*
X132253608Y-107007785D01*
X132381609Y-107071980D01*
X132469382Y-107103463D01*
X132523972Y-107103798D01*
X132552425Y-107074548D01*
X132552590Y-107074138D01*
X132566812Y-107039498D01*
X132600731Y-106957269D01*
X132651716Y-106833814D01*
X132717138Y-106675498D01*
X132794366Y-106488686D01*
X132880771Y-106279742D01*
X132964449Y-106077446D01*
X133056412Y-105854200D01*
X133140850Y-105647392D01*
X133215231Y-105463362D01*
X133277026Y-105308451D01*
X133323703Y-105188996D01*
X133352732Y-105111339D01*
X133361678Y-105082356D01*
X133339244Y-105049110D01*
X133280561Y-104996123D01*
X133202311Y-104937704D01*
X132979466Y-104752952D01*
X132805282Y-104541182D01*
X132681846Y-104306856D01*
X132611246Y-104054434D01*
X132595569Y-103788377D01*
X132606964Y-103665575D01*
X132669050Y-103410793D01*
X132775977Y-103185801D01*
X132921111Y-102992817D01*
X133097822Y-102834061D01*
X133299478Y-102711750D01*
X133519446Y-102628105D01*
X133751094Y-102585344D01*
X133987791Y-102585687D01*
X134222905Y-102631352D01*
X134449804Y-102724559D01*
X134661856Y-102867527D01*
X134750364Y-102948383D01*
X134920111Y-103156007D01*
X135038301Y-103382895D01*
X135105722Y-103622433D01*
X135123160Y-103868007D01*
X135091402Y-104113003D01*
X135011235Y-104350808D01*
X134883445Y-104574807D01*
X134708820Y-104778387D01*
X134513688Y-104937704D01*
X134432409Y-104998602D01*
X134374991Y-105051015D01*
X134354322Y-105082406D01*
X134365144Y-105116639D01*
X134395923Y-105198419D01*
X134444126Y-105321407D01*
X134507222Y-105479263D01*
X134582678Y-105665649D01*
X134667962Y-105874226D01*
X134751781Y-106077496D01*
X134844255Y-106300933D01*
X134929911Y-106507984D01*
X135006118Y-106692286D01*
X135070247Y-106847475D01*
X135119668Y-106967188D01*
X135151752Y-107045061D01*
X135163641Y-107074138D01*
X135191726Y-107103677D01*
X135246051Y-107103591D01*
X135333605Y-107072326D01*
X135461381Y-107008329D01*
X135462392Y-107007785D01*
X135558598Y-106958121D01*
X135636369Y-106921945D01*
X135680223Y-106906408D01*
X135682158Y-106906264D01*
X135715171Y-106922024D01*
X135788054Y-106965850D01*
X135892678Y-107032557D01*
X136020910Y-107116964D01*
X136163052Y-107212816D01*
X136307767Y-107309867D01*
X136438196Y-107394270D01*
X136545890Y-107460801D01*
X136622402Y-107504238D01*
X136658938Y-107519368D01*
X136692582Y-107499482D01*
X136760224Y-107443903D01*
X136855107Y-107358754D01*
X136970470Y-107250153D01*
X137099555Y-107124221D01*
X137141771Y-107082149D01*
X137578261Y-106644931D01*
X137246023Y-106157340D01*
X137145054Y-106007605D01*
X137056438Y-105873220D01*
X136985146Y-105761969D01*
X136936150Y-105681639D01*
X136914422Y-105640014D01*
X136913785Y-105637053D01*
X136925240Y-105597818D01*
X136956051Y-105518895D01*
X137000884Y-105413509D01*
X137032353Y-105342954D01*
X137091192Y-105207876D01*
X137146604Y-105071409D01*
X137189564Y-104956103D01*
X137201234Y-104920977D01*
X137234389Y-104827174D01*
X137266799Y-104754694D01*
X137284601Y-104727301D01*
X137323886Y-104710536D01*
X137409626Y-104686770D01*
X137530697Y-104658697D01*
X137675973Y-104629009D01*
X137740988Y-104616806D01*
X137906087Y-104586468D01*
X138064448Y-104557093D01*
X138200596Y-104531569D01*
X138299057Y-104512785D01*
X138317598Y-104509160D01*
X138470873Y-104478906D01*
X138470873Y-103840645D01*
X138470529Y-103630770D01*
X138469116Y-103471980D01*
X138466064Y-103356973D01*
X138460803Y-103278446D01*
X138452763Y-103229096D01*
X138441373Y-103201619D01*
X138426063Y-103188713D01*
X138419782Y-103186320D01*
X138381896Y-103177833D01*
X138298195Y-103160900D01*
X138179433Y-103137566D01*
X138036361Y-103109875D01*
X137879732Y-103079873D01*
X137720297Y-103049604D01*
X137568809Y-103021115D01*
X137436019Y-102996449D01*
X137332681Y-102977651D01*
X137269545Y-102966767D01*
X137255497Y-102964885D01*
X137242770Y-102939704D01*
X137214600Y-102872622D01*
X137176252Y-102776333D01*
X137161609Y-102738621D01*
X137102548Y-102592921D01*
X137033000Y-102431951D01*
X136970712Y-102296291D01*
X136924879Y-102192561D01*
X136894387Y-102107326D01*
X136884208Y-102055126D01*
X136885831Y-102048130D01*
X136907343Y-102015102D01*
X136956465Y-101941643D01*
X137027923Y-101835577D01*
X137116445Y-101704726D01*
X137216759Y-101556912D01*
X137236594Y-101527734D01*
X137352988Y-101354863D01*
X137438548Y-101223226D01*
X137496684Y-101126761D01*
X137530808Y-101059408D01*
X137544331Y-101015106D01*
X137540664Y-100987794D01*
X137540570Y-100987620D01*
X137511707Y-100951746D01*
X137447867Y-100882391D01*
X137355969Y-100786745D01*
X137242933Y-100671999D01*
X137115679Y-100545341D01*
X137101328Y-100531205D01*
X136940957Y-100375903D01*
X136817195Y-100261870D01*
X136727555Y-100187002D01*
X136669552Y-100149196D01*
X136644004Y-100144317D01*
X136606718Y-100165603D01*
X136529343Y-100214773D01*
X136419867Y-100286575D01*
X136286280Y-100375755D01*
X136136570Y-100477063D01*
X136101618Y-100500897D01*
X135605390Y-100839765D01*
X135381293Y-100738056D01*
X135245011Y-100678783D01*
X135098724Y-100619170D01*
X134972965Y-100571640D01*
X134967425Y-100569685D01*
X134869057Y-100533677D01*
X134793229Y-100503229D01*
X134756282Y-100484905D01*
X134756220Y-100484852D01*
X134744496Y-100451729D01*
X134724568Y-100370267D01*
X134698413Y-100249625D01*
X134668010Y-100098959D01*
X134635337Y-99927428D01*
X134632664Y-99912967D01*
X134599890Y-99736235D01*
X134569802Y-99575810D01*
X134544339Y-99441888D01*
X134525441Y-99344663D01*
X134515047Y-99294332D01*
X134514865Y-99293563D01*
X134508539Y-99272153D01*
X134496239Y-99255988D01*
X134470594Y-99244331D01*
X134424235Y-99236445D01*
X134349792Y-99231593D01*
X134239895Y-99229039D01*
X134087175Y-99228045D01*
X133884262Y-99227874D01*
X133858000Y-99227874D01*
X133648986Y-99227998D01*
G36*
X127514561Y-108731540D02*
G01*
X127399050Y-108807034D01*
X127343336Y-108874617D01*
X127299196Y-108997255D01*
X127295691Y-109094298D01*
X127303632Y-109224056D01*
X127602885Y-109355039D01*
X127748389Y-109421958D01*
X127843463Y-109475790D01*
X127892899Y-109522416D01*
X127901489Y-109567720D01*
X127874028Y-109617582D01*
X127843747Y-109650632D01*
X127755637Y-109703633D01*
X127659804Y-109707347D01*
X127571788Y-109666041D01*
X127507131Y-109583983D01*
X127495567Y-109555008D01*
X127440175Y-109464509D01*
X127376447Y-109425940D01*
X127289034Y-109392946D01*
X127289034Y-109518034D01*
X127296762Y-109603156D01*
X127327034Y-109674938D01*
X127390482Y-109757356D01*
X127399912Y-109768066D01*
X127470487Y-109841391D01*
X127531153Y-109880742D01*
X127607050Y-109898845D01*
X127669970Y-109904774D01*
X127782513Y-109906251D01*
X127862630Y-109887535D01*
X127912610Y-109859747D01*
X127991162Y-109798641D01*
X128045537Y-109732554D01*
X128079948Y-109649441D01*
X128098612Y-109537254D01*
X128105744Y-109383946D01*
X128106313Y-109306136D01*
X128104378Y-109212853D01*
X127928101Y-109212853D01*
X127926056Y-109262896D01*
X127920961Y-109271092D01*
X127887334Y-109259958D01*
X127814970Y-109230493D01*
X127718253Y-109188601D01*
X127698027Y-109179597D01*
X127575797Y-109117442D01*
X127508453Y-109062815D01*
X127493652Y-109011649D01*
X127529053Y-108959876D01*
X127558289Y-108937000D01*
X127663784Y-108891250D01*
X127762524Y-108898808D01*
X127845188Y-108954651D01*
X127902452Y-109053753D01*
X127920812Y-109132414D01*
X127928101Y-109212853D01*
X128104378Y-109212853D01*
X128102541Y-109124351D01*
X128088641Y-108989853D01*
X128061106Y-108891916D01*
X128016428Y-108819811D01*
X127951099Y-108762813D01*
X127922617Y-108744393D01*
X127793237Y-108696422D01*
X127651588Y-108693403D01*
X127514561Y-108731540D01*
X127514561Y-108731540D01*
G37*
X127514561Y-108731540D02*
X127399050Y-108807034D01*
X127343336Y-108874617D01*
X127299196Y-108997255D01*
X127295691Y-109094298D01*
X127303632Y-109224056D01*
X127602885Y-109355039D01*
X127748389Y-109421958D01*
X127843463Y-109475790D01*
X127892899Y-109522416D01*
X127901489Y-109567720D01*
X127874028Y-109617582D01*
X127843747Y-109650632D01*
X127755637Y-109703633D01*
X127659804Y-109707347D01*
X127571788Y-109666041D01*
X127507131Y-109583983D01*
X127495567Y-109555008D01*
X127440175Y-109464509D01*
X127376447Y-109425940D01*
X127289034Y-109392946D01*
X127289034Y-109518034D01*
X127296762Y-109603156D01*
X127327034Y-109674938D01*
X127390482Y-109757356D01*
X127399912Y-109768066D01*
X127470487Y-109841391D01*
X127531153Y-109880742D01*
X127607050Y-109898845D01*
X127669970Y-109904774D01*
X127782513Y-109906251D01*
X127862630Y-109887535D01*
X127912610Y-109859747D01*
X127991162Y-109798641D01*
X128045537Y-109732554D01*
X128079948Y-109649441D01*
X128098612Y-109537254D01*
X128105744Y-109383946D01*
X128106313Y-109306136D01*
X128104378Y-109212853D01*
X127928101Y-109212853D01*
X127926056Y-109262896D01*
X127920961Y-109271092D01*
X127887334Y-109259958D01*
X127814970Y-109230493D01*
X127718253Y-109188601D01*
X127698027Y-109179597D01*
X127575797Y-109117442D01*
X127508453Y-109062815D01*
X127493652Y-109011649D01*
X127529053Y-108959876D01*
X127558289Y-108937000D01*
X127663784Y-108891250D01*
X127762524Y-108898808D01*
X127845188Y-108954651D01*
X127902452Y-109053753D01*
X127920812Y-109132414D01*
X127928101Y-109212853D01*
X128104378Y-109212853D01*
X128102541Y-109124351D01*
X128088641Y-108989853D01*
X128061106Y-108891916D01*
X128016428Y-108819811D01*
X127951099Y-108762813D01*
X127922617Y-108744393D01*
X127793237Y-108696422D01*
X127651588Y-108693403D01*
X127514561Y-108731540D01*
G36*
X128522310Y-108715018D02*
G01*
X128487415Y-108730269D01*
X128404123Y-108796235D01*
X128332897Y-108891618D01*
X128288847Y-108993406D01*
X128281678Y-109043587D01*
X128305715Y-109113647D01*
X128358439Y-109150717D01*
X128414969Y-109173164D01*
X128440854Y-109177300D01*
X128453458Y-109147283D01*
X128478346Y-109081961D01*
X128489265Y-109052445D01*
X128550492Y-108950348D01*
X128639139Y-108899423D01*
X128752807Y-108900989D01*
X128761226Y-108902994D01*
X128821912Y-108931767D01*
X128866526Y-108987859D01*
X128896998Y-109078163D01*
X128915256Y-109209571D01*
X128923229Y-109388974D01*
X128923977Y-109484433D01*
X128924348Y-109634913D01*
X128926777Y-109737495D01*
X128933240Y-109802672D01*
X128945712Y-109840938D01*
X128966167Y-109862785D01*
X128996581Y-109878707D01*
X128998339Y-109879509D01*
X129056909Y-109904272D01*
X129085925Y-109913391D01*
X129090384Y-109885822D01*
X129094201Y-109809620D01*
X129097101Y-109694541D01*
X129098809Y-109550341D01*
X129099149Y-109444814D01*
X129097412Y-109240613D01*
X129090618Y-109085697D01*
X129076393Y-108971024D01*
X129052362Y-108887551D01*
X129016152Y-108826236D01*
X128965388Y-108778034D01*
X128915261Y-108744393D01*
X128794725Y-108699619D01*
X128654443Y-108689521D01*
X128522310Y-108715018D01*
X128522310Y-108715018D01*
G37*
X128522310Y-108715018D02*
X128487415Y-108730269D01*
X128404123Y-108796235D01*
X128332897Y-108891618D01*
X128288847Y-108993406D01*
X128281678Y-109043587D01*
X128305715Y-109113647D01*
X128358439Y-109150717D01*
X128414969Y-109173164D01*
X128440854Y-109177300D01*
X128453458Y-109147283D01*
X128478346Y-109081961D01*
X128489265Y-109052445D01*
X128550492Y-108950348D01*
X128639139Y-108899423D01*
X128752807Y-108900989D01*
X128761226Y-108902994D01*
X128821912Y-108931767D01*
X128866526Y-108987859D01*
X128896998Y-109078163D01*
X128915256Y-109209571D01*
X128923229Y-109388974D01*
X128923977Y-109484433D01*
X128924348Y-109634913D01*
X128926777Y-109737495D01*
X128933240Y-109802672D01*
X128945712Y-109840938D01*
X128966167Y-109862785D01*
X128996581Y-109878707D01*
X128998339Y-109879509D01*
X129056909Y-109904272D01*
X129085925Y-109913391D01*
X129090384Y-109885822D01*
X129094201Y-109809620D01*
X129097101Y-109694541D01*
X129098809Y-109550341D01*
X129099149Y-109444814D01*
X129097412Y-109240613D01*
X129090618Y-109085697D01*
X129076393Y-108971024D01*
X129052362Y-108887551D01*
X129016152Y-108826236D01*
X128965388Y-108778034D01*
X128915261Y-108744393D01*
X128794725Y-108699619D01*
X128654443Y-108689521D01*
X128522310Y-108715018D01*
G36*
X129543594Y-108710156D02*
G01*
X129459531Y-108748393D01*
X129393550Y-108794726D01*
X129345206Y-108846532D01*
X129311828Y-108913363D01*
X129290747Y-109004769D01*
X129279293Y-109130301D01*
X129274797Y-109299508D01*
X129274322Y-109410933D01*
X129274322Y-109845627D01*
X129348684Y-109879509D01*
X129407254Y-109904272D01*
X129436270Y-109913391D01*
X129441821Y-109886257D01*
X129446225Y-109813094D01*
X129448922Y-109706263D01*
X129449494Y-109621437D01*
X129451954Y-109498887D01*
X129458588Y-109401668D01*
X129468274Y-109342134D01*
X129475968Y-109329483D01*
X129527689Y-109342402D01*
X129608883Y-109375539D01*
X129702898Y-109420461D01*
X129793083Y-109468735D01*
X129862785Y-109511928D01*
X129895352Y-109541608D01*
X129895481Y-109541929D01*
X129892680Y-109596857D01*
X129867561Y-109649292D01*
X129823459Y-109691881D01*
X129759091Y-109706126D01*
X129704079Y-109704466D01*
X129626165Y-109703245D01*
X129585268Y-109721498D01*
X129560705Y-109769726D01*
X129557608Y-109778820D01*
X129546960Y-109847598D01*
X129575435Y-109889360D01*
X129649656Y-109909263D01*
X129729832Y-109912944D01*
X129874110Y-109885658D01*
X129948797Y-109846690D01*
X130041037Y-109755148D01*
X130089957Y-109642782D01*
X130094346Y-109524051D01*
X130052999Y-109413411D01*
X129990803Y-109344080D01*
X129928706Y-109305265D01*
X129831105Y-109256125D01*
X129717368Y-109206292D01*
X129698410Y-109198677D01*
X129573479Y-109143545D01*
X129501461Y-109094954D01*
X129478300Y-109046647D01*
X129499936Y-108992370D01*
X129537080Y-108949943D01*
X129624873Y-108897702D01*
X129721470Y-108893784D01*
X129810056Y-108934041D01*
X129873814Y-109014326D01*
X129882183Y-109035040D01*
X129930904Y-109111225D01*
X130002035Y-109167785D01*
X130091793Y-109214201D01*
X130091793Y-109082584D01*
X130086510Y-109002168D01*
X130063858Y-108938786D01*
X130013633Y-108871163D01*
X129965418Y-108819076D01*
X129890446Y-108745322D01*
X129832194Y-108705702D01*
X129769628Y-108689810D01*
X129698807Y-108687184D01*
X129543594Y-108710156D01*
X129543594Y-108710156D01*
G37*
X129543594Y-108710156D02*
X129459531Y-108748393D01*
X129393550Y-108794726D01*
X129345206Y-108846532D01*
X129311828Y-108913363D01*
X129290747Y-109004769D01*
X129279293Y-109130301D01*
X129274797Y-109299508D01*
X129274322Y-109410933D01*
X129274322Y-109845627D01*
X129348684Y-109879509D01*
X129407254Y-109904272D01*
X129436270Y-109913391D01*
X129441821Y-109886257D01*
X129446225Y-109813094D01*
X129448922Y-109706263D01*
X129449494Y-109621437D01*
X129451954Y-109498887D01*
X129458588Y-109401668D01*
X129468274Y-109342134D01*
X129475968Y-109329483D01*
X129527689Y-109342402D01*
X129608883Y-109375539D01*
X129702898Y-109420461D01*
X129793083Y-109468735D01*
X129862785Y-109511928D01*
X129895352Y-109541608D01*
X129895481Y-109541929D01*
X129892680Y-109596857D01*
X129867561Y-109649292D01*
X129823459Y-109691881D01*
X129759091Y-109706126D01*
X129704079Y-109704466D01*
X129626165Y-109703245D01*
X129585268Y-109721498D01*
X129560705Y-109769726D01*
X129557608Y-109778820D01*
X129546960Y-109847598D01*
X129575435Y-109889360D01*
X129649656Y-109909263D01*
X129729832Y-109912944D01*
X129874110Y-109885658D01*
X129948797Y-109846690D01*
X130041037Y-109755148D01*
X130089957Y-109642782D01*
X130094346Y-109524051D01*
X130052999Y-109413411D01*
X129990803Y-109344080D01*
X129928706Y-109305265D01*
X129831105Y-109256125D01*
X129717368Y-109206292D01*
X129698410Y-109198677D01*
X129573479Y-109143545D01*
X129501461Y-109094954D01*
X129478300Y-109046647D01*
X129499936Y-108992370D01*
X129537080Y-108949943D01*
X129624873Y-108897702D01*
X129721470Y-108893784D01*
X129810056Y-108934041D01*
X129873814Y-109014326D01*
X129882183Y-109035040D01*
X129930904Y-109111225D01*
X130002035Y-109167785D01*
X130091793Y-109214201D01*
X130091793Y-109082584D01*
X130086510Y-109002168D01*
X130063858Y-108938786D01*
X130013633Y-108871163D01*
X129965418Y-108819076D01*
X129890446Y-108745322D01*
X129832194Y-108705702D01*
X129769628Y-108689810D01*
X129698807Y-108687184D01*
X129543594Y-108710156D01*
G36*
X130277876Y-108714840D02*
G01*
X130273421Y-108791653D01*
X130269929Y-108908391D01*
X130267685Y-109055821D01*
X130266965Y-109210455D01*
X130266965Y-109733727D01*
X130359355Y-109826117D01*
X130423022Y-109883047D01*
X130478911Y-109906107D01*
X130555298Y-109904647D01*
X130585620Y-109900934D01*
X130680390Y-109890126D01*
X130758778Y-109883933D01*
X130777885Y-109883361D01*
X130842301Y-109887102D01*
X130934429Y-109896494D01*
X130970150Y-109900934D01*
X131057886Y-109907801D01*
X131116847Y-109892885D01*
X131175310Y-109846835D01*
X131196415Y-109826117D01*
X131288805Y-109733727D01*
X131288805Y-108754947D01*
X131214442Y-108721066D01*
X131150410Y-108695970D01*
X131112948Y-108687184D01*
X131103343Y-108714950D01*
X131094365Y-108792530D01*
X131086614Y-108911348D01*
X131080686Y-109062828D01*
X131077827Y-109190805D01*
X131069839Y-109694425D01*
X131000152Y-109704278D01*
X130936771Y-109697389D01*
X130905714Y-109675083D01*
X130897033Y-109633379D01*
X130889622Y-109544544D01*
X130884069Y-109419834D01*
X130880964Y-109270507D01*
X130880516Y-109193661D01*
X130880069Y-108751287D01*
X130788126Y-108719235D01*
X130723051Y-108697443D01*
X130687653Y-108687281D01*
X130686632Y-108687184D01*
X130683080Y-108714809D01*
X130679177Y-108791411D01*
X130675249Y-108907579D01*
X130671624Y-109053904D01*
X130669092Y-109190805D01*
X130661103Y-109694425D01*
X130485931Y-109694425D01*
X130477893Y-109234965D01*
X130469854Y-108775505D01*
X130384457Y-108731344D01*
X130321407Y-108701019D01*
X130284090Y-108687258D01*
X130283013Y-108687184D01*
X130277876Y-108714840D01*
X130277876Y-108714840D01*
G37*
X130277876Y-108714840D02*
X130273421Y-108791653D01*
X130269929Y-108908391D01*
X130267685Y-109055821D01*
X130266965Y-109210455D01*
X130266965Y-109733727D01*
X130359355Y-109826117D01*
X130423022Y-109883047D01*
X130478911Y-109906107D01*
X130555298Y-109904647D01*
X130585620Y-109900934D01*
X130680390Y-109890126D01*
X130758778Y-109883933D01*
X130777885Y-109883361D01*
X130842301Y-109887102D01*
X130934429Y-109896494D01*
X130970150Y-109900934D01*
X131057886Y-109907801D01*
X131116847Y-109892885D01*
X131175310Y-109846835D01*
X131196415Y-109826117D01*
X131288805Y-109733727D01*
X131288805Y-108754947D01*
X131214442Y-108721066D01*
X131150410Y-108695970D01*
X131112948Y-108687184D01*
X131103343Y-108714950D01*
X131094365Y-108792530D01*
X131086614Y-108911348D01*
X131080686Y-109062828D01*
X131077827Y-109190805D01*
X131069839Y-109694425D01*
X131000152Y-109704278D01*
X130936771Y-109697389D01*
X130905714Y-109675083D01*
X130897033Y-109633379D01*
X130889622Y-109544544D01*
X130884069Y-109419834D01*
X130880964Y-109270507D01*
X130880516Y-109193661D01*
X130880069Y-108751287D01*
X130788126Y-108719235D01*
X130723051Y-108697443D01*
X130687653Y-108687281D01*
X130686632Y-108687184D01*
X130683080Y-108714809D01*
X130679177Y-108791411D01*
X130675249Y-108907579D01*
X130671624Y-109053904D01*
X130669092Y-109190805D01*
X130661103Y-109694425D01*
X130485931Y-109694425D01*
X130477893Y-109234965D01*
X130469854Y-108775505D01*
X130384457Y-108731344D01*
X130321407Y-108701019D01*
X130284090Y-108687258D01*
X130283013Y-108687184D01*
X130277876Y-108714840D01*
G36*
X131464086Y-108929455D02*
G01*
X131464457Y-109147661D01*
X131465892Y-109315519D01*
X131468998Y-109441070D01*
X131474378Y-109532355D01*
X131482638Y-109597415D01*
X131494384Y-109644291D01*
X131510219Y-109681024D01*
X131522210Y-109701991D01*
X131621510Y-109815694D01*
X131747412Y-109886965D01*
X131886709Y-109912538D01*
X132026195Y-109889150D01*
X132109257Y-109847119D01*
X132196455Y-109774411D01*
X132255883Y-109685612D01*
X132291739Y-109569320D01*
X132308219Y-109414135D01*
X132310553Y-109300287D01*
X132310239Y-109292106D01*
X132106276Y-109292106D01*
X132105030Y-109422657D01*
X132099322Y-109509080D01*
X132086196Y-109565618D01*
X132062694Y-109606514D01*
X132034614Y-109637362D01*
X131940312Y-109696905D01*
X131839060Y-109701992D01*
X131743364Y-109652279D01*
X131735916Y-109645543D01*
X131704126Y-109610502D01*
X131684192Y-109568811D01*
X131673400Y-109506762D01*
X131669035Y-109410644D01*
X131668345Y-109304379D01*
X131669841Y-109170880D01*
X131676036Y-109081822D01*
X131689486Y-109023293D01*
X131712749Y-108981382D01*
X131731825Y-108959123D01*
X131820437Y-108902985D01*
X131922492Y-108896235D01*
X132019905Y-108939114D01*
X132038704Y-108955032D01*
X132070707Y-108990382D01*
X132090682Y-109032502D01*
X132101407Y-109095251D01*
X132105661Y-109192487D01*
X132106276Y-109292106D01*
X132310239Y-109292106D01*
X132303496Y-109116947D01*
X132279528Y-108979195D01*
X132234452Y-108875632D01*
X132164072Y-108794856D01*
X132109257Y-108753455D01*
X132009624Y-108708728D01*
X131894145Y-108687967D01*
X131786801Y-108693525D01*
X131726736Y-108715943D01*
X131703165Y-108722323D01*
X131687523Y-108698535D01*
X131676605Y-108634788D01*
X131668345Y-108537687D01*
X131659301Y-108429541D01*
X131646739Y-108364475D01*
X131623881Y-108327268D01*
X131583949Y-108302699D01*
X131558862Y-108291819D01*
X131463977Y-108252072D01*
X131464086Y-108929455D01*
X131464086Y-108929455D01*
G37*
X131464086Y-108929455D02*
X131464457Y-109147661D01*
X131465892Y-109315519D01*
X131468998Y-109441070D01*
X131474378Y-109532355D01*
X131482638Y-109597415D01*
X131494384Y-109644291D01*
X131510219Y-109681024D01*
X131522210Y-109701991D01*
X131621510Y-109815694D01*
X131747412Y-109886965D01*
X131886709Y-109912538D01*
X132026195Y-109889150D01*
X132109257Y-109847119D01*
X132196455Y-109774411D01*
X132255883Y-109685612D01*
X132291739Y-109569320D01*
X132308219Y-109414135D01*
X132310553Y-109300287D01*
X132310239Y-109292106D01*
X132106276Y-109292106D01*
X132105030Y-109422657D01*
X132099322Y-109509080D01*
X132086196Y-109565618D01*
X132062694Y-109606514D01*
X132034614Y-109637362D01*
X131940312Y-109696905D01*
X131839060Y-109701992D01*
X131743364Y-109652279D01*
X131735916Y-109645543D01*
X131704126Y-109610502D01*
X131684192Y-109568811D01*
X131673400Y-109506762D01*
X131669035Y-109410644D01*
X131668345Y-109304379D01*
X131669841Y-109170880D01*
X131676036Y-109081822D01*
X131689486Y-109023293D01*
X131712749Y-108981382D01*
X131731825Y-108959123D01*
X131820437Y-108902985D01*
X131922492Y-108896235D01*
X132019905Y-108939114D01*
X132038704Y-108955032D01*
X132070707Y-108990382D01*
X132090682Y-109032502D01*
X132101407Y-109095251D01*
X132105661Y-109192487D01*
X132106276Y-109292106D01*
X132310239Y-109292106D01*
X132303496Y-109116947D01*
X132279528Y-108979195D01*
X132234452Y-108875632D01*
X132164072Y-108794856D01*
X132109257Y-108753455D01*
X132009624Y-108708728D01*
X131894145Y-108687967D01*
X131786801Y-108693525D01*
X131726736Y-108715943D01*
X131703165Y-108722323D01*
X131687523Y-108698535D01*
X131676605Y-108634788D01*
X131668345Y-108537687D01*
X131659301Y-108429541D01*
X131646739Y-108364475D01*
X131623881Y-108327268D01*
X131583949Y-108302699D01*
X131558862Y-108291819D01*
X131463977Y-108252072D01*
X131464086Y-108929455D01*
G36*
X132792057Y-108696920D02*
G01*
X132659435Y-108745859D01*
X132551990Y-108832419D01*
X132509968Y-108893352D01*
X132464157Y-109005161D01*
X132465109Y-109086006D01*
X132513192Y-109140378D01*
X132530983Y-109149624D01*
X132607796Y-109178450D01*
X132647024Y-109171065D01*
X132660311Y-109122658D01*
X132660988Y-109095920D01*
X132685314Y-108997548D01*
X132748719Y-108928734D01*
X132836846Y-108895498D01*
X132935337Y-108903861D01*
X133015398Y-108947296D01*
X133042439Y-108972072D01*
X133061606Y-109002129D01*
X133074554Y-109047565D01*
X133082936Y-109118476D01*
X133088407Y-109224960D01*
X133092622Y-109377112D01*
X133093713Y-109425287D01*
X133097693Y-109590095D01*
X133102219Y-109706088D01*
X133109005Y-109782833D01*
X133119769Y-109829893D01*
X133136227Y-109856835D01*
X133160094Y-109873223D01*
X133175374Y-109880463D01*
X133240267Y-109905220D01*
X133278466Y-109913391D01*
X133291088Y-109886103D01*
X133298792Y-109803603D01*
X133301620Y-109664941D01*
X133299614Y-109469162D01*
X133298989Y-109438965D01*
X133294579Y-109260349D01*
X133289365Y-109129923D01*
X133281945Y-109037492D01*
X133270918Y-108972858D01*
X133254883Y-108925825D01*
X133232439Y-108886196D01*
X133220698Y-108869215D01*
X133153381Y-108794080D01*
X133078090Y-108735638D01*
X133068872Y-108730536D01*
X132933867Y-108690260D01*
X132792057Y-108696920D01*
X132792057Y-108696920D01*
G37*
X132792057Y-108696920D02*
X132659435Y-108745859D01*
X132551990Y-108832419D01*
X132509968Y-108893352D01*
X132464157Y-109005161D01*
X132465109Y-109086006D01*
X132513192Y-109140378D01*
X132530983Y-109149624D01*
X132607796Y-109178450D01*
X132647024Y-109171065D01*
X132660311Y-109122658D01*
X132660988Y-109095920D01*
X132685314Y-108997548D01*
X132748719Y-108928734D01*
X132836846Y-108895498D01*
X132935337Y-108903861D01*
X133015398Y-108947296D01*
X133042439Y-108972072D01*
X133061606Y-109002129D01*
X133074554Y-109047565D01*
X133082936Y-109118476D01*
X133088407Y-109224960D01*
X133092622Y-109377112D01*
X133093713Y-109425287D01*
X133097693Y-109590095D01*
X133102219Y-109706088D01*
X133109005Y-109782833D01*
X133119769Y-109829893D01*
X133136227Y-109856835D01*
X133160094Y-109873223D01*
X133175374Y-109880463D01*
X133240267Y-109905220D01*
X133278466Y-109913391D01*
X133291088Y-109886103D01*
X133298792Y-109803603D01*
X133301620Y-109664941D01*
X133299614Y-109469162D01*
X133298989Y-109438965D01*
X133294579Y-109260349D01*
X133289365Y-109129923D01*
X133281945Y-109037492D01*
X133270918Y-108972858D01*
X133254883Y-108925825D01*
X133232439Y-108886196D01*
X133220698Y-108869215D01*
X133153381Y-108794080D01*
X133078090Y-108735638D01*
X133068872Y-108730536D01*
X132933867Y-108690260D01*
X132792057Y-108696920D01*
G36*
X133778056Y-108699360D02*
G01*
X133663657Y-108741842D01*
X133662348Y-108742658D01*
X133591597Y-108794730D01*
X133539364Y-108855584D01*
X133502629Y-108934887D01*
X133478366Y-109042309D01*
X133463555Y-109187517D01*
X133455171Y-109380179D01*
X133454436Y-109407628D01*
X133443880Y-109821521D01*
X133532709Y-109867456D01*
X133596982Y-109898498D01*
X133635790Y-109913206D01*
X133637585Y-109913391D01*
X133644300Y-109886250D01*
X133649635Y-109813041D01*
X133652917Y-109706081D01*
X133653632Y-109619469D01*
X133653649Y-109479162D01*
X133660063Y-109391051D01*
X133682420Y-109349025D01*
X133730268Y-109346975D01*
X133813151Y-109378790D01*
X133938287Y-109437272D01*
X134030303Y-109485845D01*
X134077629Y-109527986D01*
X134091542Y-109573916D01*
X134091563Y-109576189D01*
X134068605Y-109655311D01*
X134000630Y-109698055D01*
X133896602Y-109704246D01*
X133821670Y-109703172D01*
X133782161Y-109724753D01*
X133757522Y-109776591D01*
X133743341Y-109842632D01*
X133763777Y-109880104D01*
X133771472Y-109885467D01*
X133843917Y-109907006D01*
X133945367Y-109910055D01*
X134049843Y-109895778D01*
X134123875Y-109869688D01*
X134226228Y-109782785D01*
X134284409Y-109661816D01*
X134295931Y-109567308D01*
X134287138Y-109482062D01*
X134255320Y-109412476D01*
X134192316Y-109350672D01*
X134089969Y-109288772D01*
X133940118Y-109218897D01*
X133930988Y-109214948D01*
X133796003Y-109152588D01*
X133712706Y-109101446D01*
X133677003Y-109055488D01*
X133684797Y-109008683D01*
X133731993Y-108954998D01*
X133746106Y-108942644D01*
X133840641Y-108894741D01*
X133938594Y-108896758D01*
X134023903Y-108943724D01*
X134080504Y-109030669D01*
X134085763Y-109047734D01*
X134136977Y-109130504D01*
X134201963Y-109170372D01*
X134295931Y-109209882D01*
X134295931Y-109107658D01*
X134267347Y-108959072D01*
X134182505Y-108822784D01*
X134138355Y-108777191D01*
X134037995Y-108718674D01*
X133910365Y-108692184D01*
X133778056Y-108699360D01*
X133778056Y-108699360D01*
G37*
X133778056Y-108699360D02*
X133663657Y-108741842D01*
X133662348Y-108742658D01*
X133591597Y-108794730D01*
X133539364Y-108855584D01*
X133502629Y-108934887D01*
X133478366Y-109042309D01*
X133463555Y-109187517D01*
X133455171Y-109380179D01*
X133454436Y-109407628D01*
X133443880Y-109821521D01*
X133532709Y-109867456D01*
X133596982Y-109898498D01*
X133635790Y-109913206D01*
X133637585Y-109913391D01*
X133644300Y-109886250D01*
X133649635Y-109813041D01*
X133652917Y-109706081D01*
X133653632Y-109619469D01*
X133653649Y-109479162D01*
X133660063Y-109391051D01*
X133682420Y-109349025D01*
X133730268Y-109346975D01*
X133813151Y-109378790D01*
X133938287Y-109437272D01*
X134030303Y-109485845D01*
X134077629Y-109527986D01*
X134091542Y-109573916D01*
X134091563Y-109576189D01*
X134068605Y-109655311D01*
X134000630Y-109698055D01*
X133896602Y-109704246D01*
X133821670Y-109703172D01*
X133782161Y-109724753D01*
X133757522Y-109776591D01*
X133743341Y-109842632D01*
X133763777Y-109880104D01*
X133771472Y-109885467D01*
X133843917Y-109907006D01*
X133945367Y-109910055D01*
X134049843Y-109895778D01*
X134123875Y-109869688D01*
X134226228Y-109782785D01*
X134284409Y-109661816D01*
X134295931Y-109567308D01*
X134287138Y-109482062D01*
X134255320Y-109412476D01*
X134192316Y-109350672D01*
X134089969Y-109288772D01*
X133940118Y-109218897D01*
X133930988Y-109214948D01*
X133796003Y-109152588D01*
X133712706Y-109101446D01*
X133677003Y-109055488D01*
X133684797Y-109008683D01*
X133731993Y-108954998D01*
X133746106Y-108942644D01*
X133840641Y-108894741D01*
X133938594Y-108896758D01*
X134023903Y-108943724D01*
X134080504Y-109030669D01*
X134085763Y-109047734D01*
X134136977Y-109130504D01*
X134201963Y-109170372D01*
X134295931Y-109209882D01*
X134295931Y-109107658D01*
X134267347Y-108959072D01*
X134182505Y-108822784D01*
X134138355Y-108777191D01*
X134037995Y-108718674D01*
X133910365Y-108692184D01*
X133778056Y-108699360D01*
G36*
X135113402Y-108498857D02*
G01*
X135104846Y-108618188D01*
X135095019Y-108688506D01*
X135081401Y-108719179D01*
X135061473Y-108719571D01*
X135055011Y-108715910D01*
X134969060Y-108689398D01*
X134857255Y-108690946D01*
X134743586Y-108718199D01*
X134672490Y-108753455D01*
X134599595Y-108809778D01*
X134546307Y-108873519D01*
X134509725Y-108954510D01*
X134486950Y-109062586D01*
X134475081Y-109207580D01*
X134471218Y-109399326D01*
X134471149Y-109436109D01*
X134471103Y-109849288D01*
X134563046Y-109881339D01*
X134628348Y-109903144D01*
X134664176Y-109913297D01*
X134665230Y-109913391D01*
X134668758Y-109885860D01*
X134671761Y-109809923D01*
X134674010Y-109695565D01*
X134675276Y-109552769D01*
X134675471Y-109465951D01*
X134675877Y-109294773D01*
X134677968Y-109172088D01*
X134683053Y-109088000D01*
X134692440Y-109032614D01*
X134707439Y-108996032D01*
X134729358Y-108968359D01*
X134743043Y-108955032D01*
X134837051Y-108901328D01*
X134939636Y-108897307D01*
X135032710Y-108942725D01*
X135049922Y-108959123D01*
X135075168Y-108989957D01*
X135092680Y-109026531D01*
X135103858Y-109079415D01*
X135110104Y-109159177D01*
X135112818Y-109276385D01*
X135113402Y-109437991D01*
X135113402Y-109849288D01*
X135205345Y-109881339D01*
X135270647Y-109903144D01*
X135306475Y-109913297D01*
X135307529Y-109913391D01*
X135310225Y-109885448D01*
X135312655Y-109806630D01*
X135314722Y-109684453D01*
X135316329Y-109526432D01*
X135317377Y-109340083D01*
X135317769Y-109132920D01*
X135317770Y-109123706D01*
X135317770Y-108334020D01*
X135222885Y-108293997D01*
X135128000Y-108253973D01*
X135113402Y-108498857D01*
X135113402Y-108498857D01*
G37*
X135113402Y-108498857D02*
X135104846Y-108618188D01*
X135095019Y-108688506D01*
X135081401Y-108719179D01*
X135061473Y-108719571D01*
X135055011Y-108715910D01*
X134969060Y-108689398D01*
X134857255Y-108690946D01*
X134743586Y-108718199D01*
X134672490Y-108753455D01*
X134599595Y-108809778D01*
X134546307Y-108873519D01*
X134509725Y-108954510D01*
X134486950Y-109062586D01*
X134475081Y-109207580D01*
X134471218Y-109399326D01*
X134471149Y-109436109D01*
X134471103Y-109849288D01*
X134563046Y-109881339D01*
X134628348Y-109903144D01*
X134664176Y-109913297D01*
X134665230Y-109913391D01*
X134668758Y-109885860D01*
X134671761Y-109809923D01*
X134674010Y-109695565D01*
X134675276Y-109552769D01*
X134675471Y-109465951D01*
X134675877Y-109294773D01*
X134677968Y-109172088D01*
X134683053Y-109088000D01*
X134692440Y-109032614D01*
X134707439Y-108996032D01*
X134729358Y-108968359D01*
X134743043Y-108955032D01*
X134837051Y-108901328D01*
X134939636Y-108897307D01*
X135032710Y-108942725D01*
X135049922Y-108959123D01*
X135075168Y-108989957D01*
X135092680Y-109026531D01*
X135103858Y-109079415D01*
X135110104Y-109159177D01*
X135112818Y-109276385D01*
X135113402Y-109437991D01*
X135113402Y-109849288D01*
X135205345Y-109881339D01*
X135270647Y-109903144D01*
X135306475Y-109913297D01*
X135307529Y-109913391D01*
X135310225Y-109885448D01*
X135312655Y-109806630D01*
X135314722Y-109684453D01*
X135316329Y-109526432D01*
X135317377Y-109340083D01*
X135317769Y-109132920D01*
X135317770Y-109123706D01*
X135317770Y-108334020D01*
X135222885Y-108293997D01*
X135128000Y-108253973D01*
X135113402Y-108498857D01*
G36*
X137542448Y-108659676D02*
G01*
X137427342Y-108737111D01*
X137338389Y-108848949D01*
X137285251Y-108991265D01*
X137274503Y-109096015D01*
X137275724Y-109139726D01*
X137285944Y-109173194D01*
X137314039Y-109203179D01*
X137368884Y-109236440D01*
X137459355Y-109279738D01*
X137594328Y-109339833D01*
X137595011Y-109340134D01*
X137719249Y-109397037D01*
X137821127Y-109447565D01*
X137890233Y-109486280D01*
X137916154Y-109507740D01*
X137916161Y-109507913D01*
X137893315Y-109554644D01*
X137839891Y-109606154D01*
X137778558Y-109643261D01*
X137747485Y-109650632D01*
X137662711Y-109625138D01*
X137589707Y-109561291D01*
X137554087Y-109491094D01*
X137519820Y-109439343D01*
X137452697Y-109380409D01*
X137373792Y-109329496D01*
X137304179Y-109301809D01*
X137289623Y-109300287D01*
X137273237Y-109325321D01*
X137272250Y-109389311D01*
X137284292Y-109475593D01*
X137306993Y-109567501D01*
X137337986Y-109648369D01*
X137339552Y-109651509D01*
X137432819Y-109781734D01*
X137553696Y-109870311D01*
X137690973Y-109913786D01*
X137833440Y-109908706D01*
X137969888Y-109851616D01*
X137975955Y-109847602D01*
X138083290Y-109750326D01*
X138153868Y-109623409D01*
X138192926Y-109456526D01*
X138198168Y-109409639D01*
X138207452Y-109188329D01*
X138196322Y-109085124D01*
X137916161Y-109085124D01*
X137912521Y-109149503D01*
X137892611Y-109168291D01*
X137842974Y-109154235D01*
X137764733Y-109121009D01*
X137677274Y-109079359D01*
X137675101Y-109078256D01*
X137600970Y-109039265D01*
X137571219Y-109013244D01*
X137578555Y-108985965D01*
X137609447Y-108950121D01*
X137688040Y-108898251D01*
X137772677Y-108894439D01*
X137848597Y-108932189D01*
X137901035Y-109005001D01*
X137916161Y-109085124D01*
X138196322Y-109085124D01*
X138188356Y-109011261D01*
X138139366Y-108870829D01*
X138071164Y-108772447D01*
X137948065Y-108673030D01*
X137812472Y-108623711D01*
X137674045Y-108620568D01*
X137542448Y-108659676D01*
X137542448Y-108659676D01*
G37*
X137542448Y-108659676D02*
X137427342Y-108737111D01*
X137338389Y-108848949D01*
X137285251Y-108991265D01*
X137274503Y-109096015D01*
X137275724Y-109139726D01*
X137285944Y-109173194D01*
X137314039Y-109203179D01*
X137368884Y-109236440D01*
X137459355Y-109279738D01*
X137594328Y-109339833D01*
X137595011Y-109340134D01*
X137719249Y-109397037D01*
X137821127Y-109447565D01*
X137890233Y-109486280D01*
X137916154Y-109507740D01*
X137916161Y-109507913D01*
X137893315Y-109554644D01*
X137839891Y-109606154D01*
X137778558Y-109643261D01*
X137747485Y-109650632D01*
X137662711Y-109625138D01*
X137589707Y-109561291D01*
X137554087Y-109491094D01*
X137519820Y-109439343D01*
X137452697Y-109380409D01*
X137373792Y-109329496D01*
X137304179Y-109301809D01*
X137289623Y-109300287D01*
X137273237Y-109325321D01*
X137272250Y-109389311D01*
X137284292Y-109475593D01*
X137306993Y-109567501D01*
X137337986Y-109648369D01*
X137339552Y-109651509D01*
X137432819Y-109781734D01*
X137553696Y-109870311D01*
X137690973Y-109913786D01*
X137833440Y-109908706D01*
X137969888Y-109851616D01*
X137975955Y-109847602D01*
X138083290Y-109750326D01*
X138153868Y-109623409D01*
X138192926Y-109456526D01*
X138198168Y-109409639D01*
X138207452Y-109188329D01*
X138196322Y-109085124D01*
X137916161Y-109085124D01*
X137912521Y-109149503D01*
X137892611Y-109168291D01*
X137842974Y-109154235D01*
X137764733Y-109121009D01*
X137677274Y-109079359D01*
X137675101Y-109078256D01*
X137600970Y-109039265D01*
X137571219Y-109013244D01*
X137578555Y-108985965D01*
X137609447Y-108950121D01*
X137688040Y-108898251D01*
X137772677Y-108894439D01*
X137848597Y-108932189D01*
X137901035Y-109005001D01*
X137916161Y-109085124D01*
X138196322Y-109085124D01*
X138188356Y-109011261D01*
X138139366Y-108870829D01*
X138071164Y-108772447D01*
X137948065Y-108673030D01*
X137812472Y-108623711D01*
X137674045Y-108620568D01*
X137542448Y-108659676D01*
G36*
X139809779Y-108641015D02*
G01*
X139672939Y-108712968D01*
X139571949Y-108828766D01*
X139536075Y-108903213D01*
X139508161Y-109014992D01*
X139493871Y-109156227D01*
X139492516Y-109310371D01*
X139503405Y-109460879D01*
X139525847Y-109591205D01*
X139559150Y-109684803D01*
X139569385Y-109700922D01*
X139690618Y-109821249D01*
X139834613Y-109893317D01*
X139990861Y-109914408D01*
X140148852Y-109881802D01*
X140192820Y-109862253D01*
X140278444Y-109802012D01*
X140353592Y-109722135D01*
X140360694Y-109712004D01*
X140389561Y-109663181D01*
X140408643Y-109610990D01*
X140419916Y-109542285D01*
X140425355Y-109443918D01*
X140426938Y-109302744D01*
X140426965Y-109271092D01*
X140426893Y-109261019D01*
X140135011Y-109261019D01*
X140133313Y-109394256D01*
X140126628Y-109482674D01*
X140112575Y-109539785D01*
X140088771Y-109579102D01*
X140076621Y-109592241D01*
X140006764Y-109642172D01*
X139938941Y-109639895D01*
X139870365Y-109596584D01*
X139829465Y-109550346D01*
X139805242Y-109482857D01*
X139791639Y-109376433D01*
X139790706Y-109364020D01*
X139788384Y-109171147D01*
X139812650Y-109027900D01*
X139863176Y-108935160D01*
X139939632Y-108893807D01*
X139966924Y-108891552D01*
X140038589Y-108902893D01*
X140087610Y-108942184D01*
X140117582Y-109017326D01*
X140132101Y-109136222D01*
X140135011Y-109261019D01*
X140426893Y-109261019D01*
X140425878Y-109120659D01*
X140421312Y-109015549D01*
X140411312Y-108942714D01*
X140393921Y-108889108D01*
X140367184Y-108841681D01*
X140361276Y-108832864D01*
X140261968Y-108714007D01*
X140153758Y-108645008D01*
X140022019Y-108617619D01*
X139977283Y-108616281D01*
X139809779Y-108641015D01*
X139809779Y-108641015D01*
G37*
X139809779Y-108641015D02*
X139672939Y-108712968D01*
X139571949Y-108828766D01*
X139536075Y-108903213D01*
X139508161Y-109014992D01*
X139493871Y-109156227D01*
X139492516Y-109310371D01*
X139503405Y-109460879D01*
X139525847Y-109591205D01*
X139559150Y-109684803D01*
X139569385Y-109700922D01*
X139690618Y-109821249D01*
X139834613Y-109893317D01*
X139990861Y-109914408D01*
X140148852Y-109881802D01*
X140192820Y-109862253D01*
X140278444Y-109802012D01*
X140353592Y-109722135D01*
X140360694Y-109712004D01*
X140389561Y-109663181D01*
X140408643Y-109610990D01*
X140419916Y-109542285D01*
X140425355Y-109443918D01*
X140426938Y-109302744D01*
X140426965Y-109271092D01*
X140426893Y-109261019D01*
X140135011Y-109261019D01*
X140133313Y-109394256D01*
X140126628Y-109482674D01*
X140112575Y-109539785D01*
X140088771Y-109579102D01*
X140076621Y-109592241D01*
X140006764Y-109642172D01*
X139938941Y-109639895D01*
X139870365Y-109596584D01*
X139829465Y-109550346D01*
X139805242Y-109482857D01*
X139791639Y-109376433D01*
X139790706Y-109364020D01*
X139788384Y-109171147D01*
X139812650Y-109027900D01*
X139863176Y-108935160D01*
X139939632Y-108893807D01*
X139966924Y-108891552D01*
X140038589Y-108902893D01*
X140087610Y-108942184D01*
X140117582Y-109017326D01*
X140132101Y-109136222D01*
X140135011Y-109261019D01*
X140426893Y-109261019D01*
X140425878Y-109120659D01*
X140421312Y-109015549D01*
X140411312Y-108942714D01*
X140393921Y-108889108D01*
X140367184Y-108841681D01*
X140361276Y-108832864D01*
X140261968Y-108714007D01*
X140153758Y-108645008D01*
X140022019Y-108617619D01*
X139977283Y-108616281D01*
X139809779Y-108641015D01*
G36*
X136440571Y-108652719D02*
G01*
X136346877Y-108706914D01*
X136281736Y-108760707D01*
X136234093Y-108817066D01*
X136201272Y-108885987D01*
X136180594Y-108977468D01*
X136169380Y-109101506D01*
X136164951Y-109268098D01*
X136164437Y-109387851D01*
X136164437Y-109828659D01*
X136288517Y-109884283D01*
X136412598Y-109939907D01*
X136427195Y-109457095D01*
X136433227Y-109276779D01*
X136439555Y-109145901D01*
X136447394Y-109055511D01*
X136457963Y-108996664D01*
X136472477Y-108960413D01*
X136492152Y-108937810D01*
X136498465Y-108932917D01*
X136594112Y-108894706D01*
X136690793Y-108909827D01*
X136748345Y-108949943D01*
X136771755Y-108978370D01*
X136787961Y-109015672D01*
X136798259Y-109072223D01*
X136803951Y-109158394D01*
X136806336Y-109284558D01*
X136806736Y-109416042D01*
X136806814Y-109580999D01*
X136809639Y-109697761D01*
X136819093Y-109776510D01*
X136839060Y-109827431D01*
X136873424Y-109860706D01*
X136926068Y-109886520D01*
X136996383Y-109913344D01*
X137073180Y-109942542D01*
X137064038Y-109424346D01*
X137060357Y-109237539D01*
X137056050Y-109099490D01*
X137049877Y-109000568D01*
X137040598Y-108931145D01*
X137026973Y-108881590D01*
X137007761Y-108842273D01*
X136984598Y-108807584D01*
X136872848Y-108696770D01*
X136736487Y-108632689D01*
X136588175Y-108617339D01*
X136440571Y-108652719D01*
X136440571Y-108652719D01*
G37*
X136440571Y-108652719D02*
X136346877Y-108706914D01*
X136281736Y-108760707D01*
X136234093Y-108817066D01*
X136201272Y-108885987D01*
X136180594Y-108977468D01*
X136169380Y-109101506D01*
X136164951Y-109268098D01*
X136164437Y-109387851D01*
X136164437Y-109828659D01*
X136288517Y-109884283D01*
X136412598Y-109939907D01*
X136427195Y-109457095D01*
X136433227Y-109276779D01*
X136439555Y-109145901D01*
X136447394Y-109055511D01*
X136457963Y-108996664D01*
X136472477Y-108960413D01*
X136492152Y-108937810D01*
X136498465Y-108932917D01*
X136594112Y-108894706D01*
X136690793Y-108909827D01*
X136748345Y-108949943D01*
X136771755Y-108978370D01*
X136787961Y-109015672D01*
X136798259Y-109072223D01*
X136803951Y-109158394D01*
X136806336Y-109284558D01*
X136806736Y-109416042D01*
X136806814Y-109580999D01*
X136809639Y-109697761D01*
X136819093Y-109776510D01*
X136839060Y-109827431D01*
X136873424Y-109860706D01*
X136926068Y-109886520D01*
X136996383Y-109913344D01*
X137073180Y-109942542D01*
X137064038Y-109424346D01*
X137060357Y-109237539D01*
X137056050Y-109099490D01*
X137049877Y-109000568D01*
X137040598Y-108931145D01*
X137026973Y-108881590D01*
X137007761Y-108842273D01*
X136984598Y-108807584D01*
X136872848Y-108696770D01*
X136736487Y-108632689D01*
X136588175Y-108617339D01*
X136440571Y-108652719D01*
G36*
X138686100Y-108636903D02*
G01*
X138574550Y-108692522D01*
X138476092Y-108794931D01*
X138448977Y-108832864D01*
X138419438Y-108882500D01*
X138400272Y-108936412D01*
X138389307Y-109008364D01*
X138384371Y-109112122D01*
X138383287Y-109249101D01*
X138388182Y-109436815D01*
X138405196Y-109577758D01*
X138437823Y-109682908D01*
X138489558Y-109763243D01*
X138563896Y-109829741D01*
X138569358Y-109833678D01*
X138642620Y-109873953D01*
X138730840Y-109893880D01*
X138843038Y-109898793D01*
X139025433Y-109898793D01*
X139025509Y-110075857D01*
X139027207Y-110174470D01*
X139037550Y-110232314D01*
X139064578Y-110267006D01*
X139116332Y-110296164D01*
X139128761Y-110302121D01*
X139186923Y-110330039D01*
X139231956Y-110347672D01*
X139265441Y-110349194D01*
X139288962Y-110328781D01*
X139304100Y-110280607D01*
X139312437Y-110198846D01*
X139315556Y-110077672D01*
X139315040Y-109911260D01*
X139312471Y-109693785D01*
X139311668Y-109628736D01*
X139308778Y-109404502D01*
X139306188Y-109257821D01*
X139025586Y-109257821D01*
X139024009Y-109382326D01*
X139017000Y-109463787D01*
X139001142Y-109517515D01*
X138973019Y-109558823D01*
X138953925Y-109578971D01*
X138875865Y-109637921D01*
X138806753Y-109642720D01*
X138735440Y-109594038D01*
X138733632Y-109592241D01*
X138704617Y-109554618D01*
X138686967Y-109503484D01*
X138678064Y-109424738D01*
X138675291Y-109304276D01*
X138675241Y-109277588D01*
X138681942Y-109111583D01*
X138703752Y-108996505D01*
X138743235Y-108926254D01*
X138802956Y-108894729D01*
X138837472Y-108891552D01*
X138919389Y-108906460D01*
X138975579Y-108955548D01*
X139009402Y-109045362D01*
X139024220Y-109182445D01*
X139025586Y-109257821D01*
X139306188Y-109257821D01*
X139305713Y-109230952D01*
X139301753Y-109100382D01*
X139296174Y-109005087D01*
X139288254Y-108937364D01*
X139277269Y-108889507D01*
X139262499Y-108853813D01*
X139243218Y-108822578D01*
X139234951Y-108810824D01*
X139125288Y-108699797D01*
X138986635Y-108636847D01*
X138826246Y-108619297D01*
X138686100Y-108636903D01*
X138686100Y-108636903D01*
G37*
X138686100Y-108636903D02*
X138574550Y-108692522D01*
X138476092Y-108794931D01*
X138448977Y-108832864D01*
X138419438Y-108882500D01*
X138400272Y-108936412D01*
X138389307Y-109008364D01*
X138384371Y-109112122D01*
X138383287Y-109249101D01*
X138388182Y-109436815D01*
X138405196Y-109577758D01*
X138437823Y-109682908D01*
X138489558Y-109763243D01*
X138563896Y-109829741D01*
X138569358Y-109833678D01*
X138642620Y-109873953D01*
X138730840Y-109893880D01*
X138843038Y-109898793D01*
X139025433Y-109898793D01*
X139025509Y-110075857D01*
X139027207Y-110174470D01*
X139037550Y-110232314D01*
X139064578Y-110267006D01*
X139116332Y-110296164D01*
X139128761Y-110302121D01*
X139186923Y-110330039D01*
X139231956Y-110347672D01*
X139265441Y-110349194D01*
X139288962Y-110328781D01*
X139304100Y-110280607D01*
X139312437Y-110198846D01*
X139315556Y-110077672D01*
X139315040Y-109911260D01*
X139312471Y-109693785D01*
X139311668Y-109628736D01*
X139308778Y-109404502D01*
X139306188Y-109257821D01*
X139025586Y-109257821D01*
X139024009Y-109382326D01*
X139017000Y-109463787D01*
X139001142Y-109517515D01*
X138973019Y-109558823D01*
X138953925Y-109578971D01*
X138875865Y-109637921D01*
X138806753Y-109642720D01*
X138735440Y-109594038D01*
X138733632Y-109592241D01*
X138704617Y-109554618D01*
X138686967Y-109503484D01*
X138678064Y-109424738D01*
X138675291Y-109304276D01*
X138675241Y-109277588D01*
X138681942Y-109111583D01*
X138703752Y-108996505D01*
X138743235Y-108926254D01*
X138802956Y-108894729D01*
X138837472Y-108891552D01*
X138919389Y-108906460D01*
X138975579Y-108955548D01*
X139009402Y-109045362D01*
X139024220Y-109182445D01*
X139025586Y-109257821D01*
X139306188Y-109257821D01*
X139305713Y-109230952D01*
X139301753Y-109100382D01*
X139296174Y-109005087D01*
X139288254Y-108937364D01*
X139277269Y-108889507D01*
X139262499Y-108853813D01*
X139243218Y-108822578D01*
X139234951Y-108810824D01*
X139125288Y-108699797D01*
X138986635Y-108636847D01*
X138826246Y-108619297D01*
X138686100Y-108636903D01*
G36*
X122930177Y-73140533D02*
G01*
X122898798Y-73162776D01*
X122871089Y-73190485D01*
X122871089Y-73499920D01*
X122871162Y-73591799D01*
X122871505Y-73663840D01*
X122872308Y-73718780D01*
X122873759Y-73759360D01*
X122876048Y-73788317D01*
X122879364Y-73808391D01*
X122883895Y-73822321D01*
X122889831Y-73832845D01*
X122894486Y-73839100D01*
X122925217Y-73863673D01*
X122960504Y-73866341D01*
X122992755Y-73851271D01*
X123003412Y-73842374D01*
X123010536Y-73830557D01*
X123014833Y-73811526D01*
X123017009Y-73780992D01*
X123017772Y-73734662D01*
X123017845Y-73698871D01*
X123017845Y-73564045D01*
X123514556Y-73564045D01*
X123514556Y-73686700D01*
X123515069Y-73742787D01*
X123517124Y-73781333D01*
X123521492Y-73807361D01*
X123528944Y-73825897D01*
X123537953Y-73839100D01*
X123568856Y-73863604D01*
X123603804Y-73866506D01*
X123637262Y-73849089D01*
X123646396Y-73839959D01*
X123652848Y-73827855D01*
X123657103Y-73809001D01*
X123659648Y-73779620D01*
X123660971Y-73735937D01*
X123661557Y-73674175D01*
X123661625Y-73660000D01*
X123662109Y-73543631D01*
X123662359Y-73447727D01*
X123662277Y-73370177D01*
X123661769Y-73308869D01*
X123660738Y-73261690D01*
X123659087Y-73226530D01*
X123656721Y-73201276D01*
X123653543Y-73183817D01*
X123649456Y-73172041D01*
X123644366Y-73163835D01*
X123638734Y-73157645D01*
X123606872Y-73137844D01*
X123573643Y-73140533D01*
X123542265Y-73162776D01*
X123529567Y-73177126D01*
X123521474Y-73192978D01*
X123516958Y-73215554D01*
X123514994Y-73250078D01*
X123514556Y-73301776D01*
X123514556Y-73417289D01*
X123017845Y-73417289D01*
X123017845Y-73298756D01*
X123017338Y-73244148D01*
X123015302Y-73207275D01*
X123010965Y-73183307D01*
X123003553Y-73167415D01*
X122995267Y-73157645D01*
X122963406Y-73137844D01*
X122930177Y-73140533D01*
X122930177Y-73140533D01*
G37*
X122930177Y-73140533D02*
X122898798Y-73162776D01*
X122871089Y-73190485D01*
X122871089Y-73499920D01*
X122871162Y-73591799D01*
X122871505Y-73663840D01*
X122872308Y-73718780D01*
X122873759Y-73759360D01*
X122876048Y-73788317D01*
X122879364Y-73808391D01*
X122883895Y-73822321D01*
X122889831Y-73832845D01*
X122894486Y-73839100D01*
X122925217Y-73863673D01*
X122960504Y-73866341D01*
X122992755Y-73851271D01*
X123003412Y-73842374D01*
X123010536Y-73830557D01*
X123014833Y-73811526D01*
X123017009Y-73780992D01*
X123017772Y-73734662D01*
X123017845Y-73698871D01*
X123017845Y-73564045D01*
X123514556Y-73564045D01*
X123514556Y-73686700D01*
X123515069Y-73742787D01*
X123517124Y-73781333D01*
X123521492Y-73807361D01*
X123528944Y-73825897D01*
X123537953Y-73839100D01*
X123568856Y-73863604D01*
X123603804Y-73866506D01*
X123637262Y-73849089D01*
X123646396Y-73839959D01*
X123652848Y-73827855D01*
X123657103Y-73809001D01*
X123659648Y-73779620D01*
X123660971Y-73735937D01*
X123661557Y-73674175D01*
X123661625Y-73660000D01*
X123662109Y-73543631D01*
X123662359Y-73447727D01*
X123662277Y-73370177D01*
X123661769Y-73308869D01*
X123660738Y-73261690D01*
X123659087Y-73226530D01*
X123656721Y-73201276D01*
X123653543Y-73183817D01*
X123649456Y-73172041D01*
X123644366Y-73163835D01*
X123638734Y-73157645D01*
X123606872Y-73137844D01*
X123573643Y-73140533D01*
X123542265Y-73162776D01*
X123529567Y-73177126D01*
X123521474Y-73192978D01*
X123516958Y-73215554D01*
X123514994Y-73250078D01*
X123514556Y-73301776D01*
X123514556Y-73417289D01*
X123017845Y-73417289D01*
X123017845Y-73298756D01*
X123017338Y-73244148D01*
X123015302Y-73207275D01*
X123010965Y-73183307D01*
X123003553Y-73167415D01*
X122995267Y-73157645D01*
X122963406Y-73137844D01*
X122930177Y-73140533D01*
G36*
X124195935Y-73135163D02*
G01*
X124117228Y-73135542D01*
X124056137Y-73136333D01*
X124010183Y-73137670D01*
X123976886Y-73139683D01*
X123953764Y-73142506D01*
X123938338Y-73146269D01*
X123928129Y-73151105D01*
X123923187Y-73154822D01*
X123897543Y-73187358D01*
X123894441Y-73221138D01*
X123910289Y-73251826D01*
X123920652Y-73264089D01*
X123931804Y-73272450D01*
X123947965Y-73277657D01*
X123973358Y-73280457D01*
X124012202Y-73281596D01*
X124068720Y-73281821D01*
X124079820Y-73281822D01*
X124225756Y-73281822D01*
X124225756Y-73552756D01*
X124225852Y-73638154D01*
X124226289Y-73703864D01*
X124227288Y-73752774D01*
X124229072Y-73787773D01*
X124231863Y-73811749D01*
X124235883Y-73827593D01*
X124241355Y-73838191D01*
X124248334Y-73846267D01*
X124281266Y-73866112D01*
X124315646Y-73864548D01*
X124346824Y-73841906D01*
X124349114Y-73839100D01*
X124356571Y-73828492D01*
X124362253Y-73816081D01*
X124366399Y-73798850D01*
X124369250Y-73773784D01*
X124371046Y-73737867D01*
X124372028Y-73688083D01*
X124372436Y-73621417D01*
X124372511Y-73545589D01*
X124372511Y-73281822D01*
X124511873Y-73281822D01*
X124571678Y-73281418D01*
X124613082Y-73279840D01*
X124640252Y-73276547D01*
X124657354Y-73270992D01*
X124668557Y-73262631D01*
X124669917Y-73261178D01*
X124686275Y-73227939D01*
X124684828Y-73190362D01*
X124666022Y-73157645D01*
X124658750Y-73151298D01*
X124649373Y-73146266D01*
X124635391Y-73142396D01*
X124614304Y-73139537D01*
X124583611Y-73137535D01*
X124540811Y-73136239D01*
X124483405Y-73135498D01*
X124408890Y-73135158D01*
X124314767Y-73135068D01*
X124294740Y-73135067D01*
X124195935Y-73135163D01*
X124195935Y-73135163D01*
G37*
X124195935Y-73135163D02*
X124117228Y-73135542D01*
X124056137Y-73136333D01*
X124010183Y-73137670D01*
X123976886Y-73139683D01*
X123953764Y-73142506D01*
X123938338Y-73146269D01*
X123928129Y-73151105D01*
X123923187Y-73154822D01*
X123897543Y-73187358D01*
X123894441Y-73221138D01*
X123910289Y-73251826D01*
X123920652Y-73264089D01*
X123931804Y-73272450D01*
X123947965Y-73277657D01*
X123973358Y-73280457D01*
X124012202Y-73281596D01*
X124068720Y-73281821D01*
X124079820Y-73281822D01*
X124225756Y-73281822D01*
X124225756Y-73552756D01*
X124225852Y-73638154D01*
X124226289Y-73703864D01*
X124227288Y-73752774D01*
X124229072Y-73787773D01*
X124231863Y-73811749D01*
X124235883Y-73827593D01*
X124241355Y-73838191D01*
X124248334Y-73846267D01*
X124281266Y-73866112D01*
X124315646Y-73864548D01*
X124346824Y-73841906D01*
X124349114Y-73839100D01*
X124356571Y-73828492D01*
X124362253Y-73816081D01*
X124366399Y-73798850D01*
X124369250Y-73773784D01*
X124371046Y-73737867D01*
X124372028Y-73688083D01*
X124372436Y-73621417D01*
X124372511Y-73545589D01*
X124372511Y-73281822D01*
X124511873Y-73281822D01*
X124571678Y-73281418D01*
X124613082Y-73279840D01*
X124640252Y-73276547D01*
X124657354Y-73270992D01*
X124668557Y-73262631D01*
X124669917Y-73261178D01*
X124686275Y-73227939D01*
X124684828Y-73190362D01*
X124666022Y-73157645D01*
X124658750Y-73151298D01*
X124649373Y-73146266D01*
X124635391Y-73142396D01*
X124614304Y-73139537D01*
X124583611Y-73137535D01*
X124540811Y-73136239D01*
X124483405Y-73135498D01*
X124408890Y-73135158D01*
X124314767Y-73135068D01*
X124294740Y-73135067D01*
X124195935Y-73135163D01*
G36*
X124970386Y-73141877D02*
G01*
X124946673Y-73156647D01*
X124920022Y-73178227D01*
X124920022Y-73499773D01*
X124920107Y-73593830D01*
X124920471Y-73667932D01*
X124921276Y-73724704D01*
X124922687Y-73766768D01*
X124924867Y-73796748D01*
X124927979Y-73817267D01*
X124932186Y-73830949D01*
X124937652Y-73840416D01*
X124941528Y-73845082D01*
X124972966Y-73865575D01*
X125008767Y-73864739D01*
X125040127Y-73847264D01*
X125066778Y-73825684D01*
X125066778Y-73178227D01*
X125040127Y-73156647D01*
X125014406Y-73140949D01*
X124993400Y-73135067D01*
X124970386Y-73141877D01*
X124970386Y-73141877D01*
G37*
X124970386Y-73141877D02*
X124946673Y-73156647D01*
X124920022Y-73178227D01*
X124920022Y-73499773D01*
X124920107Y-73593830D01*
X124920471Y-73667932D01*
X124921276Y-73724704D01*
X124922687Y-73766768D01*
X124924867Y-73796748D01*
X124927979Y-73817267D01*
X124932186Y-73830949D01*
X124937652Y-73840416D01*
X124941528Y-73845082D01*
X124972966Y-73865575D01*
X125008767Y-73864739D01*
X125040127Y-73847264D01*
X125066778Y-73825684D01*
X125066778Y-73178227D01*
X125040127Y-73156647D01*
X125014406Y-73140949D01*
X124993400Y-73135067D01*
X124970386Y-73141877D01*
G36*
X125414335Y-73137034D02*
G01*
X125394745Y-73144035D01*
X125393990Y-73144377D01*
X125367387Y-73164678D01*
X125352730Y-73185561D01*
X125349862Y-73195352D01*
X125350004Y-73208361D01*
X125354039Y-73226895D01*
X125362854Y-73253257D01*
X125377331Y-73289752D01*
X125398355Y-73338687D01*
X125426812Y-73402365D01*
X125463585Y-73483093D01*
X125483825Y-73527216D01*
X125520375Y-73605985D01*
X125554685Y-73678423D01*
X125585448Y-73741880D01*
X125611352Y-73793708D01*
X125631090Y-73831259D01*
X125643350Y-73851884D01*
X125645776Y-73854733D01*
X125676817Y-73867302D01*
X125711879Y-73865619D01*
X125740000Y-73850332D01*
X125741146Y-73849089D01*
X125752332Y-73832154D01*
X125771096Y-73799170D01*
X125795125Y-73754380D01*
X125822103Y-73702032D01*
X125831799Y-73682742D01*
X125904986Y-73536150D01*
X125984760Y-73695393D01*
X126013233Y-73750415D01*
X126039650Y-73798132D01*
X126061852Y-73834893D01*
X126077681Y-73857044D01*
X126083046Y-73861741D01*
X126124743Y-73868102D01*
X126159151Y-73854733D01*
X126169272Y-73840446D01*
X126186786Y-73808692D01*
X126210265Y-73762597D01*
X126238280Y-73705285D01*
X126269401Y-73639880D01*
X126302201Y-73569507D01*
X126335250Y-73497291D01*
X126367119Y-73426355D01*
X126396381Y-73359825D01*
X126421605Y-73300826D01*
X126441364Y-73252481D01*
X126454228Y-73217915D01*
X126458769Y-73200253D01*
X126458723Y-73199613D01*
X126447674Y-73177388D01*
X126425590Y-73154753D01*
X126424290Y-73153768D01*
X126397147Y-73138425D01*
X126372042Y-73138574D01*
X126362632Y-73141466D01*
X126351166Y-73147718D01*
X126338990Y-73160014D01*
X126324643Y-73180908D01*
X126306664Y-73212949D01*
X126283593Y-73258688D01*
X126253970Y-73320677D01*
X126227255Y-73377898D01*
X126196520Y-73444226D01*
X126168979Y-73503874D01*
X126146062Y-73553725D01*
X126129202Y-73590664D01*
X126119827Y-73611573D01*
X126118460Y-73614845D01*
X126112311Y-73609497D01*
X126098178Y-73587109D01*
X126077943Y-73550946D01*
X126053485Y-73504277D01*
X126043752Y-73485022D01*
X126010783Y-73420004D01*
X125985357Y-73372654D01*
X125965388Y-73340219D01*
X125948790Y-73319946D01*
X125933476Y-73309082D01*
X125917360Y-73304875D01*
X125906857Y-73304400D01*
X125888330Y-73306042D01*
X125872096Y-73312831D01*
X125855965Y-73327566D01*
X125837749Y-73353044D01*
X125815261Y-73392061D01*
X125786311Y-73447414D01*
X125770338Y-73478903D01*
X125744430Y-73529087D01*
X125721833Y-73570704D01*
X125704542Y-73600242D01*
X125694550Y-73614189D01*
X125693191Y-73614770D01*
X125686739Y-73603793D01*
X125672292Y-73575290D01*
X125651297Y-73532244D01*
X125625203Y-73477638D01*
X125595454Y-73414454D01*
X125580820Y-73383071D01*
X125542750Y-73302078D01*
X125512095Y-73239756D01*
X125487263Y-73194071D01*
X125466663Y-73162989D01*
X125448702Y-73144478D01*
X125431790Y-73136504D01*
X125414335Y-73137034D01*
X125414335Y-73137034D01*
G37*
X125414335Y-73137034D02*
X125394745Y-73144035D01*
X125393990Y-73144377D01*
X125367387Y-73164678D01*
X125352730Y-73185561D01*
X125349862Y-73195352D01*
X125350004Y-73208361D01*
X125354039Y-73226895D01*
X125362854Y-73253257D01*
X125377331Y-73289752D01*
X125398355Y-73338687D01*
X125426812Y-73402365D01*
X125463585Y-73483093D01*
X125483825Y-73527216D01*
X125520375Y-73605985D01*
X125554685Y-73678423D01*
X125585448Y-73741880D01*
X125611352Y-73793708D01*
X125631090Y-73831259D01*
X125643350Y-73851884D01*
X125645776Y-73854733D01*
X125676817Y-73867302D01*
X125711879Y-73865619D01*
X125740000Y-73850332D01*
X125741146Y-73849089D01*
X125752332Y-73832154D01*
X125771096Y-73799170D01*
X125795125Y-73754380D01*
X125822103Y-73702032D01*
X125831799Y-73682742D01*
X125904986Y-73536150D01*
X125984760Y-73695393D01*
X126013233Y-73750415D01*
X126039650Y-73798132D01*
X126061852Y-73834893D01*
X126077681Y-73857044D01*
X126083046Y-73861741D01*
X126124743Y-73868102D01*
X126159151Y-73854733D01*
X126169272Y-73840446D01*
X126186786Y-73808692D01*
X126210265Y-73762597D01*
X126238280Y-73705285D01*
X126269401Y-73639880D01*
X126302201Y-73569507D01*
X126335250Y-73497291D01*
X126367119Y-73426355D01*
X126396381Y-73359825D01*
X126421605Y-73300826D01*
X126441364Y-73252481D01*
X126454228Y-73217915D01*
X126458769Y-73200253D01*
X126458723Y-73199613D01*
X126447674Y-73177388D01*
X126425590Y-73154753D01*
X126424290Y-73153768D01*
X126397147Y-73138425D01*
X126372042Y-73138574D01*
X126362632Y-73141466D01*
X126351166Y-73147718D01*
X126338990Y-73160014D01*
X126324643Y-73180908D01*
X126306664Y-73212949D01*
X126283593Y-73258688D01*
X126253970Y-73320677D01*
X126227255Y-73377898D01*
X126196520Y-73444226D01*
X126168979Y-73503874D01*
X126146062Y-73553725D01*
X126129202Y-73590664D01*
X126119827Y-73611573D01*
X126118460Y-73614845D01*
X126112311Y-73609497D01*
X126098178Y-73587109D01*
X126077943Y-73550946D01*
X126053485Y-73504277D01*
X126043752Y-73485022D01*
X126010783Y-73420004D01*
X125985357Y-73372654D01*
X125965388Y-73340219D01*
X125948790Y-73319946D01*
X125933476Y-73309082D01*
X125917360Y-73304875D01*
X125906857Y-73304400D01*
X125888330Y-73306042D01*
X125872096Y-73312831D01*
X125855965Y-73327566D01*
X125837749Y-73353044D01*
X125815261Y-73392061D01*
X125786311Y-73447414D01*
X125770338Y-73478903D01*
X125744430Y-73529087D01*
X125721833Y-73570704D01*
X125704542Y-73600242D01*
X125694550Y-73614189D01*
X125693191Y-73614770D01*
X125686739Y-73603793D01*
X125672292Y-73575290D01*
X125651297Y-73532244D01*
X125625203Y-73477638D01*
X125595454Y-73414454D01*
X125580820Y-73383071D01*
X125542750Y-73302078D01*
X125512095Y-73239756D01*
X125487263Y-73194071D01*
X125466663Y-73162989D01*
X125448702Y-73144478D01*
X125431790Y-73136504D01*
X125414335Y-73137034D01*
G36*
X128140691Y-73135275D02*
G01*
X128011712Y-73139636D01*
X127902009Y-73152861D01*
X127809774Y-73175741D01*
X127733198Y-73209070D01*
X127670473Y-73253638D01*
X127619788Y-73310236D01*
X127579337Y-73379658D01*
X127578541Y-73381351D01*
X127554399Y-73443483D01*
X127545797Y-73498509D01*
X127552769Y-73553887D01*
X127575346Y-73617073D01*
X127579628Y-73626689D01*
X127608828Y-73682966D01*
X127641644Y-73726451D01*
X127683998Y-73763417D01*
X127741810Y-73800135D01*
X127745169Y-73802052D01*
X127795496Y-73826227D01*
X127852379Y-73844282D01*
X127919473Y-73856839D01*
X128000435Y-73864522D01*
X128098918Y-73867953D01*
X128133714Y-73868251D01*
X128299406Y-73868845D01*
X128322803Y-73839100D01*
X128329743Y-73829319D01*
X128335158Y-73817897D01*
X128339235Y-73802095D01*
X128342163Y-73779175D01*
X128344133Y-73746396D01*
X128344775Y-73722089D01*
X128188156Y-73722089D01*
X128094274Y-73722089D01*
X128039336Y-73720483D01*
X127982940Y-73716255D01*
X127936655Y-73710292D01*
X127933861Y-73709790D01*
X127851652Y-73687736D01*
X127787886Y-73654600D01*
X127740548Y-73608847D01*
X127707618Y-73548939D01*
X127701892Y-73533061D01*
X127696279Y-73508333D01*
X127698709Y-73483902D01*
X127710533Y-73451400D01*
X127717660Y-73435434D01*
X127741000Y-73393006D01*
X127769120Y-73363240D01*
X127800060Y-73342511D01*
X127862034Y-73315537D01*
X127941349Y-73295998D01*
X128033747Y-73284746D01*
X128100667Y-73282270D01*
X128188156Y-73281822D01*
X128188156Y-73722089D01*
X128344775Y-73722089D01*
X128345332Y-73701021D01*
X128345950Y-73640311D01*
X128346175Y-73561526D01*
X128346200Y-73499920D01*
X128346200Y-73190485D01*
X128318491Y-73162776D01*
X128306194Y-73151544D01*
X128292897Y-73143853D01*
X128274328Y-73139040D01*
X128246214Y-73136446D01*
X128204283Y-73135410D01*
X128144263Y-73135270D01*
X128140691Y-73135275D01*
X128140691Y-73135275D01*
G37*
X128140691Y-73135275D02*
X128011712Y-73139636D01*
X127902009Y-73152861D01*
X127809774Y-73175741D01*
X127733198Y-73209070D01*
X127670473Y-73253638D01*
X127619788Y-73310236D01*
X127579337Y-73379658D01*
X127578541Y-73381351D01*
X127554399Y-73443483D01*
X127545797Y-73498509D01*
X127552769Y-73553887D01*
X127575346Y-73617073D01*
X127579628Y-73626689D01*
X127608828Y-73682966D01*
X127641644Y-73726451D01*
X127683998Y-73763417D01*
X127741810Y-73800135D01*
X127745169Y-73802052D01*
X127795496Y-73826227D01*
X127852379Y-73844282D01*
X127919473Y-73856839D01*
X128000435Y-73864522D01*
X128098918Y-73867953D01*
X128133714Y-73868251D01*
X128299406Y-73868845D01*
X128322803Y-73839100D01*
X128329743Y-73829319D01*
X128335158Y-73817897D01*
X128339235Y-73802095D01*
X128342163Y-73779175D01*
X128344133Y-73746396D01*
X128344775Y-73722089D01*
X128188156Y-73722089D01*
X128094274Y-73722089D01*
X128039336Y-73720483D01*
X127982940Y-73716255D01*
X127936655Y-73710292D01*
X127933861Y-73709790D01*
X127851652Y-73687736D01*
X127787886Y-73654600D01*
X127740548Y-73608847D01*
X127707618Y-73548939D01*
X127701892Y-73533061D01*
X127696279Y-73508333D01*
X127698709Y-73483902D01*
X127710533Y-73451400D01*
X127717660Y-73435434D01*
X127741000Y-73393006D01*
X127769120Y-73363240D01*
X127800060Y-73342511D01*
X127862034Y-73315537D01*
X127941349Y-73295998D01*
X128033747Y-73284746D01*
X128100667Y-73282270D01*
X128188156Y-73281822D01*
X128188156Y-73722089D01*
X128344775Y-73722089D01*
X128345332Y-73701021D01*
X128345950Y-73640311D01*
X128346175Y-73561526D01*
X128346200Y-73499920D01*
X128346200Y-73190485D01*
X128318491Y-73162776D01*
X128306194Y-73151544D01*
X128292897Y-73143853D01*
X128274328Y-73139040D01*
X128246214Y-73136446D01*
X128204283Y-73135410D01*
X128144263Y-73135270D01*
X128140691Y-73135275D01*
G36*
X128928657Y-73135260D02*
G01*
X128852299Y-73136174D01*
X128793783Y-73138311D01*
X128750745Y-73142175D01*
X128720817Y-73148267D01*
X128701632Y-73157090D01*
X128690824Y-73169146D01*
X128686027Y-73184939D01*
X128684873Y-73204970D01*
X128684867Y-73207335D01*
X128685869Y-73229992D01*
X128690604Y-73247503D01*
X128701667Y-73260574D01*
X128721652Y-73269913D01*
X128753154Y-73276227D01*
X128798768Y-73280222D01*
X128861087Y-73282606D01*
X128942707Y-73284086D01*
X128967723Y-73284414D01*
X129209800Y-73287467D01*
X129213186Y-73352378D01*
X129216571Y-73417289D01*
X129048424Y-73417289D01*
X128982734Y-73417531D01*
X128935828Y-73418556D01*
X128903917Y-73420811D01*
X128883209Y-73424742D01*
X128869916Y-73430798D01*
X128860245Y-73439424D01*
X128860183Y-73439493D01*
X128842644Y-73473112D01*
X128843278Y-73509448D01*
X128861686Y-73540423D01*
X128865329Y-73543607D01*
X128878259Y-73551812D01*
X128895976Y-73557521D01*
X128922430Y-73561162D01*
X128961568Y-73563167D01*
X129017338Y-73563964D01*
X129053006Y-73564045D01*
X129215445Y-73564045D01*
X129215445Y-73722089D01*
X128968839Y-73722089D01*
X128887420Y-73722231D01*
X128825590Y-73722814D01*
X128780363Y-73724068D01*
X128748752Y-73726227D01*
X128727769Y-73729523D01*
X128714427Y-73734189D01*
X128705739Y-73740457D01*
X128703550Y-73742733D01*
X128687386Y-73774280D01*
X128686203Y-73810168D01*
X128699464Y-73841285D01*
X128709957Y-73851271D01*
X128720871Y-73856769D01*
X128737783Y-73861022D01*
X128763367Y-73864180D01*
X128800299Y-73866392D01*
X128851254Y-73867806D01*
X128918906Y-73868572D01*
X129005931Y-73868838D01*
X129025606Y-73868845D01*
X129114089Y-73868787D01*
X129182773Y-73868467D01*
X129234436Y-73867667D01*
X129271855Y-73866167D01*
X129297810Y-73863749D01*
X129315078Y-73860194D01*
X129326438Y-73855282D01*
X129334668Y-73848795D01*
X129339183Y-73844138D01*
X129345979Y-73835889D01*
X129351288Y-73825669D01*
X129355294Y-73810800D01*
X129358179Y-73788602D01*
X129360126Y-73756393D01*
X129361319Y-73711496D01*
X129361939Y-73651228D01*
X129362171Y-73572911D01*
X129362200Y-73506994D01*
X129362129Y-73414628D01*
X129361792Y-73342117D01*
X129361002Y-73286737D01*
X129359574Y-73245765D01*
X129357321Y-73216478D01*
X129354057Y-73196153D01*
X129349596Y-73182066D01*
X129343752Y-73171495D01*
X129338803Y-73164811D01*
X129315406Y-73135067D01*
X129025226Y-73135067D01*
X128928657Y-73135260D01*
X128928657Y-73135260D01*
G37*
X128928657Y-73135260D02*
X128852299Y-73136174D01*
X128793783Y-73138311D01*
X128750745Y-73142175D01*
X128720817Y-73148267D01*
X128701632Y-73157090D01*
X128690824Y-73169146D01*
X128686027Y-73184939D01*
X128684873Y-73204970D01*
X128684867Y-73207335D01*
X128685869Y-73229992D01*
X128690604Y-73247503D01*
X128701667Y-73260574D01*
X128721652Y-73269913D01*
X128753154Y-73276227D01*
X128798768Y-73280222D01*
X128861087Y-73282606D01*
X128942707Y-73284086D01*
X128967723Y-73284414D01*
X129209800Y-73287467D01*
X129213186Y-73352378D01*
X129216571Y-73417289D01*
X129048424Y-73417289D01*
X128982734Y-73417531D01*
X128935828Y-73418556D01*
X128903917Y-73420811D01*
X128883209Y-73424742D01*
X128869916Y-73430798D01*
X128860245Y-73439424D01*
X128860183Y-73439493D01*
X128842644Y-73473112D01*
X128843278Y-73509448D01*
X128861686Y-73540423D01*
X128865329Y-73543607D01*
X128878259Y-73551812D01*
X128895976Y-73557521D01*
X128922430Y-73561162D01*
X128961568Y-73563167D01*
X129017338Y-73563964D01*
X129053006Y-73564045D01*
X129215445Y-73564045D01*
X129215445Y-73722089D01*
X128968839Y-73722089D01*
X128887420Y-73722231D01*
X128825590Y-73722814D01*
X128780363Y-73724068D01*
X128748752Y-73726227D01*
X128727769Y-73729523D01*
X128714427Y-73734189D01*
X128705739Y-73740457D01*
X128703550Y-73742733D01*
X128687386Y-73774280D01*
X128686203Y-73810168D01*
X128699464Y-73841285D01*
X128709957Y-73851271D01*
X128720871Y-73856769D01*
X128737783Y-73861022D01*
X128763367Y-73864180D01*
X128800299Y-73866392D01*
X128851254Y-73867806D01*
X128918906Y-73868572D01*
X129005931Y-73868838D01*
X129025606Y-73868845D01*
X129114089Y-73868787D01*
X129182773Y-73868467D01*
X129234436Y-73867667D01*
X129271855Y-73866167D01*
X129297810Y-73863749D01*
X129315078Y-73860194D01*
X129326438Y-73855282D01*
X129334668Y-73848795D01*
X129339183Y-73844138D01*
X129345979Y-73835889D01*
X129351288Y-73825669D01*
X129355294Y-73810800D01*
X129358179Y-73788602D01*
X129360126Y-73756393D01*
X129361319Y-73711496D01*
X129361939Y-73651228D01*
X129362171Y-73572911D01*
X129362200Y-73506994D01*
X129362129Y-73414628D01*
X129361792Y-73342117D01*
X129361002Y-73286737D01*
X129359574Y-73245765D01*
X129357321Y-73216478D01*
X129354057Y-73196153D01*
X129349596Y-73182066D01*
X129343752Y-73171495D01*
X129338803Y-73164811D01*
X129315406Y-73135067D01*
X129025226Y-73135067D01*
X128928657Y-73135260D01*
G36*
X130459114Y-73139448D02*
G01*
X130435548Y-73153273D01*
X130404735Y-73175881D01*
X130365078Y-73208338D01*
X130314980Y-73251708D01*
X130252843Y-73307058D01*
X130177072Y-73375451D01*
X130090334Y-73454084D01*
X129909711Y-73617878D01*
X129904067Y-73398029D01*
X129902029Y-73322351D01*
X129900063Y-73265994D01*
X129897734Y-73225706D01*
X129894606Y-73198235D01*
X129890245Y-73180329D01*
X129884216Y-73168737D01*
X129876084Y-73160208D01*
X129871772Y-73156623D01*
X129837241Y-73137670D01*
X129804383Y-73140441D01*
X129778318Y-73156633D01*
X129751667Y-73178199D01*
X129748352Y-73493151D01*
X129747435Y-73585779D01*
X129746968Y-73658544D01*
X129747113Y-73714161D01*
X129748032Y-73755342D01*
X129749887Y-73784803D01*
X129752839Y-73805255D01*
X129757050Y-73819413D01*
X129762682Y-73829991D01*
X129768927Y-73838474D01*
X129782439Y-73854207D01*
X129795883Y-73864636D01*
X129811124Y-73868639D01*
X129830026Y-73865094D01*
X129854455Y-73852879D01*
X129886273Y-73830871D01*
X129927348Y-73797949D01*
X129979542Y-73752991D01*
X130044722Y-73694875D01*
X130118556Y-73628099D01*
X130383845Y-73387458D01*
X130389489Y-73606589D01*
X130391531Y-73682128D01*
X130393502Y-73738354D01*
X130395839Y-73778524D01*
X130398981Y-73805896D01*
X130403364Y-73823728D01*
X130409424Y-73835279D01*
X130417600Y-73843807D01*
X130421784Y-73847282D01*
X130458765Y-73866372D01*
X130493708Y-73863493D01*
X130524136Y-73839100D01*
X130531097Y-73829286D01*
X130536523Y-73817826D01*
X130540603Y-73801968D01*
X130543529Y-73778963D01*
X130545492Y-73746062D01*
X130546683Y-73700516D01*
X130547292Y-73639573D01*
X130547511Y-73560486D01*
X130547534Y-73501956D01*
X130547460Y-73410407D01*
X130547113Y-73338687D01*
X130546301Y-73284045D01*
X130544833Y-73243732D01*
X130542519Y-73214998D01*
X130539167Y-73195093D01*
X130534588Y-73181268D01*
X130528589Y-73170772D01*
X130524136Y-73164811D01*
X130512850Y-73150691D01*
X130502301Y-73140029D01*
X130490893Y-73133892D01*
X130477030Y-73133343D01*
X130459114Y-73139448D01*
X130459114Y-73139448D01*
G37*
X130459114Y-73139448D02*
X130435548Y-73153273D01*
X130404735Y-73175881D01*
X130365078Y-73208338D01*
X130314980Y-73251708D01*
X130252843Y-73307058D01*
X130177072Y-73375451D01*
X130090334Y-73454084D01*
X129909711Y-73617878D01*
X129904067Y-73398029D01*
X129902029Y-73322351D01*
X129900063Y-73265994D01*
X129897734Y-73225706D01*
X129894606Y-73198235D01*
X129890245Y-73180329D01*
X129884216Y-73168737D01*
X129876084Y-73160208D01*
X129871772Y-73156623D01*
X129837241Y-73137670D01*
X129804383Y-73140441D01*
X129778318Y-73156633D01*
X129751667Y-73178199D01*
X129748352Y-73493151D01*
X129747435Y-73585779D01*
X129746968Y-73658544D01*
X129747113Y-73714161D01*
X129748032Y-73755342D01*
X129749887Y-73784803D01*
X129752839Y-73805255D01*
X129757050Y-73819413D01*
X129762682Y-73829991D01*
X129768927Y-73838474D01*
X129782439Y-73854207D01*
X129795883Y-73864636D01*
X129811124Y-73868639D01*
X129830026Y-73865094D01*
X129854455Y-73852879D01*
X129886273Y-73830871D01*
X129927348Y-73797949D01*
X129979542Y-73752991D01*
X130044722Y-73694875D01*
X130118556Y-73628099D01*
X130383845Y-73387458D01*
X130389489Y-73606589D01*
X130391531Y-73682128D01*
X130393502Y-73738354D01*
X130395839Y-73778524D01*
X130398981Y-73805896D01*
X130403364Y-73823728D01*
X130409424Y-73835279D01*
X130417600Y-73843807D01*
X130421784Y-73847282D01*
X130458765Y-73866372D01*
X130493708Y-73863493D01*
X130524136Y-73839100D01*
X130531097Y-73829286D01*
X130536523Y-73817826D01*
X130540603Y-73801968D01*
X130543529Y-73778963D01*
X130545492Y-73746062D01*
X130546683Y-73700516D01*
X130547292Y-73639573D01*
X130547511Y-73560486D01*
X130547534Y-73501956D01*
X130547460Y-73410407D01*
X130547113Y-73338687D01*
X130546301Y-73284045D01*
X130544833Y-73243732D01*
X130542519Y-73214998D01*
X130539167Y-73195093D01*
X130534588Y-73181268D01*
X130528589Y-73170772D01*
X130524136Y-73164811D01*
X130512850Y-73150691D01*
X130502301Y-73140029D01*
X130490893Y-73133892D01*
X130477030Y-73133343D01*
X130459114Y-73139448D01*
G36*
X131109081Y-73140599D02*
G01*
X131040565Y-73152095D01*
X130987943Y-73169967D01*
X130953708Y-73193499D01*
X130944379Y-73206924D01*
X130934893Y-73238148D01*
X130941277Y-73266395D01*
X130961430Y-73293182D01*
X130992745Y-73305713D01*
X131038183Y-73304696D01*
X131073326Y-73297906D01*
X131151419Y-73284971D01*
X131231226Y-73283742D01*
X131320555Y-73294241D01*
X131345229Y-73298690D01*
X131428291Y-73322108D01*
X131493273Y-73356945D01*
X131539461Y-73402604D01*
X131566145Y-73458494D01*
X131571663Y-73487388D01*
X131568051Y-73546012D01*
X131544729Y-73597879D01*
X131503824Y-73641978D01*
X131447459Y-73677299D01*
X131377760Y-73702829D01*
X131296852Y-73717559D01*
X131206860Y-73720478D01*
X131109910Y-73710575D01*
X131104436Y-73709641D01*
X131065875Y-73702459D01*
X131044494Y-73695521D01*
X131035227Y-73685227D01*
X131033006Y-73667976D01*
X131032956Y-73658841D01*
X131032956Y-73620489D01*
X131101431Y-73620489D01*
X131161900Y-73616347D01*
X131203165Y-73603147D01*
X131227175Y-73579730D01*
X131235877Y-73544936D01*
X131235983Y-73540394D01*
X131230892Y-73510654D01*
X131213433Y-73489419D01*
X131180939Y-73475366D01*
X131130743Y-73467173D01*
X131082123Y-73464161D01*
X131011456Y-73462433D01*
X130960198Y-73465070D01*
X130925239Y-73474800D01*
X130903470Y-73494353D01*
X130891780Y-73526456D01*
X130887060Y-73573838D01*
X130886200Y-73636071D01*
X130887609Y-73705535D01*
X130891848Y-73752786D01*
X130898936Y-73778012D01*
X130900311Y-73779988D01*
X130939228Y-73811508D01*
X130996286Y-73836470D01*
X131067869Y-73854340D01*
X131150358Y-73864586D01*
X131240139Y-73866673D01*
X131333592Y-73860068D01*
X131388556Y-73851956D01*
X131474766Y-73827554D01*
X131554892Y-73787662D01*
X131621977Y-73735887D01*
X131632173Y-73725539D01*
X131665302Y-73682035D01*
X131695194Y-73628118D01*
X131718357Y-73571592D01*
X131731298Y-73520259D01*
X131732858Y-73500544D01*
X131726218Y-73459419D01*
X131708568Y-73408252D01*
X131683297Y-73354394D01*
X131653789Y-73305195D01*
X131627719Y-73272334D01*
X131566765Y-73223452D01*
X131487969Y-73184545D01*
X131394157Y-73156494D01*
X131288150Y-73140179D01*
X131191000Y-73136192D01*
X131109081Y-73140599D01*
X131109081Y-73140599D01*
G37*
X131109081Y-73140599D02*
X131040565Y-73152095D01*
X130987943Y-73169967D01*
X130953708Y-73193499D01*
X130944379Y-73206924D01*
X130934893Y-73238148D01*
X130941277Y-73266395D01*
X130961430Y-73293182D01*
X130992745Y-73305713D01*
X131038183Y-73304696D01*
X131073326Y-73297906D01*
X131151419Y-73284971D01*
X131231226Y-73283742D01*
X131320555Y-73294241D01*
X131345229Y-73298690D01*
X131428291Y-73322108D01*
X131493273Y-73356945D01*
X131539461Y-73402604D01*
X131566145Y-73458494D01*
X131571663Y-73487388D01*
X131568051Y-73546012D01*
X131544729Y-73597879D01*
X131503824Y-73641978D01*
X131447459Y-73677299D01*
X131377760Y-73702829D01*
X131296852Y-73717559D01*
X131206860Y-73720478D01*
X131109910Y-73710575D01*
X131104436Y-73709641D01*
X131065875Y-73702459D01*
X131044494Y-73695521D01*
X131035227Y-73685227D01*
X131033006Y-73667976D01*
X131032956Y-73658841D01*
X131032956Y-73620489D01*
X131101431Y-73620489D01*
X131161900Y-73616347D01*
X131203165Y-73603147D01*
X131227175Y-73579730D01*
X131235877Y-73544936D01*
X131235983Y-73540394D01*
X131230892Y-73510654D01*
X131213433Y-73489419D01*
X131180939Y-73475366D01*
X131130743Y-73467173D01*
X131082123Y-73464161D01*
X131011456Y-73462433D01*
X130960198Y-73465070D01*
X130925239Y-73474800D01*
X130903470Y-73494353D01*
X130891780Y-73526456D01*
X130887060Y-73573838D01*
X130886200Y-73636071D01*
X130887609Y-73705535D01*
X130891848Y-73752786D01*
X130898936Y-73778012D01*
X130900311Y-73779988D01*
X130939228Y-73811508D01*
X130996286Y-73836470D01*
X131067869Y-73854340D01*
X131150358Y-73864586D01*
X131240139Y-73866673D01*
X131333592Y-73860068D01*
X131388556Y-73851956D01*
X131474766Y-73827554D01*
X131554892Y-73787662D01*
X131621977Y-73735887D01*
X131632173Y-73725539D01*
X131665302Y-73682035D01*
X131695194Y-73628118D01*
X131718357Y-73571592D01*
X131731298Y-73520259D01*
X131732858Y-73500544D01*
X131726218Y-73459419D01*
X131708568Y-73408252D01*
X131683297Y-73354394D01*
X131653789Y-73305195D01*
X131627719Y-73272334D01*
X131566765Y-73223452D01*
X131487969Y-73184545D01*
X131394157Y-73156494D01*
X131288150Y-73140179D01*
X131191000Y-73136192D01*
X131109081Y-73140599D01*
G36*
X132082822Y-73157645D02*
G01*
X132076242Y-73165218D01*
X132071079Y-73174987D01*
X132067164Y-73189571D01*
X132064324Y-73211585D01*
X132062387Y-73243648D01*
X132061183Y-73288375D01*
X132060539Y-73348385D01*
X132060284Y-73426294D01*
X132060245Y-73501956D01*
X132060314Y-73595802D01*
X132060638Y-73669689D01*
X132061386Y-73726232D01*
X132062732Y-73768049D01*
X132064846Y-73797757D01*
X132067900Y-73817973D01*
X132072066Y-73831314D01*
X132077516Y-73840398D01*
X132082822Y-73846267D01*
X132115826Y-73865947D01*
X132150991Y-73864181D01*
X132182455Y-73842717D01*
X132189684Y-73834337D01*
X132195334Y-73824614D01*
X132199599Y-73810861D01*
X132202673Y-73790389D01*
X132204752Y-73760512D01*
X132206030Y-73718541D01*
X132206701Y-73661789D01*
X132206959Y-73587567D01*
X132207000Y-73503537D01*
X132207000Y-73190485D01*
X132179291Y-73162776D01*
X132145137Y-73139463D01*
X132112006Y-73138623D01*
X132082822Y-73157645D01*
X132082822Y-73157645D01*
G37*
X132082822Y-73157645D02*
X132076242Y-73165218D01*
X132071079Y-73174987D01*
X132067164Y-73189571D01*
X132064324Y-73211585D01*
X132062387Y-73243648D01*
X132061183Y-73288375D01*
X132060539Y-73348385D01*
X132060284Y-73426294D01*
X132060245Y-73501956D01*
X132060314Y-73595802D01*
X132060638Y-73669689D01*
X132061386Y-73726232D01*
X132062732Y-73768049D01*
X132064846Y-73797757D01*
X132067900Y-73817973D01*
X132072066Y-73831314D01*
X132077516Y-73840398D01*
X132082822Y-73846267D01*
X132115826Y-73865947D01*
X132150991Y-73864181D01*
X132182455Y-73842717D01*
X132189684Y-73834337D01*
X132195334Y-73824614D01*
X132199599Y-73810861D01*
X132202673Y-73790389D01*
X132204752Y-73760512D01*
X132206030Y-73718541D01*
X132206701Y-73661789D01*
X132206959Y-73587567D01*
X132207000Y-73503537D01*
X132207000Y-73190485D01*
X132179291Y-73162776D01*
X132145137Y-73139463D01*
X132112006Y-73138623D01*
X132082822Y-73157645D01*
G36*
X132850703Y-73136351D02*
G01*
X132775888Y-73141581D01*
X132706306Y-73149750D01*
X132646002Y-73160550D01*
X132599020Y-73173673D01*
X132569406Y-73188813D01*
X132564860Y-73193269D01*
X132549054Y-73227850D01*
X132553847Y-73263351D01*
X132578364Y-73293725D01*
X132579534Y-73294596D01*
X132593954Y-73303954D01*
X132609008Y-73308876D01*
X132630005Y-73309473D01*
X132662257Y-73305861D01*
X132711073Y-73298154D01*
X132715000Y-73297505D01*
X132787739Y-73288569D01*
X132866217Y-73284161D01*
X132944927Y-73284119D01*
X133018361Y-73288279D01*
X133081011Y-73296479D01*
X133127370Y-73308557D01*
X133130416Y-73309771D01*
X133164048Y-73328615D01*
X133175864Y-73347685D01*
X133166614Y-73366439D01*
X133137047Y-73384337D01*
X133087911Y-73400837D01*
X133019957Y-73415396D01*
X132974645Y-73422406D01*
X132880456Y-73435889D01*
X132805544Y-73448214D01*
X132746717Y-73460449D01*
X132700785Y-73473661D01*
X132664555Y-73488917D01*
X132634838Y-73507285D01*
X132608442Y-73529831D01*
X132587230Y-73551971D01*
X132562065Y-73582819D01*
X132549681Y-73609345D01*
X132545808Y-73642026D01*
X132545667Y-73653995D01*
X132548576Y-73693712D01*
X132560202Y-73723259D01*
X132580323Y-73749486D01*
X132621216Y-73789576D01*
X132666817Y-73820149D01*
X132720513Y-73842203D01*
X132785692Y-73856735D01*
X132865744Y-73864741D01*
X132964057Y-73867218D01*
X132980289Y-73867177D01*
X133045849Y-73865818D01*
X133110866Y-73862730D01*
X133168252Y-73858356D01*
X133210922Y-73853140D01*
X133214372Y-73852541D01*
X133256796Y-73842491D01*
X133292780Y-73829796D01*
X133313150Y-73818190D01*
X133332107Y-73787572D01*
X133333427Y-73751918D01*
X133317085Y-73720144D01*
X133313429Y-73716551D01*
X133298315Y-73705876D01*
X133279415Y-73701276D01*
X133250162Y-73702059D01*
X133214651Y-73706127D01*
X133174970Y-73709762D01*
X133119345Y-73712828D01*
X133054406Y-73715053D01*
X132986785Y-73716164D01*
X132969000Y-73716237D01*
X132901128Y-73715964D01*
X132851454Y-73714646D01*
X132815610Y-73711827D01*
X132789224Y-73707050D01*
X132767926Y-73699857D01*
X132755126Y-73693867D01*
X132727000Y-73677233D01*
X132709068Y-73662168D01*
X132706447Y-73657897D01*
X132711976Y-73640263D01*
X132738260Y-73623192D01*
X132783478Y-73607458D01*
X132845808Y-73593838D01*
X132864171Y-73590804D01*
X132960090Y-73575738D01*
X133036641Y-73563146D01*
X133096780Y-73552111D01*
X133143460Y-73541720D01*
X133179637Y-73531056D01*
X133208265Y-73519205D01*
X133232298Y-73505251D01*
X133254692Y-73488281D01*
X133278402Y-73467378D01*
X133286380Y-73460049D01*
X133314353Y-73432699D01*
X133329160Y-73411029D01*
X133334952Y-73386232D01*
X133335889Y-73354983D01*
X133325575Y-73293705D01*
X133294752Y-73241640D01*
X133243595Y-73198958D01*
X133172283Y-73165825D01*
X133121400Y-73150964D01*
X133066100Y-73141366D01*
X132999853Y-73135936D01*
X132926706Y-73134367D01*
X132850703Y-73136351D01*
X132850703Y-73136351D01*
G37*
X132850703Y-73136351D02*
X132775888Y-73141581D01*
X132706306Y-73149750D01*
X132646002Y-73160550D01*
X132599020Y-73173673D01*
X132569406Y-73188813D01*
X132564860Y-73193269D01*
X132549054Y-73227850D01*
X132553847Y-73263351D01*
X132578364Y-73293725D01*
X132579534Y-73294596D01*
X132593954Y-73303954D01*
X132609008Y-73308876D01*
X132630005Y-73309473D01*
X132662257Y-73305861D01*
X132711073Y-73298154D01*
X132715000Y-73297505D01*
X132787739Y-73288569D01*
X132866217Y-73284161D01*
X132944927Y-73284119D01*
X133018361Y-73288279D01*
X133081011Y-73296479D01*
X133127370Y-73308557D01*
X133130416Y-73309771D01*
X133164048Y-73328615D01*
X133175864Y-73347685D01*
X133166614Y-73366439D01*
X133137047Y-73384337D01*
X133087911Y-73400837D01*
X133019957Y-73415396D01*
X132974645Y-73422406D01*
X132880456Y-73435889D01*
X132805544Y-73448214D01*
X132746717Y-73460449D01*
X132700785Y-73473661D01*
X132664555Y-73488917D01*
X132634838Y-73507285D01*
X132608442Y-73529831D01*
X132587230Y-73551971D01*
X132562065Y-73582819D01*
X132549681Y-73609345D01*
X132545808Y-73642026D01*
X132545667Y-73653995D01*
X132548576Y-73693712D01*
X132560202Y-73723259D01*
X132580323Y-73749486D01*
X132621216Y-73789576D01*
X132666817Y-73820149D01*
X132720513Y-73842203D01*
X132785692Y-73856735D01*
X132865744Y-73864741D01*
X132964057Y-73867218D01*
X132980289Y-73867177D01*
X133045849Y-73865818D01*
X133110866Y-73862730D01*
X133168252Y-73858356D01*
X133210922Y-73853140D01*
X133214372Y-73852541D01*
X133256796Y-73842491D01*
X133292780Y-73829796D01*
X133313150Y-73818190D01*
X133332107Y-73787572D01*
X133333427Y-73751918D01*
X133317085Y-73720144D01*
X133313429Y-73716551D01*
X133298315Y-73705876D01*
X133279415Y-73701276D01*
X133250162Y-73702059D01*
X133214651Y-73706127D01*
X133174970Y-73709762D01*
X133119345Y-73712828D01*
X133054406Y-73715053D01*
X132986785Y-73716164D01*
X132969000Y-73716237D01*
X132901128Y-73715964D01*
X132851454Y-73714646D01*
X132815610Y-73711827D01*
X132789224Y-73707050D01*
X132767926Y-73699857D01*
X132755126Y-73693867D01*
X132727000Y-73677233D01*
X132709068Y-73662168D01*
X132706447Y-73657897D01*
X132711976Y-73640263D01*
X132738260Y-73623192D01*
X132783478Y-73607458D01*
X132845808Y-73593838D01*
X132864171Y-73590804D01*
X132960090Y-73575738D01*
X133036641Y-73563146D01*
X133096780Y-73552111D01*
X133143460Y-73541720D01*
X133179637Y-73531056D01*
X133208265Y-73519205D01*
X133232298Y-73505251D01*
X133254692Y-73488281D01*
X133278402Y-73467378D01*
X133286380Y-73460049D01*
X133314353Y-73432699D01*
X133329160Y-73411029D01*
X133334952Y-73386232D01*
X133335889Y-73354983D01*
X133325575Y-73293705D01*
X133294752Y-73241640D01*
X133243595Y-73198958D01*
X133172283Y-73165825D01*
X133121400Y-73150964D01*
X133066100Y-73141366D01*
X132999853Y-73135936D01*
X132926706Y-73134367D01*
X132850703Y-73136351D01*
G36*
X133871794Y-73135146D02*
G01*
X133802386Y-73135518D01*
X133749997Y-73136385D01*
X133711847Y-73137946D01*
X133685159Y-73140403D01*
X133667153Y-73143957D01*
X133655049Y-73148810D01*
X133646069Y-73155161D01*
X133642818Y-73158084D01*
X133623043Y-73189142D01*
X133619482Y-73224828D01*
X133632491Y-73256510D01*
X133638506Y-73262913D01*
X133648235Y-73269121D01*
X133663901Y-73273910D01*
X133688408Y-73277514D01*
X133724661Y-73280164D01*
X133775565Y-73282095D01*
X133844026Y-73283539D01*
X133906617Y-73284418D01*
X134154334Y-73287467D01*
X134157719Y-73352378D01*
X134161105Y-73417289D01*
X133992958Y-73417289D01*
X133919959Y-73417919D01*
X133866517Y-73420553D01*
X133829628Y-73426309D01*
X133806288Y-73436304D01*
X133793494Y-73451656D01*
X133788242Y-73473482D01*
X133787445Y-73493738D01*
X133789923Y-73518592D01*
X133799277Y-73536906D01*
X133818383Y-73549637D01*
X133850118Y-73557741D01*
X133897359Y-73562176D01*
X133962983Y-73563899D01*
X133998801Y-73564045D01*
X134159978Y-73564045D01*
X134159978Y-73722089D01*
X133911622Y-73722089D01*
X133830213Y-73722202D01*
X133768342Y-73722712D01*
X133722968Y-73723870D01*
X133691054Y-73725930D01*
X133669559Y-73729146D01*
X133655443Y-73733772D01*
X133645668Y-73740059D01*
X133640689Y-73744667D01*
X133623610Y-73771560D01*
X133618111Y-73795467D01*
X133625963Y-73824667D01*
X133640689Y-73846267D01*
X133648546Y-73853066D01*
X133658688Y-73858346D01*
X133673844Y-73862298D01*
X133696741Y-73865113D01*
X133730109Y-73866982D01*
X133776675Y-73868098D01*
X133839167Y-73868651D01*
X133920314Y-73868833D01*
X133962422Y-73868845D01*
X134052598Y-73868765D01*
X134122924Y-73868398D01*
X134176129Y-73867552D01*
X134214940Y-73866036D01*
X134242087Y-73863659D01*
X134260298Y-73860229D01*
X134272300Y-73855554D01*
X134280822Y-73849444D01*
X134284156Y-73846267D01*
X134290755Y-73838670D01*
X134295927Y-73828870D01*
X134299846Y-73814239D01*
X134302684Y-73792152D01*
X134304615Y-73759982D01*
X134305812Y-73715103D01*
X134306448Y-73654889D01*
X134306697Y-73576713D01*
X134306734Y-73503923D01*
X134306700Y-73410707D01*
X134306465Y-73337431D01*
X134305830Y-73281458D01*
X134304594Y-73240151D01*
X134302556Y-73210872D01*
X134299517Y-73190984D01*
X134295277Y-73177850D01*
X134289635Y-73168832D01*
X134282391Y-73161293D01*
X134280606Y-73159612D01*
X134271945Y-73152172D01*
X134261882Y-73146409D01*
X134247625Y-73142112D01*
X134226383Y-73139064D01*
X134195364Y-73137051D01*
X134151777Y-73135860D01*
X134092831Y-73135275D01*
X134015734Y-73135083D01*
X133961001Y-73135067D01*
X133871794Y-73135146D01*
X133871794Y-73135146D01*
G37*
X133871794Y-73135146D02*
X133802386Y-73135518D01*
X133749997Y-73136385D01*
X133711847Y-73137946D01*
X133685159Y-73140403D01*
X133667153Y-73143957D01*
X133655049Y-73148810D01*
X133646069Y-73155161D01*
X133642818Y-73158084D01*
X133623043Y-73189142D01*
X133619482Y-73224828D01*
X133632491Y-73256510D01*
X133638506Y-73262913D01*
X133648235Y-73269121D01*
X133663901Y-73273910D01*
X133688408Y-73277514D01*
X133724661Y-73280164D01*
X133775565Y-73282095D01*
X133844026Y-73283539D01*
X133906617Y-73284418D01*
X134154334Y-73287467D01*
X134157719Y-73352378D01*
X134161105Y-73417289D01*
X133992958Y-73417289D01*
X133919959Y-73417919D01*
X133866517Y-73420553D01*
X133829628Y-73426309D01*
X133806288Y-73436304D01*
X133793494Y-73451656D01*
X133788242Y-73473482D01*
X133787445Y-73493738D01*
X133789923Y-73518592D01*
X133799277Y-73536906D01*
X133818383Y-73549637D01*
X133850118Y-73557741D01*
X133897359Y-73562176D01*
X133962983Y-73563899D01*
X133998801Y-73564045D01*
X134159978Y-73564045D01*
X134159978Y-73722089D01*
X133911622Y-73722089D01*
X133830213Y-73722202D01*
X133768342Y-73722712D01*
X133722968Y-73723870D01*
X133691054Y-73725930D01*
X133669559Y-73729146D01*
X133655443Y-73733772D01*
X133645668Y-73740059D01*
X133640689Y-73744667D01*
X133623610Y-73771560D01*
X133618111Y-73795467D01*
X133625963Y-73824667D01*
X133640689Y-73846267D01*
X133648546Y-73853066D01*
X133658688Y-73858346D01*
X133673844Y-73862298D01*
X133696741Y-73865113D01*
X133730109Y-73866982D01*
X133776675Y-73868098D01*
X133839167Y-73868651D01*
X133920314Y-73868833D01*
X133962422Y-73868845D01*
X134052598Y-73868765D01*
X134122924Y-73868398D01*
X134176129Y-73867552D01*
X134214940Y-73866036D01*
X134242087Y-73863659D01*
X134260298Y-73860229D01*
X134272300Y-73855554D01*
X134280822Y-73849444D01*
X134284156Y-73846267D01*
X134290755Y-73838670D01*
X134295927Y-73828870D01*
X134299846Y-73814239D01*
X134302684Y-73792152D01*
X134304615Y-73759982D01*
X134305812Y-73715103D01*
X134306448Y-73654889D01*
X134306697Y-73576713D01*
X134306734Y-73503923D01*
X134306700Y-73410707D01*
X134306465Y-73337431D01*
X134305830Y-73281458D01*
X134304594Y-73240151D01*
X134302556Y-73210872D01*
X134299517Y-73190984D01*
X134295277Y-73177850D01*
X134289635Y-73168832D01*
X134282391Y-73161293D01*
X134280606Y-73159612D01*
X134271945Y-73152172D01*
X134261882Y-73146409D01*
X134247625Y-73142112D01*
X134226383Y-73139064D01*
X134195364Y-73137051D01*
X134151777Y-73135860D01*
X134092831Y-73135275D01*
X134015734Y-73135083D01*
X133961001Y-73135067D01*
X133871794Y-73135146D01*
G36*
X135280371Y-73135066D02*
G01*
X135240889Y-73135467D01*
X135125200Y-73138259D01*
X135028311Y-73146550D01*
X134946919Y-73161232D01*
X134877723Y-73183193D01*
X134817420Y-73213322D01*
X134762708Y-73252510D01*
X134743167Y-73269532D01*
X134710750Y-73309363D01*
X134681520Y-73363413D01*
X134658991Y-73423323D01*
X134646679Y-73480739D01*
X134645400Y-73501956D01*
X134653417Y-73560769D01*
X134674899Y-73625013D01*
X134705999Y-73685821D01*
X134742866Y-73734330D01*
X134748854Y-73740182D01*
X134799579Y-73781321D01*
X134855125Y-73813435D01*
X134918696Y-73837365D01*
X134993494Y-73853953D01*
X135082722Y-73864041D01*
X135189582Y-73868469D01*
X135238528Y-73868845D01*
X135300762Y-73868545D01*
X135344528Y-73867292D01*
X135373931Y-73864554D01*
X135393079Y-73859801D01*
X135406077Y-73852501D01*
X135413045Y-73846267D01*
X135419626Y-73838694D01*
X135424788Y-73828924D01*
X135428703Y-73814340D01*
X135431543Y-73792326D01*
X135433480Y-73760264D01*
X135434684Y-73715536D01*
X135435328Y-73655526D01*
X135435583Y-73577617D01*
X135435622Y-73501956D01*
X135435870Y-73401041D01*
X135435817Y-73320427D01*
X135434857Y-73281822D01*
X135288867Y-73281822D01*
X135288867Y-73722089D01*
X135195734Y-73722004D01*
X135139693Y-73720396D01*
X135080999Y-73716256D01*
X135032028Y-73710464D01*
X135030538Y-73710226D01*
X134951392Y-73691090D01*
X134890002Y-73661287D01*
X134843305Y-73618878D01*
X134813635Y-73572961D01*
X134795353Y-73522026D01*
X134796771Y-73474200D01*
X134817988Y-73422933D01*
X134859489Y-73369899D01*
X134916998Y-73330600D01*
X134991750Y-73304331D01*
X135041708Y-73295035D01*
X135098416Y-73288507D01*
X135158519Y-73283782D01*
X135209639Y-73281817D01*
X135212667Y-73281808D01*
X135288867Y-73281822D01*
X135434857Y-73281822D01*
X135434260Y-73257851D01*
X135429998Y-73211055D01*
X135421830Y-73177778D01*
X135408556Y-73155759D01*
X135388974Y-73142739D01*
X135361883Y-73136457D01*
X135326082Y-73134653D01*
X135280371Y-73135066D01*
X135280371Y-73135066D01*
G37*
X135280371Y-73135066D02*
X135240889Y-73135467D01*
X135125200Y-73138259D01*
X135028311Y-73146550D01*
X134946919Y-73161232D01*
X134877723Y-73183193D01*
X134817420Y-73213322D01*
X134762708Y-73252510D01*
X134743167Y-73269532D01*
X134710750Y-73309363D01*
X134681520Y-73363413D01*
X134658991Y-73423323D01*
X134646679Y-73480739D01*
X134645400Y-73501956D01*
X134653417Y-73560769D01*
X134674899Y-73625013D01*
X134705999Y-73685821D01*
X134742866Y-73734330D01*
X134748854Y-73740182D01*
X134799579Y-73781321D01*
X134855125Y-73813435D01*
X134918696Y-73837365D01*
X134993494Y-73853953D01*
X135082722Y-73864041D01*
X135189582Y-73868469D01*
X135238528Y-73868845D01*
X135300762Y-73868545D01*
X135344528Y-73867292D01*
X135373931Y-73864554D01*
X135393079Y-73859801D01*
X135406077Y-73852501D01*
X135413045Y-73846267D01*
X135419626Y-73838694D01*
X135424788Y-73828924D01*
X135428703Y-73814340D01*
X135431543Y-73792326D01*
X135433480Y-73760264D01*
X135434684Y-73715536D01*
X135435328Y-73655526D01*
X135435583Y-73577617D01*
X135435622Y-73501956D01*
X135435870Y-73401041D01*
X135435817Y-73320427D01*
X135434857Y-73281822D01*
X135288867Y-73281822D01*
X135288867Y-73722089D01*
X135195734Y-73722004D01*
X135139693Y-73720396D01*
X135080999Y-73716256D01*
X135032028Y-73710464D01*
X135030538Y-73710226D01*
X134951392Y-73691090D01*
X134890002Y-73661287D01*
X134843305Y-73618878D01*
X134813635Y-73572961D01*
X134795353Y-73522026D01*
X134796771Y-73474200D01*
X134817988Y-73422933D01*
X134859489Y-73369899D01*
X134916998Y-73330600D01*
X134991750Y-73304331D01*
X135041708Y-73295035D01*
X135098416Y-73288507D01*
X135158519Y-73283782D01*
X135209639Y-73281817D01*
X135212667Y-73281808D01*
X135288867Y-73281822D01*
X135434857Y-73281822D01*
X135434260Y-73257851D01*
X135429998Y-73211055D01*
X135421830Y-73177778D01*
X135408556Y-73155759D01*
X135388974Y-73142739D01*
X135361883Y-73136457D01*
X135326082Y-73134653D01*
X135280371Y-73135066D01*
G36*
X131432043Y-67892571D02*
G01*
X131335768Y-67916809D01*
X131249184Y-67959641D01*
X131174373Y-68019419D01*
X131113418Y-68094494D01*
X131068399Y-68183220D01*
X131042136Y-68279530D01*
X131036286Y-68376795D01*
X131051140Y-68470654D01*
X131084840Y-68558511D01*
X131135528Y-68637770D01*
X131201345Y-68705836D01*
X131280434Y-68760112D01*
X131370934Y-68798002D01*
X131422200Y-68810426D01*
X131466698Y-68817947D01*
X131500999Y-68820919D01*
X131533960Y-68819094D01*
X131574434Y-68812225D01*
X131607531Y-68805250D01*
X131700947Y-68773741D01*
X131784619Y-68722617D01*
X131856665Y-68653429D01*
X131915200Y-68567728D01*
X131929148Y-68540489D01*
X131945586Y-68504122D01*
X131955894Y-68473582D01*
X131961460Y-68441450D01*
X131963669Y-68400307D01*
X131963948Y-68354222D01*
X131959861Y-68269865D01*
X131946446Y-68200586D01*
X131921256Y-68139961D01*
X131881846Y-68081567D01*
X131843298Y-68037302D01*
X131771406Y-67971484D01*
X131696313Y-67926053D01*
X131613562Y-67898850D01*
X131535928Y-67888576D01*
X131432043Y-67892571D01*
X131432043Y-67892571D01*
G37*
X131432043Y-67892571D02*
X131335768Y-67916809D01*
X131249184Y-67959641D01*
X131174373Y-68019419D01*
X131113418Y-68094494D01*
X131068399Y-68183220D01*
X131042136Y-68279530D01*
X131036286Y-68376795D01*
X131051140Y-68470654D01*
X131084840Y-68558511D01*
X131135528Y-68637770D01*
X131201345Y-68705836D01*
X131280434Y-68760112D01*
X131370934Y-68798002D01*
X131422200Y-68810426D01*
X131466698Y-68817947D01*
X131500999Y-68820919D01*
X131533960Y-68819094D01*
X131574434Y-68812225D01*
X131607531Y-68805250D01*
X131700947Y-68773741D01*
X131784619Y-68722617D01*
X131856665Y-68653429D01*
X131915200Y-68567728D01*
X131929148Y-68540489D01*
X131945586Y-68504122D01*
X131955894Y-68473582D01*
X131961460Y-68441450D01*
X131963669Y-68400307D01*
X131963948Y-68354222D01*
X131959861Y-68269865D01*
X131946446Y-68200586D01*
X131921256Y-68139961D01*
X131881846Y-68081567D01*
X131843298Y-68037302D01*
X131771406Y-67971484D01*
X131696313Y-67926053D01*
X131613562Y-67898850D01*
X131535928Y-67888576D01*
X131432043Y-67892571D01*
G36*
X122972493Y-70338245D02*
G01*
X122972474Y-70572662D01*
X122972448Y-70785603D01*
X122972375Y-70978168D01*
X122972218Y-71151459D01*
X122971936Y-71306576D01*
X122971491Y-71444620D01*
X122970844Y-71566692D01*
X122969955Y-71673894D01*
X122968787Y-71767326D01*
X122967299Y-71848090D01*
X122965454Y-71917286D01*
X122963211Y-71976015D01*
X122960531Y-72025379D01*
X122957377Y-72066478D01*
X122953708Y-72100413D01*
X122949487Y-72128286D01*
X122944673Y-72151198D01*
X122939227Y-72170249D01*
X122933112Y-72186540D01*
X122926288Y-72201173D01*
X122918715Y-72215249D01*
X122910355Y-72229868D01*
X122905161Y-72238974D01*
X122870896Y-72299689D01*
X123729045Y-72299689D01*
X123729045Y-72203733D01*
X123729776Y-72160370D01*
X123731728Y-72127205D01*
X123734537Y-72109424D01*
X123735779Y-72107778D01*
X123747201Y-72114662D01*
X123769916Y-72132505D01*
X123792615Y-72151879D01*
X123847200Y-72192614D01*
X123916679Y-72233617D01*
X123993730Y-72271123D01*
X124071035Y-72301364D01*
X124101887Y-72311012D01*
X124170384Y-72325578D01*
X124253236Y-72335539D01*
X124342629Y-72340583D01*
X124430752Y-72340396D01*
X124509793Y-72334666D01*
X124547489Y-72328858D01*
X124685586Y-72290797D01*
X124812887Y-72233073D01*
X124928708Y-72156211D01*
X125032363Y-72060739D01*
X125123167Y-71947179D01*
X125189969Y-71836381D01*
X125244836Y-71719625D01*
X125286837Y-71600276D01*
X125316833Y-71474283D01*
X125335689Y-71337594D01*
X125344268Y-71186158D01*
X125344994Y-71108711D01*
X125342900Y-71051934D01*
X124513783Y-71051934D01*
X124513576Y-71145002D01*
X124510663Y-71232692D01*
X124505000Y-71309772D01*
X124496545Y-71371009D01*
X124493962Y-71383350D01*
X124462160Y-71490633D01*
X124420502Y-71577658D01*
X124368637Y-71644642D01*
X124306219Y-71691805D01*
X124232900Y-71719365D01*
X124148331Y-71727541D01*
X124052165Y-71716551D01*
X123988689Y-71700829D01*
X123939546Y-71682639D01*
X123885417Y-71656791D01*
X123844756Y-71633089D01*
X123774200Y-71586721D01*
X123774200Y-70436530D01*
X123841608Y-70392962D01*
X123920133Y-70352040D01*
X124004319Y-70325389D01*
X124089443Y-70313465D01*
X124170784Y-70316722D01*
X124243620Y-70335615D01*
X124275574Y-70351184D01*
X124333499Y-70394181D01*
X124382456Y-70450953D01*
X124423610Y-70523575D01*
X124458126Y-70614121D01*
X124487167Y-70724666D01*
X124488448Y-70730533D01*
X124498619Y-70792788D01*
X124506261Y-70870594D01*
X124511330Y-70958720D01*
X124513783Y-71051934D01*
X125342900Y-71051934D01*
X125337143Y-70895895D01*
X125315198Y-70700059D01*
X125279214Y-70521332D01*
X125229241Y-70359845D01*
X125165332Y-70215726D01*
X125087538Y-70089106D01*
X124995911Y-69980115D01*
X124890503Y-69888883D01*
X124845338Y-69857932D01*
X124744389Y-69801785D01*
X124641099Y-69762174D01*
X124531011Y-69738014D01*
X124409670Y-69728219D01*
X124317164Y-69729265D01*
X124187510Y-69740231D01*
X124074916Y-69762046D01*
X123976125Y-69795714D01*
X123887879Y-69842236D01*
X123839014Y-69876448D01*
X123809647Y-69898362D01*
X123787957Y-69913333D01*
X123779747Y-69917733D01*
X123778132Y-69906904D01*
X123776841Y-69876251D01*
X123775862Y-69828526D01*
X123775183Y-69766479D01*
X123774790Y-69692862D01*
X123774670Y-69610427D01*
X123774812Y-69521925D01*
X123775203Y-69430107D01*
X123775829Y-69337724D01*
X123776680Y-69247528D01*
X123777740Y-69162271D01*
X123778999Y-69084703D01*
X123780444Y-69017576D01*
X123782062Y-68963641D01*
X123783839Y-68925650D01*
X123784331Y-68918667D01*
X123791908Y-68848251D01*
X123803469Y-68793102D01*
X123821208Y-68745981D01*
X123847318Y-68699647D01*
X123853585Y-68690067D01*
X123878017Y-68653378D01*
X122972689Y-68653378D01*
X122972493Y-70338245D01*
X122972493Y-70338245D01*
G37*
X122972493Y-70338245D02*
X122972474Y-70572662D01*
X122972448Y-70785603D01*
X122972375Y-70978168D01*
X122972218Y-71151459D01*
X122971936Y-71306576D01*
X122971491Y-71444620D01*
X122970844Y-71566692D01*
X122969955Y-71673894D01*
X122968787Y-71767326D01*
X122967299Y-71848090D01*
X122965454Y-71917286D01*
X122963211Y-71976015D01*
X122960531Y-72025379D01*
X122957377Y-72066478D01*
X122953708Y-72100413D01*
X122949487Y-72128286D01*
X122944673Y-72151198D01*
X122939227Y-72170249D01*
X122933112Y-72186540D01*
X122926288Y-72201173D01*
X122918715Y-72215249D01*
X122910355Y-72229868D01*
X122905161Y-72238974D01*
X122870896Y-72299689D01*
X123729045Y-72299689D01*
X123729045Y-72203733D01*
X123729776Y-72160370D01*
X123731728Y-72127205D01*
X123734537Y-72109424D01*
X123735779Y-72107778D01*
X123747201Y-72114662D01*
X123769916Y-72132505D01*
X123792615Y-72151879D01*
X123847200Y-72192614D01*
X123916679Y-72233617D01*
X123993730Y-72271123D01*
X124071035Y-72301364D01*
X124101887Y-72311012D01*
X124170384Y-72325578D01*
X124253236Y-72335539D01*
X124342629Y-72340583D01*
X124430752Y-72340396D01*
X124509793Y-72334666D01*
X124547489Y-72328858D01*
X124685586Y-72290797D01*
X124812887Y-72233073D01*
X124928708Y-72156211D01*
X125032363Y-72060739D01*
X125123167Y-71947179D01*
X125189969Y-71836381D01*
X125244836Y-71719625D01*
X125286837Y-71600276D01*
X125316833Y-71474283D01*
X125335689Y-71337594D01*
X125344268Y-71186158D01*
X125344994Y-71108711D01*
X125342900Y-71051934D01*
X124513783Y-71051934D01*
X124513576Y-71145002D01*
X124510663Y-71232692D01*
X124505000Y-71309772D01*
X124496545Y-71371009D01*
X124493962Y-71383350D01*
X124462160Y-71490633D01*
X124420502Y-71577658D01*
X124368637Y-71644642D01*
X124306219Y-71691805D01*
X124232900Y-71719365D01*
X124148331Y-71727541D01*
X124052165Y-71716551D01*
X123988689Y-71700829D01*
X123939546Y-71682639D01*
X123885417Y-71656791D01*
X123844756Y-71633089D01*
X123774200Y-71586721D01*
X123774200Y-70436530D01*
X123841608Y-70392962D01*
X123920133Y-70352040D01*
X124004319Y-70325389D01*
X124089443Y-70313465D01*
X124170784Y-70316722D01*
X124243620Y-70335615D01*
X124275574Y-70351184D01*
X124333499Y-70394181D01*
X124382456Y-70450953D01*
X124423610Y-70523575D01*
X124458126Y-70614121D01*
X124487167Y-70724666D01*
X124488448Y-70730533D01*
X124498619Y-70792788D01*
X124506261Y-70870594D01*
X124511330Y-70958720D01*
X124513783Y-71051934D01*
X125342900Y-71051934D01*
X125337143Y-70895895D01*
X125315198Y-70700059D01*
X125279214Y-70521332D01*
X125229241Y-70359845D01*
X125165332Y-70215726D01*
X125087538Y-70089106D01*
X124995911Y-69980115D01*
X124890503Y-69888883D01*
X124845338Y-69857932D01*
X124744389Y-69801785D01*
X124641099Y-69762174D01*
X124531011Y-69738014D01*
X124409670Y-69728219D01*
X124317164Y-69729265D01*
X124187510Y-69740231D01*
X124074916Y-69762046D01*
X123976125Y-69795714D01*
X123887879Y-69842236D01*
X123839014Y-69876448D01*
X123809647Y-69898362D01*
X123787957Y-69913333D01*
X123779747Y-69917733D01*
X123778132Y-69906904D01*
X123776841Y-69876251D01*
X123775862Y-69828526D01*
X123775183Y-69766479D01*
X123774790Y-69692862D01*
X123774670Y-69610427D01*
X123774812Y-69521925D01*
X123775203Y-69430107D01*
X123775829Y-69337724D01*
X123776680Y-69247528D01*
X123777740Y-69162271D01*
X123778999Y-69084703D01*
X123780444Y-69017576D01*
X123782062Y-68963641D01*
X123783839Y-68925650D01*
X123784331Y-68918667D01*
X123791908Y-68848251D01*
X123803469Y-68793102D01*
X123821208Y-68745981D01*
X123847318Y-68699647D01*
X123853585Y-68690067D01*
X123878017Y-68653378D01*
X122972689Y-68653378D01*
X122972493Y-70338245D01*
G36*
X126485426Y-69732552D02*
G01*
X126333508Y-69752567D01*
X126198244Y-69786202D01*
X126078761Y-69833725D01*
X125974185Y-69895405D01*
X125896576Y-69958965D01*
X125827735Y-70033099D01*
X125773994Y-70112871D01*
X125731090Y-70205091D01*
X125715616Y-70248161D01*
X125702756Y-70287142D01*
X125691554Y-70323289D01*
X125681880Y-70358434D01*
X125673604Y-70394410D01*
X125666597Y-70433050D01*
X125660728Y-70476185D01*
X125655869Y-70525649D01*
X125651890Y-70583273D01*
X125648660Y-70650891D01*
X125646051Y-70730334D01*
X125643933Y-70823436D01*
X125642176Y-70932027D01*
X125640651Y-71057942D01*
X125639228Y-71203012D01*
X125637975Y-71345778D01*
X125636649Y-71501968D01*
X125635444Y-71637239D01*
X125634234Y-71753246D01*
X125632894Y-71851645D01*
X125631300Y-71934093D01*
X125629325Y-72002246D01*
X125626844Y-72057760D01*
X125623731Y-72102292D01*
X125619862Y-72137498D01*
X125615111Y-72165034D01*
X125609352Y-72186556D01*
X125602461Y-72203722D01*
X125594311Y-72218186D01*
X125584777Y-72231606D01*
X125573734Y-72245638D01*
X125569434Y-72251071D01*
X125553614Y-72273910D01*
X125546578Y-72289463D01*
X125546556Y-72289922D01*
X125557433Y-72292121D01*
X125588418Y-72294147D01*
X125637043Y-72295942D01*
X125700837Y-72297451D01*
X125777331Y-72298616D01*
X125864056Y-72299380D01*
X125958543Y-72299686D01*
X125969450Y-72299689D01*
X126392343Y-72299689D01*
X126395605Y-72203622D01*
X126398867Y-72107556D01*
X126460956Y-72158543D01*
X126558286Y-72226057D01*
X126668187Y-72280749D01*
X126754651Y-72310978D01*
X126823722Y-72325666D01*
X126907075Y-72335659D01*
X126996841Y-72340646D01*
X127085155Y-72340313D01*
X127164149Y-72334351D01*
X127200378Y-72328638D01*
X127340397Y-72290776D01*
X127466822Y-72235932D01*
X127578740Y-72164924D01*
X127675238Y-72078568D01*
X127755400Y-71977679D01*
X127818313Y-71863076D01*
X127862688Y-71736984D01*
X127875022Y-71680401D01*
X127882632Y-71618202D01*
X127886261Y-71543363D01*
X127886755Y-71509467D01*
X127886690Y-71506282D01*
X127126752Y-71506282D01*
X127117459Y-71581333D01*
X127089272Y-71645160D01*
X127040803Y-71700798D01*
X127035746Y-71705211D01*
X126987452Y-71740037D01*
X126935743Y-71762620D01*
X126875011Y-71774540D01*
X126799648Y-71777383D01*
X126781541Y-71776978D01*
X126727722Y-71774325D01*
X126687692Y-71768909D01*
X126652676Y-71758745D01*
X126613897Y-71741850D01*
X126603255Y-71736672D01*
X126542604Y-71700844D01*
X126495785Y-71658212D01*
X126483048Y-71642973D01*
X126438378Y-71586462D01*
X126438378Y-71390586D01*
X126438914Y-71311939D01*
X126440604Y-71253988D01*
X126443572Y-71214875D01*
X126447943Y-71192741D01*
X126452028Y-71186274D01*
X126467953Y-71183111D01*
X126501736Y-71180488D01*
X126548660Y-71178655D01*
X126604007Y-71177857D01*
X126612894Y-71177842D01*
X126733670Y-71183096D01*
X126836340Y-71199263D01*
X126922894Y-71226961D01*
X126995319Y-71266808D01*
X127050249Y-71313758D01*
X127094796Y-71371645D01*
X127119520Y-71434693D01*
X127126752Y-71506282D01*
X127886690Y-71506282D01*
X127884822Y-71415712D01*
X127876478Y-71336812D01*
X127860232Y-71265590D01*
X127834595Y-71194864D01*
X127810599Y-71142493D01*
X127751980Y-71047196D01*
X127673883Y-70959170D01*
X127578685Y-70880017D01*
X127468762Y-70811340D01*
X127346490Y-70754741D01*
X127214245Y-70711821D01*
X127149578Y-70696882D01*
X127013396Y-70674777D01*
X126864951Y-70660194D01*
X126713495Y-70653813D01*
X126586936Y-70655445D01*
X126425050Y-70662224D01*
X126432470Y-70603245D01*
X126451762Y-70504092D01*
X126482896Y-70423372D01*
X126526731Y-70360466D01*
X126584129Y-70314756D01*
X126655952Y-70285622D01*
X126743059Y-70272447D01*
X126846314Y-70274611D01*
X126884289Y-70278612D01*
X127025480Y-70303780D01*
X127162293Y-70344814D01*
X127256822Y-70382815D01*
X127301982Y-70402190D01*
X127340415Y-70417760D01*
X127366766Y-70427405D01*
X127374454Y-70429452D01*
X127384198Y-70420374D01*
X127400917Y-70391405D01*
X127424768Y-70342217D01*
X127455907Y-70272484D01*
X127494493Y-70181879D01*
X127501090Y-70166089D01*
X127531147Y-70093772D01*
X127558126Y-70028425D01*
X127580864Y-69972906D01*
X127598194Y-69930072D01*
X127608952Y-69902781D01*
X127612059Y-69893942D01*
X127602060Y-69889187D01*
X127575783Y-69883910D01*
X127547511Y-69880231D01*
X127517354Y-69875474D01*
X127469567Y-69866028D01*
X127408388Y-69852820D01*
X127338054Y-69836776D01*
X127262806Y-69818820D01*
X127234245Y-69811797D01*
X127129184Y-69786209D01*
X127041520Y-69766147D01*
X126966932Y-69750969D01*
X126901097Y-69740035D01*
X126839693Y-69732704D01*
X126778398Y-69728335D01*
X126712890Y-69726287D01*
X126654872Y-69725889D01*
X126485426Y-69732552D01*
X126485426Y-69732552D01*
G37*
X126485426Y-69732552D02*
X126333508Y-69752567D01*
X126198244Y-69786202D01*
X126078761Y-69833725D01*
X125974185Y-69895405D01*
X125896576Y-69958965D01*
X125827735Y-70033099D01*
X125773994Y-70112871D01*
X125731090Y-70205091D01*
X125715616Y-70248161D01*
X125702756Y-70287142D01*
X125691554Y-70323289D01*
X125681880Y-70358434D01*
X125673604Y-70394410D01*
X125666597Y-70433050D01*
X125660728Y-70476185D01*
X125655869Y-70525649D01*
X125651890Y-70583273D01*
X125648660Y-70650891D01*
X125646051Y-70730334D01*
X125643933Y-70823436D01*
X125642176Y-70932027D01*
X125640651Y-71057942D01*
X125639228Y-71203012D01*
X125637975Y-71345778D01*
X125636649Y-71501968D01*
X125635444Y-71637239D01*
X125634234Y-71753246D01*
X125632894Y-71851645D01*
X125631300Y-71934093D01*
X125629325Y-72002246D01*
X125626844Y-72057760D01*
X125623731Y-72102292D01*
X125619862Y-72137498D01*
X125615111Y-72165034D01*
X125609352Y-72186556D01*
X125602461Y-72203722D01*
X125594311Y-72218186D01*
X125584777Y-72231606D01*
X125573734Y-72245638D01*
X125569434Y-72251071D01*
X125553614Y-72273910D01*
X125546578Y-72289463D01*
X125546556Y-72289922D01*
X125557433Y-72292121D01*
X125588418Y-72294147D01*
X125637043Y-72295942D01*
X125700837Y-72297451D01*
X125777331Y-72298616D01*
X125864056Y-72299380D01*
X125958543Y-72299686D01*
X125969450Y-72299689D01*
X126392343Y-72299689D01*
X126395605Y-72203622D01*
X126398867Y-72107556D01*
X126460956Y-72158543D01*
X126558286Y-72226057D01*
X126668187Y-72280749D01*
X126754651Y-72310978D01*
X126823722Y-72325666D01*
X126907075Y-72335659D01*
X126996841Y-72340646D01*
X127085155Y-72340313D01*
X127164149Y-72334351D01*
X127200378Y-72328638D01*
X127340397Y-72290776D01*
X127466822Y-72235932D01*
X127578740Y-72164924D01*
X127675238Y-72078568D01*
X127755400Y-71977679D01*
X127818313Y-71863076D01*
X127862688Y-71736984D01*
X127875022Y-71680401D01*
X127882632Y-71618202D01*
X127886261Y-71543363D01*
X127886755Y-71509467D01*
X127886690Y-71506282D01*
X127126752Y-71506282D01*
X127117459Y-71581333D01*
X127089272Y-71645160D01*
X127040803Y-71700798D01*
X127035746Y-71705211D01*
X126987452Y-71740037D01*
X126935743Y-71762620D01*
X126875011Y-71774540D01*
X126799648Y-71777383D01*
X126781541Y-71776978D01*
X126727722Y-71774325D01*
X126687692Y-71768909D01*
X126652676Y-71758745D01*
X126613897Y-71741850D01*
X126603255Y-71736672D01*
X126542604Y-71700844D01*
X126495785Y-71658212D01*
X126483048Y-71642973D01*
X126438378Y-71586462D01*
X126438378Y-71390586D01*
X126438914Y-71311939D01*
X126440604Y-71253988D01*
X126443572Y-71214875D01*
X126447943Y-71192741D01*
X126452028Y-71186274D01*
X126467953Y-71183111D01*
X126501736Y-71180488D01*
X126548660Y-71178655D01*
X126604007Y-71177857D01*
X126612894Y-71177842D01*
X126733670Y-71183096D01*
X126836340Y-71199263D01*
X126922894Y-71226961D01*
X126995319Y-71266808D01*
X127050249Y-71313758D01*
X127094796Y-71371645D01*
X127119520Y-71434693D01*
X127126752Y-71506282D01*
X127886690Y-71506282D01*
X127884822Y-71415712D01*
X127876478Y-71336812D01*
X127860232Y-71265590D01*
X127834595Y-71194864D01*
X127810599Y-71142493D01*
X127751980Y-71047196D01*
X127673883Y-70959170D01*
X127578685Y-70880017D01*
X127468762Y-70811340D01*
X127346490Y-70754741D01*
X127214245Y-70711821D01*
X127149578Y-70696882D01*
X127013396Y-70674777D01*
X126864951Y-70660194D01*
X126713495Y-70653813D01*
X126586936Y-70655445D01*
X126425050Y-70662224D01*
X126432470Y-70603245D01*
X126451762Y-70504092D01*
X126482896Y-70423372D01*
X126526731Y-70360466D01*
X126584129Y-70314756D01*
X126655952Y-70285622D01*
X126743059Y-70272447D01*
X126846314Y-70274611D01*
X126884289Y-70278612D01*
X127025480Y-70303780D01*
X127162293Y-70344814D01*
X127256822Y-70382815D01*
X127301982Y-70402190D01*
X127340415Y-70417760D01*
X127366766Y-70427405D01*
X127374454Y-70429452D01*
X127384198Y-70420374D01*
X127400917Y-70391405D01*
X127424768Y-70342217D01*
X127455907Y-70272484D01*
X127494493Y-70181879D01*
X127501090Y-70166089D01*
X127531147Y-70093772D01*
X127558126Y-70028425D01*
X127580864Y-69972906D01*
X127598194Y-69930072D01*
X127608952Y-69902781D01*
X127612059Y-69893942D01*
X127602060Y-69889187D01*
X127575783Y-69883910D01*
X127547511Y-69880231D01*
X127517354Y-69875474D01*
X127469567Y-69866028D01*
X127408388Y-69852820D01*
X127338054Y-69836776D01*
X127262806Y-69818820D01*
X127234245Y-69811797D01*
X127129184Y-69786209D01*
X127041520Y-69766147D01*
X126966932Y-69750969D01*
X126901097Y-69740035D01*
X126839693Y-69732704D01*
X126778398Y-69728335D01*
X126712890Y-69726287D01*
X126654872Y-69725889D01*
X126485426Y-69732552D01*
G36*
X128830571Y-68815071D02*
G01*
X128670430Y-68836245D01*
X128506490Y-68876385D01*
X128336687Y-68935889D01*
X128158957Y-69015154D01*
X128147690Y-69020699D01*
X128089995Y-69048725D01*
X128038448Y-69072802D01*
X127996809Y-69091249D01*
X127968838Y-69102386D01*
X127959267Y-69104933D01*
X127940050Y-69109941D01*
X127935439Y-69114147D01*
X127940542Y-69124580D01*
X127956582Y-69150868D01*
X127981712Y-69190257D01*
X128014086Y-69239991D01*
X128051857Y-69297315D01*
X128093178Y-69359476D01*
X128136202Y-69423718D01*
X128179083Y-69487285D01*
X128219974Y-69547425D01*
X128257029Y-69601380D01*
X128288400Y-69646397D01*
X128312241Y-69679721D01*
X128326706Y-69698597D01*
X128328691Y-69700787D01*
X128338809Y-69696138D01*
X128361150Y-69678962D01*
X128391720Y-69652440D01*
X128407464Y-69637964D01*
X128503953Y-69562682D01*
X128610664Y-69507241D01*
X128726168Y-69472141D01*
X128849038Y-69457880D01*
X128918439Y-69459051D01*
X129039577Y-69476212D01*
X129148795Y-69512094D01*
X129246418Y-69566959D01*
X129332772Y-69641070D01*
X129408185Y-69734688D01*
X129472982Y-69848076D01*
X129510399Y-69934667D01*
X129554252Y-70070366D01*
X129586572Y-70217850D01*
X129607443Y-70373314D01*
X129616949Y-70532956D01*
X129615173Y-70692973D01*
X129602197Y-70849561D01*
X129578106Y-70998918D01*
X129542982Y-71137240D01*
X129496908Y-71260724D01*
X129480627Y-71294978D01*
X129412380Y-71409064D01*
X129331921Y-71505557D01*
X129240430Y-71583670D01*
X129139089Y-71642617D01*
X129029080Y-71681612D01*
X128911585Y-71699868D01*
X128870117Y-71701211D01*
X128748559Y-71690290D01*
X128628122Y-71657474D01*
X128510334Y-71603439D01*
X128396723Y-71528865D01*
X128305315Y-71450539D01*
X128258785Y-71406008D01*
X128077517Y-71703271D01*
X128032420Y-71777433D01*
X127991181Y-71845646D01*
X127955265Y-71905459D01*
X127926134Y-71954420D01*
X127905250Y-71990079D01*
X127894076Y-72009984D01*
X127892625Y-72013079D01*
X127900854Y-72022718D01*
X127926433Y-72039999D01*
X127966127Y-72063283D01*
X128016703Y-72090934D01*
X128074926Y-72121315D01*
X128137563Y-72152790D01*
X128201379Y-72183722D01*
X128263140Y-72212473D01*
X128319612Y-72237408D01*
X128367562Y-72256889D01*
X128391014Y-72265318D01*
X128524779Y-72303133D01*
X128662673Y-72328136D01*
X128810378Y-72341140D01*
X128937167Y-72343468D01*
X129005122Y-72342373D01*
X129070723Y-72340275D01*
X129128153Y-72337434D01*
X129171597Y-72334106D01*
X129185702Y-72332422D01*
X129324716Y-72303587D01*
X129466243Y-72258468D01*
X129603725Y-72199750D01*
X129730606Y-72130120D01*
X129808111Y-72077441D01*
X129935519Y-71969239D01*
X130053822Y-71842671D01*
X130160828Y-71700866D01*
X130254348Y-71546951D01*
X130332190Y-71384053D01*
X130376044Y-71266756D01*
X130426292Y-71083128D01*
X130459791Y-70888581D01*
X130476551Y-70687325D01*
X130476584Y-70483568D01*
X130459899Y-70281521D01*
X130426507Y-70085392D01*
X130376420Y-69899391D01*
X130372603Y-69887803D01*
X130309719Y-69725750D01*
X130232972Y-69577832D01*
X130139758Y-69439865D01*
X130027473Y-69307661D01*
X129983608Y-69262399D01*
X129847466Y-69138457D01*
X129707509Y-69035915D01*
X129561589Y-68953656D01*
X129407558Y-68890564D01*
X129243268Y-68845523D01*
X129147711Y-68828033D01*
X128988977Y-68812466D01*
X128830571Y-68815071D01*
X128830571Y-68815071D01*
G37*
X128830571Y-68815071D02*
X128670430Y-68836245D01*
X128506490Y-68876385D01*
X128336687Y-68935889D01*
X128158957Y-69015154D01*
X128147690Y-69020699D01*
X128089995Y-69048725D01*
X128038448Y-69072802D01*
X127996809Y-69091249D01*
X127968838Y-69102386D01*
X127959267Y-69104933D01*
X127940050Y-69109941D01*
X127935439Y-69114147D01*
X127940542Y-69124580D01*
X127956582Y-69150868D01*
X127981712Y-69190257D01*
X128014086Y-69239991D01*
X128051857Y-69297315D01*
X128093178Y-69359476D01*
X128136202Y-69423718D01*
X128179083Y-69487285D01*
X128219974Y-69547425D01*
X128257029Y-69601380D01*
X128288400Y-69646397D01*
X128312241Y-69679721D01*
X128326706Y-69698597D01*
X128328691Y-69700787D01*
X128338809Y-69696138D01*
X128361150Y-69678962D01*
X128391720Y-69652440D01*
X128407464Y-69637964D01*
X128503953Y-69562682D01*
X128610664Y-69507241D01*
X128726168Y-69472141D01*
X128849038Y-69457880D01*
X128918439Y-69459051D01*
X129039577Y-69476212D01*
X129148795Y-69512094D01*
X129246418Y-69566959D01*
X129332772Y-69641070D01*
X129408185Y-69734688D01*
X129472982Y-69848076D01*
X129510399Y-69934667D01*
X129554252Y-70070366D01*
X129586572Y-70217850D01*
X129607443Y-70373314D01*
X129616949Y-70532956D01*
X129615173Y-70692973D01*
X129602197Y-70849561D01*
X129578106Y-70998918D01*
X129542982Y-71137240D01*
X129496908Y-71260724D01*
X129480627Y-71294978D01*
X129412380Y-71409064D01*
X129331921Y-71505557D01*
X129240430Y-71583670D01*
X129139089Y-71642617D01*
X129029080Y-71681612D01*
X128911585Y-71699868D01*
X128870117Y-71701211D01*
X128748559Y-71690290D01*
X128628122Y-71657474D01*
X128510334Y-71603439D01*
X128396723Y-71528865D01*
X128305315Y-71450539D01*
X128258785Y-71406008D01*
X128077517Y-71703271D01*
X128032420Y-71777433D01*
X127991181Y-71845646D01*
X127955265Y-71905459D01*
X127926134Y-71954420D01*
X127905250Y-71990079D01*
X127894076Y-72009984D01*
X127892625Y-72013079D01*
X127900854Y-72022718D01*
X127926433Y-72039999D01*
X127966127Y-72063283D01*
X128016703Y-72090934D01*
X128074926Y-72121315D01*
X128137563Y-72152790D01*
X128201379Y-72183722D01*
X128263140Y-72212473D01*
X128319612Y-72237408D01*
X128367562Y-72256889D01*
X128391014Y-72265318D01*
X128524779Y-72303133D01*
X128662673Y-72328136D01*
X128810378Y-72341140D01*
X128937167Y-72343468D01*
X129005122Y-72342373D01*
X129070723Y-72340275D01*
X129128153Y-72337434D01*
X129171597Y-72334106D01*
X129185702Y-72332422D01*
X129324716Y-72303587D01*
X129466243Y-72258468D01*
X129603725Y-72199750D01*
X129730606Y-72130120D01*
X129808111Y-72077441D01*
X129935519Y-71969239D01*
X130053822Y-71842671D01*
X130160828Y-71700866D01*
X130254348Y-71546951D01*
X130332190Y-71384053D01*
X130376044Y-71266756D01*
X130426292Y-71083128D01*
X130459791Y-70888581D01*
X130476551Y-70687325D01*
X130476584Y-70483568D01*
X130459899Y-70281521D01*
X130426507Y-70085392D01*
X130376420Y-69899391D01*
X130372603Y-69887803D01*
X130309719Y-69725750D01*
X130232972Y-69577832D01*
X130139758Y-69439865D01*
X130027473Y-69307661D01*
X129983608Y-69262399D01*
X129847466Y-69138457D01*
X129707509Y-69035915D01*
X129561589Y-68953656D01*
X129407558Y-68890564D01*
X129243268Y-68845523D01*
X129147711Y-68828033D01*
X128988977Y-68812466D01*
X128830571Y-68815071D01*
G36*
X132105400Y-68355054D02*
G01*
X132094535Y-68468993D01*
X132062918Y-68576616D01*
X132012015Y-68675615D01*
X131943293Y-68763684D01*
X131858219Y-68838516D01*
X131761232Y-68896384D01*
X131654964Y-68936005D01*
X131547950Y-68954573D01*
X131442300Y-68953434D01*
X131340125Y-68933930D01*
X131243534Y-68897406D01*
X131154638Y-68845205D01*
X131075546Y-68778673D01*
X131008369Y-68699152D01*
X130955217Y-68607987D01*
X130918199Y-68506523D01*
X130899427Y-68396102D01*
X130897489Y-68346206D01*
X130897489Y-68258267D01*
X130845560Y-68258267D01*
X130809253Y-68261111D01*
X130782355Y-68272911D01*
X130755249Y-68296649D01*
X130716867Y-68335031D01*
X130716867Y-70526602D01*
X130716876Y-70788739D01*
X130716908Y-71029241D01*
X130716972Y-71249048D01*
X130717076Y-71449101D01*
X130717227Y-71630344D01*
X130717434Y-71793716D01*
X130717706Y-71940160D01*
X130718050Y-72070617D01*
X130718474Y-72186029D01*
X130718987Y-72287338D01*
X130719597Y-72375484D01*
X130720312Y-72451410D01*
X130721140Y-72516057D01*
X130722089Y-72570367D01*
X130723167Y-72615280D01*
X130724383Y-72651740D01*
X130725745Y-72680687D01*
X130727261Y-72703063D01*
X130728938Y-72719809D01*
X130730786Y-72731868D01*
X130732813Y-72740180D01*
X130735025Y-72745687D01*
X130736108Y-72747537D01*
X130740271Y-72754549D01*
X130743805Y-72760996D01*
X130747635Y-72766900D01*
X130752682Y-72772286D01*
X130759871Y-72777178D01*
X130770123Y-72781598D01*
X130784364Y-72785572D01*
X130803514Y-72789121D01*
X130828499Y-72792270D01*
X130860240Y-72795042D01*
X130899662Y-72797461D01*
X130947686Y-72799551D01*
X131005237Y-72801335D01*
X131073237Y-72802837D01*
X131152610Y-72804080D01*
X131244279Y-72805089D01*
X131349166Y-72805885D01*
X131468196Y-72806494D01*
X131602290Y-72806939D01*
X131752373Y-72807243D01*
X131919367Y-72807430D01*
X132104196Y-72807524D01*
X132307783Y-72807548D01*
X132531050Y-72807525D01*
X132774922Y-72807480D01*
X133040321Y-72807437D01*
X133078704Y-72807432D01*
X133345682Y-72807389D01*
X133591002Y-72807318D01*
X133815583Y-72807213D01*
X134020345Y-72807066D01*
X134206206Y-72806869D01*
X134374088Y-72806616D01*
X134524908Y-72806300D01*
X134659587Y-72805913D01*
X134779044Y-72805447D01*
X134884199Y-72804897D01*
X134975971Y-72804253D01*
X135055279Y-72803511D01*
X135123043Y-72802661D01*
X135180182Y-72801697D01*
X135227617Y-72800611D01*
X135266266Y-72799397D01*
X135297049Y-72798047D01*
X135320885Y-72796555D01*
X135338694Y-72794911D01*
X135351395Y-72793111D01*
X135359908Y-72791145D01*
X135364266Y-72789477D01*
X135372728Y-72785906D01*
X135380497Y-72783270D01*
X135387602Y-72780634D01*
X135394073Y-72777062D01*
X135399939Y-72771621D01*
X135405229Y-72763375D01*
X135409974Y-72751390D01*
X135414202Y-72734731D01*
X135417943Y-72712463D01*
X135421227Y-72683652D01*
X135424083Y-72647363D01*
X135426540Y-72602661D01*
X135428629Y-72548611D01*
X135430378Y-72484279D01*
X135431817Y-72408730D01*
X135432976Y-72321030D01*
X135433883Y-72220243D01*
X135434569Y-72105434D01*
X135435063Y-71975670D01*
X135435395Y-71830015D01*
X135435593Y-71667535D01*
X135435687Y-71487295D01*
X135435708Y-71288360D01*
X135435685Y-71069796D01*
X135435646Y-70830668D01*
X135435622Y-70570040D01*
X135435622Y-70527889D01*
X135435636Y-70264992D01*
X135435661Y-70023732D01*
X135435671Y-69803165D01*
X135435642Y-69602352D01*
X135435548Y-69420349D01*
X135435362Y-69256216D01*
X135435059Y-69109011D01*
X135434614Y-68977792D01*
X135434034Y-68867867D01*
X135131197Y-68867867D01*
X135091407Y-68925711D01*
X135080236Y-68941479D01*
X135070166Y-68955441D01*
X135061138Y-68968784D01*
X135053097Y-68982693D01*
X135045986Y-68998356D01*
X135039747Y-69016958D01*
X135034325Y-69039686D01*
X135029662Y-69067727D01*
X135025701Y-69102267D01*
X135022385Y-69144492D01*
X135019659Y-69195589D01*
X135017464Y-69256744D01*
X135015745Y-69329144D01*
X135014444Y-69413975D01*
X135013505Y-69512422D01*
X135012870Y-69625674D01*
X135012484Y-69754916D01*
X135012288Y-69901334D01*
X135012227Y-70066116D01*
X135012243Y-70250447D01*
X135012280Y-70455513D01*
X135012289Y-70578133D01*
X135012265Y-70795082D01*
X135012231Y-70990642D01*
X135012243Y-71165999D01*
X135012358Y-71322341D01*
X135012630Y-71460857D01*
X135013118Y-71582734D01*
X135013876Y-71689160D01*
X135014962Y-71781322D01*
X135016431Y-71860409D01*
X135018340Y-71927608D01*
X135020744Y-71984107D01*
X135023701Y-72031093D01*
X135027266Y-72069755D01*
X135031495Y-72101280D01*
X135036446Y-72126855D01*
X135042173Y-72147670D01*
X135048733Y-72164911D01*
X135056183Y-72179765D01*
X135064579Y-72193422D01*
X135073976Y-72207069D01*
X135084432Y-72221893D01*
X135090523Y-72230783D01*
X135129296Y-72288400D01*
X134597732Y-72288400D01*
X134474483Y-72288365D01*
X134371987Y-72288215D01*
X134288420Y-72287878D01*
X134221956Y-72287286D01*
X134170771Y-72286367D01*
X134133041Y-72285051D01*
X134106940Y-72283269D01*
X134090644Y-72280951D01*
X134082328Y-72278026D01*
X134080168Y-72274424D01*
X134082339Y-72270075D01*
X134083535Y-72268645D01*
X134108685Y-72231573D01*
X134134583Y-72178772D01*
X134158192Y-72116770D01*
X134166461Y-72090357D01*
X134171078Y-72072416D01*
X134174979Y-72051355D01*
X134178248Y-72025089D01*
X134180966Y-71991532D01*
X134183215Y-71948599D01*
X134185077Y-71894204D01*
X134186636Y-71826262D01*
X134187972Y-71742688D01*
X134189169Y-71641395D01*
X134190308Y-71520300D01*
X134190685Y-71475600D01*
X134191702Y-71350449D01*
X134192460Y-71246082D01*
X134192903Y-71160707D01*
X134192970Y-71092533D01*
X134192605Y-71039765D01*
X134191748Y-71000614D01*
X134190341Y-70973285D01*
X134188325Y-70955986D01*
X134185643Y-70946926D01*
X134182236Y-70944312D01*
X134178044Y-70946351D01*
X134173571Y-70950667D01*
X134163216Y-70963602D01*
X134141158Y-70992676D01*
X134108957Y-71035759D01*
X134068174Y-71090718D01*
X134020370Y-71155423D01*
X133967105Y-71227742D01*
X133909940Y-71305544D01*
X133850437Y-71386698D01*
X133790155Y-71469072D01*
X133730655Y-71550536D01*
X133673498Y-71628957D01*
X133620245Y-71702204D01*
X133572457Y-71768147D01*
X133531693Y-71824654D01*
X133499516Y-71869593D01*
X133477485Y-71900834D01*
X133472917Y-71907466D01*
X133449996Y-71944369D01*
X133423188Y-71992359D01*
X133397789Y-72041897D01*
X133394568Y-72048577D01*
X133372890Y-72096772D01*
X133360304Y-72134334D01*
X133354574Y-72170160D01*
X133353456Y-72212200D01*
X133354090Y-72288400D01*
X132199651Y-72288400D01*
X132290815Y-72194669D01*
X132337612Y-72144775D01*
X132387899Y-72088295D01*
X132433944Y-72034026D01*
X132454369Y-72008673D01*
X132484807Y-71969128D01*
X132524862Y-71915916D01*
X132573361Y-71850667D01*
X132629135Y-71775011D01*
X132691011Y-71690577D01*
X132757819Y-71598994D01*
X132828387Y-71501892D01*
X132901545Y-71400901D01*
X132976121Y-71297650D01*
X133050944Y-71193768D01*
X133124843Y-71090885D01*
X133196646Y-70990631D01*
X133265184Y-70894636D01*
X133329284Y-70804527D01*
X133387775Y-70721936D01*
X133439486Y-70648492D01*
X133483247Y-70585824D01*
X133517885Y-70535561D01*
X133542230Y-70499334D01*
X133555111Y-70478771D01*
X133556869Y-70474668D01*
X133548910Y-70463342D01*
X133528115Y-70436162D01*
X133495847Y-70394829D01*
X133453470Y-70341044D01*
X133402347Y-70276506D01*
X133343841Y-70202918D01*
X133279314Y-70121978D01*
X133210131Y-70035388D01*
X133137653Y-69944848D01*
X133063246Y-69852060D01*
X133003517Y-69777702D01*
X131992511Y-69777702D01*
X131986602Y-69790659D01*
X131972272Y-69812908D01*
X131971225Y-69814391D01*
X131952438Y-69844544D01*
X131932791Y-69881375D01*
X131928892Y-69889511D01*
X131925356Y-69897940D01*
X131922230Y-69908059D01*
X131919486Y-69921260D01*
X131917092Y-69938938D01*
X131915019Y-69962484D01*
X131913235Y-69993293D01*
X131911712Y-70032757D01*
X131910419Y-70082269D01*
X131909326Y-70143223D01*
X131908403Y-70217011D01*
X131907619Y-70305028D01*
X131906945Y-70408665D01*
X131906350Y-70529316D01*
X131905805Y-70668374D01*
X131905279Y-70827232D01*
X131904745Y-71006089D01*
X131904206Y-71191207D01*
X131903772Y-71355145D01*
X131903509Y-71499303D01*
X131903484Y-71625079D01*
X131903765Y-71733871D01*
X131904419Y-71827077D01*
X131905514Y-71906097D01*
X131907118Y-71972328D01*
X131909297Y-72027170D01*
X131912119Y-72072021D01*
X131915651Y-72108278D01*
X131919961Y-72137341D01*
X131925117Y-72160609D01*
X131931185Y-72179479D01*
X131938233Y-72195351D01*
X131946329Y-72209622D01*
X131955540Y-72223691D01*
X131964040Y-72236158D01*
X131981176Y-72262452D01*
X131991322Y-72280037D01*
X131992511Y-72283257D01*
X131981604Y-72284334D01*
X131950411Y-72285335D01*
X131901223Y-72286235D01*
X131836333Y-72287010D01*
X131758030Y-72287637D01*
X131668607Y-72288091D01*
X131570356Y-72288349D01*
X131501445Y-72288400D01*
X131396452Y-72288180D01*
X131299610Y-72287548D01*
X131213107Y-72286549D01*
X131139132Y-72285227D01*
X131079874Y-72283626D01*
X131037520Y-72281791D01*
X131014260Y-72279765D01*
X131010378Y-72278493D01*
X131018076Y-72263591D01*
X131026074Y-72255560D01*
X131039246Y-72238434D01*
X131056485Y-72208183D01*
X131068407Y-72183622D01*
X131095045Y-72124711D01*
X131098120Y-70947845D01*
X131101195Y-69770978D01*
X131546853Y-69770978D01*
X131644670Y-69771142D01*
X131735064Y-69771611D01*
X131815630Y-69772347D01*
X131883962Y-69773316D01*
X131937656Y-69774480D01*
X131974305Y-69775803D01*
X131991504Y-69777249D01*
X131992511Y-69777702D01*
X133003517Y-69777702D01*
X132988270Y-69758722D01*
X132914090Y-69666537D01*
X132842069Y-69577204D01*
X132773569Y-69492424D01*
X132709955Y-69413898D01*
X132652588Y-69343326D01*
X132602833Y-69282409D01*
X132562052Y-69232847D01*
X132544888Y-69212178D01*
X132458596Y-69111516D01*
X132381997Y-69028259D01*
X132313183Y-68960438D01*
X132250248Y-68906089D01*
X132240867Y-68898722D01*
X132201356Y-68868117D01*
X133333116Y-68867867D01*
X133327827Y-68915844D01*
X133331130Y-68973188D01*
X133352661Y-69041463D01*
X133392635Y-69121212D01*
X133437943Y-69193495D01*
X133454161Y-69216140D01*
X133482214Y-69253696D01*
X133520430Y-69304021D01*
X133567137Y-69364973D01*
X133620661Y-69434411D01*
X133679331Y-69510194D01*
X133741475Y-69590180D01*
X133805421Y-69672228D01*
X133869495Y-69754196D01*
X133932027Y-69833943D01*
X133991343Y-69909327D01*
X134045771Y-69978207D01*
X134093639Y-70038442D01*
X134133275Y-70087889D01*
X134163006Y-70124408D01*
X134181161Y-70145858D01*
X134184220Y-70149156D01*
X134187079Y-70141149D01*
X134189293Y-70110855D01*
X134190857Y-70058556D01*
X134191767Y-69984531D01*
X134192020Y-69889063D01*
X134191613Y-69772434D01*
X134190704Y-69652445D01*
X134189382Y-69520333D01*
X134187857Y-69408594D01*
X134185881Y-69315025D01*
X134183206Y-69237419D01*
X134179582Y-69173574D01*
X134174761Y-69121283D01*
X134168494Y-69078344D01*
X134160532Y-69042551D01*
X134150627Y-69011700D01*
X134138531Y-68983586D01*
X134123993Y-68956005D01*
X134109311Y-68930966D01*
X134071314Y-68867867D01*
X135131197Y-68867867D01*
X135434034Y-68867867D01*
X135434001Y-68861617D01*
X135433195Y-68759544D01*
X135432170Y-68670633D01*
X135430900Y-68593941D01*
X135429360Y-68528527D01*
X135427524Y-68473449D01*
X135425367Y-68427765D01*
X135422863Y-68390534D01*
X135419987Y-68360813D01*
X135416713Y-68337662D01*
X135413015Y-68320139D01*
X135408869Y-68307301D01*
X135404247Y-68298208D01*
X135399126Y-68291918D01*
X135393478Y-68287488D01*
X135387279Y-68283978D01*
X135380504Y-68280445D01*
X135374508Y-68276876D01*
X135369275Y-68274300D01*
X135361099Y-68271972D01*
X135348886Y-68269878D01*
X135331541Y-68268007D01*
X135307969Y-68266347D01*
X135277077Y-68264884D01*
X135237768Y-68263608D01*
X135188950Y-68262504D01*
X135129527Y-68261561D01*
X135058404Y-68260767D01*
X134974488Y-68260109D01*
X134876683Y-68259575D01*
X134763894Y-68259153D01*
X134635029Y-68258829D01*
X134488991Y-68258592D01*
X134324686Y-68258430D01*
X134141020Y-68258330D01*
X133936897Y-68258280D01*
X133725753Y-68258267D01*
X132105400Y-68258267D01*
X132105400Y-68355054D01*
X132105400Y-68355054D01*
G37*
X132105400Y-68355054D02*
X132094535Y-68468993D01*
X132062918Y-68576616D01*
X132012015Y-68675615D01*
X131943293Y-68763684D01*
X131858219Y-68838516D01*
X131761232Y-68896384D01*
X131654964Y-68936005D01*
X131547950Y-68954573D01*
X131442300Y-68953434D01*
X131340125Y-68933930D01*
X131243534Y-68897406D01*
X131154638Y-68845205D01*
X131075546Y-68778673D01*
X131008369Y-68699152D01*
X130955217Y-68607987D01*
X130918199Y-68506523D01*
X130899427Y-68396102D01*
X130897489Y-68346206D01*
X130897489Y-68258267D01*
X130845560Y-68258267D01*
X130809253Y-68261111D01*
X130782355Y-68272911D01*
X130755249Y-68296649D01*
X130716867Y-68335031D01*
X130716867Y-70526602D01*
X130716876Y-70788739D01*
X130716908Y-71029241D01*
X130716972Y-71249048D01*
X130717076Y-71449101D01*
X130717227Y-71630344D01*
X130717434Y-71793716D01*
X130717706Y-71940160D01*
X130718050Y-72070617D01*
X130718474Y-72186029D01*
X130718987Y-72287338D01*
X130719597Y-72375484D01*
X130720312Y-72451410D01*
X130721140Y-72516057D01*
X130722089Y-72570367D01*
X130723167Y-72615280D01*
X130724383Y-72651740D01*
X130725745Y-72680687D01*
X130727261Y-72703063D01*
X130728938Y-72719809D01*
X130730786Y-72731868D01*
X130732813Y-72740180D01*
X130735025Y-72745687D01*
X130736108Y-72747537D01*
X130740271Y-72754549D01*
X130743805Y-72760996D01*
X130747635Y-72766900D01*
X130752682Y-72772286D01*
X130759871Y-72777178D01*
X130770123Y-72781598D01*
X130784364Y-72785572D01*
X130803514Y-72789121D01*
X130828499Y-72792270D01*
X130860240Y-72795042D01*
X130899662Y-72797461D01*
X130947686Y-72799551D01*
X131005237Y-72801335D01*
X131073237Y-72802837D01*
X131152610Y-72804080D01*
X131244279Y-72805089D01*
X131349166Y-72805885D01*
X131468196Y-72806494D01*
X131602290Y-72806939D01*
X131752373Y-72807243D01*
X131919367Y-72807430D01*
X132104196Y-72807524D01*
X132307783Y-72807548D01*
X132531050Y-72807525D01*
X132774922Y-72807480D01*
X133040321Y-72807437D01*
X133078704Y-72807432D01*
X133345682Y-72807389D01*
X133591002Y-72807318D01*
X133815583Y-72807213D01*
X134020345Y-72807066D01*
X134206206Y-72806869D01*
X134374088Y-72806616D01*
X134524908Y-72806300D01*
X134659587Y-72805913D01*
X134779044Y-72805447D01*
X134884199Y-72804897D01*
X134975971Y-72804253D01*
X135055279Y-72803511D01*
X135123043Y-72802661D01*
X135180182Y-72801697D01*
X135227617Y-72800611D01*
X135266266Y-72799397D01*
X135297049Y-72798047D01*
X135320885Y-72796555D01*
X135338694Y-72794911D01*
X135351395Y-72793111D01*
X135359908Y-72791145D01*
X135364266Y-72789477D01*
X135372728Y-72785906D01*
X135380497Y-72783270D01*
X135387602Y-72780634D01*
X135394073Y-72777062D01*
X135399939Y-72771621D01*
X135405229Y-72763375D01*
X135409974Y-72751390D01*
X135414202Y-72734731D01*
X135417943Y-72712463D01*
X135421227Y-72683652D01*
X135424083Y-72647363D01*
X135426540Y-72602661D01*
X135428629Y-72548611D01*
X135430378Y-72484279D01*
X135431817Y-72408730D01*
X135432976Y-72321030D01*
X135433883Y-72220243D01*
X135434569Y-72105434D01*
X135435063Y-71975670D01*
X135435395Y-71830015D01*
X135435593Y-71667535D01*
X135435687Y-71487295D01*
X135435708Y-71288360D01*
X135435685Y-71069796D01*
X135435646Y-70830668D01*
X135435622Y-70570040D01*
X135435622Y-70527889D01*
X135435636Y-70264992D01*
X135435661Y-70023732D01*
X135435671Y-69803165D01*
X135435642Y-69602352D01*
X135435548Y-69420349D01*
X135435362Y-69256216D01*
X135435059Y-69109011D01*
X135434614Y-68977792D01*
X135434034Y-68867867D01*
X135131197Y-68867867D01*
X135091407Y-68925711D01*
X135080236Y-68941479D01*
X135070166Y-68955441D01*
X135061138Y-68968784D01*
X135053097Y-68982693D01*
X135045986Y-68998356D01*
X135039747Y-69016958D01*
X135034325Y-69039686D01*
X135029662Y-69067727D01*
X135025701Y-69102267D01*
X135022385Y-69144492D01*
X135019659Y-69195589D01*
X135017464Y-69256744D01*
X135015745Y-69329144D01*
X135014444Y-69413975D01*
X135013505Y-69512422D01*
X135012870Y-69625674D01*
X135012484Y-69754916D01*
X135012288Y-69901334D01*
X135012227Y-70066116D01*
X135012243Y-70250447D01*
X135012280Y-70455513D01*
X135012289Y-70578133D01*
X135012265Y-70795082D01*
X135012231Y-70990642D01*
X135012243Y-71165999D01*
X135012358Y-71322341D01*
X135012630Y-71460857D01*
X135013118Y-71582734D01*
X135013876Y-71689160D01*
X135014962Y-71781322D01*
X135016431Y-71860409D01*
X135018340Y-71927608D01*
X135020744Y-71984107D01*
X135023701Y-72031093D01*
X135027266Y-72069755D01*
X135031495Y-72101280D01*
X135036446Y-72126855D01*
X135042173Y-72147670D01*
X135048733Y-72164911D01*
X135056183Y-72179765D01*
X135064579Y-72193422D01*
X135073976Y-72207069D01*
X135084432Y-72221893D01*
X135090523Y-72230783D01*
X135129296Y-72288400D01*
X134597732Y-72288400D01*
X134474483Y-72288365D01*
X134371987Y-72288215D01*
X134288420Y-72287878D01*
X134221956Y-72287286D01*
X134170771Y-72286367D01*
X134133041Y-72285051D01*
X134106940Y-72283269D01*
X134090644Y-72280951D01*
X134082328Y-72278026D01*
X134080168Y-72274424D01*
X134082339Y-72270075D01*
X134083535Y-72268645D01*
X134108685Y-72231573D01*
X134134583Y-72178772D01*
X134158192Y-72116770D01*
X134166461Y-72090357D01*
X134171078Y-72072416D01*
X134174979Y-72051355D01*
X134178248Y-72025089D01*
X134180966Y-71991532D01*
X134183215Y-71948599D01*
X134185077Y-71894204D01*
X134186636Y-71826262D01*
X134187972Y-71742688D01*
X134189169Y-71641395D01*
X134190308Y-71520300D01*
X134190685Y-71475600D01*
X134191702Y-71350449D01*
X134192460Y-71246082D01*
X134192903Y-71160707D01*
X134192970Y-71092533D01*
X134192605Y-71039765D01*
X134191748Y-71000614D01*
X134190341Y-70973285D01*
X134188325Y-70955986D01*
X134185643Y-70946926D01*
X134182236Y-70944312D01*
X134178044Y-70946351D01*
X134173571Y-70950667D01*
X134163216Y-70963602D01*
X134141158Y-70992676D01*
X134108957Y-71035759D01*
X134068174Y-71090718D01*
X134020370Y-71155423D01*
X133967105Y-71227742D01*
X133909940Y-71305544D01*
X133850437Y-71386698D01*
X133790155Y-71469072D01*
X133730655Y-71550536D01*
X133673498Y-71628957D01*
X133620245Y-71702204D01*
X133572457Y-71768147D01*
X133531693Y-71824654D01*
X133499516Y-71869593D01*
X133477485Y-71900834D01*
X133472917Y-71907466D01*
X133449996Y-71944369D01*
X133423188Y-71992359D01*
X133397789Y-72041897D01*
X133394568Y-72048577D01*
X133372890Y-72096772D01*
X133360304Y-72134334D01*
X133354574Y-72170160D01*
X133353456Y-72212200D01*
X133354090Y-72288400D01*
X132199651Y-72288400D01*
X132290815Y-72194669D01*
X132337612Y-72144775D01*
X132387899Y-72088295D01*
X132433944Y-72034026D01*
X132454369Y-72008673D01*
X132484807Y-71969128D01*
X132524862Y-71915916D01*
X132573361Y-71850667D01*
X132629135Y-71775011D01*
X132691011Y-71690577D01*
X132757819Y-71598994D01*
X132828387Y-71501892D01*
X132901545Y-71400901D01*
X132976121Y-71297650D01*
X133050944Y-71193768D01*
X133124843Y-71090885D01*
X133196646Y-70990631D01*
X133265184Y-70894636D01*
X133329284Y-70804527D01*
X133387775Y-70721936D01*
X133439486Y-70648492D01*
X133483247Y-70585824D01*
X133517885Y-70535561D01*
X133542230Y-70499334D01*
X133555111Y-70478771D01*
X133556869Y-70474668D01*
X133548910Y-70463342D01*
X133528115Y-70436162D01*
X133495847Y-70394829D01*
X133453470Y-70341044D01*
X133402347Y-70276506D01*
X133343841Y-70202918D01*
X133279314Y-70121978D01*
X133210131Y-70035388D01*
X133137653Y-69944848D01*
X133063246Y-69852060D01*
X133003517Y-69777702D01*
X131992511Y-69777702D01*
X131986602Y-69790659D01*
X131972272Y-69812908D01*
X131971225Y-69814391D01*
X131952438Y-69844544D01*
X131932791Y-69881375D01*
X131928892Y-69889511D01*
X131925356Y-69897940D01*
X131922230Y-69908059D01*
X131919486Y-69921260D01*
X131917092Y-69938938D01*
X131915019Y-69962484D01*
X131913235Y-69993293D01*
X131911712Y-70032757D01*
X131910419Y-70082269D01*
X131909326Y-70143223D01*
X131908403Y-70217011D01*
X131907619Y-70305028D01*
X131906945Y-70408665D01*
X131906350Y-70529316D01*
X131905805Y-70668374D01*
X131905279Y-70827232D01*
X131904745Y-71006089D01*
X131904206Y-71191207D01*
X131903772Y-71355145D01*
X131903509Y-71499303D01*
X131903484Y-71625079D01*
X131903765Y-71733871D01*
X131904419Y-71827077D01*
X131905514Y-71906097D01*
X131907118Y-71972328D01*
X131909297Y-72027170D01*
X131912119Y-72072021D01*
X131915651Y-72108278D01*
X131919961Y-72137341D01*
X131925117Y-72160609D01*
X131931185Y-72179479D01*
X131938233Y-72195351D01*
X131946329Y-72209622D01*
X131955540Y-72223691D01*
X131964040Y-72236158D01*
X131981176Y-72262452D01*
X131991322Y-72280037D01*
X131992511Y-72283257D01*
X131981604Y-72284334D01*
X131950411Y-72285335D01*
X131901223Y-72286235D01*
X131836333Y-72287010D01*
X131758030Y-72287637D01*
X131668607Y-72288091D01*
X131570356Y-72288349D01*
X131501445Y-72288400D01*
X131396452Y-72288180D01*
X131299610Y-72287548D01*
X131213107Y-72286549D01*
X131139132Y-72285227D01*
X131079874Y-72283626D01*
X131037520Y-72281791D01*
X131014260Y-72279765D01*
X131010378Y-72278493D01*
X131018076Y-72263591D01*
X131026074Y-72255560D01*
X131039246Y-72238434D01*
X131056485Y-72208183D01*
X131068407Y-72183622D01*
X131095045Y-72124711D01*
X131098120Y-70947845D01*
X131101195Y-69770978D01*
X131546853Y-69770978D01*
X131644670Y-69771142D01*
X131735064Y-69771611D01*
X131815630Y-69772347D01*
X131883962Y-69773316D01*
X131937656Y-69774480D01*
X131974305Y-69775803D01*
X131991504Y-69777249D01*
X131992511Y-69777702D01*
X133003517Y-69777702D01*
X132988270Y-69758722D01*
X132914090Y-69666537D01*
X132842069Y-69577204D01*
X132773569Y-69492424D01*
X132709955Y-69413898D01*
X132652588Y-69343326D01*
X132602833Y-69282409D01*
X132562052Y-69232847D01*
X132544888Y-69212178D01*
X132458596Y-69111516D01*
X132381997Y-69028259D01*
X132313183Y-68960438D01*
X132250248Y-68906089D01*
X132240867Y-68898722D01*
X132201356Y-68868117D01*
X133333116Y-68867867D01*
X133327827Y-68915844D01*
X133331130Y-68973188D01*
X133352661Y-69041463D01*
X133392635Y-69121212D01*
X133437943Y-69193495D01*
X133454161Y-69216140D01*
X133482214Y-69253696D01*
X133520430Y-69304021D01*
X133567137Y-69364973D01*
X133620661Y-69434411D01*
X133679331Y-69510194D01*
X133741475Y-69590180D01*
X133805421Y-69672228D01*
X133869495Y-69754196D01*
X133932027Y-69833943D01*
X133991343Y-69909327D01*
X134045771Y-69978207D01*
X134093639Y-70038442D01*
X134133275Y-70087889D01*
X134163006Y-70124408D01*
X134181161Y-70145858D01*
X134184220Y-70149156D01*
X134187079Y-70141149D01*
X134189293Y-70110855D01*
X134190857Y-70058556D01*
X134191767Y-69984531D01*
X134192020Y-69889063D01*
X134191613Y-69772434D01*
X134190704Y-69652445D01*
X134189382Y-69520333D01*
X134187857Y-69408594D01*
X134185881Y-69315025D01*
X134183206Y-69237419D01*
X134179582Y-69173574D01*
X134174761Y-69121283D01*
X134168494Y-69078344D01*
X134160532Y-69042551D01*
X134150627Y-69011700D01*
X134138531Y-68983586D01*
X134123993Y-68956005D01*
X134109311Y-68930966D01*
X134071314Y-68867867D01*
X135131197Y-68867867D01*
X135434034Y-68867867D01*
X135434001Y-68861617D01*
X135433195Y-68759544D01*
X135432170Y-68670633D01*
X135430900Y-68593941D01*
X135429360Y-68528527D01*
X135427524Y-68473449D01*
X135425367Y-68427765D01*
X135422863Y-68390534D01*
X135419987Y-68360813D01*
X135416713Y-68337662D01*
X135413015Y-68320139D01*
X135408869Y-68307301D01*
X135404247Y-68298208D01*
X135399126Y-68291918D01*
X135393478Y-68287488D01*
X135387279Y-68283978D01*
X135380504Y-68280445D01*
X135374508Y-68276876D01*
X135369275Y-68274300D01*
X135361099Y-68271972D01*
X135348886Y-68269878D01*
X135331541Y-68268007D01*
X135307969Y-68266347D01*
X135277077Y-68264884D01*
X135237768Y-68263608D01*
X135188950Y-68262504D01*
X135129527Y-68261561D01*
X135058404Y-68260767D01*
X134974488Y-68260109D01*
X134876683Y-68259575D01*
X134763894Y-68259153D01*
X134635029Y-68258829D01*
X134488991Y-68258592D01*
X134324686Y-68258430D01*
X134141020Y-68258330D01*
X133936897Y-68258280D01*
X133725753Y-68258267D01*
X132105400Y-68258267D01*
X132105400Y-68355054D01*
D12*
X190143001Y-75709001D02*
X190143001Y-108479001D01*
X190143001Y-108479001D02*
X187603001Y-111019001D01*
X187603001Y-111019001D02*
X187603001Y-113689001D01*
X187603001Y-113689001D02*
X121303001Y-113689001D01*
X121303001Y-113689001D02*
X121303001Y-110509001D01*
X121303001Y-110509001D02*
X119403001Y-110509001D01*
X119403001Y-110509001D02*
X119403001Y-101369001D01*
X119403001Y-101369001D02*
X121303001Y-101369001D01*
X121303001Y-101369001D02*
X121303001Y-81299001D01*
X121303001Y-81299001D02*
X114953001Y-81299001D01*
X114953001Y-81299001D02*
X114953001Y-69619001D01*
X114953001Y-69619001D02*
X121303001Y-69619001D01*
X121303001Y-69619001D02*
X121303001Y-60089001D01*
X121303001Y-60089001D02*
X185953001Y-60089001D01*
X185953001Y-60089001D02*
X187603001Y-61739001D01*
X187603001Y-61739001D02*
X187603001Y-73169001D01*
X187603001Y-73169001D02*
X190143001Y-75709001D01*
M02*
