<?xml version="1.0" encoding="utf-8"?>
<!-- Generator: Fusion 360, Shaper Origin Export Add-In, Version 1.4.1  -->
<svg enable-background="new 0 0 6.9686533 3.4" height="3.4cm" shaper:fusionaddin="version:1.4.1" version="1.1" viewBox="0 0 6.9686533 3.4" width="6.9686533cm" x="0cm" xml:space="preserve" xmlns="http://www.w3.org/2000/svg" xmlns:shaper="http://www.shapertools.com/namespaces/shaper" xmlns:xlink="http://www.w3.org/1999/xlink" y="0cm"><path d="M-3.0214365,2.15 A0.4,0.4 330 0,0 -3.3678467,1.95 L-4.2178467,1.95 -4.2178467,1.45 -2.8503947,1.45 A0.1,0.1 270 0,1 -2.7521908,1.5311321 A1.225,1.225 169.1242835 1,0 -2.7521908,1.0688679 A0.1,0.1 10.8757165 0,1 -2.8503947,1.15 L-4.2178467,1.15 -4.2178467,0.65 -3.3678467,0.65 A0.4,0.4 90 0,0 -3.0214365,0.45 A1.7,1.7 210 0,1 -0.7261844,-0.1875 A1.5,1.5 118.9550244 0,0 -0,0 L2.1508067,0 A0.6,0.6 270 0,1 2.1508067,1.2 L1.3283056,1.2 A1.5,1.5 270 0,0 -0.020522,2.04375 A1.7,1.7 25.9444798 0,1 -3.0214365,2.15z" fill="rgb(0,0,0)" shaper:cutDepth="0.007" shaper:pathType="exterior" transform="matrix(1,0,0,-1,4.2178467,3)" vector-effect="non-scaling-stroke" /><path d="M2.1508067,0.46 A0.14,0.14 270 0,1 2.1508067,0.74 L0.1508067,0.74 A0.14,0.14 90 0,1 0.1508067,0.46 L2.1508067,0.46z" fill="rgb(255,255,255)" shaper:cutDepth="0.007" shaper:pathType="interior" stroke="rgb(0,0,0)" stroke-width="2" transform="matrix(1,0,0,-1,4.2178467,3)" vector-effect="non-scaling-stroke" /></svg>